<svg width="30" height="30" viewBox="0 0 30 30" fill="none" xmlns="http://www.w3.org/2000/svg">
<mask id="mask0_111_463" style="mask-type:luminance" maskUnits="userSpaceOnUse" x="0" y="0" width="30" height="30">
<path fill-rule="evenodd" clip-rule="evenodd" d="M0 0H30V30H0V0Z" fill="white"/>
</mask>
<g mask="url(#mask0_111_463)">
<path d="M27.85 22.3553L26.7926 21.8267C25.618 21.2393 24.5519 20.4706 23.6231 19.5423L23.2802 19.1994L22.9373 19.5423C22.171 20.3081 21.3072 20.958 20.3702 21.4945V17.0004C20.9551 16.5717 21.3402 15.8849 21.3402 15.1055V14.7786C21.3402 13.3609 20.6006 12.0839 19.4002 11.3642V1.45502C19.4002 0.652817 18.7474 0 17.9452 0H2.42502C1.62283 0 0.97001 0.652817 0.97001 1.45502V14.9401C0.398674 15.1438 0 15.6889 0 16.3073V28.1303C0 29.2002 0.870099 30.0703 1.94002 30.0703H20.8552V30.0669C20.8756 30.0669 20.8955 30.0703 20.9158 30.0703H25.6446C26.394 30.0703 27.1438 29.8933 27.8141 29.5581L27.85 29.5402C29.2196 28.8554 30.0703 27.4789 30.0703 25.9478C30.0703 24.4166 29.2196 23.0402 27.85 22.3553ZM20.3702 14.7791V15.106C20.3702 15.8694 19.7494 16.4902 18.986 16.4902C18.6979 16.4902 18.4089 16.4218 18.1499 16.2928L17.4602 15.9479L17.2434 16.0566C16.6754 16.3398 16.0396 16.4902 15.4057 16.4902H15.1501C14.5157 16.4902 13.8804 16.3398 13.3124 16.0561L13.0951 15.9479L12.8783 16.0566C12.3104 16.3398 11.6746 16.4902 11.0407 16.4902H10.7851C10.1507 16.4902 9.51531 16.3398 8.94737 16.0561L8.73009 15.9479L8.22811 16.1992C7.27023 16.6774 6.05092 16.5362 5.22836 15.8509L4.43004 15.1855L18.8429 12.1513C19.7892 12.6882 20.3702 13.681 20.3702 14.7791ZM12.6101 6.79007V11.6401H7.76008V6.79007H12.6101ZM7.76008 5.82006V0.970007H12.6101V5.82006H7.76008ZM18.4302 11.2463L16.5605 11.6401H13.5801V6.79007H18.4302V11.2463ZM11.9534 12.6101L7.76008 13.4928V12.6101H11.9534ZM6.79007 11.6401H1.94002V6.79007H6.79007V11.6401ZM6.79007 12.6101V13.6975L1.94002 14.7184V12.6101H6.79007ZM18.4302 1.45501V5.82006H13.5801V0.970007H17.9452C18.2129 0.970007 18.4302 1.18729 18.4302 1.45501ZM2.42502 0.970007H6.79007V5.82006H1.94002V1.45501C1.94002 1.18729 2.1573 0.970007 2.42502 0.970007ZM0.97001 28.1303V16.3073C0.97001 16.0789 1.132 15.8795 1.3551 15.8325L3.22043 15.4396L4.60755 16.5959C5.71869 17.5208 7.36626 17.7134 8.66171 17.0664L8.73688 17.029C9.38048 17.3113 10.0828 17.4602 10.7846 17.4602H11.0402C11.7444 17.4602 12.4496 17.3103 13.0947 17.0256C13.7402 17.3103 14.4454 17.4602 15.1496 17.4602H15.4052C16.107 17.4602 16.8098 17.3113 17.4529 17.029L17.7163 17.1604C18.1091 17.3564 18.548 17.4602 18.986 17.4602C19.1281 17.4602 19.2654 17.4422 19.4002 17.4185V22.0105L18.7105 22.3553C17.3409 23.0402 16.4902 24.4166 16.4902 25.9478C16.4902 27.1981 17.0649 28.3388 18.0383 29.1003H1.94002C1.40506 29.1003 0.97001 28.6653 0.97001 28.1303ZM27.4159 28.6725L27.38 28.6905C26.8441 28.9587 26.2436 29.1003 25.6446 29.1003H20.9158C20.3169 29.1003 19.7164 28.9587 19.1446 28.6725C18.1057 28.1531 17.4602 27.1094 17.4602 25.9478C17.4602 24.7862 18.1057 23.7424 19.1446 23.223L20.2019 22.6944C21.3276 22.1313 22.3612 21.4139 23.2807 20.5594C24.2003 21.4144 25.2334 22.1313 26.3595 22.6944L27.4168 23.223C28.4548 23.7424 29.1003 24.7862 29.1003 25.9478C29.1003 27.1094 28.4548 28.1531 27.4159 28.6725Z" fill="white"/>
<path d="M22.7969 24.2502H23.7669V28.1303H22.7969V24.2502Z" fill="white"/>
<path d="M22.3594 22.0934C22.0834 22.6458 21.6581 23.1051 21.1289 23.4223L20.7026 23.6779C19.898 24.1605 19.3984 25.0437 19.3984 25.9817C19.3984 26.8818 19.8456 27.718 20.5949 28.2171L21.0698 28.5333L21.6076 27.7262L21.1328 27.41C20.6541 27.0909 20.3684 26.5574 20.3684 25.9817C20.3684 25.3822 20.6876 24.8181 21.2022 24.5097L21.6285 24.2541C22.3157 23.8418 22.8686 23.2448 23.2276 22.527L22.3594 22.0934Z" fill="white"/>
<path d="M25.8565 23.6779L25.4302 23.4223C24.901 23.1051 24.4757 22.6453 24.1997 22.0934L23.332 22.5275C23.6909 23.2448 24.2438 23.8423 24.9311 24.2546L25.3574 24.5102C25.8715 24.8181 26.1907 25.3822 26.1907 25.9817C26.1907 26.5574 25.905 27.0909 25.4263 27.41L24.9515 27.7262L25.4893 28.5333L25.9642 28.2171C26.7135 27.718 27.1607 26.8823 27.1607 25.9817C27.1607 25.0437 26.6611 24.1605 25.8565 23.6779Z" fill="white"/>
<path d="M12.4608 18.4302C11.8288 18.4302 11.2168 18.6154 10.691 18.9656L10.1866 19.3022L9.68221 18.9661C9.15647 18.6154 8.54391 18.4302 7.91243 18.4302C7.06028 18.4302 6.25905 18.7624 5.65667 19.3648C5.13723 19.8833 4.85156 20.5734 4.85156 21.3072V21.493C4.85156 22.4688 5.28855 23.3782 6.05049 23.9883L10.1866 27.2961L14.3227 23.9874C15.0847 23.3777 15.5217 22.4683 15.5217 21.4925V21.3067C15.5217 20.5729 15.236 19.8828 14.717 19.3643C14.1147 18.7624 13.313 18.4302 12.4608 18.4302ZM14.5517 21.4925C14.5517 22.172 14.2471 22.8054 13.7165 23.2298L10.1866 26.0545L6.65675 23.2308C6.12616 22.8054 5.82157 22.1725 5.82157 21.4925V21.3067C5.82157 20.8319 6.00636 20.3862 6.34198 20.0501C6.76151 19.6315 7.31927 19.4002 7.91243 19.4002C8.35233 19.4002 8.77816 19.5292 9.14434 19.7732L10.1866 20.4682L11.2289 19.7727C11.5951 19.5292 12.0209 19.4002 12.4608 19.4002C13.054 19.4002 13.6112 19.6315 14.0308 20.0506C14.3669 20.3862 14.5517 20.8324 14.5517 21.3072L14.5517 21.4925Z" fill="white"/>
<path d="M3.88017 4.85009H4.85018C5.38514 4.85009 5.82019 4.41504 5.82019 3.88008V2.91007C5.82019 2.37511 5.38514 1.94006 4.85018 1.94006H3.88017C3.34521 1.94006 2.91016 2.37511 2.91016 2.91007V3.88008C2.91016 4.41504 3.34521 4.85009 3.88017 4.85009ZM3.88017 2.91007H4.85018L4.85115 3.88008H3.88017V2.91007Z" fill="white"/>
<path d="M10.6705 1.94006H9.70048C9.16552 1.94006 8.73047 2.37511 8.73047 2.91007V3.88008C8.73047 4.41504 9.16552 4.85009 9.70048 4.85009H10.6705C11.2054 4.85009 11.6405 4.41504 11.6405 3.88008V2.91007C11.6405 2.37511 11.2054 1.94006 10.6705 1.94006ZM9.70048 3.88008V2.91007H10.6705L10.6715 3.88008H9.70048Z" fill="white"/>
<path d="M15.5208 4.85009H16.4908C17.0258 4.85009 17.4608 4.41504 17.4608 3.88008V2.91007C17.4608 2.37511 17.0258 1.94006 16.4908 1.94006H15.5208C14.9858 1.94006 14.5508 2.37511 14.5508 2.91007V3.88008C14.5508 4.41504 14.9858 4.85009 15.5208 4.85009ZM15.5208 2.91007H16.4908L16.4918 3.88008H15.5208L15.5208 2.91007Z" fill="white"/>
<path d="M3.88017 10.6702H4.85018C5.38514 10.6702 5.82019 10.2351 5.82019 9.70015V8.73014C5.82019 8.19518 5.38514 7.76013 4.85018 7.76013H3.88017C3.34521 7.76013 2.91016 8.19518 2.91016 8.73014V9.70015C2.91016 10.2351 3.34521 10.6702 3.88017 10.6702ZM3.88017 8.73014H4.85018L4.85115 9.70015H3.88017V8.73014Z" fill="white"/>
<path d="M9.70048 10.6702H10.6705C11.2054 10.6702 11.6405 10.2351 11.6405 9.70015V8.73014C11.6405 8.19518 11.2054 7.76013 10.6705 7.76013H9.70048C9.16552 7.76013 8.73047 8.19518 8.73047 8.73014V9.70015C8.73047 10.2351 9.16552 10.6702 9.70048 10.6702ZM9.70048 8.73014H10.6705L10.6715 9.70015H9.70048V8.73014Z" fill="white"/>
<path d="M15.5208 10.6702H16.4908C17.0258 10.6702 17.4608 10.2351 17.4608 9.70015V8.73014C17.4608 8.19518 17.0258 7.76013 16.4908 7.76013H15.5208C14.9858 7.76013 14.5508 8.19518 14.5508 8.73014V9.70015C14.5508 10.2351 14.9858 10.6702 15.5208 10.6702ZM15.5208 8.73014H16.4908L16.4918 9.70015H15.5208L15.5208 8.73014Z" fill="white"/>
</g>
</svg>
