<svg width="23" height="32" viewBox="0 0 23 32" fill="none" xmlns="http://www.w3.org/2000/svg">
<mask id="mask0_111_197" style="mask-type:luminance" maskUnits="userSpaceOnUse" x="0" y="0" width="23" height="32">
<path fill-rule="evenodd" clip-rule="evenodd" d="M0 0H22.5V31.5H0V0Z" fill="white"/>
</mask>
<g mask="url(#mask0_111_197)">
<path d="M22.1584 1.92329C22.2159 1.8022 22.2253 1.66382 22.1848 1.53606C22.1442 1.4083 22.0567 1.30066 21.94 1.23486L19.872 0.0671814C19.8088 0.0318906 19.739 0.00993529 19.667 0.00267198C19.595 -0.00459133 19.5223 0.00299171 19.4532 0.0249526C19.3842 0.0469135 19.3205 0.0827856 19.266 0.130353C19.2113 0.177921 19.1671 0.236174 19.1359 0.301512L16.7053 5.41376C15.1115 4.39545 13.1888 4.02476 11.3306 4.37756C9.47252 4.73036 7.81943 5.77997 6.7098 7.31158C6.06111 7.02184 5.35584 6.88078 4.6456 6.89872C3.93536 6.91666 3.23812 7.0932 2.6049 7.41537C1.97167 7.73748 1.41847 8.19714 0.985797 8.76066C0.553116 9.32417 0.251892 9.97732 0.104167 10.6722C-0.0435597 11.3672 -0.0340507 12.0864 0.131997 12.7772C0.298045 13.4679 0.61643 14.1129 1.06386 14.6647C1.51129 15.2166 2.07643 15.6615 2.71796 15.9668C3.35948 16.2721 4.06114 16.4301 4.77161 16.4293C5.02703 16.429 5.28202 16.4084 5.53417 16.3677L5.74799 18.7183V18.7223L6.88985 31.3047C6.90177 31.4366 6.9628 31.5594 7.06083 31.6487C7.15887 31.7379 7.28682 31.7871 7.41941 31.7866H18.0106C18.1432 31.7871 18.2712 31.7379 18.3692 31.6487C18.4672 31.5594 18.5283 31.4366 18.5402 31.3047L19.6761 18.8083L20.0832 14.3111H20.6584C20.7989 14.3111 20.9336 14.2552 21.0329 14.156C21.1322 14.0566 21.188 13.922 21.188 13.7815V11.6632C21.188 11.5228 21.1322 11.3881 21.0329 11.2888C20.9336 11.1895 20.7989 11.1337 20.6584 11.1337H20.1097C20.0347 10.0729 19.7317 9.04086 19.2213 8.10791L22.1584 1.92329ZM19.8462 1.27061L20.9894 1.91469L16.6113 11.1337H15.1642L17.3924 6.44177V6.43846L19.8462 1.27061ZM12.715 5.30851C13.9729 5.3045 15.203 5.67782 16.2465 6.38021L13.9886 11.1337H9.50721C9.43485 10.4876 9.23097 9.86307 8.90814 9.29876C8.58524 8.73444 8.15027 8.24222 7.62991 7.85239C8.21991 7.06063 8.98718 6.41809 9.87022 5.97633C10.7533 5.53456 11.7276 5.30584 12.715 5.30851ZM5.30117 15.3318V12.9415L6.99047 14.6308C6.49524 15.0027 5.91424 15.2438 5.30117 15.3318ZM1.10308 12.1928H3.3087L1.61543 13.6041C1.34926 13.174 1.17483 12.6935 1.10308 12.1928ZM7.73913 13.8821L6.04983 12.1928H8.44014C8.35217 12.8058 8.11108 13.3869 7.73913 13.8821ZM6.23452 11.1337L7.92779 9.72241C8.19396 10.1525 8.36838 10.633 8.44014 11.1337H6.23452ZM7.24929 8.90887L5.56595 10.3149L5.5547 10.3241L5.30117 10.5326V7.99471C6.02689 8.0993 6.70503 8.41757 7.24929 8.90887ZM4.24205 10.385L2.55275 8.69572C3.04798 8.32377 3.62898 8.08269 4.24205 7.99471V10.385ZM4.24205 12.7939V15.3318C3.51634 15.2272 2.83817 14.9089 2.29393 14.4176L4.24205 12.7939ZM1.80408 9.44439L3.49338 11.1337H1.10308C1.19105 10.5206 1.43214 9.93959 1.80408 9.44439ZM8.73206 14.3111H12.4794L10.8099 17.826C10.2973 17.5806 9.74094 17.44 9.17332 17.4122C8.60569 17.3845 8.0382 17.4703 7.50414 17.6645L6.74091 17.9419L6.57145 16.0751C7.45079 15.7145 8.2029 15.1004 8.73206 14.3111ZM12.9798 18.7799C12.5372 18.7341 12.1089 18.5968 11.7221 18.3768L13.6523 14.3111H15.102L12.9798 18.7799ZM13.7741 30.7274V28.6092H15.8924V30.7274H13.7741ZM16.9515 30.7274V28.0796C16.9515 27.9392 16.8957 27.8045 16.7964 27.7052C16.6971 27.6059 16.5624 27.5501 16.4219 27.5501H13.2446C13.1041 27.5501 12.9694 27.6059 12.8701 27.7052C12.7708 27.8045 12.715 27.9392 12.715 28.0796V30.7274H7.9033L7.63852 27.8473L9.03192 29.2407C9.08111 29.2899 9.13949 29.329 9.20383 29.3556C9.26811 29.3823 9.33702 29.396 9.40659 29.396C9.47616 29.396 9.54507 29.3823 9.60941 29.3556C9.67369 29.329 9.73207 29.2899 9.78125 29.2407L12.0279 26.994C12.0772 26.9448 12.1162 26.8865 12.1429 26.8221C12.1695 26.7578 12.1832 26.6889 12.1832 26.6194C12.1832 26.5498 12.1695 26.4809 12.1429 26.4165C12.1162 26.3523 12.0772 26.2939 12.0279 26.2447L9.78125 23.998C9.73207 23.9488 9.67369 23.9097 9.60941 23.8831C9.54507 23.8564 9.47616 23.8427 9.40659 23.8427C9.33702 23.8427 9.26811 23.8564 9.20383 23.8831C9.13949 23.9097 9.08111 23.9488 9.03192 23.998L7.43397 25.5967L6.83822 19.0327L7.86424 18.6594C8.35462 18.4809 8.88113 18.4247 9.39818 18.4954C9.91523 18.5661 10.4073 18.7616 10.8318 19.0652C11.5328 19.5636 12.368 19.8389 13.228 19.8549C13.2525 19.8589 13.2773 19.8608 13.3022 19.8608C13.3277 19.8607 13.3531 19.859 13.3783 19.8556C14.2008 19.8454 15.0031 19.5981 15.6885 19.1433L17.4096 17.9941C17.5318 17.9126 17.6745 17.8673 17.8214 17.8635C17.9682 17.8596 18.1131 17.8974 18.2394 17.9724C18.3656 18.0475 18.4681 18.1567 18.535 18.2875C18.6017 18.4184 18.6302 18.5654 18.617 18.7117L17.5267 30.7274H16.9515ZM7.91124 26.6194L9.40924 25.1214L10.9072 26.6194L9.40924 28.1174L7.91124 26.6194ZM18.7672 17.0555C18.4698 16.8827 18.13 16.7965 17.7863 16.8067C17.4425 16.8169 17.1084 16.923 16.8218 17.1131L15.1007 18.2622C14.8243 18.446 14.5211 18.5856 14.2018 18.676L16.275 14.3111H19.0194L18.7672 17.0555ZM20.1289 13.2519H9.26427C9.38594 12.9094 9.46742 12.554 9.50721 12.1928H20.1289V13.2519ZM19.0479 11.1337H17.7842L18.6329 9.34642C18.8573 9.91887 18.9971 10.5209 19.0479 11.1337Z" fill="white"/>
<path d="M14.9608 20.6658H11.7835C11.643 20.6658 11.5083 20.7216 11.409 20.8209C11.3097 20.9202 11.2539 21.0549 11.2539 21.1953V24.3727C11.2539 24.5132 11.3097 24.6479 11.409 24.7472C11.5083 24.8465 11.643 24.9023 11.7835 24.9023H14.9608C15.1013 24.9023 15.236 24.8465 15.3353 24.7472C15.4346 24.6479 15.4904 24.5132 15.4904 24.3727V21.1953C15.4904 21.0549 15.4346 20.9202 15.3353 20.8209C15.236 20.7216 15.1013 20.6658 14.9608 20.6658ZM14.4313 23.8431H12.313V21.7249H14.4313V23.8431Z" fill="white"/>
</g>
</svg>
