<svg width="528" height="169" viewBox="0 0 528 169" fill="none" xmlns="http://www.w3.org/2000/svg">
<path d="M406.716 1.43963C406.723 1.40664 406.726 1.37665 406.729 1.34366C406.732 1.30767 406.738 1.27167 406.738 1.23568C406.738 1.20269 406.735 1.1727 406.735 1.13971C406.732 1.10372 406.732 1.06473 406.726 1.02874C406.723 0.998746 406.713 0.968754 406.707 0.93876C406.698 0.899771 406.689 0.860782 406.677 0.824788C406.674 0.812791 406.671 0.800794 406.668 0.785799C406.661 0.767804 406.652 0.755807 406.646 0.737811C406.631 0.70182 406.613 0.66583 406.594 0.629839C406.579 0.602846 406.564 0.575855 406.545 0.548859C406.524 0.518867 406.503 0.488875 406.481 0.458881C406.46 0.431888 406.439 0.407895 406.417 0.383901C406.393 0.359907 406.368 0.335914 406.341 0.31192C406.313 0.287926 406.286 0.263932 406.258 0.242937C406.249 0.233939 406.24 0.224941 406.228 0.218943C406.209 0.206946 406.191 0.197948 406.173 0.185951C406.142 0.167956 406.112 0.149961 406.081 0.134965C406.048 0.11697 406.014 0.104973 405.98 0.0899763C405.95 0.0779794 405.919 0.0659823 405.889 0.0569848C405.852 0.044988 405.815 0.0389897 405.776 0.0299919C405.745 0.0239938 405.715 0.0179949 405.684 0.0119969C405.644 0.00599806 405.602 0.00599789 405.562 0.00299886C405.535 0.00299886 405.504 0 405.476 0C405.428 0.00299903 405.379 0.00899749 405.333 0.017995C405.315 0.0209944 405.296 0.0209944 405.275 0.0239938L373.512 6.62247C373.063 6.71545 372.706 7.04538 372.587 7.48026C372.465 7.91514 372.602 8.37701 372.941 8.67995L379.978 15.0293L382.339 25.4575C382.354 25.5235 382.372 25.5865 382.397 25.6465C382.4 25.6525 382.403 25.6615 382.406 25.6675C382.433 25.7275 382.464 25.7845 382.497 25.8384C382.51 25.8564 382.525 25.8744 382.537 25.8924C382.568 25.9374 382.604 25.9764 382.641 26.0154C382.65 26.0244 382.656 26.0334 382.665 26.0424C382.675 26.0514 382.684 26.0574 382.693 26.0634C382.733 26.0994 382.775 26.1354 382.821 26.1654C382.839 26.1774 382.855 26.1924 382.873 26.2044C382.934 26.2433 382.998 26.2763 383.066 26.3033C383.078 26.3093 383.09 26.3093 383.102 26.3153C383.157 26.3363 383.215 26.3543 383.276 26.3663C383.304 26.3723 383.328 26.3753 383.356 26.3783C383.386 26.3843 383.417 26.3903 383.45 26.3933C383.478 26.3963 383.502 26.3963 383.53 26.3963C383.603 26.3963 383.673 26.3873 383.744 26.3753C383.765 26.3723 383.786 26.3663 383.808 26.3603C383.857 26.3483 383.905 26.3363 383.951 26.3183C383.976 26.3093 384 26.3003 384.021 26.2913C384.07 26.2703 384.116 26.2463 384.159 26.2193C384.177 26.2103 384.196 26.2013 384.211 26.1894C384.272 26.1504 384.33 26.1024 384.382 26.0514C384.385 26.0484 384.388 26.0454 384.391 26.0454L388.007 22.4973L393.633 28.4147C393.865 28.6607 394.189 28.7956 394.525 28.7956C394.598 28.7956 394.671 28.7896 394.745 28.7747C395.154 28.6997 395.496 28.4267 395.655 28.0488L406.649 1.6557C406.652 1.6497 406.652 1.6437 406.655 1.6377C406.668 1.60471 406.677 1.57172 406.686 1.53873C406.698 1.50574 406.707 1.47262 406.716 1.43963ZM396.977 7.18624L385.151 17.7105C385.139 17.7225 385.13 17.7375 385.118 17.7495C385.087 17.7765 385.063 17.8095 385.035 17.8394C385.011 17.8694 384.987 17.8994 384.965 17.9324C384.944 17.9654 384.922 17.9984 384.904 18.0314C384.883 18.0674 384.864 18.1064 384.849 18.1454C384.843 18.1604 384.834 18.1754 384.828 18.1934L383.817 20.9256L382.482 15.0232L396.977 7.18624Z" fill="#046146"/>
<path d="M527.308 50.0479H498.114C498.274 59.5354 505.035 65.0567 514.024 65.0567C518.796 65.0567 523.41 63.7347 527.069 60.9352H527.308L523.331 68.2452C519.91 69.6449 516.092 70.1893 512.353 70.1893C498.83 70.1893 489.523 61.8683 489.523 51.0589C489.523 40.2494 497.558 32.395 509.41 32.395C520.228 32.395 527.626 40.0161 527.308 50.0479ZM498.433 45.5375H518.956C518.081 40.0939 514.421 37.5276 508.694 37.5276C503.364 37.5276 499.387 40.6382 498.433 45.5375Z" fill="#5B5A5A"/>
<path d="M462.329 32.395H485.923L484.12 36.3605C483.493 37.7332 483.336 38.1908 481.612 38.1908C478.868 38.1908 476.203 37.5807 473.538 37.1994C476.83 39.2584 479.103 42.5376 479.103 46.4268C479.103 55.0441 469.54 57.7132 462.407 58.3233C461.31 58.3996 459.193 59.0859 459.193 60.3823C459.193 62.06 462.878 61.8313 463.897 61.8313C477.457 61.8313 484.669 65.4155 484.669 72.9652C484.669 81.5825 474.871 86.3869 462.642 86.3869C451.12 86.3869 440.93 82.0401 440.93 75.558C440.93 71.2874 444.457 69.381 448.455 69.381C450.101 69.381 451.433 69.686 452.923 70.3723C450.963 70.7536 449.944 71.8213 449.944 73.804C449.944 80.2098 457.783 81.3537 462.878 81.3537C468.051 81.3537 476.752 79.9048 476.752 73.499C476.752 66.7881 465.543 66.4068 460.761 66.4068L455.353 66.5593C451.904 66.6356 449.63 63.8903 449.63 61.1449C449.63 58.9334 454.177 57.8657 455.823 57.1031C450.179 56.0355 445.476 51.0786 445.476 45.3592C445.476 36.513 454.255 32.395 462.329 32.395ZM453.393 44.139C453.393 49.0959 457.939 53.2902 463.034 53.2902C467.738 53.2902 471.186 50.316 471.186 45.893C471.186 41.0124 466.954 37.4282 461.388 37.4282C457.077 37.4282 453.393 39.7159 453.393 44.139Z" fill="#5B5A5A"/>
<path d="M424.036 19.2131H429.449C431.279 19.2131 433.19 19.2131 434.066 17.9976H434.304V60.8452C434.304 64.3399 433.827 67.1508 437.329 68.9741V69.202H427.06V52.9442C427.06 49.9054 427.299 46.5627 425.787 43.7517C423.797 40.1051 419.737 38.2818 415.518 38.2818C409.15 38.2818 403.975 43.8277 403.975 50.7411C403.975 58.4142 409.707 65.1756 418.065 65.1756C420.613 65.1756 422.762 64.2639 424.911 62.9724L420.215 69.8098C418.861 70.1897 417.508 70.1897 416.075 70.1897C404.453 70.1897 395.936 63.1244 395.936 51.8047C395.936 41.5486 403.896 33.2677 414.802 33.2677C419.259 33.2677 423.717 34.8631 427.06 37.6741V27.6459C427.06 24.1512 427.538 21.4163 424.036 19.441V19.2131Z" fill="#5B5A5A"/>
<path d="M377.941 33.6049H382.543C384.278 33.6049 386.164 33.5293 387.447 32.395H387.673V59.9959C387.673 63.4744 387.22 66.2722 390.54 68.1627V68.3896H377.941V68.1627C381.261 66.2722 380.808 63.4744 380.808 59.9959V41.923C380.808 38.4445 381.261 35.7222 377.941 33.8318V33.6049Z" fill="#5B5A5A"/>
<path d="M352.82 33.3843H357.705C359.46 33.3843 361.291 33.3082 362.36 32.395H362.589V38.1785C364.267 34.7541 367.778 32.395 371.594 32.395L374.341 32.6233V39.6244C373.501 38.7112 372.128 38.4068 370.83 38.4068C365.031 38.4068 362.589 41.4507 362.589 49.2889V59.9427C362.589 63.4432 362.131 66.2588 365.489 68.1613V68.3896H352.744V68.1613C356.102 66.2588 355.644 63.4432 355.644 59.9427V41.7551C355.644 38.2546 356.102 35.5151 352.82 33.6126V33.3843Z" fill="#5B5A5A"/>
<path d="M309.531 57.5875V28.7182C309.531 25.2723 310.101 19.6822 305.953 18.2273V17.9976H325.227C335.962 17.9976 342.223 22.2858 342.223 29.1011C342.223 34.2317 338.727 37.1416 334.091 39.056C341.41 40.511 347.347 45.1056 347.347 52.6101C347.347 58.5064 343.037 63.5605 337.588 66.0109C331.895 68.6145 325.471 68.3848 319.372 68.3848H305.953V68.155C310.019 66.7001 309.531 61.11 309.531 57.5875ZM317.826 62.2587L324.902 62.8713C331.57 63.4839 338.32 60.574 338.32 53.2992C338.32 45.8713 330.676 42.6551 323.519 43.038L317.826 43.3443V62.2587ZM317.826 38.2903H320.51C325.796 38.2903 333.359 36.6056 333.359 30.3263C333.359 25.0426 328.155 22.2858 323.275 22.7453L317.826 23.2813V38.2903Z" fill="#5B5A5A"/>
<path d="M249.416 33.4022H254.451C256.129 33.4022 257.96 33.2497 259.028 32.4105H259.257V37.8268C261.851 34.2414 267.496 32.4105 271.768 32.4105C282.371 32.4105 289.237 40.573 289.237 50.5664C289.237 61.17 281.532 69.4851 270.852 69.4851C268.869 69.4851 266.962 69.1799 265.207 68.4934L261.088 62.238C263.758 63.5348 266.504 64.4503 269.403 64.4503C277.489 64.4503 281.532 59.034 281.532 51.4055C281.532 44.311 277.718 37.7505 269.86 37.7505C266.656 37.7505 263.529 39.0473 261.393 41.4122C259.181 43.777 259.257 46.5233 259.257 49.5747V75.7405C259.257 79.2496 258.799 81.9958 262.156 83.903V84.1318H249.416V83.903C252.773 81.9958 252.315 79.2496 252.315 75.7405V41.7936C252.315 38.2845 252.773 35.4619 249.416 33.6311V33.4022Z" fill="#046146"/>
<path d="M247.853 64.4503L244.496 69.4851C239.461 69.18 234.426 67.6542 234.426 61.5514V49.4984C232.214 50.6427 229.62 51.2529 227.103 51.8632C223.441 52.7024 219.322 53.5415 219.322 58.1949C219.322 62.9246 223.594 64.4503 227.637 64.4503C229.468 64.4503 231.299 63.9163 233.13 63.3823L228.629 69.1037C227.332 69.3325 225.959 69.4851 224.662 69.4851C216.957 69.4851 211.617 64.6028 211.617 58.2712C211.617 44.0821 234.426 50.6427 234.426 42.3276C234.426 38.6659 229.926 37.4453 227.103 37.4453C223.213 37.4453 220.161 38.8948 216.728 40.4967L221.839 32.8682L226.798 32.4105C235.037 32.4105 241.292 34.7754 241.368 44.0059V55.4486C241.368 61.4752 241.521 63.7637 247.853 64.4503Z" fill="#046146"/>
<path d="M208.984 49.7272H180.987C181.139 59.034 187.624 64.4503 196.244 64.4503C200.821 64.4503 205.246 63.1534 208.755 60.4072H208.984L205.169 67.578C201.889 68.9511 198.227 69.4851 194.642 69.4851C181.673 69.4851 172.748 61.3226 172.748 50.719C172.748 40.1153 180.453 32.4105 191.819 32.4105C202.194 32.4105 209.289 39.8865 208.984 49.7272ZM181.292 45.3027H200.974C200.134 39.9627 196.625 37.4453 191.133 37.4453C186.022 37.4453 182.207 40.4967 181.292 45.3027Z" fill="#046146"/>
<path d="M145.702 62.3145L156.077 63.001C161.264 63.3062 165.765 61.5516 169.579 58.3477H169.808L165.842 68.4936H134.488V68.2647C138.379 66.8916 137.921 61.2465 137.921 57.8137V29.0542C137.921 25.5451 138.379 19.9762 134.488 18.5268V18.298H149.059V18.5268C145.168 19.9762 145.702 25.6213 145.702 29.0542V62.3145Z" fill="#046146"/>
<path d="M501.074 107.056H527.021L525.038 111.539C524.349 113.09 524.176 113.608 522.28 113.608C519.263 113.608 516.332 112.918 513.401 112.487C517.022 114.814 519.522 118.521 519.522 122.917C519.522 132.658 509.005 135.675 501.16 136.365C499.954 136.451 497.626 137.227 497.626 138.692C497.626 140.589 501.678 140.33 502.798 140.33C517.711 140.33 525.642 144.382 525.642 152.916C525.642 162.657 514.867 168.087 501.419 168.087C488.747 168.087 477.541 163.174 477.541 155.847C477.541 151.019 481.42 148.864 485.816 148.864C487.627 148.864 489.092 149.209 490.73 149.985C488.575 150.416 487.454 151.623 487.454 153.864C487.454 161.105 496.075 162.398 501.678 162.398C507.367 162.398 516.935 160.76 516.935 153.519C516.935 145.933 504.609 145.502 499.35 145.502L493.402 145.675C489.609 145.761 487.109 142.658 487.109 139.554C487.109 137.055 492.109 135.848 493.919 134.986C487.713 133.779 482.541 128.176 482.541 121.711C482.541 111.711 492.195 107.056 501.074 107.056ZM491.247 120.331C491.247 125.934 496.247 130.676 501.85 130.676C507.022 130.676 510.815 127.314 510.815 122.314C510.815 116.797 506.16 112.745 500.04 112.745C495.299 112.745 491.247 115.332 491.247 120.331Z" fill="#5B5A5A"/>
<path d="M433.404 108.177H438.49C440.387 108.177 442.456 108.091 444.266 107.056H444.524V113.694C447.541 109.556 451.076 107.056 456.679 107.056C461.506 107.056 467.023 108.953 469.782 113.004C472.195 116.452 471.937 121.797 471.937 125.848V138.348C471.937 142.313 471.42 145.416 475.212 147.571V147.83H460.817V147.571C464.61 145.416 464.092 142.227 464.092 138.348V126.71C464.092 117.487 461.506 112.745 453.662 112.745C445.817 112.745 444.524 118.004 444.524 123.09V138.348C444.524 142.313 444.007 145.416 447.8 147.571V147.83H433.404V147.571C437.197 145.416 436.68 142.227 436.68 138.261V117.745C436.68 113.78 437.197 110.59 433.404 108.435V108.177Z" fill="#5B5A5A"/>
<path d="M413.125 108.177H418.383C420.366 108.177 422.521 108.091 423.986 106.798H424.245V138.262C424.245 142.227 423.728 145.416 427.521 147.571V147.83H413.125V147.571C416.918 145.416 416.401 142.227 416.401 138.262V117.659C416.401 113.694 416.918 110.591 413.125 108.436V108.177ZM425.193 97.5742C425.193 100.419 422.952 103.005 420.021 103.005C416.832 103.005 414.418 100.505 414.418 97.3155C414.418 94.2985 417.177 92.2296 420.021 92.2296C422.952 92.2296 425.193 94.7295 425.193 97.5742Z" fill="#5B5A5A"/>
<path d="M397.841 113.867V131.107C397.841 134.383 396.807 143.262 406.03 143.262C407.237 143.262 408.358 142.831 409.478 142.4L404.91 148.52C404.047 148.779 403.099 148.951 402.151 148.951C388.79 148.951 389.997 135.159 389.997 131.797V113.867H384.135V110.764C392.238 109.384 394.393 103.35 394.393 95.3335H397.841V108.178H405.944C407.065 108.178 408.358 108.178 409.22 107.66H409.478V115.505H409.22C407.84 113.695 405.254 113.867 403.013 113.867H397.841Z" fill="#5B5A5A"/>
<path d="M364.721 91.1084H369.979C371.962 91.1084 374.203 91.1946 375.496 89.7291H375.755V138.261C375.755 142.226 375.151 145.416 378.944 147.571V147.829H364.721V147.571C368.427 145.416 367.91 142.226 367.91 138.261V100.677C367.91 96.7115 368.427 93.522 364.721 91.367V91.1084Z" fill="#5B5A5A"/>
<path d="M345.408 108.177H349.805C352.046 108.177 354.718 108.522 356.27 107.056H356.529V138.434C356.529 142.399 356.011 145.589 359.804 147.571V147.83H348.684V142.227C345.581 146.968 342.305 148.95 336.271 148.95C326.099 148.95 321.272 143.175 321.272 131.02V117.745C321.272 113.78 321.789 110.59 317.996 108.435V108.177H323.599C325.496 108.177 327.651 108.091 328.858 107.056H329.116V129.555C329.116 137.486 331.357 142.399 338.857 142.399C344.546 142.399 348.684 137.744 348.684 131.107V117.831C348.684 113.78 349.201 110.677 345.408 108.435V108.177Z" fill="#5B5A5A"/>
<path d="M308.948 108.177V115.504C305.758 113.78 302.138 112.745 298.345 112.745C295.5 112.745 290.328 113.435 290.328 116.883C290.328 124.555 313.689 121.797 313.689 135.503C313.689 143.52 305.5 148.95 294.38 148.95C290.501 148.95 286.794 148.347 283.173 146.882L280.156 138.434C285.156 141.623 290.414 143.261 296.362 143.261C299.897 143.261 305.845 142.054 305.845 137.658C305.845 128.952 282.484 131.71 282.484 118.607C282.484 109.47 291.966 107.056 299.379 107.056C302.569 107.056 305.845 107.315 308.948 108.177Z" fill="#5B5A5A"/>
<path d="M235.07 108.177H240.156C242.053 108.177 244.122 108.091 245.932 107.056H246.19V113.694C249.207 109.556 252.742 107.056 258.345 107.056C263.172 107.056 268.689 108.953 271.448 113.004C273.861 116.452 273.603 121.797 273.603 125.848V138.348C273.603 142.313 273.086 145.416 276.878 147.571V147.83H262.483V147.571C266.276 145.416 265.758 142.227 265.758 138.348V126.71C265.758 117.487 263.172 112.745 255.328 112.745C247.483 112.745 246.19 118.004 246.19 123.09V138.348C246.19 142.313 245.673 145.416 249.466 147.571V147.83H235.07V147.571C238.863 145.416 238.346 142.227 238.346 138.261V117.745C238.346 113.78 238.863 110.59 235.07 108.435V108.177Z" fill="#5B5A5A"/>
<path d="M208.213 148.95C196.404 148.95 186.404 140.589 186.404 128.348C186.404 115.418 196.835 107.056 209.248 107.056C214.765 107.056 219.506 108.522 223.644 112.142C228.04 116.021 230.712 121.711 230.712 127.572C230.712 139.985 220.368 148.95 208.213 148.95ZM208.644 143.261C216.575 143.261 222.006 137.141 222.006 129.383C222.006 121.021 217.523 112.745 208.3 112.745C200.283 112.745 195.111 119.038 195.111 126.796C195.111 134.727 199.852 143.261 208.644 143.261Z" fill="#5B5A5A"/>
<path d="M180.401 91.8842V101.797C175.66 98.7804 170.143 96.8839 164.453 96.8839C152.558 96.8839 144.282 105.59 144.282 118.09C144.282 130.761 152.902 142.054 166.178 142.054C172.643 142.054 179.108 139.726 184.539 136.623H184.797L180.401 146.623C176.349 148.519 171.867 149.209 167.384 149.209C147.041 149.209 134.455 137.83 134.455 119.383C134.455 101.539 147.041 89.7291 164.712 89.7291C169.97 89.7291 175.315 90.6773 180.401 91.8842Z" fill="#5B5A5A"/>
<path d="M20.8558 28.427C20.8564 28.4716 20.8592 28.5162 20.8592 28.5609V98.143H74.6749C80.4275 98.143 85.0908 102.806 85.0908 108.559C85.0908 114.312 80.4275 118.975 74.6749 118.975C74.6749 118.975 26.7823 118.975 12.2064 118.975C5.7222 118.975 0.0273438 120.199 0.0273438 125.051C0.0273437 129.903 0.0273438 28.5609 0.0273438 28.5609C0.0273439 22.8095 4.68889 18.1469 10.4399 18.145H20.8558V28.427Z" fill="#046146"/>
<path d="M74.9985 68.1115C86.9724 68.1115 96.3474 73.5263 102.695 79.2039C117.658 92.5883 124.123 119.844 108.152 139.807C100.976 146.173 91.8338 149.355 80.7235 149.355H0V138.071C0 129.392 6.94396 128.524 13.8879 128.524H79.6826C84.0799 128.523 87.7831 127.019 90.7919 124.011C97.2396 117.811 97.4578 99.0797 90.9665 92.5883C88.0733 89.695 84.3347 87.7279 79.4741 87.7279H62.4956V68.1115H74.9985ZM77.2131 18.145C88.4391 18.145 97.5041 21.2979 104.332 27.3159C111.16 33.4496 114.575 41.6083 114.575 51.7926C114.575 60.9063 112.121 67.5958 105.027 72.972C95.4794 65.16 86.9724 63.9445 86.9724 63.9445C86.9724 63.9445 90.9664 57.8693 90.9665 53.7032C90.9665 49.5372 89.5194 46.0647 86.6266 43.2873C83.8491 40.5098 80.3767 39.1204 76.2106 39.1202H54.8566V68.1115V87.7279H31.2478L31.2094 18.145H77.2131Z" fill="#5B5A5A"/>
</svg>
