<svg width="50" height="50" viewBox="0 0 50 50" fill="none" xmlns="http://www.w3.org/2000/svg">
<mask id="mask0_111_353" style="mask-type:luminance" maskUnits="userSpaceOnUse" x="0" y="0" width="50" height="50">
<path fill-rule="evenodd" clip-rule="evenodd" d="M0 0H50V50H0V0Z" fill="white"/>
</mask>
<g mask="url(#mask0_111_353)">
<path d="M43.512 21.4834H39.9416L41.6628 15.7276L42.4437 16.128C42.5864 16.2011 42.7386 16.2358 42.8886 16.2358C43.2427 16.2358 43.5845 16.0424 43.7576 15.7059L45.8689 11.6035C45.9876 11.3729 46.0097 11.1047 45.9304 10.8579C45.8511 10.6111 45.6769 10.4059 45.4462 10.2877L36.7025 5.80464C36.223 5.55884 35.6352 5.74761 35.3887 6.22671L33.2773 10.3292C33.1587 10.5597 33.1366 10.8279 33.2159 11.0748C33.2952 11.3215 33.4694 11.5267 33.7001 11.645L34.1733 11.8876L27.9219 21.4833H25.2883C29.5957 17.6717 30.483 13.0851 30.3942 9.69107C30.2838 5.47036 28.6941 2.23833 28.6265 2.10278C28.4165 1.68208 27.9367 1.47075 27.4849 1.59966C22.6349 2.98277 20.2686 6.14214 19.3024 7.86255C17.9454 6.9312 16.3322 6.12456 14.4661 5.44732C13.9593 5.26304 13.399 5.52505 13.2149 6.03208C13.031 6.53911 13.2929 7.09927 13.7998 7.28325C18.1391 8.85806 20.9102 11.141 22.0361 14.0686C23.0854 16.7968 22.4512 19.5006 21.9444 20.9389C18.9606 13.6593 11.7874 9.53911 11.4674 9.35835C10.9979 9.09322 10.403 9.25874 10.1376 9.72788C9.87207 10.197 10.0373 10.7926 10.5062 11.0585C10.5777 11.0991 17.267 14.9534 20.0543 21.4834H18.4824C13.3436 20.3439 9.68213 17.1564 7.6001 12.0062C6.5335 9.36743 6.16709 6.8481 6.04141 5.45386C7.62373 5.67837 9.10879 5.95855 10.4695 6.2895C10.9937 6.41734 11.5217 6.09546 11.6492 5.57134C11.7767 5.04722 11.4552 4.51909 10.9311 4.39165C9.16836 3.96294 7.21221 3.61665 5.1169 3.36245C4.83906 3.32857 4.56084 3.41558 4.35166 3.60093C4.14248 3.78628 4.02275 4.05239 4.02275 4.33189C4.02275 4.49517 4.04258 8.37954 5.76445 12.676C7.3418 16.6119 9.83789 19.5894 13.1045 21.4835H6.48809C4.84902 21.4834 3.51562 22.8152 3.51562 24.4521V25.4482C3.51562 26.876 4.53027 28.0713 5.87715 28.3536C5.98564 30.5643 6.68232 36.1693 10.8173 40.4457C11.9596 41.627 13.2699 42.6088 14.7426 43.3897V45.4688C14.7426 47.1058 16.076 48.4375 17.715 48.4375H23.2415C23.7808 48.4375 24.2181 48.0001 24.2181 47.4609C24.2181 46.9216 23.7808 46.4843 23.2415 46.4843H17.715C17.153 46.4843 16.6957 46.0288 16.6957 45.4688V44.2702C19.1094 45.1861 21.8828 45.6486 25 45.6486C28.1172 45.6486 30.8906 45.1861 33.3043 44.2702V45.4688C33.3043 46.0288 32.847 46.4843 32.285 46.4843H26.6588C26.1195 46.4843 25.6822 46.9216 25.6822 47.4609C25.6822 48.0001 26.1195 48.4375 26.6588 48.4375H32.285C33.9239 48.4375 35.2574 47.1057 35.2574 45.4688V43.3897C36.7301 42.6088 38.0404 41.627 39.1827 40.4457C43.3177 36.1693 44.0144 30.5643 44.1229 28.3536C45.4697 28.0713 46.4844 26.876 46.4844 25.4482V24.4521C46.4844 22.8152 45.151 21.4834 43.512 21.4834ZM36.6791 7.98755L43.6848 11.5793L42.4672 13.9452L36.0311 10.6454C36.03 10.6448 36.029 10.6443 36.0279 10.6437L35.4615 10.3534L36.6791 7.98755ZM35.9207 12.7836L39.8952 14.8213L37.903 21.4834H30.2529L35.9207 12.7836ZM20.8619 9.0898C21.1048 8.62349 21.5198 7.93062 22.1558 7.18052C23.4866 5.61079 25.1823 4.45542 27.2045 3.73843C27.6459 4.86909 28.3849 7.14273 28.4433 9.80894C28.5302 13.7724 27.1394 17.1007 24.3055 19.74C24.6588 18.0014 24.7613 15.7306 23.8679 13.3909C23.253 11.7805 22.2475 10.3447 20.8619 9.0898ZM40.3106 35.4678H9.69336C8.29551 32.6494 7.93379 29.8347 7.84238 28.4168H42.1598C42.0712 29.8336 41.7135 32.6459 40.3106 35.4678ZM37.7787 39.0878C34.8225 42.1453 30.523 43.6955 25 43.6955C19.4853 43.6955 15.1904 42.15 12.2346 39.1017C11.7138 38.5646 11.2548 37.9999 10.8492 37.4211H39.1523C38.7499 37.9944 38.2947 38.5543 37.7787 39.0878ZM44.5312 25.4482C44.5312 26.0082 44.0739 26.4637 43.5119 26.4637H6.48809C5.92607 26.4637 5.46875 26.0082 5.46875 25.4482V24.4521C5.46875 23.8921 5.92607 23.4366 6.48809 23.4366H43.512C44.074 23.4366 44.5313 23.8921 44.5313 24.4521L44.5312 25.4482ZM15.0408 31.9424C15.0408 32.4817 14.6035 32.919 14.0643 32.919H12.5756C12.0363 32.919 11.599 32.4817 11.599 31.9424C11.599 31.4032 12.0363 30.9659 12.5756 30.9659H14.0643C14.6035 30.9659 15.0408 31.4031 15.0408 31.9424ZM20.8808 31.9424C20.8808 32.4817 20.4435 32.919 19.9042 32.919H18.4156C17.8764 32.919 17.4391 32.4817 17.4391 31.9424C17.4391 31.4032 17.8764 30.9659 18.4156 30.9659H19.9042C20.4436 30.9659 20.8808 31.4031 20.8808 31.9424ZM26.7209 31.9424C26.7209 32.4817 26.2836 32.919 25.7443 32.919H24.2557C23.7164 32.919 23.2791 32.4817 23.2791 31.9424C23.2791 31.4032 23.7164 30.9659 24.2557 30.9659H25.7443C26.2837 30.9659 26.7209 31.4031 26.7209 31.9424ZM32.5609 31.9424C32.5609 32.4817 32.1236 32.919 31.5844 32.919H30.0958C29.5565 32.919 29.1192 32.4817 29.1192 31.9424C29.1192 31.4032 29.5565 30.9659 30.0958 30.9659H31.5844C32.1236 30.9659 32.5609 31.4031 32.5609 31.9424ZM38.4011 31.9424C38.4011 32.4817 37.9638 32.919 37.4245 32.919H35.9358C35.3966 32.919 34.9593 32.4817 34.9593 31.9424C34.9593 31.4032 35.3966 30.9659 35.9358 30.9659H37.4245C37.9638 30.9659 38.4011 31.4031 38.4011 31.9424Z" fill="black"/>
</g>
</svg>
