<svg width="50" height="50" viewBox="0 0 50 50" fill="none" xmlns="http://www.w3.org/2000/svg">
<mask id="mask0_111_448" style="mask-type:luminance" maskUnits="userSpaceOnUse" x="0" y="0" width="50" height="50">
<path fill-rule="evenodd" clip-rule="evenodd" d="M0 0H50V50H0V0Z" fill="white"/>
</mask>
<g mask="url(#mask0_111_448)">
<path d="M12.7311 33.7221L9.59635 32.9385C9.30938 32.8668 9.06131 32.9355 8.85212 33.1446L6.50105 35.4957C6.34801 35.6487 6.27148 35.8334 6.27148 36.0498C6.27148 36.2662 6.34801 36.451 6.50105 36.604L8.85212 38.955C8.98419 39.0871 9.14316 39.1624 9.32904 39.1808C9.51491 39.1992 9.68556 39.1566 9.84097 39.053L12.192 37.4856C12.3412 37.3862 12.4441 37.2514 12.5008 37.0813L13.2845 34.7303C13.3567 34.5137 13.3378 34.3054 13.228 34.1053C13.1182 33.9052 12.9525 33.7775 12.7311 33.7221ZM11.0989 36.3306L9.50614 37.3924L8.16347 36.0498L9.64667 34.5667L11.5299 35.0375L11.0989 36.3306Z" fill="black"/>
<path d="M11.2016 30.3344C11.3336 30.4665 11.4926 30.5417 11.6785 30.5602C11.8644 30.5786 12.035 30.536 12.1904 30.4323L14.5415 28.8649C14.7742 28.7099 14.8905 28.4925 14.8905 28.2129V25.8618C14.8905 25.6454 14.814 25.4607 14.6609 25.3077C14.5079 25.1546 14.3232 25.0781 14.1068 25.0781H11.7557C11.4761 25.0781 11.2587 25.1945 11.1037 25.4271L9.53628 27.7782C9.43266 27.9336 9.39006 28.1042 9.40846 28.2901C9.42687 28.476 9.50211 28.635 9.63419 28.767L11.2016 30.3344ZM12.1751 26.6455H13.3231V27.7935L11.8556 28.7718L11.1968 28.113L12.1751 26.6455Z" fill="black"/>
<path d="M19.5523 36.5857C19.4616 36.3136 19.2772 36.1428 18.999 36.0732L15.8642 35.2895C15.6655 35.2399 15.4765 35.2643 15.297 35.3628C15.1175 35.4614 14.9954 35.6078 14.9306 35.802L14.1469 38.1531C14.0448 38.4594 14.1079 38.7267 14.3363 38.955L16.6873 41.3061C16.8194 41.4382 16.9784 41.5134 17.1643 41.5318C17.3501 41.5503 17.5208 41.5076 17.6762 41.404L20.0273 39.8366C20.1743 39.7386 20.2765 39.6061 20.3338 39.4389C20.3912 39.2718 20.3919 39.1044 20.336 38.9368L19.5523 36.5857ZM17.3414 39.7435L15.787 38.1892L16.1881 36.9861L18.2014 37.4894L18.6598 38.8645L17.3414 39.7435Z" fill="black"/>
<path d="M6.01758 29.8313L8.36942 29.0481L8.86471 30.5356L6.51287 31.3187L6.01758 29.8313Z" fill="black"/>
<path d="M15.1152 31.1166L16.2234 30.0084L17.7905 31.5756L16.6824 32.6837L15.1152 31.1166Z" fill="black"/>
<path d="M42.0306 8.63983L40.6702 5.91906C40.5258 5.63024 40.2921 5.48583 39.9692 5.48584H37.6182C37.5334 5.48584 37.4508 5.49925 37.3703 5.52607L35.3282 6.20678L35.1843 5.91906C35.04 5.63024 34.8063 5.48583 34.4834 5.48584H31.3486C31.1322 5.48583 30.9475 5.56235 30.7945 5.71539L27.8808 8.62905C27.4324 8.65075 26.9901 8.71463 26.5538 8.8207C26.1176 8.92677 25.6953 9.07311 25.287 9.25972C24.8787 9.44632 24.4917 9.66984 24.126 9.93026C23.7603 10.1907 23.4225 10.4833 23.1126 10.8082C22.8027 11.133 22.5263 11.4842 22.2834 11.8618C22.0405 12.2394 21.8355 12.6365 21.6683 13.0531C21.5012 13.4698 21.3749 13.8985 21.2895 14.3393C21.2041 14.78 21.1612 15.2249 21.1606 15.6738V18.0249C21.1606 18.2413 21.2371 18.426 21.3902 18.5791C21.5432 18.7321 21.7279 18.8086 21.9443 18.8086H23.7829C23.2391 19.2473 22.7709 19.7555 22.3781 20.3334C20.1207 18.7913 17.625 18.0218 14.8911 18.0249C7.54492 18.0249 1.56836 24.0015 1.56836 31.3477C1.56836 38.6939 7.54492 44.6704 14.8911 44.6704C17.1127 44.6729 19.2025 44.1495 21.1606 43.1V43.8867C21.1606 44.1031 21.2371 44.2879 21.3902 44.4409C21.5432 44.5939 21.7279 44.6704 21.9443 44.6704H47.8062C48.0226 44.6704 48.2073 44.5939 48.3603 44.4409C48.5133 44.2879 48.5899 44.1031 48.5898 43.8867V41.5356C48.5898 40.4697 48.3596 39.4559 47.8993 38.4945C47.4389 37.533 46.7935 36.7181 45.963 36.0498H47.8062C48.0226 36.0498 48.2073 35.9733 48.3603 35.8203C48.5133 35.6673 48.5899 35.4825 48.5898 35.2661V32.915C48.5898 31.8491 48.3596 30.8353 47.8993 29.8739C47.4389 28.9124 46.7935 28.0975 45.963 27.4292H47.8062C48.0226 27.4292 48.2073 27.3527 48.3603 27.1997C48.5133 27.0466 48.5899 26.8619 48.5898 26.6455V24.2944C48.5898 23.2284 48.3596 22.2147 47.8993 21.2533C47.4389 20.2918 46.7935 19.4769 45.963 18.8086H47.8062C48.0226 18.8086 48.2073 18.7321 48.3603 18.5791C48.5133 18.426 48.5899 18.2413 48.5898 18.0249V15.6738C48.5893 15.2317 48.5475 14.7935 48.4646 14.3592C48.3818 13.9249 48.2591 13.5021 48.0968 13.0909C47.9345 12.6796 47.7354 12.2871 47.4993 11.9132C47.2633 11.5394 46.9945 11.1908 46.6929 10.8674C46.3914 10.5441 46.0624 10.2516 45.7059 9.99006C45.3495 9.7285 44.9718 9.50243 44.5728 9.31182C44.1739 9.12122 43.7607 8.96943 43.3333 8.85644C42.9058 8.74345 42.4716 8.67125 42.0306 8.63983ZM37.7454 7.05322H39.4849L40.2686 8.62061H36.5351L36.0363 7.62291L37.7454 7.05322ZM31.6732 7.05322H33.999L34.7827 8.62061H30.1058L31.6732 7.05322ZM3.13574 31.3477C3.13574 30.5758 3.21103 29.8113 3.36162 29.0543C3.5122 28.2973 3.73518 27.5622 4.03057 26.8491C4.32595 26.136 4.68805 25.4585 5.11688 24.8167C5.54571 24.1749 6.03302 23.5811 6.57881 23.0354C7.1246 22.4896 7.71839 22.0022 8.36018 21.5734C9.00196 21.1446 9.67941 20.7825 10.3925 20.4871C11.1056 20.1917 11.8407 19.9687 12.5978 19.8182C13.3548 19.6676 14.1192 19.5923 14.8911 19.5923C15.663 19.5923 16.4274 19.6676 17.1845 19.8182C17.9415 19.9687 18.6766 20.1917 19.3897 20.4871C20.1028 20.7825 20.7803 21.1446 21.422 21.5734C22.0638 22.0022 22.6576 22.4896 23.2034 23.0354C23.7492 23.5811 24.2365 24.1749 24.6653 24.8167C25.0942 25.4585 25.4563 26.136 25.7517 26.8491C26.047 27.5622 26.27 28.2973 26.4206 29.0543C26.5712 29.8113 26.6465 30.5758 26.6465 31.3477C26.6465 32.1195 26.5712 32.884 26.4206 33.641C26.27 34.3981 26.047 35.1331 25.7517 35.8462C25.4563 36.5594 25.0942 37.2368 24.6653 37.8786C24.2365 38.5204 23.7492 39.1142 23.2034 39.66C22.6576 40.2058 22.0638 40.6931 21.422 41.1219C20.7803 41.5507 20.1028 41.9128 19.3897 42.2082C18.6766 42.5036 17.9415 42.7266 17.1845 42.8771C16.4274 43.0277 15.663 43.103 14.8911 43.103C14.1195 43.1022 13.3553 43.0261 12.5987 42.875C11.842 42.7238 11.1073 42.5003 10.3946 42.2046C9.68188 41.909 9.00479 41.5467 8.36333 41.1178C7.72187 40.6889 7.12833 40.2017 6.58271 39.6561C6.03709 39.1104 5.54985 38.5169 5.12097 37.8754C4.6921 37.234 4.32982 36.5569 4.03413 35.8442C3.73844 35.1315 3.515 34.3968 3.36382 33.6401C3.21264 32.8834 3.13662 32.1193 3.13574 31.3477ZM47.0225 41.5356V43.103H22.728V42.1145C24.8484 40.5683 26.3817 38.5713 27.328 36.1236C27.6199 36.0763 41.5366 36.0498 41.5366 36.0498C41.8967 36.0502 42.2533 36.0857 42.6064 36.1562C42.9595 36.2268 43.3024 36.3311 43.635 36.4691C43.9676 36.607 44.2836 36.7761 44.5829 36.9762C44.8823 37.1764 45.1593 37.4038 45.4139 37.6584C45.6685 37.913 45.8959 38.19 46.096 38.4893C46.2962 38.7887 46.4652 39.1047 46.6032 39.4373C46.7412 39.7699 46.8455 40.1127 46.916 40.4658C46.9866 40.819 47.0221 41.1756 47.0225 41.5356ZM47.0225 32.915V34.4824H27.8404C28.4106 32.1236 28.3422 29.7833 27.6352 27.4618C27.827 27.4417 41.5366 27.4292 41.5366 27.4292C41.8967 27.4296 42.2533 27.4651 42.6064 27.5356C42.9595 27.6062 43.3024 27.7105 43.635 27.8484C43.9676 27.9864 44.2836 28.1555 44.5829 28.3556C44.8823 28.5558 45.1593 28.7832 45.4139 29.0378C45.6685 29.2924 45.8959 29.5694 46.096 29.8687C46.2962 30.1681 46.4652 30.4841 46.6032 30.8167C46.7412 31.1493 46.8455 31.4921 46.916 31.8452C46.9866 32.1984 47.0221 32.555 47.0225 32.915ZM47.0225 24.2944V25.8618H27.0314C26.2266 24.0912 25.0901 22.5681 23.6218 21.2925C24.129 20.518 24.7897 19.9106 25.6039 19.4702C26.4182 19.0297 27.2881 18.8092 28.2139 18.8086H41.5366C41.8967 18.809 42.2533 18.8445 42.6064 18.915C42.9595 18.9856 43.3024 19.0899 43.635 19.2278C43.9676 19.3658 44.2836 19.5349 44.5829 19.735C44.8823 19.9352 45.1593 20.1626 45.4139 20.4172C45.6685 20.6718 45.8959 20.9488 46.096 21.2481C46.2962 21.5475 46.4652 21.8635 46.6032 22.1961C46.7412 22.5287 46.8455 22.8715 46.916 23.2246C46.9866 23.5777 47.0221 23.9343 47.0225 24.2944ZM47.0225 17.2412H22.728V15.6738C22.7284 15.3137 22.7639 14.9571 22.8345 14.604C22.905 14.2509 23.0093 13.9081 23.1473 13.5755C23.2853 13.2428 23.4543 12.9269 23.6545 12.6275C23.8546 12.3282 24.082 12.0512 24.3366 11.7966C24.5912 11.5419 24.8682 11.3146 25.1676 11.1144C25.4669 10.9143 25.7829 10.7452 26.1155 10.6072C26.4481 10.4692 26.7909 10.365 27.1441 10.2944C27.4972 10.2239 27.8538 10.1884 28.2139 10.188H41.5366C41.8967 10.1884 42.2533 10.2239 42.6064 10.2944C42.9595 10.365 43.3024 10.4692 43.635 10.6072C43.9676 10.7452 44.2836 10.9143 44.5829 11.1144C44.8823 11.3146 45.1593 11.5419 45.4139 11.7966C45.6685 12.0512 45.8959 12.3282 46.096 12.6275C46.2962 12.9269 46.4652 13.2428 46.6032 13.5755C46.7412 13.9081 46.8455 14.2509 46.916 14.604C46.9866 14.9571 47.0221 15.3137 47.0225 15.6738V17.2412Z" fill="black"/>
<path d="M16.4985 26.1096C16.5811 26.3574 16.7463 26.5227 16.9941 26.6053L19.3452 27.389C19.5505 27.4576 19.75 27.4436 19.9436 27.3467C20.1373 27.2499 20.2682 27.0988 20.3365 26.8933L21.1202 24.5422C21.1886 24.3369 21.1745 24.1375 21.0777 23.944L20.294 22.3766C20.2118 22.2123 20.0873 22.0918 19.9205 22.0151C19.7536 21.9383 19.5811 21.9222 19.4029 21.9667L16.2682 22.7504C16.0468 22.8058 15.8811 22.9335 15.7713 23.1336C15.6615 23.3337 15.6426 23.542 15.7148 23.7586L16.4985 26.1096ZM19.1732 23.6398L19.5306 24.3546L19.0974 25.6542L17.8615 25.2422L17.4694 24.0658L19.1732 23.6398Z" fill="black"/>
<path d="M19.0332 30.3333L20.1413 29.2252L21.7085 30.7923L20.6003 31.9004L19.0332 30.3333Z" fill="black"/>
<path d="M11.1973 22.172L12.7644 20.6048L13.8725 21.713L12.3054 23.2801L11.1973 22.172Z" fill="black"/>
<path d="M25.0795 35.2661V32.915C25.0795 32.6986 25.003 32.5139 24.8499 32.3609C24.6969 32.2079 24.5122 32.1313 24.2958 32.1313H22.7284C22.605 32.1313 22.4882 32.1589 22.3779 32.2141L20.8105 32.9978C20.617 33.0946 20.486 33.2456 20.4175 33.4509C20.3491 33.6562 20.3633 33.8556 20.4601 34.0492L21.2437 35.6166C21.3881 35.9054 21.6218 36.0498 21.9447 36.0498H24.2958C24.5122 36.0498 24.6969 35.9733 24.8499 35.8203C25.0029 35.6672 25.0795 35.4825 25.0795 35.2661ZM23.5121 34.4824H22.429L22.2124 34.0492L22.9134 33.6987H23.5121V34.4824Z" fill="black"/>
<path d="M25.498 14.1889L27.0647 13.4056L27.7653 14.8068L26.1987 15.5901L25.498 14.1889Z" fill="black"/>
<path d="M30.1387 13.1963L31.0086 11.8922L33.3595 13.4604L32.4896 14.7645L30.1387 13.1963Z" fill="black"/>
<path d="M37.248 14.1914L38.8147 13.408L39.5153 14.8093L37.9487 15.5926L37.248 14.1914Z" fill="black"/>
<path d="M41.1152 13.1969L41.9851 11.8928L44.336 13.461L43.4661 14.7651L41.1152 13.1969Z" fill="black"/>
<path d="M30.1387 21.8195L31.0086 20.5154L33.3595 22.0836L32.4896 23.3877L30.1387 21.8195Z" fill="black"/>
<path d="M37.248 22.8083L38.8147 22.0249L39.5153 23.4262L37.9487 24.2095L37.248 22.8083Z" fill="black"/>
<path d="M41.1113 21.82L41.9812 20.516L44.3321 22.0842L43.4622 23.3882L41.1113 21.82Z" fill="black"/>
<path d="M30.1387 30.4427L31.0086 29.1386L33.3595 30.7068L32.4896 32.0109L30.1387 30.4427Z" fill="black"/>
<path d="M37.2441 31.4251L38.8108 30.6418L39.5114 32.043L37.9448 32.8264L37.2441 31.4251Z" fill="black"/>
<path d="M41.1113 30.4432L41.9812 29.1391L44.3321 30.7073L43.4622 32.0114L41.1113 30.4432Z" fill="black"/>
<path d="M25.4922 40.0396L27.0589 39.2563L27.7595 40.6575L26.1928 41.4408L25.4922 40.0396Z" fill="black"/>
<path d="M30.1387 39.0659L31.0086 37.7618L33.3595 39.33L32.4896 40.6341L30.1387 39.0659Z" fill="black"/>
<path d="M37.2422 40.0421L38.8089 39.2587L39.5095 40.66L37.9428 41.4433L37.2422 40.0421Z" fill="black"/>
<path d="M41.1113 39.0665L41.9812 37.7624L44.3321 39.3306L43.4622 40.6347L41.1113 39.0665Z" fill="black"/>
</g>
</svg>
