<svg width="50" height="50" viewBox="0 0 50 50" fill="none" xmlns="http://www.w3.org/2000/svg">
<mask id="mask0_111_269" style="mask-type:luminance" maskUnits="userSpaceOnUse" x="0" y="0" width="50" height="50">
<path fill-rule="evenodd" clip-rule="evenodd" d="M0 0H50V50H0V0Z" fill="white"/>
</mask>
<g mask="url(#mask0_111_269)">
<path d="M3.51256 24.9585H2.4149C1.77387 24.9585 1.15915 24.6747 0.706897 24.1708C0.252461 23.6668 0 22.9819 0 22.2676V16.3966C0 15.6823 0.252466 14.9973 0.706897 14.4934C1.15914 13.9894 1.77382 13.7057 2.4149 13.7057H3.51256V2.69764C3.51256 1.98335 3.76722 1.29836 4.21946 0.794429C4.67171 0.2905 5.28638 0.00674438 5.92747 0.00674438H44.5657C45.2045 0.00674438 45.8192 0.290506 46.2737 0.794429C46.7259 1.29836 46.9806 1.98328 46.9806 2.69764V13.7057H48.0782C48.7193 13.7057 49.334 13.9894 49.7862 14.4934C50.2407 14.9973 50.4953 15.6822 50.4953 16.3966V22.2676C50.4953 22.9819 50.2407 23.6668 49.7862 24.1708C49.334 24.6747 48.7215 24.9585 48.0782 24.9585H46.9806V25.2031C46.9806 38.5789 37.2511 49.421 25.2465 49.421C13.242 49.421 3.51245 38.5796 3.51245 25.2031L3.51256 24.9585ZM10.5377 15.1735H2.41496C2.12298 15.1735 1.84418 15.3007 1.63781 15.5306C1.43145 15.7606 1.31729 16.0712 1.31729 16.3966V22.2676C1.31729 22.5905 1.43145 22.9036 1.63781 23.1335C1.84418 23.3635 2.12298 23.4907 2.41496 23.4907H10.5377V15.1735ZM4.82992 11.2595V13.7057H16.4652C16.8296 13.7057 17.1238 14.0335 17.1238 14.4396V24.2246C17.1238 24.6306 16.8275 24.9585 16.4652 24.9585H4.82992V25.2031C4.82992 26.2207 4.89139 27.2237 5.00555 28.2071C8.77714 26.7124 13.9078 28.2658 17.7671 32.5638C21.8637 37.1286 23.1765 43.2907 21.3916 47.5498C22.6408 47.8164 23.9294 47.9559 25.2489 47.9559C26.5661 47.9559 27.8569 47.8164 29.1061 47.5498C27.3213 43.2933 28.6341 37.1285 32.7328 32.5638C36.5901 28.2658 41.7205 26.7124 45.4922 28.2071C45.6063 27.2237 45.6678 26.2207 45.6678 25.2031V24.9585H34.0325C33.6681 24.9585 33.3739 24.6307 33.3739 24.2246V14.4396C33.3739 14.0335 33.6702 13.7057 34.0325 13.7057H45.6678V11.2595H4.82761H4.82992ZM45.6656 9.79168V2.69764C45.6656 2.37473 45.5493 2.06163 45.3429 1.83167C45.1365 1.60172 44.8599 1.47452 44.5679 1.47452H5.92747C5.63545 1.47452 5.35668 1.60417 5.15031 1.83167C4.94394 2.06162 4.82759 2.37229 4.82759 2.69764V9.79168H45.6656ZM39.9578 23.4907H48.0805C48.3725 23.4907 48.6513 23.3635 48.8577 23.1335C49.0641 22.9036 49.1782 22.5929 49.1782 22.2676V16.3966C49.1782 16.0737 49.0641 15.7606 48.8577 15.5306C48.6513 15.3007 48.3725 15.1735 48.0805 15.1735H39.9578V23.4907ZM5.22726 29.6797C6.75525 38.2172 12.5727 45.0301 20.07 47.2144C21.8701 43.43 20.5881 37.782 16.834 33.5987C13.3017 29.6627 8.6055 28.1703 5.22726 29.6797ZM30.4256 47.2144C37.9228 45.0323 43.7424 38.2172 45.2705 29.6797C41.8897 28.1703 37.1938 29.6626 33.6616 33.5986C29.9075 37.7817 28.6254 43.4275 30.4256 47.2144ZM11.855 15.1735V23.4906H15.8067V15.1735H11.855ZM38.6382 15.1735H34.6866V23.4906H38.6382V15.1735ZM37.7601 4.65451C37.7601 4.24843 38.0542 3.92062 38.4165 3.92062C38.7809 3.92062 39.0751 4.24842 39.0751 4.65451V6.61151C39.0751 7.01756 38.7788 7.3454 38.4165 7.3454C38.0521 7.3454 37.7601 7.01763 37.7601 6.61151V4.65451ZM20.1972 4.65451C20.1972 4.24843 20.4936 3.92062 20.8559 3.92062C21.2203 3.92062 21.5123 4.24842 21.5123 4.65451V6.61151C21.5123 7.01756 21.2181 7.3454 20.8559 7.3454C20.4915 7.3454 20.1972 7.01763 20.1972 6.61151V4.65451ZM11.4158 4.65451C11.4158 4.24843 11.7122 3.92062 12.0745 3.92062C12.4389 3.92062 12.7309 4.24842 12.7309 4.65451V6.61151C12.7309 7.01756 12.4367 7.3454 12.0745 7.3454C11.71 7.3454 11.4158 7.01763 11.4158 6.61151V4.65451ZM42.1511 4.65451C42.1511 4.24843 42.4474 3.92062 42.8097 3.92062C43.1741 3.92062 43.4683 4.24842 43.4683 4.65451V6.61151C43.4683 7.01756 43.1719 7.3454 42.8097 7.3454C42.4453 7.3454 42.1511 7.01763 42.1511 6.61151V4.65451ZM28.9787 4.65451C28.9787 4.24843 29.275 3.92062 29.6373 3.92062C30.0017 3.92062 30.2937 4.24842 30.2937 4.65451V6.61151C30.2937 7.01756 29.9996 7.3454 29.6373 7.3454C29.2729 7.3454 28.9787 7.01763 28.9787 6.61151V4.65451ZM33.3694 4.65451C33.3694 4.24843 33.6657 3.92062 34.028 3.92062C34.3924 3.92062 34.6866 4.24842 34.6866 4.65451V6.61151C34.6866 7.01756 34.3903 7.3454 34.028 7.3454C33.6636 7.3454 33.3694 7.01763 33.3694 6.61151V4.65451ZM15.8088 4.65451C15.8088 4.24843 16.1029 3.92062 16.4652 3.92062C16.8296 3.92062 17.1238 4.24842 17.1238 4.65451V6.61151C17.1238 7.01756 16.8275 7.3454 16.4652 7.3454C16.1008 7.3454 15.8088 7.01763 15.8088 6.61151V4.65451ZM7.02738 4.65451C7.02738 4.24843 7.32153 3.92062 7.68381 3.92062C8.04821 3.92062 8.34243 4.24842 8.34243 4.65451V6.61151C8.34243 7.01756 8.04608 7.3454 7.68381 7.3454C7.3194 7.3454 7.02738 7.01763 7.02738 6.61151V4.65451ZM24.588 4.65451C24.588 4.24843 24.8843 3.92062 25.2466 3.92062C25.611 3.92062 25.9052 4.24842 25.9052 4.65451V6.61151C25.9052 7.01756 25.6088 7.3454 25.2466 7.3454C24.8822 7.3454 24.588 7.01763 24.588 6.61151V4.65451Z" fill="black"/>
</g>
</svg>
