<svg xmlns="http://www.w3.org/2000/svg" width="325" height="662" viewBox="0 0 325 662">
  <g id="Group_81" data-name="Group 81" transform="translate(-1542 -1359)">
    <path id="Rectangle_95" data-name="Rectangle 95" d="M0,0H96a0,0,0,0,1,0,0V481a48,48,0,0,1-48,48h0A48,48,0,0,1,0,481V0A0,0,0,0,1,0,0Z" transform="translate(1542 1359)" fill="#deeae4"/>
    <path id="Rectangle_96" data-name="Rectangle 96" d="M0,0H65a0,0,0,0,1,0,0V629.5A32.5,32.5,0,0,1,32.5,662h0A32.5,32.5,0,0,1,0,629.5V0A0,0,0,0,1,0,0Z" transform="translate(1655 1359)" fill="#deeae4"/>
    <path id="Rectangle_97" data-name="Rectangle 97" d="M0,0H45a0,0,0,0,1,0,0V392.5A22.5,22.5,0,0,1,22.5,415h0A22.5,22.5,0,0,1,0,392.5V0A0,0,0,0,1,0,0Z" transform="translate(1737 1359)" fill="#deeae4"/>
    <path id="Rectangle_98" data-name="Rectangle 98" d="M0,0H65a0,0,0,0,1,0,0V572.5A32.5,32.5,0,0,1,32.5,605h0A32.5,32.5,0,0,1,0,572.5V0A0,0,0,0,1,0,0Z" transform="translate(1802 1359)" fill="#deeae4"/>
  </g>
</svg>
