<svg width="50" height="50" viewBox="0 0 50 50" fill="none" xmlns="http://www.w3.org/2000/svg">
<mask id="mask0_111_463" style="mask-type:luminance" maskUnits="userSpaceOnUse" x="0" y="0" width="50" height="50">
<path fill-rule="evenodd" clip-rule="evenodd" d="M0 0H50V50H0V0Z" fill="white"/>
</mask>
<g mask="url(#mask0_111_463)">
<path d="M46.4166 37.2589L44.6544 36.3778C42.6966 35.3989 40.9199 34.1177 39.3719 32.5705L38.8004 31.999L38.2289 32.5705C36.9517 33.8469 35.5121 34.9301 33.9504 35.8241V28.334C34.9252 27.6194 35.567 26.4748 35.567 25.1758V24.631C35.567 22.2682 34.3343 20.1398 32.3337 18.9403V2.42503C32.3337 1.08803 31.2456 0 29.9086 0H4.04171C2.70471 0 1.61668 1.08803 1.61668 2.42503V24.9002C0.664457 25.2397 0 26.1482 0 27.1789V46.8838C0 48.667 1.45016 50.1172 3.23337 50.1172H34.7587V50.1115C34.7926 50.1115 34.8258 50.1172 34.8597 50.1172H42.7411C43.99 50.1172 45.2397 49.8221 46.3568 49.2636L46.4166 49.2337C48.6994 48.0923 50.1172 45.7982 50.1172 43.2463C50.1172 40.6943 48.6994 38.4003 46.4166 37.2589ZM33.9504 24.6318V25.1766C33.9504 26.4489 32.9157 27.4836 31.6433 27.4836C31.1632 27.4836 30.6814 27.3696 30.2498 27.1546L29.1003 26.5799L28.739 26.761C27.7924 27.233 26.7327 27.4836 25.6762 27.4836H25.2502C24.1929 27.4836 23.1339 27.233 22.1874 26.7601L21.8252 26.5799L21.4639 26.761C20.5173 27.233 19.4576 27.4836 18.4011 27.4836H17.9751C16.9178 27.4836 15.8589 27.233 14.9123 26.7601L14.5502 26.5799L13.7135 26.9986C12.117 27.7956 10.0849 27.5604 8.71393 26.4182L7.3834 25.3092L31.4049 20.2522C32.982 21.147 33.9504 22.8017 33.9504 24.6318ZM21.0169 11.3168V19.4002H12.9335V11.3168H21.0169ZM12.9335 9.7001V1.61668H21.0169V9.7001H12.9335ZM30.717 18.7438L27.6008 19.4002H22.6336V11.3168H30.717V18.7438ZM19.9224 21.0169L12.9335 22.4881V21.0169H19.9224ZM11.3168 19.4002H3.23337V11.3168H11.3168V19.4002ZM11.3168 21.0169V22.8292L3.23337 24.5307V21.0169H11.3168ZM30.717 2.42502V9.7001H22.6336V1.61668H29.9086C30.3548 1.61668 30.717 1.97882 30.717 2.42502ZM4.04171 1.61668H11.3168V9.7001H3.23337V2.42502C3.23337 1.97882 3.5955 1.61668 4.04171 1.61668ZM1.61668 46.8838V27.1789C1.61668 26.7981 1.88667 26.4659 2.25851 26.3875L5.36739 25.7327L7.67925 27.6598C9.53116 29.2013 12.2771 29.5223 14.4362 28.4439L14.5615 28.3817C15.6341 28.8521 16.8046 29.1003 17.9743 29.1003H18.4003C19.574 29.1003 20.7493 28.8505 21.8244 28.376C22.9003 28.8505 24.0757 29.1003 25.2494 29.1003H25.6754C26.845 29.1003 28.0163 28.8521 29.0882 28.3817L29.5271 28.6007C30.1819 28.9273 30.9134 29.1003 31.6433 29.1003C31.8802 29.1003 32.1089 29.0704 32.3337 29.0308V36.6842L31.1842 37.2589C28.9014 38.4003 27.4836 40.6943 27.4836 43.2463C27.4836 45.3302 28.4415 47.2314 30.0638 48.5005H3.23337C2.34177 48.5005 1.61668 47.7754 1.61668 46.8838ZM45.6931 47.7875L45.6333 47.8174C44.7401 48.2645 43.7394 48.5005 42.7411 48.5005H34.8597C33.8614 48.5005 32.8607 48.2645 31.9077 47.7875C30.1762 46.9218 29.1003 45.1823 29.1003 43.2463C29.1003 41.3103 30.1762 39.5707 31.9077 38.705L33.6699 37.8239C35.546 36.8854 37.2686 35.6899 38.8012 34.2656C40.3338 35.6907 42.0556 36.8854 43.9326 37.8239L45.6947 38.705C47.4246 39.5707 48.5005 41.3103 48.5005 43.2463C48.5005 45.1823 47.4246 46.9218 45.6931 47.7875Z" fill="black"/>
<path d="M37.9922 40.4171H39.6089V46.8839H37.9922V40.4171Z" fill="black"/>
<path d="M37.2689 36.8224C36.809 37.7431 36.1 38.5086 35.2181 39.0373L34.5076 39.4633C33.1666 40.2676 32.334 41.7395 32.334 43.3029C32.334 44.8032 33.0793 46.1967 34.3282 47.0285L35.1195 47.5556L36.016 46.2105L35.2246 45.6834C34.4268 45.1516 33.9507 44.2624 33.9507 43.3029C33.9507 42.3038 34.4826 41.3637 35.3402 40.8496L36.0507 40.4236C37.1962 39.7365 38.1177 38.7414 38.7158 37.5451L37.2689 36.8224Z" fill="black"/>
<path d="M43.0941 39.4633L42.3836 39.0373C41.5017 38.5086 40.7928 37.7423 40.3328 36.8224L38.8867 37.5459C39.4849 38.7414 40.4064 39.7373 41.5518 40.4244L42.2624 40.8504C43.1192 41.3637 43.6511 42.3038 43.6511 43.3029C43.6511 44.2624 43.175 45.1516 42.3771 45.6834L41.5858 46.2105L42.4822 47.5556L43.2736 47.0285C44.5225 46.1967 45.2678 44.804 45.2678 43.3029C45.2678 41.7395 44.4352 40.2676 43.0941 39.4633Z" fill="black"/>
<path d="M20.7641 30.717C19.7108 30.717 18.6907 31.0258 17.8145 31.6094L16.9738 32.1704L16.1331 31.6102C15.2569 31.0258 14.2359 30.717 13.1835 30.717C11.7632 30.717 10.4278 31.2707 9.42388 32.2747C8.55814 33.1388 8.08203 34.2891 8.08203 35.5121V35.8217C8.08203 37.4481 8.81035 38.9637 10.0803 39.9806L16.9738 45.4935L23.8673 39.979C25.1372 38.9629 25.8655 37.4473 25.8655 35.8209V35.5113C25.8655 34.2883 25.3894 33.138 24.5245 32.2739C23.5205 31.2707 22.1844 30.717 20.7641 30.717ZM24.2489 35.8209C24.2489 36.9534 23.7412 38.0091 22.8569 38.7164L16.9738 43.4241L11.0907 38.718C10.2064 38.0091 9.69872 36.9542 9.69872 35.8209V35.5113C9.69872 34.7199 10.0067 33.9771 10.5661 33.4169C11.2653 32.7193 12.1949 32.3337 13.1835 32.3337C13.9166 32.3337 14.6264 32.5487 15.2367 32.9553L16.9738 34.1137L18.7109 32.9545C19.3212 32.5487 20.0309 32.3337 20.7641 32.3337C21.7527 32.3337 22.6815 32.7193 23.3807 33.4177C23.9409 33.9771 24.2489 34.7207 24.2489 35.5121L24.2489 35.8209Z" fill="black"/>
<path d="M6.46629 8.08344H8.08298C8.97458 8.08344 9.69966 7.35836 9.69966 6.46676V4.85007C9.69966 3.95847 8.97458 3.23339 8.08298 3.23339H6.46629C5.57469 3.23339 4.84961 3.95847 4.84961 4.85007V6.46676C4.84961 7.35836 5.57469 8.08344 6.46629 8.08344ZM6.46629 4.85007H8.08298L8.08459 6.46676H6.46629V4.85007Z" fill="black"/>
<path d="M17.7841 3.23339H16.1675C15.2759 3.23339 14.5508 3.95847 14.5508 4.85007V6.46676C14.5508 7.35836 15.2759 8.08344 16.1675 8.08344H17.7841C18.6757 8.08344 19.4008 7.35836 19.4008 6.46676V4.85007C19.4008 3.95847 18.6757 3.23339 17.7841 3.23339ZM16.1675 6.46676V4.85007H17.7841L17.7858 6.46676H16.1675Z" fill="black"/>
<path d="M25.8686 8.08344H27.4853C28.3769 8.08344 29.102 7.35836 29.102 6.46676V4.85007C29.102 3.95847 28.3769 3.23339 27.4853 3.23339H25.8686C24.977 3.23339 24.252 3.95847 24.252 4.85007V6.46676C24.252 7.35836 24.977 8.08344 25.8686 8.08344ZM25.8686 4.85007H27.4853L27.4869 6.46676H25.8686L25.8686 4.85007Z" fill="black"/>
<path d="M6.46629 17.7836H8.08298C8.97458 17.7836 9.69966 17.0585 9.69966 16.1669V14.5502C9.69966 13.6586 8.97458 12.9335 8.08298 12.9335H6.46629C5.57469 12.9335 4.84961 13.6586 4.84961 14.5502V16.1669C4.84961 17.0585 5.57469 17.7836 6.46629 17.7836ZM6.46629 14.5502H8.08298L8.08459 16.1669H6.46629V14.5502Z" fill="black"/>
<path d="M16.1675 17.7836H17.7841C18.6757 17.7836 19.4008 17.0585 19.4008 16.1669V14.5502C19.4008 13.6586 18.6757 12.9335 17.7841 12.9335H16.1675C15.2759 12.9335 14.5508 13.6586 14.5508 14.5502V16.1669C14.5508 17.0585 15.2759 17.7836 16.1675 17.7836ZM16.1675 14.5502H17.7841L17.7858 16.1669H16.1675V14.5502Z" fill="black"/>
<path d="M25.8686 17.7836H27.4853C28.3769 17.7836 29.102 17.0585 29.102 16.1669V14.5502C29.102 13.6586 28.3769 12.9335 27.4853 12.9335H25.8686C24.977 12.9335 24.252 13.6586 24.252 14.5502V16.1669C24.252 17.0585 24.977 17.7836 25.8686 17.7836ZM25.8686 14.5502H27.4853L27.4869 16.1669H25.8686L25.8686 14.5502Z" fill="black"/>
</g>
</svg>
