<svg width="50" height="50" viewBox="0 0 50 50" fill="none" xmlns="http://www.w3.org/2000/svg">
<mask id="mask0_111_587" style="mask-type:luminance" maskUnits="userSpaceOnUse" x="0" y="0" width="50" height="50">
<path fill-rule="evenodd" clip-rule="evenodd" d="M0 0H50V50H0V0Z" fill="white"/>
</mask>
<g mask="url(#mask0_111_587)">
<path fill-rule="evenodd" clip-rule="evenodd" d="M34.3608 36.0262H4.8195C3.56637 36.0262 2.54688 35.0069 2.54688 33.7543V5.56787C2.54688 4.31434 3.56637 3.29507 4.8195 3.29507L41.8692 3.29504C43.1224 3.29504 44.1418 4.3144 44.1418 5.56787L44.1419 30.4541C44.1419 30.7372 43.913 30.9652 43.6308 30.9652C43.3487 30.9651 43.1199 30.7372 43.1199 30.4542L43.1199 5.56786C43.1199 4.87766 42.5589 4.31702 41.8692 4.31702L4.8195 4.31699C4.12985 4.31699 3.56883 4.87769 3.56883 5.56786V33.7542C3.56883 34.4435 4.12984 35.0042 4.8195 35.0042L34.3608 35.0042C34.643 35.0042 34.8717 35.2331 34.8717 35.5152C34.8717 35.7973 34.643 36.0262 34.3608 36.0262Z" fill="white"/>
<path fill-rule="evenodd" clip-rule="evenodd" d="M35.2512 33.0712H6.0129C5.73069 33.0712 5.50195 32.8432 5.50195 32.5602V6.76107C5.50195 6.479 5.73069 6.25015 6.0129 6.25015L40.6759 6.25009C40.9581 6.25009 41.1868 6.479 41.1868 6.76113V29.607C41.1868 29.8892 40.9581 30.1181 40.6759 30.1181C40.3936 30.118 40.1649 29.8892 40.1649 29.6071L40.1649 7.27208H6.52385V32.0493H35.2511C35.5333 32.0493 35.762 32.2782 35.762 32.5603C35.7621 32.8433 35.5334 33.0712 35.2512 33.0712Z" fill="white"/>
<path fill-rule="evenodd" clip-rule="evenodd" d="M17.6614 43.0166C17.6017 43.0166 17.5409 43.006 17.4817 42.9838C17.2176 42.8845 17.0839 42.59 17.1832 42.3256L19.8101 35.336C19.9093 35.0716 20.204 34.9377 20.4681 35.037C20.7323 35.1363 20.8659 35.4309 20.7667 35.6953L18.1398 42.6849C18.0628 42.8898 17.8682 43.0167 17.6614 43.0166Z" fill="white"/>
<path fill-rule="evenodd" clip-rule="evenodd" d="M29.0287 43.0166C28.822 43.0166 28.6273 42.8898 28.5504 42.6849L25.9234 35.6952C25.8241 35.4309 25.9578 35.1364 26.222 35.037C26.4863 34.9377 26.7807 35.0717 26.8801 35.336L29.5069 42.3256C29.6062 42.5899 29.4726 42.8845 29.2084 42.9838C29.1492 43.006 29.0885 43.0167 29.0287 43.0166Z" fill="white"/>
<path fill-rule="evenodd" clip-rule="evenodd" d="M15.6997 45.4039H30.9891V43.6137C30.9891 43.2846 30.7212 43.0158 30.3919 43.0158H16.2968C15.9675 43.0158 15.6997 43.2846 15.6997 43.6137L15.6997 45.4039ZM31.5001 46.4259H15.1887C14.9065 46.4259 14.6777 46.197 14.6777 45.9149V43.6137C14.6777 42.7204 15.404 41.9947 16.2968 41.9947L30.3919 41.9947C31.2847 41.9947 32.0109 42.7204 32.0109 43.6137L32.011 45.9149C32.011 46.197 31.7823 46.4259 31.5001 46.4259Z" fill="white"/>
<path fill-rule="evenodd" clip-rule="evenodd" d="M12.6782 28.7358H34.0123V17.7391H12.6782V28.7358ZM34.5231 29.7569H12.1672C11.885 29.7569 11.6562 29.529 11.6562 29.246V17.2281C11.6562 16.946 11.885 16.7172 12.1672 16.7172L34.5231 16.7171C34.8054 16.7171 35.0341 16.9461 35.0341 17.2282L35.0341 29.2459C35.0341 29.5289 34.8054 29.757 34.5231 29.7569Z" fill="white"/>
<path fill-rule="evenodd" clip-rule="evenodd" d="M21.977 19.972V22.5411L24.2024 21.2565L21.977 19.972ZM21.466 23.9374C21.3778 23.9374 21.2896 23.9144 21.2105 23.8691C21.0524 23.7778 20.9551 23.6092 20.9551 23.4265L20.9551 19.0867C20.9551 18.904 21.0524 18.7354 21.2105 18.644C21.3687 18.5527 21.5634 18.5527 21.7215 18.644L25.4798 20.8139C25.6379 20.9052 25.7352 21.0738 25.7352 21.2566C25.7353 21.4393 25.6379 21.6079 25.4798 21.6993L21.7215 23.8691C21.6424 23.9143 21.5542 23.9374 21.466 23.9374Z" fill="white"/>
<path fill-rule="evenodd" clip-rule="evenodd" d="M31.8636 26.4603H14.8293C14.5472 26.4603 14.3184 26.2315 14.3184 25.9494C14.3184 25.6672 14.5472 25.4384 14.8293 25.4384H31.8636C32.1458 25.4384 32.3746 25.6673 32.3746 25.9494C32.3746 26.2315 32.1458 26.4603 31.8636 26.4603Z" fill="white"/>
<path fill-rule="evenodd" clip-rule="evenodd" d="M17.8821 27.8984C17.5998 27.8984 17.3711 27.6704 17.3711 27.3874V24.5105C17.3711 24.2284 17.5998 23.9995 17.8821 23.9995C18.1643 23.9995 18.3929 24.2284 18.3929 24.5105V27.3874C18.3929 27.6704 18.1642 27.8984 17.8821 27.8984Z" fill="white"/>
<path fill-rule="evenodd" clip-rule="evenodd" d="M30.007 15.5275C29.7868 15.5275 29.5836 15.3838 29.5175 15.162L28.5364 11.8691L27.5556 15.162C27.4749 15.4326 27.1907 15.587 26.9199 15.5063C26.6495 15.4255 26.4955 15.1408 26.5761 14.8702L28.0468 9.93339C28.1113 9.71692 28.3104 9.5679 28.5364 9.5679C28.7625 9.56784 28.9617 9.71692 29.0262 9.93339L30.497 14.8702C30.5776 15.1407 30.4236 15.4255 30.1531 15.5063C30.1045 15.5205 30.0553 15.5276 30.007 15.5275Z" fill="white"/>
<path fill-rule="evenodd" clip-rule="evenodd" d="M29.5515 14H27.5247C27.2424 14 27.0137 13.772 27.0137 13.489C27.0137 13.2069 27.2424 12.978 27.5247 12.978H29.5515C29.8338 12.978 30.0625 13.2069 30.0625 13.489C30.0625 13.772 29.8338 14 29.5515 14Z" fill="white"/>
<path fill-rule="evenodd" clip-rule="evenodd" d="M19.2676 15.5275C17.5595 15.5275 16.1699 14.1898 16.1699 12.5459C16.17 10.9012 17.5595 9.56433 19.2676 9.56433C19.933 9.5643 20.5929 9.77546 21.1257 10.1596C21.3546 10.3246 21.4063 10.644 21.2412 10.8728C21.0761 11.1017 20.7567 11.1532 20.5278 10.9891C20.1678 10.7291 19.7202 10.5863 19.2676 10.5863C18.123 10.5863 17.1918 11.4654 17.1918 12.5459C17.1918 13.6265 18.123 14.5056 19.2676 14.5056C19.7202 14.5055 20.1678 14.3628 20.5278 14.1028C20.7567 13.9378 21.0761 13.9893 21.2412 14.2182C21.4063 14.447 21.3546 14.7664 21.1257 14.9314C20.5929 15.3155 19.933 15.5275 19.2676 15.5275Z" fill="white"/>
<path fill-rule="evenodd" clip-rule="evenodd" d="M23.1039 12.0367H24.1597C24.5124 12.0367 24.7978 11.948 24.9852 11.7813C25.1258 11.6552 25.2033 11.4894 25.2033 11.3137C25.2033 10.9536 24.8805 10.5899 24.1596 10.5899L23.1039 10.5898L23.1039 12.0367ZM24.1597 13.0587H22.5929C22.3107 13.0587 22.082 12.8298 22.082 12.5477V10.0788C22.082 9.79677 22.3107 9.56791 22.5929 9.56791L24.1597 9.56786C25.5157 9.56786 26.2252 10.4462 26.2252 11.3137C26.2252 11.7777 26.0213 12.2257 25.666 12.5433C25.2884 12.8804 24.7675 13.0587 24.1597 13.0587Z" fill="white"/>
<path fill-rule="evenodd" clip-rule="evenodd" d="M22.5929 15.5275C22.3107 15.5275 22.082 15.2987 22.082 15.0166V12.5477C22.082 12.2656 22.3107 12.0368 22.5929 12.0368C22.8751 12.0367 23.1039 12.2656 23.1039 12.5478L23.1039 15.0165C23.1039 15.2987 22.8751 15.5276 22.5929 15.5275Z" fill="white"/>
<path fill-rule="evenodd" clip-rule="evenodd" d="M40.5735 33.2832C40.2913 33.2832 40.0625 33.0543 40.0625 32.7722L40.0625 31.7095C40.0625 31.4273 40.2913 31.1985 40.5735 31.1985C40.8557 31.1985 41.0845 31.4274 41.0845 31.7095V32.7722C41.0845 33.0543 40.8557 33.2832 40.5735 33.2832Z" fill="white"/>
<path fill-rule="evenodd" clip-rule="evenodd" d="M40.4446 40.3189C40.1624 40.3189 39.9336 40.0901 39.9336 39.808V38.7452C39.9336 38.4631 40.1624 38.2343 40.4446 38.2343C40.7268 38.2342 40.9556 38.4631 40.9556 38.7452V39.808C40.9556 40.0901 40.7268 40.3189 40.4446 40.3189Z" fill="white"/>
<path fill-rule="evenodd" clip-rule="evenodd" d="M40.3588 39.2589C40.3222 39.2589 40.2856 39.2571 40.2492 39.2553C39.4201 39.2136 38.4569 38.6548 38.4709 37.2158C38.4736 36.9346 38.7019 36.7093 38.9817 36.7093C38.9801 36.7093 38.9834 36.7093 38.9817 36.7093C39.264 36.712 39.4955 36.9435 39.4928 37.2256C39.485 38.0258 39.9278 38.2165 40.3005 38.2352C40.866 38.2635 41.436 37.9104 41.4725 37.5095C41.4731 37.5024 41.4738 37.4953 41.4747 37.4891C41.5743 36.7288 40.556 36.2968 40.2415 36.1824C38.8576 35.6794 38.2881 34.9165 38.5489 33.9158C38.8891 32.6108 39.9871 32.1548 40.8634 32.2835C41.8933 32.4343 42.5859 33.2806 42.5479 34.3425C42.5378 34.6246 42.2992 34.8482 42.0189 34.8349C41.7369 34.8251 41.5164 34.5882 41.5265 34.3061C41.5501 33.6505 41.1042 33.3516 40.7153 33.2939C40.2942 33.2327 39.7328 33.4261 39.5379 34.1739C39.4826 34.3859 39.3794 34.7816 40.5907 35.2216C41.0849 35.4017 42.6795 36.1043 42.4893 37.6124C42.3909 38.6201 41.3321 39.258 40.3588 39.2589Z" fill="white"/>
<path fill-rule="evenodd" clip-rule="evenodd" d="M40.5107 30.1162C37.3991 30.1162 34.8677 32.6471 34.8677 35.7592C34.8677 38.8703 37.3991 41.4021 40.5107 41.4021C43.6223 41.4021 46.1538 38.8703 46.1538 35.7592C46.1538 32.6471 43.6222 30.1162 40.5107 30.1162ZM40.5107 42.4241C36.8356 42.4241 33.8457 39.4336 33.8457 35.7592C33.8457 32.0838 36.8355 29.0942 40.5107 29.0942C44.1858 29.0942 47.1757 32.0838 47.1757 35.7592C47.1757 39.4336 44.1857 42.4241 40.5107 42.4241Z" fill="white"/>
</g>
</svg>
