<svg width="50" height="50" viewBox="0 0 50 50" fill="none" xmlns="http://www.w3.org/2000/svg">
<mask id="mask0_111_247" style="mask-type:luminance" maskUnits="userSpaceOnUse" x="0" y="0" width="50" height="50">
<path fill-rule="evenodd" clip-rule="evenodd" d="M0 0H50V50H0V0Z" fill="white"/>
</mask>
<g mask="url(#mask0_111_247)">
<path d="M19.0668 31.2502V23.1297C19.0668 22.2755 18.3743 21.5832 17.5202 21.5832C16.808 21.5832 16.2306 21.0058 16.2306 20.2935V18.734H17.4549C18.1558 18.734 18.7239 18.1596 18.7239 17.4587C18.7239 16.7579 18.1558 16.1897 17.4549 16.1897H7.11582C6.41494 16.1897 5.84678 16.7579 5.84678 17.4587C5.84678 18.1596 6.41494 18.734 7.11582 18.734H8.34014V20.2935C8.34014 21.0057 7.76279 21.5832 7.05049 21.5832C6.19629 21.5832 5.50391 22.2756 5.50391 23.1297V45.9815C5.50391 47.0935 6.40537 47.9951 7.51748 47.9951H10.4954" stroke="black" stroke-width="0.98877" stroke-linecap="round" stroke-linejoin="round"/>
<path d="M13.6855 18.734H16.6811" stroke="black" stroke-width="0.98877" stroke-linecap="round" stroke-linejoin="round"/>
<path d="M9.17578 25.4172H18.6558" stroke="black" stroke-width="0.98877" stroke-linecap="round" stroke-linejoin="round"/>
<path d="M22.9707 31.5006V11.5052H38.4168V34.4071" stroke="black" stroke-width="0.98877" stroke-linecap="round" stroke-linejoin="round"/>
<path d="M43.9419 47.995V11.5052M43.9419 11.5052H38.418L41.2776 6.06662L43.9419 11.5052Z" stroke="black" stroke-width="0.98877" stroke-linecap="round" stroke-linejoin="round"/>
<path d="M31.2044 6.1113H26.8627L22.9707 11.5052" stroke="black" stroke-width="0.98877" stroke-linecap="round" stroke-linejoin="round"/>
<path d="M26.8555 6.06247V1.91208H41.2442V6.1113H35.922" stroke="black" stroke-width="0.98877" stroke-linecap="round" stroke-linejoin="round"/>
<path d="M17.9449 47.9951H39.8852V38.2803H13.2734" stroke="black" stroke-width="0.98877" stroke-linecap="round" stroke-linejoin="round"/>
<path d="M18.1402 47.9951H13.2734V38.2803C13.2734 38.2803 14.4713 34.818 20.763 34.6299L39.8853 38.2803" stroke="black" stroke-width="0.98877" stroke-linecap="round" stroke-linejoin="round"/>
<path d="M21.2666 41.0865C20.8991 42.2745 19.6379 42.9395 18.4499 42.5719C17.262 42.2043 16.5969 40.9432 16.9645 39.7552C17.1688 39.0949 17.6492 38.5961 18.2396 38.3465" stroke="black" stroke-width="0.98877" stroke-linecap="round" stroke-linejoin="round"/>
<path d="M23.9342 47.9934C22.9143 47.2818 22.6643 45.8782 23.376 44.8583C24.0876 43.8385 25.4912 43.5885 26.511 44.3001C27.0779 44.6956 27.4068 45.3049 27.4651 45.9433" stroke="black" stroke-width="0.98877" stroke-linecap="round" stroke-linejoin="round"/>
<path d="M34.1106 43.9364C33.4129 44.6568 32.2633 44.6753 31.5429 43.9777C30.8225 43.28 30.8039 42.1304 31.5016 41.41C31.8894 41.0096 32.4167 40.826 32.9325 40.8616" stroke="black" stroke-width="0.98877" stroke-linecap="round" stroke-linejoin="round"/>
</g>
</svg>
