<svg width="50" height="50" viewBox="0 0 50 50" fill="none" xmlns="http://www.w3.org/2000/svg">
<mask id="mask0_111_657" style="mask-type:luminance" maskUnits="userSpaceOnUse" x="0" y="0" width="50" height="50">
<path fill-rule="evenodd" clip-rule="evenodd" d="M0 0H50V50H0V0Z" fill="white"/>
</mask>
<g mask="url(#mask0_111_657)">
<path d="M25.4999 17.1057H12.3483C12.0369 17.1062 11.7712 17.2165 11.551 17.4366C11.3309 17.6568 11.2205 17.9225 11.2201 18.2339V27.0897C11.2206 27.4011 11.3309 27.6668 11.5511 27.887C11.7712 28.1071 12.037 28.2175 12.3483 28.218C12.5385 28.2179 12.6806 28.3005 12.7747 28.4658C12.8688 28.6311 12.8673 28.7955 12.7701 28.959L12.103 30.0808L15.2438 28.2837C15.3193 28.2404 15.4005 28.2188 15.4876 28.2188H25.4999C25.8112 28.2184 26.077 28.1081 26.2971 27.8879C26.5173 27.6677 26.6276 27.402 26.6281 27.0906V18.2343C26.6278 17.9228 26.5175 17.657 26.2973 17.4367C26.0771 17.2165 25.8113 17.1061 25.4999 17.1057ZM21.6256 27.1031C21.5655 27.1112 21.5051 27.1152 21.4444 27.1151C20.9041 27.1183 20.4865 26.8937 20.1914 26.4411C19.7738 26.7337 19.31 26.8823 18.8001 26.8869C17.0777 26.8869 15.6765 24.9836 15.6765 22.6438C15.6765 20.304 17.0777 18.4008 18.8001 18.4008C20.5224 18.4008 21.9236 20.304 21.9236 22.6438C21.9236 23.8603 21.5441 24.9585 20.938 25.733C21.052 26.1128 21.3325 26.1479 21.5003 26.1301C21.6342 26.1119 21.7548 26.1439 21.8621 26.226C21.9694 26.3082 22.0317 26.4163 22.049 26.5503C22.0665 26.685 22.0339 26.8062 21.9514 26.914C21.8688 27.0219 21.7602 27.0849 21.6256 27.1031ZM46.5142 4.36362H3.71702C3.37393 4.36398 3.04394 4.42989 2.72704 4.56135C2.41014 4.69281 2.13039 4.87983 1.88778 5.12242C1.64518 5.36502 1.45815 5.64476 1.32668 5.96166C1.19521 6.27855 1.12928 6.60854 1.12891 6.95163V35.9947C1.1293 36.3378 1.19523 36.6678 1.3267 36.9847C1.45817 37.3016 1.64521 37.5813 1.88781 37.8239C2.13041 38.0665 2.41016 38.2535 2.72705 38.385C3.04395 38.5165 3.37393 38.5824 3.71702 38.5828H46.5142C46.8572 38.5824 47.1872 38.5165 47.5041 38.385C47.821 38.2535 48.1008 38.0665 48.3434 37.8239C48.586 37.5813 48.773 37.3016 48.9045 36.9847C49.036 36.6678 49.1019 36.3378 49.1023 35.9947V6.95163C49.1019 6.60854 49.036 6.27855 48.9045 5.96166C48.773 5.64476 48.586 5.36502 48.3434 5.12242C48.1008 4.87983 47.821 4.69281 47.5041 4.56135C47.1872 4.42989 46.8572 4.36398 46.5142 4.36362ZM34.7509 37.4401H31.8288C31.6934 37.4401 31.5777 37.3922 31.482 37.2965C31.3862 37.2007 31.3383 37.0851 31.3383 36.9496C31.3383 36.8141 31.3862 36.6985 31.482 36.6027C31.5777 36.507 31.6934 36.4591 31.8288 36.4591H34.7509C34.8863 36.4591 35.002 36.507 35.0977 36.6027C35.1935 36.6985 35.2414 36.8141 35.2414 36.9496C35.2414 37.0851 35.1935 37.2007 35.0977 37.2965C35.002 37.3922 34.8863 37.4401 34.7509 37.4401ZM39.2077 37.4401H36.2855C36.1501 37.4401 36.0345 37.3922 35.9387 37.2965C35.8429 37.2007 35.795 37.0851 35.795 36.9496C35.795 36.8141 35.8429 36.6985 35.9387 36.6027C36.0345 36.507 36.1501 36.4591 36.2855 36.4591H39.2077C39.3431 36.4591 39.4588 36.507 39.5545 36.6027C39.6503 36.6985 39.6982 36.8141 39.6982 36.9496C39.6982 37.0851 39.6503 37.2007 39.5545 37.2965C39.4588 37.3922 39.3431 37.4401 39.2077 37.4401ZM43.6644 37.4401H40.7424C40.6069 37.4401 40.4913 37.3922 40.3955 37.2965C40.2997 37.2007 40.2518 37.0851 40.2518 36.9496C40.2518 36.8141 40.2997 36.6985 40.3955 36.6027C40.4913 36.507 40.6069 36.4591 40.7424 36.4591H43.6644C43.7999 36.4591 43.9155 36.507 44.0113 36.6027C44.107 36.6985 44.1549 36.8141 44.1549 36.9496C44.1549 37.0851 44.107 37.2007 44.0113 37.2965C43.9155 37.3922 43.7999 37.4401 43.6644 37.4401ZM47.6307 34.1369C47.6303 34.4451 47.5212 34.7081 47.3033 34.926C47.0854 35.1439 46.8223 35.253 46.5142 35.2534H3.71702C3.40886 35.253 3.14582 35.1439 2.92791 34.926C2.71 34.7081 2.60086 34.4451 2.60048 34.1369V6.95163C2.60083 6.64346 2.70997 6.38043 2.92789 6.16253C3.1458 5.94463 3.40885 5.83552 3.71702 5.8352H46.5142C46.8223 5.83552 47.0854 5.94463 47.3033 6.16253C47.5212 6.38043 47.6303 6.64346 47.6307 6.95163V34.1369ZM46.5142 6.81625H3.71702C3.62682 6.81631 3.58166 6.86144 3.58153 6.95163V34.1365C3.58166 34.2267 3.62682 34.2719 3.71702 34.2719H46.5142C46.6044 34.2719 46.6495 34.2267 46.6496 34.1365V6.95163C46.6495 6.86144 46.6044 6.81631 46.5142 6.81625ZM39.9925 19.6809C39.992 20.1137 39.87 20.5091 39.6265 20.867C39.3829 21.2249 39.06 21.4835 38.6575 21.643L39.9237 23.7734C40.0525 23.9901 40.0285 24.1883 39.8517 24.368C39.6749 24.5477 39.4771 24.575 39.2583 24.4497L34.6131 21.7906H27.6095V27.0901C27.6091 27.3697 27.5553 27.6386 27.4482 27.8969C27.341 28.1551 27.1886 28.3831 26.9909 28.5808C26.7932 28.7785 26.5652 28.9309 26.307 29.0381C26.0488 29.1452 25.7798 29.199 25.5003 29.1994H15.618L10.9729 31.8587C10.7541 31.9839 10.5564 31.9566 10.3796 31.777C10.2029 31.5973 10.1788 31.3992 10.3075 31.1825L11.5737 29.0521C11.1712 28.8927 10.8483 28.634 10.6048 28.2762C10.3613 27.9183 10.2392 27.5229 10.2386 27.09V18.2343C10.239 17.9547 10.2928 17.6858 10.4 17.4276C10.5071 17.1693 10.6596 16.9414 10.8573 16.7437C11.055 16.546 11.2829 16.3935 11.5412 16.2864C11.7994 16.1792 12.0683 16.1254 12.3479 16.125H22.6217V10.8251C22.622 10.5455 22.6758 10.2766 22.783 10.0184C22.8901 9.76012 23.0425 9.53214 23.2403 9.33444C23.438 9.13674 23.6659 8.98431 23.9242 8.87714C24.1824 8.76998 24.4513 8.71622 24.7309 8.71585H37.8829C38.1625 8.71622 38.4314 8.76998 38.6896 8.87714C38.9479 8.98431 39.1758 9.13674 39.3735 9.33444C39.5713 9.53215 39.7237 9.76012 39.8308 10.0184C39.938 10.2766 39.9918 10.5455 39.9921 10.8251L39.9925 19.6809ZM20.9426 22.6436C20.9492 23.3639 20.7873 24.0441 20.4571 24.6842C20.1115 24.3496 19.7 24.2117 19.2225 24.2706C19.0879 24.2888 18.9794 24.3518 18.8968 24.4596C18.8142 24.5674 18.7816 24.6887 18.7991 24.8233C18.8166 24.9573 18.8789 25.0653 18.9862 25.1474C19.0934 25.2296 19.2139 25.2616 19.3478 25.2436C19.5661 25.2095 19.7307 25.288 19.8417 25.4791C19.5485 25.7531 19.2013 25.8955 18.8001 25.9062C17.6387 25.9062 16.6576 24.4124 16.6576 22.6442C16.6576 20.8761 17.6386 19.3822 18.8001 19.3822C19.9615 19.3822 20.9426 20.8756 20.9426 22.6438V22.6436ZM31.1988 13.6038L32.1421 16.2669H30.2556L31.1988 13.6038ZM29.1663 39.5634V43.3208H21.0649V39.5634H29.1663ZM37.8829 9.69651H24.7313C24.42 9.69694 24.1542 9.80725 23.934 10.0274C23.7138 10.2476 23.6035 10.5134 23.6031 10.8247V16.1243H25.5003C25.7799 16.1246 26.0488 16.1784 26.307 16.2856C26.5652 16.3927 26.7932 16.5452 26.9909 16.7429C27.1886 16.9406 27.341 17.1685 27.4482 17.4268C27.5554 17.685 27.6091 17.9539 27.6095 18.2335V20.8088H34.7436C34.8306 20.8088 34.9119 20.8304 34.9874 20.8736L38.1279 22.6721L37.4607 21.5503C37.3635 21.3868 37.362 21.2224 37.4561 21.0571C37.5502 20.8917 37.6924 20.8091 37.8826 20.8092C38.1939 20.8087 38.4597 20.6984 38.6798 20.4782C38.9 20.2581 39.0103 19.9923 39.0108 19.681V10.8251C39.0105 10.5137 38.9002 10.2479 38.6801 10.0277C38.46 9.80744 38.1943 9.69705 37.8829 9.69651ZM33.6716 19.1165C33.5439 19.1619 33.4189 19.1554 33.2966 19.0971C33.1743 19.0387 33.0906 18.9457 33.0455 18.8178L32.4896 17.2481H29.9081L29.3521 18.8178C29.3057 18.9439 29.2218 19.0354 29.1002 19.0925C28.9787 19.1496 28.8546 19.1557 28.728 19.1109C28.6014 19.0661 28.5088 18.9833 28.4503 18.8624C28.3917 18.7416 28.3841 18.6176 28.4273 18.4904L30.7364 11.971C30.8136 11.7532 30.9677 11.6443 31.1988 11.6443C31.4299 11.6443 31.584 11.7532 31.6612 11.971L33.9702 18.4904C34.0153 18.6181 34.0088 18.743 33.9505 18.8653C33.8922 18.9875 33.7993 19.0712 33.6716 19.1165ZM34.5546 45.084C34.5543 45.2999 34.4779 45.4842 34.3252 45.6368C34.1726 45.7895 33.9883 45.8659 33.7724 45.8662H16.4583C16.244 45.8638 16.0615 45.7864 15.9108 45.634C15.7601 45.4816 15.6848 45.2982 15.6848 45.0839C15.6848 44.8696 15.7601 44.6863 15.9108 44.5339C16.0615 44.3815 16.244 44.3041 16.4583 44.3017H33.7729C33.9888 44.302 34.1731 44.3784 34.3257 44.5311C34.4784 44.6838 34.5548 44.8681 34.5551 45.084H34.5546Z" fill="white"/>
</g>
</svg>
