<svg width="50" height="50" viewBox="0 0 50 50" fill="none" xmlns="http://www.w3.org/2000/svg">
<mask id="mask0_111_218" style="mask-type:luminance" maskUnits="userSpaceOnUse" x="0" y="0" width="50" height="50">
<path fill-rule="evenodd" clip-rule="evenodd" d="M0 0H50V50H0V0Z" fill="white"/>
</mask>
<g mask="url(#mask0_111_218)">
<path d="M9.85742 21.8318V38.6274C9.85742 38.8534 10.0473 39.0388 10.2806 39.0388H17.4786V21.4188H10.2806C10.0474 21.4188 9.85742 21.6041 9.85742 21.8318Z" fill="black"/>
<path d="M14.8325 11.4209H12.3745V6.30737H5.10316V11.4209H2.64664C1.18521 11.4209 0 12.5785 0 14.0029V47.3682C0 48.7926 1.18521 49.9502 2.64664 49.9502H14.8325C16.2925 49.9502 17.4791 48.7926 17.4791 47.3682V40.7036H10.2812C9.10628 40.7036 8.15136 39.772 8.15136 38.6274V21.8317C8.15136 20.6854 9.10628 19.7537 10.2812 19.7537H17.4791V14.0029C17.4791 12.5786 16.2925 11.4209 14.8325 11.4209Z" fill="black"/>
<path d="M12.3748 1.95805C12.3748 0.875081 11.6698 0.000335693 10.8032 0.000335693H6.67353C5.80513 0.000335693 5.10352 0.875081 5.10352 1.95805V4.64252H12.3749L12.3748 1.95805Z" fill="black"/>
<path d="M30.5856 21.9033V13.7883H24.3277V21.9015C24.3277 24.36 23.3978 26.7322 21.7162 28.563C21.4297 28.8752 21.2695 29.2815 21.2695 29.7028V35.4326H25.4327C26.1375 35.4326 26.7093 35.9901 26.7093 36.6763V42.611C26.7093 43.2988 26.1375 43.8564 25.4327 43.8564H21.2695V48.7538C21.2695 49.4415 21.8413 49.9992 22.5461 49.9992H32.3657C33.0704 49.9992 33.6421 49.4415 33.6421 48.7538V29.7028C33.6421 29.2816 33.4838 28.8752 33.1956 28.563C31.5139 26.7323 30.5856 24.3601 30.5856 21.9033Z" fill="black"/>
<path d="M30.5879 10.1771C30.5879 9.48931 30.0164 8.93167 29.3112 8.93167H25.605C24.9018 8.93167 24.3301 9.48931 24.3301 10.1771V12.1234H30.5879V10.1771Z" fill="black"/>
<path d="M48.7101 17.0125H46.6569V6.49762H40.3641V17.0125H38.3108C37.7658 17.0125 37.3242 17.4433 37.3242 17.9749V28.6329H49.6969V17.9749C49.6969 17.4433 49.2553 17.0125 48.7101 17.0125Z" fill="black"/>
<path d="M37.3243 48.8285C37.3243 49.4755 37.8609 49.9991 38.5241 49.9991H48.4968C49.1601 49.9991 49.6969 49.4755 49.6969 48.8285V41.3623H37.3242V48.8285H37.3243Z" fill="black"/>
<path d="M49.6969 30.2979H37.3242V39.6974H49.6969V30.2979Z" fill="black"/>
<path d="M47.883 1.51909C47.883 0.707735 47.2095 0.0509644 46.3779 0.0509644H40.6416C39.81 0.0509644 39.1367 0.707735 39.1367 1.51909V4.57248H47.883V1.51909Z" fill="black"/>
</g>
</svg>
