<svg width="50" height="50" viewBox="0 0 50 50" fill="none" xmlns="http://www.w3.org/2000/svg">
<mask id="mask0_111_312" style="mask-type:luminance" maskUnits="userSpaceOnUse" x="0" y="0" width="50" height="50">
<path fill-rule="evenodd" clip-rule="evenodd" d="M0 0H50V50H0V0Z" fill="white"/>
</mask>
<g mask="url(#mask0_111_312)">
<path d="M33.0054 24.9948C32.9985 23.0431 32.8441 21.094 32.8038 19.1434C32.7641 17.2292 32.4768 15.3266 32.5108 13.4103C32.5203 12.8648 32.2292 12.5633 31.6079 12.4465C31.1996 12.3697 30.7819 12.3259 30.3673 12.2762C29.8192 12.2103 29.2704 12.1533 28.5874 12.0775C29.0272 11.7694 29.2307 11.4867 29.2402 11.0862C29.2553 10.4035 29.1513 9.72744 29.145 9.04863C29.1368 8.15019 28.9037 7.2595 29.0568 6.35442C29.1192 5.98707 28.8004 5.76357 28.3429 5.76412C28.0991 5.76412 27.8729 5.92235 27.573 5.81336C27.573 4.73621 27.578 3.65244 27.5705 2.56812C27.5667 2.03647 27.4199 1.45337 28.2888 1.30842C28.3253 1.30233 28.3568 1.26637 28.3877 1.24148C28.6555 1.02849 28.8104 0.77179 28.6888 0.454237C28.5672 0.135025 28.2692 0.0039107 27.905 0.000591337C27.5919 -0.0021748 27.2788 0.00280425 26.9669 0.0586802C25.2714 0.362955 23.5576 0.425469 21.8375 0.292695C20.4161 0.183156 19.0004 0.0548077 17.5739 0.238479C16.2627 0.407213 14.9711 0.630717 13.7652 1.13637C13.3077 1.32778 12.8837 1.56788 12.5787 1.93467C12.2807 2.29316 12.2902 2.66161 12.5838 2.94486C13.1584 3.49864 13.8987 3.58384 14.6208 3.18994C14.8155 3.08372 15.0209 2.9847 15.2345 2.91388C17.3483 2.21516 19.5447 1.8622 21.7915 1.72611C22.1551 1.6481 21.9629 1.91365 22.0278 2.02042C22.1752 2.07685 22.1576 2.19469 22.1589 2.30146C22.1658 2.86907 22.1986 3.8162 22.1992 3.91246C22.1998 4.00872 22.2042 4.13596 22.2137 4.22724C22.2231 4.31853 22.3573 5.10909 22.4292 5.55002C22.8475 5.5882 22.7637 5.27948 22.7984 5.09802C22.9597 4.24495 23.0315 3.38136 23.0239 2.51777C23.0208 2.11336 23.1512 2.042 23.5979 2.08736C24.451 2.17367 25.3029 2.23618 26.1295 2.46134C26.5 2.56203 26.6645 2.73464 26.6512 3.09589C26.6222 3.90416 26.6317 4.71408 26.6474 5.5229C26.6531 5.82498 26.5958 5.99371 26.1825 6.00865C24.9286 6.05346 23.6761 6.13479 22.4229 6.20173C22.0921 6.24709 21.7607 6.28748 21.4311 6.33893C20.7778 6.44127 20.6669 6.54417 20.6076 7.12617C20.5724 7.47415 20.5554 7.82379 20.5346 8.17287C20.4779 9.10783 20.6064 10.0494 20.4035 10.9805C20.3468 11.2405 20.4747 11.4319 20.7286 11.5874C20.9347 11.7141 21.2075 11.8319 21.1495 12.1334C20.3418 12.2391 19.5391 12.2535 18.7779 12.4753C18.221 12.6374 18.1347 12.7724 18.2569 13.2974C18.2682 13.3478 18.2884 13.423 18.2626 13.4413C17.9318 13.6797 18.0748 14.0183 18.0603 14.307C17.8707 18.0402 17.7169 21.7745 17.7276 25.5121C17.7415 30.4823 17.7402 35.4525 17.8757 40.4221C17.9393 42.7584 17.928 45.0974 17.836 47.4348C17.8202 47.8365 17.8751 48.2259 18.255 48.4865C18.5927 48.7177 18.9752 48.8942 19.3979 48.9988C20.4886 49.2688 21.595 49.4629 22.7209 49.5747C23.2205 49.6245 23.7189 49.682 24.216 49.7467C24.388 49.7694 27.5768 49.8308 28.4557 49.7506C28.6397 49.7335 29.1778 49.6925 29.3618 49.6621C30.2697 49.5122 31.1663 49.323 32.0219 49.0132C32.5656 48.8162 32.8674 48.5119 32.8366 47.9161C32.7175 45.6352 32.679 43.3503 32.7521 41.0683C32.9229 35.7114 33.0243 30.3539 33.0054 24.9948ZM25.9197 1.20663C24.7056 1.18726 23.4915 1.14245 22.2773 1.11922C20.0412 1.07606 17.853 1.35046 15.7108 1.90978C15.2288 2.03536 14.7512 2.17643 14.3133 2.39772C14.0033 2.55429 13.6971 2.5742 13.3285 2.44475C13.6221 2.068 14.0216 1.87603 14.4299 1.70232C15.8255 1.10926 17.3231 0.805537 18.8498 0.729745C21.5401 0.596417 24.228 0.94163 26.9341 0.861966C26.6726 1.20995 26.2877 1.21161 25.9197 1.20663ZM21.0802 7.42048C21.0739 7.23958 21.06 7.08191 21.3549 7.11123C23.6767 7.34137 25.989 7.17817 28.3467 6.95577C28.314 8.22985 28.2144 9.4724 28.1067 10.7149C28.0865 10.949 27.9473 10.9788 27.7393 10.9811C27.3619 10.9849 26.9852 11.0054 26.6084 11.001C25.1618 10.9838 23.7214 11.022 22.2893 11.24C21.457 11.3667 21.205 11.1741 21.176 10.4538C21.135 9.44308 21.1155 8.43178 21.0802 7.42048ZM31.8366 27.5347C31.6382 32.116 31.4573 36.6978 31.3402 41.2813C31.2897 43.2331 31.3187 45.1843 31.3559 47.1355C31.3742 48.076 31.1253 48.3056 30.0599 48.5014C26.9694 49.0696 23.8651 49.1061 20.7381 48.7797C20.1383 48.7172 19.5466 48.632 18.9563 48.5341C18.6828 48.4887 18.4787 48.3963 18.7023 48.0943C18.8932 47.8359 18.8523 47.5255 18.8592 47.2329C18.9682 42.739 18.8107 38.2468 18.7017 33.7546C18.5959 29.3913 18.4358 25.0286 18.4289 20.6636C18.4251 18.251 18.4163 15.8389 18.2865 13.4291C18.2689 13.0999 18.4062 12.9931 18.7509 12.9267C19.8673 12.7121 21.0021 12.7243 22.1311 12.6745C23.85 12.5992 25.5675 12.6429 27.2819 12.768C27.5169 12.7851 27.803 12.7458 27.9536 13.0756C25.8951 13.2543 23.8657 13.2753 21.8527 13.5325C21.8785 13.7317 22.048 13.7267 22.208 13.7444C23.7271 13.9126 25.2588 13.9397 26.7829 14.0526C27.7431 14.1234 28.7065 14.2036 29.6705 14.0708C30.1141 14.01 30.5513 13.943 30.7498 13.517C30.7832 13.4457 30.8342 13.3887 30.9199 13.3671C31.3408 13.2615 32.1233 13.7826 32.1038 14.1682C31.877 18.6217 32.0294 23.0812 31.8366 27.5347Z" fill="black"/>
<path d="M50.0839 19.6286C50.0952 19.5262 50.1192 18.2051 50.1028 18.1044C50.0064 17.5224 49.9806 16.9316 49.8067 16.3596C48.9309 13.4839 45.6274 11.6743 42.2875 12.2258C40.3784 12.5412 39.0193 13.4363 38.1694 14.9903C37.487 16.2378 37.3339 17.5595 37.194 18.9011C36.9458 21.2866 37.5192 23.6345 37.5828 26.0062C37.6244 27.5508 37.7939 29.091 37.6836 30.6406C37.5614 32.3688 37.2243 34.0766 37.0844 35.8016C36.9452 37.5144 36.9912 39.225 37.3522 40.9178C37.424 41.2525 37.4265 41.5579 37.3345 41.8921C36.9704 43.2171 36.8551 44.5453 37.4297 45.8565C37.55 46.1309 37.6433 46.4352 37.9394 46.6017C38.6967 47.0271 39.4535 47.4553 40.3696 47.5931C42.9049 47.9731 45.4082 47.935 47.9089 47.332C48.9454 47.0824 49.7052 46.7417 49.6586 45.6734C49.658 45.6562 49.6706 45.6385 49.6743 45.6203C49.9037 44.5083 50.0114 43.3902 49.743 42.2755C49.6057 41.7062 49.6164 41.1624 49.7304 40.5892C50.1872 38.2983 50.014 36.0041 49.68 33.7143C49.4192 31.9235 49.2075 30.1299 49.2843 28.3203C49.4072 25.4131 49.7544 22.5214 50.0839 19.6286ZM49.3158 39.6781C49.3568 40.2462 49.4192 40.8315 48.9725 41.3682C48.6883 41.7101 48.3342 41.8273 47.9297 41.9065C46.7376 42.1394 45.5197 42.1886 44.3062 42.2279C43.0914 42.2677 41.8735 42.2384 40.6569 42.2395C40.4307 42.2395 40.2051 42.2395 39.938 42.2395C40.8938 42.9919 47.6191 42.858 49.3385 42.0597C49.4173 42.8442 49.2547 43.5955 49.1911 44.3484C49.1621 44.6958 49.0613 45.0377 49.0147 45.3846C48.9844 45.612 48.8761 45.6878 48.6089 45.6839C48.1502 45.6773 47.7256 45.7624 47.558 46.22C47.4969 46.387 47.3167 46.4075 47.156 46.4457C44.729 47.0199 42.2749 47.1156 39.7994 46.75C38.7415 46.5934 38.1177 46.0551 37.889 45.1135C37.6546 44.1487 37.4788 43.1551 37.6868 42.2113C37.8348 41.5402 37.7296 40.9284 37.6779 40.2955C37.5021 38.1473 37.7832 36.0323 38.2173 33.9256C38.2696 33.6722 38.3143 33.4161 38.3357 33.1599C38.3779 32.6532 38.5153 32.2471 39.0628 31.9185C39.6381 31.5733 39.7868 30.9315 39.8737 30.3473C40.1352 28.5859 39.9619 26.8576 39.2178 25.1913C39.1378 25.0126 39.0704 24.8145 38.7459 24.6336C39.1693 26.6048 39.1094 28.4835 38.8177 30.3612C38.807 30.4298 38.7673 30.5028 38.6123 30.5006C38.4076 30.2323 38.6747 29.9656 38.681 29.6995C38.7182 28.0548 38.5644 26.4261 38.2425 24.8079C37.7605 22.3864 37.458 19.9467 37.7819 17.4981C38.0409 15.5413 39.0565 13.9049 41.2863 13.2028C43.5602 12.487 45.6734 12.8222 47.4036 14.4166C48.0633 15.0246 48.5188 15.7427 48.8653 16.5244C49.026 16.8873 48.9964 17.0633 48.5213 17.2054C47.4345 17.5302 46.318 17.643 45.1851 17.6978C43.3838 17.7847 41.5799 17.7902 39.776 17.7996C39.6551 17.8007 39.5221 17.7797 39.4194 17.876C39.4087 18.1426 39.6223 18.1432 39.8416 18.1559C42.646 18.3163 45.4498 18.4773 48.2561 18.1686C48.9743 18.0895 49.0203 18.1244 49.0972 18.7738C49.2251 19.862 49.1186 20.9425 48.9347 22.0207C48.5333 24.3692 48.0595 26.7077 48.0248 29.0959C47.9946 31.1318 48.2473 33.1345 48.6467 35.135C48.9473 36.6386 49.2068 38.1528 49.3158 39.6781Z" fill="black"/>
<path d="M13.5844 16.3728C13.0111 16.4901 12.4314 16.5686 11.8454 16.6096C9.98298 16.7401 8.11673 16.7213 6.25048 16.7877C4.51088 16.7877 2.77064 16.7706 1.02978 16.7949C0.0500296 16.8082 -0.121978 17.0333 0.0771226 17.8543C0.430588 19.3137 0.709073 20.7848 0.904393 22.2658C1.307 25.3185 1.76191 28.3667 1.99944 31.4349C2.13428 33.1787 2.34598 34.9181 2.40583 36.6657C2.49341 39.2205 2.56965 41.7753 2.64904 44.3307C2.65345 44.4778 2.7152 44.6261 2.71331 44.7616C2.70637 45.254 3.07118 45.7381 2.68432 46.2487C2.51295 46.4755 2.7341 46.7438 2.95084 46.933C3.17766 47.1311 3.46246 47.2511 3.76174 47.3419C5.8126 47.9626 7.90818 48.0251 10.0296 47.7164C10.5311 47.6434 10.9993 47.4735 11.4101 47.2074C11.9463 46.8595 12.0357 46.5247 11.7308 45.9854C11.6558 45.8531 11.6753 45.7436 11.6993 45.6175C11.7547 45.327 11.8158 45.0371 11.8543 44.745C12.0748 43.0577 12.0401 41.362 12.0332 39.6692C12.0162 35.3335 12.4314 31.0278 13.0722 26.7325C13.5265 23.6881 14.0022 20.6431 14.0954 17.5667C14.0998 17.4366 14.1716 17.3675 14.2605 17.2895C14.4986 17.0804 14.5465 16.8408 14.3651 16.5891C14.1798 16.3324 13.8894 16.3103 13.5844 16.3728ZM10.0586 46.5519C9.41655 46.7289 8.75562 46.8296 8.08523 46.8678C6.82888 46.9397 5.5738 46.9231 4.32186 46.7881C3.2621 46.6736 3.00503 46.3986 3.01826 45.4686C3.0359 44.2206 3.02267 42.9719 3.02267 41.6978C5.62106 42.4264 8.11988 42.6024 10.6975 41.9855C10.8796 42.0917 10.7958 42.2937 10.8052 42.4646C10.8632 43.4925 10.8247 44.5243 10.935 45.5511C10.9671 45.8548 10.4461 46.4451 10.0586 46.5519ZM13.0665 18.4087C12.0508 18.6139 11.0283 18.6521 10.0088 18.6786C8.77326 18.7102 7.53959 18.802 6.30278 18.802C6.16416 18.802 6.00665 18.7638 5.8756 18.9171C5.96002 19.1721 6.22213 19.0952 6.42438 19.1129C8.53446 19.2971 10.649 19.3425 12.7672 19.2756C12.9525 19.27 13.144 19.2429 13.3664 19.3248C13.3154 19.9926 13.0968 20.6448 12.9468 21.3037C11.531 27.5142 10.6691 33.7723 10.7781 40.1178C10.7857 40.5726 10.3245 41.0611 9.73285 41.2442C9.15445 41.4229 8.55148 41.5109 7.94598 41.5446C6.5882 41.6198 5.22222 41.7222 3.889 41.3676C3.05543 41.1457 3.03905 41.1369 3.05858 40.3806C3.16065 36.4549 2.95651 32.5353 2.61628 28.6257C2.28675 24.846 1.88225 21.0669 0.986301 17.3465C0.97496 17.2978 0.985041 17.2452 0.985041 17.1954C5.29405 17.4217 9.58793 17.851 13.9278 17.4898C13.8818 17.9882 13.713 18.2781 13.0665 18.4087Z" fill="black"/>
<path d="M30.3451 46.558C28.3932 46.1165 26.4173 46.1027 24.4313 46.2891C23.9877 46.3306 23.5209 46.3306 23.1309 46.6366C23.2102 46.6426 23.2897 46.6515 23.3697 46.6548C25.4016 46.7146 27.4128 46.8861 29.3256 47.5532C29.6564 47.6683 29.986 47.6257 30.3123 47.5599C30.5977 47.5018 30.8775 47.4448 30.8983 47.0941C30.9197 46.7273 30.6822 46.6343 30.3451 46.558Z" fill="black"/>
<path d="M47.3436 44.6488C47.6731 44.4916 47.9818 44.2897 48.1809 43.9987C48.3479 43.7547 48.3479 43.503 48.1009 43.2945C47.8539 43.0859 47.5742 43.0942 47.3001 43.2557C47.1791 43.3266 47.0752 43.4189 46.9643 43.503C45.994 44.2383 44.8542 44.6017 43.589 44.6847C42.9256 44.7284 42.2602 44.7616 41.5961 44.7992C41.581 44.8396 41.5659 44.8806 41.5508 44.9204C41.9458 45.2064 42.4165 45.3818 42.9262 45.4277C44.4856 45.5671 45.965 45.3066 47.3436 44.6488Z" fill="black"/>
<path d="M40.0478 15.8401C40.1574 15.8926 40.3004 15.9717 40.376 15.8451C40.6816 15.3322 41.2594 15.0893 41.7332 14.7419C41.9871 14.5555 42.0413 14.301 41.839 14.0559C41.6393 13.8136 41.3501 13.7682 41.0647 13.9187C40.6545 14.1345 40.262 14.3784 39.9614 14.7148C39.8153 14.8786 39.7535 15.0711 39.7422 15.3322C39.7542 15.502 39.7913 15.7161 40.0478 15.8401Z" fill="black"/>
</g>
</svg>
