<svg width="50" height="50" viewBox="0 0 50 50" fill="none" xmlns="http://www.w3.org/2000/svg">
<mask id="mask0_111_274" style="mask-type:luminance" maskUnits="userSpaceOnUse" x="0" y="0" width="50" height="50">
<path fill-rule="evenodd" clip-rule="evenodd" d="M0 0H50V50H0V0Z" fill="white"/>
</mask>
<g mask="url(#mask0_111_274)">
<path d="M14.783 30.194C14.2575 29.219 13.8334 28.4591 13.4722 27.9197C13.3345 27.7141 13.1085 27.5848 12.8615 27.5702C12.6156 27.5562 12.3748 27.6573 12.2138 27.8452C11.743 28.3948 11.1499 29.2449 10.5764 30.0668L10.5021 30.1732C10.4037 30.3144 10.2989 30.4599 10.1915 30.6096C9.44731 31.6455 8.52089 32.9347 8.44393 34.3645C8.31337 36.7878 10.011 38.8826 12.2283 39.034C12.3134 39.0398 12.3984 39.0427 12.483 39.0427C13.4073 39.0427 14.3004 38.6989 15.0217 38.0607C15.9011 37.2825 16.4435 36.1277 16.5101 34.8923C16.5882 33.4415 15.7424 31.9225 15.0629 30.7019C14.9649 30.5257 14.8702 30.3558 14.783 30.194ZM14.9298 34.8071C14.8859 35.6224 14.5372 36.3763 13.9731 36.8755C13.5053 37.2893 12.9237 37.4954 12.3362 37.455C10.9771 37.3622 9.93989 36.0141 10.0243 34.4496C10.0764 33.4822 10.8204 32.4467 11.4768 31.5331C11.5887 31.3774 11.6975 31.226 11.8 31.0791L11.8744 30.9725C12.1644 30.5569 12.4595 30.1339 12.7352 29.7548C12.947 30.1275 13.1703 30.5375 13.3899 30.9449C13.4804 31.1127 13.5784 31.289 13.6803 31.4718C14.2609 32.5146 14.9834 33.8125 14.9298 34.8071ZM32.5207 36.0292C32.74 36.1558 32.9835 36.2205 33.2305 36.2205C33.3545 36.2205 33.4795 36.2042 33.6025 36.1711C33.9709 36.0724 34.2784 35.8367 34.4686 35.5072L34.9418 34.6874C35.1683 34.2952 35.2282 33.8378 35.1108 33.3993C34.9933 32.9607 34.7126 32.5945 34.3204 32.3682L32.3831 31.2496C32.357 31.161 32.3403 30.9812 32.3653 30.69L35.3433 32.4094C35.4679 32.4814 35.6039 32.5155 35.7381 32.5155C36.0116 32.5155 36.2776 32.3736 36.4242 32.1198C36.6428 31.7413 36.513 31.2573 36.1346 31.0388L32.711 29.0622C32.7814 28.8255 32.8644 28.5678 32.9626 28.2869C32.9998 28.18 33.0388 28.0715 33.0791 27.9618L36.703 30.0542C36.8277 30.1262 36.9637 30.1603 37.0979 30.1603C37.3714 30.1603 37.6374 30.0183 37.784 29.7645C38.0026 29.3861 37.8728 28.9021 37.4943 28.6836L33.6763 26.4792C33.8241 26.1393 33.9816 25.7922 34.1487 25.4392L38.0629 27.699C38.1875 27.771 38.3235 27.8052 38.4578 27.8052C38.7313 27.8052 38.9972 27.6632 39.1438 27.4094C39.3624 27.0309 39.2326 26.547 38.8542 26.3285L34.8557 24.0201C35.0289 23.6878 35.2086 23.3535 35.3942 23.0182L39.4226 25.3439C39.5473 25.4159 39.6833 25.45 39.8175 25.45C40.091 25.45 40.357 25.3081 40.5036 25.0543C40.7222 24.6759 40.5924 24.1919 40.214 23.9734L36.1846 21.6471C36.3816 21.3186 36.5806 20.9952 36.7812 20.6787L40.7824 22.9887C40.907 23.0607 41.043 23.0948 41.1773 23.0948C41.4508 23.0948 41.7167 22.9529 41.8633 22.6991C42.0819 22.3206 41.9521 21.8367 41.5737 21.6182L37.6547 19.3555C37.876 19.0341 38.0972 18.7237 38.3171 18.4252L42.1422 20.6336C42.2668 20.7056 42.4028 20.7397 42.537 20.7397C42.8105 20.7397 43.0765 20.5978 43.2231 20.344C43.4417 19.9655 43.3119 19.4815 42.9335 19.263L39.299 17.1647C39.3896 17.0554 39.4798 16.948 39.569 16.8443C39.7439 16.6414 39.9085 16.4587 40.0635 16.2933L43.5019 18.2785C43.6265 18.3505 43.7626 18.3846 43.8968 18.3846C44.1703 18.3846 44.4362 18.2427 44.5828 17.9889C44.8014 17.6104 44.6717 17.1264 44.2932 16.9079L41.2866 15.172C41.5618 14.972 41.7474 14.8848 41.8451 14.8611L43.7825 15.9797C44.5933 16.4477 45.6337 16.1691 46.1017 15.3582L46.5748 14.5385C46.7652 14.209 46.8157 13.8247 46.717 13.4565C46.6184 13.0883 46.3826 12.7807 46.0532 12.5906L39.8321 8.99886C39.1516 8.60598 38.2777 8.83991 37.8846 9.52082L25.778 30.4898H25.7779C25.6362 30.7353 25.5772 31.0057 25.5901 31.2698L22.1415 37.0521V16.0812C22.1415 12.6051 19.7737 9.67305 16.5669 8.80914V1.58247C16.5669 1.14547 16.2125 0.791168 15.7756 0.791168H9.17648C8.73948 0.791168 8.38518 1.14547 8.38518 1.58247V8.80924C5.17822 9.67305 2.81055 12.6052 2.81055 16.0813V46.0871C2.81055 48.1631 4.49948 49.852 6.57537 49.852H18.3767C18.9338 49.852 19.4847 49.7265 19.9862 49.4886C20.0505 49.4933 20.115 49.4961 20.1796 49.4961C20.4297 49.4961 20.6829 49.4613 20.9356 49.3915C21.6713 49.1883 22.2563 48.7285 22.6275 48.0616L30.1037 34.6338L32.5207 36.0292ZM39.1768 10.4476L45.1261 13.8825L44.7311 14.5667C44.6999 14.6208 44.6275 14.64 44.5737 14.6088L42.5625 13.4476C41.6415 12.9157 40.4204 13.5417 38.719 15.4164C37.3505 16.9243 35.8278 19.087 34.431 21.5061C33.0343 23.9253 31.9227 26.3255 31.301 28.2645C30.5281 30.6755 30.5969 32.0461 31.5177 32.5776L33.529 33.7389C33.5625 33.7581 33.5763 33.7876 33.5819 33.8089C33.5877 33.8303 33.5904 33.8626 33.5711 33.8961L33.1762 34.5803L27.2269 31.1454L39.1768 10.4476ZM20.559 21.1272H4.39315V19.272H20.559V21.1272ZM9.96778 2.37379H14.9842V8.55931C14.8603 8.55318 14.7356 8.54981 14.6102 8.54981H10.342C10.2165 8.54981 10.0918 8.55317 9.96788 8.55931L9.96778 2.37379ZM10.342 10.1324H14.6102C17.8903 10.1324 20.559 12.801 20.559 16.0812V17.6894H4.39315V16.0812C4.39315 12.8011 7.06173 10.1324 10.342 10.1324ZM4.39315 22.7098H20.559V28.0123C18.8301 25.3813 15.8528 23.6404 12.476 23.6404C9.09933 23.6404 6.12205 25.3813 4.39315 28.0123L4.39315 22.7098ZM20.559 33.3058C20.559 37.7627 16.933 41.3887 12.476 41.3887C8.0191 41.3887 4.39315 37.7627 4.39315 33.3058C4.39315 28.8489 8.0191 25.223 12.476 25.223C16.9329 25.223 20.559 28.8489 20.559 33.3058ZM4.39315 46.087V38.5992C6.12205 41.2302 9.09933 42.9712 12.476 42.9712C15.8528 42.9712 18.8301 41.2302 20.559 38.5992V39.7058L17.3799 45.0362C17.2977 45.174 17.229 45.3156 17.1722 45.4599H6.69792C6.26093 45.4599 5.90662 45.8142 5.90662 46.2512C5.90662 46.6882 6.26093 47.0425 6.69792 47.0425H17.048C17.0568 47.0833 17.0662 47.1241 17.0767 47.165C17.1859 47.5844 17.3788 47.9563 17.646 48.2694H6.57537C5.3721 48.2694 4.39315 47.2904 4.39315 46.087ZM21.2449 47.2916C21.0777 47.592 20.8455 47.7745 20.5142 47.866C20.183 47.9575 19.8898 47.9201 19.5923 47.7483L19.1708 47.505C18.8735 47.3332 18.6948 47.0985 18.6082 46.7663C18.5217 46.4339 18.5633 46.1417 18.7392 45.8469L26.6246 32.625L28.733 33.8423L21.2449 47.2916ZM26.6307 11.8085V9.21282C26.6307 8.77583 26.9851 8.42152 27.422 8.42152C27.859 8.42152 28.2134 8.77583 28.2134 9.21282V11.8085C28.2134 12.2455 27.859 12.5998 27.422 12.5998C26.9851 12.5998 26.6307 12.2455 26.6307 11.8085ZM28.1006 13.2782C28.1006 12.8412 28.4549 12.4869 28.8919 12.4869H31.4875C31.9245 12.4869 32.2788 12.8412 32.2788 13.2782C32.2788 13.7152 31.9245 14.0695 31.4875 14.0695H28.8919C28.4549 14.0695 28.1006 13.7153 28.1006 13.2782ZM28.2134 14.7481V17.3438C28.2134 17.7808 27.859 18.1351 27.422 18.1351C26.9851 18.1351 26.6307 17.7808 26.6307 17.3438V14.7481C26.6307 14.3111 26.9851 13.9568 27.422 13.9568C27.859 13.9568 28.2134 14.311 28.2134 14.7481ZM22.5653 13.2782C22.5653 12.8412 22.9196 12.4869 23.3566 12.4869H25.9522C26.3892 12.4869 26.7435 12.8412 26.7435 13.2782C26.7435 13.7152 26.3892 14.0695 25.9522 14.0695H23.3566C22.9196 14.0695 22.5653 13.7153 22.5653 13.2782ZM44.0834 30.5403V32.5028C44.0834 32.9398 43.7291 33.2942 43.2921 33.2942C42.8551 33.2942 42.5008 32.9398 42.5008 32.5028V30.5403C42.5008 30.1033 42.8551 29.749 43.2921 29.749C43.7291 29.749 44.0834 30.1033 44.0834 30.5403ZM47.8323 34.2892C47.8323 34.7262 47.478 35.0805 47.041 35.0805H45.0785C44.6415 35.0805 44.2872 34.7262 44.2872 34.2892C44.2872 33.8522 44.6415 33.4979 45.0785 33.4979H47.041C47.478 33.4979 47.8323 33.8522 47.8323 34.2892ZM44.0834 36.0756V38.0381C44.0834 38.4751 43.7291 38.8294 43.2921 38.8294C42.8551 38.8294 42.5008 38.4751 42.5008 38.0381V36.0756C42.5008 35.6386 42.8551 35.2843 43.2921 35.2843C43.7291 35.2843 44.0834 35.6386 44.0834 36.0756ZM42.2971 34.2892C42.2971 34.7262 41.9428 35.0805 41.5058 35.0805H39.5432C39.1062 35.0805 38.7519 34.7262 38.7519 34.2892C38.7519 33.8522 39.1062 33.4979 39.5432 33.4979H41.5058C41.9428 33.4979 42.2971 33.8522 42.2971 34.2892ZM33.4156 4.3654V2.74966C33.4156 2.31266 33.7699 1.95836 34.2069 1.95836C34.6439 1.95836 34.9982 2.31266 34.9982 2.74966V4.3654C34.9982 4.8024 34.6439 5.15671 34.2069 5.15671C33.7699 5.15671 33.4156 4.8025 33.4156 4.3654ZM35.2401 5.73901C35.2401 5.30201 35.5944 4.9477 36.0314 4.9477H37.6472C38.0842 4.9477 38.4385 5.30201 38.4385 5.73901C38.4385 6.176 38.0842 6.53031 37.6472 6.53031H36.0314C35.5944 6.53031 35.2401 6.176 35.2401 5.73901ZM35.1772 7.67364V9.28929C35.1772 9.72628 34.8229 10.0806 34.3859 10.0806C33.9489 10.0806 33.5946 9.72628 33.5946 9.28929V7.67364C33.5946 7.23665 33.9489 6.88234 34.3859 6.88234C34.8229 6.88234 35.1772 7.23655 35.1772 7.67364ZM30.0444 5.91804C30.0444 5.48104 30.3987 5.12674 30.8357 5.12674H32.4514C32.8884 5.12674 33.2427 5.48104 33.2427 5.91804C33.2427 6.35504 32.8884 6.70934 32.4514 6.70934H30.8357C30.3987 6.70934 30.0444 6.35504 30.0444 5.91804ZM36.2622 37.5633C36.6992 37.5633 37.0535 37.9176 37.0535 38.3546V40.9503C37.0535 41.3873 36.6992 41.7416 36.2622 41.7416C35.8252 41.7416 35.4709 41.3873 35.4709 40.9503V38.3546C35.4709 37.9176 35.8252 37.5633 36.2622 37.5633ZM41.1189 42.4201C41.1189 42.8571 40.7646 43.2114 40.3276 43.2114H37.732C37.295 43.2114 36.9407 42.8571 36.9407 42.4201C36.9407 41.9831 37.295 41.6288 37.732 41.6288H40.3276C40.7646 41.6288 41.1189 41.983 41.1189 42.4201ZM37.0535 43.8899V46.4856C37.0535 46.9226 36.6992 47.2769 36.2622 47.2769C35.8252 47.2769 35.4709 46.9226 35.4709 46.4856V43.8899C35.4709 43.4529 35.8252 43.0986 36.2622 43.0986C36.6992 43.0986 37.0535 43.4529 37.0535 43.8899ZM35.5837 42.4201C35.5837 42.8571 35.2294 43.2114 34.7924 43.2114H32.1969C31.7599 43.2114 31.4056 42.8571 31.4056 42.4201C31.4056 41.9831 31.7599 41.6288 32.1969 41.6288H34.7924C35.2294 41.6288 35.5837 41.983 35.5837 42.4201Z" fill="black"/>
</g>
</svg>
