<svg width="50" height="50" viewBox="0 0 50 50" fill="none" xmlns="http://www.w3.org/2000/svg">
<mask id="mask0_111_730" style="mask-type:luminance" maskUnits="userSpaceOnUse" x="0" y="0" width="50" height="50">
<path fill-rule="evenodd" clip-rule="evenodd" d="M0 0H50V50H0V0Z" fill="white"/>
</mask>
<g mask="url(#mask0_111_730)">
<path fill-rule="evenodd" clip-rule="evenodd" d="M14.2402 0.586731H36.1442V6.35823H14.2402V0.586731Z" fill="white"/>
<path fill-rule="evenodd" clip-rule="evenodd" d="M8.82031 7.47781V11.0692H41.5622V7.47781C30.6483 7.47781 19.7343 7.47781 8.82031 7.47781Z" fill="white"/>
<path fill-rule="evenodd" clip-rule="evenodd" d="M39.3302 12.1888H11.0547L11.0548 49.7958H21.0484V38.6266H29.3366V49.7958H39.3302C39.3302 37.2602 39.3302 24.7245 39.3302 12.1888ZM23.1628 17.1059H27.2223V22.3064H23.1628V17.1059ZM23.1628 26.5661H27.2223V31.7667H23.1628V26.5661ZM32.3036 17.1058H36.3632V22.3064H32.3036V17.1058ZM32.3036 26.5661H36.3632V31.7667H32.3036V26.5661ZM32.3036 36.0262H36.3632V41.2269H32.3036V36.0262ZM14.0218 17.1058H18.0813V22.3064H14.0218V17.1058ZM14.0218 26.5661H18.0813V31.7667H14.0218V26.5661ZM14.0218 36.0262H18.0813V41.2269H14.0218V36.0262Z" fill="white"/>
<path fill-rule="evenodd" clip-rule="evenodd" d="M40.4473 16.0078V45.7139V49.3699V49.7958H50.3812V16.0078L40.4473 16.0078ZM47.2311 26.0419H43.1716V20.8412H47.2311V26.0419ZM47.2311 35.5022H43.1716V30.3014H47.2311V35.5022ZM47.2311 44.9623H43.1716V39.7617H47.2311V44.9623Z" fill="white"/>
<path fill-rule="evenodd" clip-rule="evenodd" d="M0 16.0078V49.7958H9.93386V49.3707V16.0078L0 16.0078ZM7.23477 26.0419H3.17526V20.8412H7.23477V26.0419ZM7.23477 35.5022H3.17526V30.3014H7.23477V35.5022ZM7.23477 44.9623H3.17526V39.7617H7.23477V44.9623Z" fill="white"/>
</g>
</svg>
