<svg width="50" height="50" viewBox="0 0 50 50" fill="none" xmlns="http://www.w3.org/2000/svg">
<mask id="mask0_111_296" style="mask-type:luminance" maskUnits="userSpaceOnUse" x="0" y="0" width="50" height="50">
<path fill-rule="evenodd" clip-rule="evenodd" d="M0 0H50V50H0V0Z" fill="white"/>
</mask>
<g mask="url(#mask0_111_296)">
<path d="M45.0454 17.3871V15.8065H43.4986C43.2735 15.8065 43.0832 15.8878 42.9276 16.0504L41.8841 17.1407L40.8743 16.0857C40.7235 15.9281 40.5391 15.8469 40.3211 15.8421L38.7404 15.8067L38.7051 17.3873L39.9586 17.4154L41.3132 18.8305C41.4688 18.993 41.6591 19.0743 41.8841 19.0743C42.1091 19.0743 42.2994 18.993 42.455 18.8305L43.8361 17.3881L45.0454 17.3871Z" fill="black"/>
<path d="M47.4516 30.0324C47.2365 30.0323 47.0521 30.1074 46.8984 30.2579L45.843 31.2916L44.8156 30.2641C44.6612 30.1096 44.4748 30.0324 44.2564 30.0324H42.6758V31.613H43.929L45.2782 32.9622C45.4314 33.1154 45.6163 33.1926 45.8329 33.1937C46.0495 33.1949 46.2352 33.1197 46.39 32.9681L47.7741 31.613H48.9984V30.0324H47.4516Z" fill="black"/>
<path d="M38.7246 10.2742H40.3053V11.8549H38.7246V10.2742Z" fill="black"/>
<path d="M45.0488 22.1291H46.6295V23.7097H45.0488V22.1291Z" fill="black"/>
<path d="M38.7246 36.355H40.3053V37.9356H38.7246V36.355Z" fill="black"/>
<path d="M10.2555 15.8421C10.0375 15.847 9.8531 15.9282 9.7023 16.0857L8.69256 17.1407L7.64903 16.0504C7.49343 15.8878 7.30309 15.8065 7.07802 15.8065H5.53125V17.3872H6.74055L8.12164 18.8295C8.27724 18.9921 8.46755 19.0734 8.69256 19.0734C8.91757 19.0734 9.10787 18.9921 9.26347 18.8295L10.618 17.4145L11.8715 17.3872L11.8362 15.8065L10.2555 15.8421Z" fill="black"/>
<path d="M5.76318 30.2638L4.73576 31.2913L3.67978 30.2579C3.52606 30.1074 3.34165 30.0323 3.12655 30.0324H1.58008V31.613H2.80439L4.18816 32.9681C4.34295 33.1197 4.52865 33.1949 4.74527 33.1937C4.96189 33.1926 5.14679 33.1154 5.29995 32.9622L6.64943 31.613H7.90269V30.0324H6.32204C6.10379 30.0324 5.91751 30.1095 5.76318 30.2638Z" fill="black"/>
<path d="M10.2734 36.355H11.8541V37.9356H10.2734V36.355Z" fill="black"/>
<path d="M10.2734 10.2742H11.8541V11.8549H10.2734V10.2742Z" fill="black"/>
<path d="M3.94922 22.1291H5.52987V23.7097H3.94922V22.1291Z" fill="black"/>
<path d="M34.6877 11.5014C34.5421 11.2102 34.3064 11.0645 33.9808 11.0645H33.7601L32.81 8.21402C32.6493 7.73044 32.3757 7.32254 31.9893 6.99035C31.6029 6.65815 31.1585 6.44889 30.6563 6.36258L29.2153 0.598627C29.1155 0.199523 28.8599 -3.48406e-05 28.4485 -4.57764e-05H22.1259C21.7145 -3.48161e-05 21.459 0.199523 21.3592 0.598627L19.9181 6.36258C19.4159 6.44887 18.9716 6.65812 18.5852 6.99032C18.1987 7.32252 17.9252 7.73042 17.7645 8.21402L16.8143 11.0645H16.5936C16.268 11.0645 16.0324 11.2102 15.8868 11.5014L14.3061 14.6627C14.2505 14.7739 14.2226 14.8918 14.2227 15.0162V21.3388H15.8033V17.3871H34.7712V45.8389H15.8033V22.9194H14.2227V48.8026C14.2229 49.0384 14.2682 49.2651 14.3586 49.4828C14.4489 49.7006 14.5774 49.8928 14.7441 50.0594C14.9108 50.2261 15.103 50.3546 15.3207 50.445C15.5384 50.5353 15.7652 50.5806 16.0009 50.5809H30.8195V49.0002H16.0009C15.8692 49.0002 15.8033 48.9344 15.8033 48.8026V47.4196H34.7712V48.8026C34.7712 48.9344 34.7053 49.0002 34.5736 49.0002H32.4002V50.5809H34.5736C34.8093 50.5806 35.036 50.5353 35.2538 50.445C35.4715 50.3546 35.6637 50.2261 35.8304 50.0594C35.9971 49.8928 36.1256 49.7006 36.2159 49.4828C36.3062 49.2651 36.3515 49.0384 36.3518 48.8026V15.0162C36.3518 14.8918 36.324 14.7739 36.2683 14.6627L34.6877 11.5014ZM22.743 1.58061H27.8315L29.017 6.32257H21.5575L22.743 1.58061ZM19.2641 8.7138C19.3446 8.47164 19.4883 8.27595 19.6954 8.12673C19.9024 7.97751 20.1335 7.90301 20.3887 7.90322H30.1858C30.441 7.903 30.6721 7.97751 30.8792 8.12675C31.0862 8.27599 31.2299 8.4717 31.3104 8.7139L32.0939 11.0645H18.4805L19.2641 8.7138ZM15.8033 15.8065V15.2028L17.0821 12.6452H33.4924L34.7712 15.2028V15.8065H15.8033Z" fill="black"/>
<path d="M24.5 3.16125H26.0807V4.74191H24.5V3.16125Z" fill="black"/>
<path d="M17.3848 31.613C17.3848 32.132 17.4354 32.6459 17.5366 33.1549C17.6379 33.6638 17.7878 34.158 17.9864 34.6375C18.185 35.1169 18.4284 35.5724 18.7167 36.0038C19.005 36.4353 19.3326 36.8345 19.6996 37.2015C20.0665 37.5684 20.4657 37.896 20.8972 38.1843C21.3287 38.4726 21.7841 38.7161 22.2636 38.9147C22.743 39.1133 23.2372 39.2632 23.7462 39.3644C24.2551 39.4657 24.7691 39.5163 25.288 39.5163C25.807 39.5163 26.3209 39.4657 26.8299 39.3644C27.3389 39.2632 27.833 39.1133 28.3125 38.9147C28.7919 38.7161 29.2474 38.4726 29.6789 38.1843C30.1103 37.896 30.5096 37.5684 30.8765 37.2015C31.2434 36.8345 31.5711 36.4353 31.8594 36.0038C32.1477 35.5724 32.3911 35.1169 32.5897 34.6375C32.7883 34.158 32.9382 33.6638 33.0394 33.1549C33.1407 32.6459 33.1913 32.132 33.1913 31.613C33.1913 31.0941 33.1407 30.5801 33.0394 30.0712C32.9382 29.5622 32.7883 29.068 32.5897 28.5886C32.3911 28.1091 32.1477 27.6537 31.8594 27.2222C31.5711 26.7907 31.2434 26.3915 30.8765 26.0246C30.5096 25.6576 30.1103 25.33 29.6789 25.0417C29.2474 24.7534 28.7919 24.5099 28.3125 24.3113C27.833 24.1128 27.3389 23.9628 26.8299 23.8616C26.3209 23.7604 25.807 23.7097 25.288 23.7097C24.7693 23.7103 24.2555 23.7614 23.7468 23.8631C23.2381 23.9647 22.7441 24.1149 22.265 24.3137C21.7858 24.5125 21.3306 24.7561 20.8993 25.0444C20.4681 25.3328 20.069 25.6604 19.7022 26.0272C19.3354 26.394 19.0078 26.7931 18.7195 27.2243C18.4311 27.6556 18.1876 28.1108 17.9888 28.59C17.79 29.0691 17.6397 29.5631 17.5381 30.0718C17.4365 30.5805 17.3854 31.0942 17.3848 31.613ZM25.288 37.9356C23.8437 37.9372 22.5521 37.4939 21.4131 36.6058L30.2808 27.7379C31.0214 28.6909 31.4536 29.7676 31.5773 30.9682C31.701 32.1687 31.4975 33.311 30.9668 34.3949C30.4361 35.4789 29.6587 36.3401 28.6346 36.9787C27.6105 37.6172 26.4949 37.9362 25.288 37.9356ZM25.288 25.2904C26.7323 25.2889 28.024 25.7321 29.163 26.6202L20.2952 35.4881C19.5546 34.5352 19.1225 33.4584 18.9988 32.2579C18.875 31.0573 19.0785 29.9151 19.6092 28.8311C20.1399 27.7472 20.9174 26.8859 21.9415 26.2474C22.9656 25.6088 24.0811 25.2898 25.288 25.2904Z" fill="black"/>
<path d="M20.5469 19.7581H30.0308V21.3388H20.5469V19.7581Z" fill="black"/>
<path d="M17.3848 41.8873H21.3364V43.4679H17.3848V41.8873Z" fill="black"/>
<path d="M22.916 41.8873H24.4967V43.4679H22.916V41.8873Z" fill="black"/>
<path d="M26.0781 41.8873H27.6588V43.4679H26.0781V41.8873Z" fill="black"/>
<path d="M29.2402 41.8873H33.1919V43.4679H29.2402V41.8873Z" fill="black"/>
</g>
</svg>
