<svg width="50" height="50" viewBox="0 0 50 50" fill="none" xmlns="http://www.w3.org/2000/svg">
<mask id="mask0_111_495" style="mask-type:luminance" maskUnits="userSpaceOnUse" x="0" y="0" width="50" height="50">
<path fill-rule="evenodd" clip-rule="evenodd" d="M0 0H50V50H0V0Z" fill="white"/>
</mask>
<g mask="url(#mask0_111_495)">
<path d="M38.4178 3.40753H11.1727C7.89311 3.40753 5.22461 6.07603 5.22461 9.35562V40.2368C5.22461 43.5164 7.89311 46.1848 11.1624 46.1848H38.4279C41.6973 46.1848 44.3658 43.5163 44.3658 40.2368V9.35552C44.3659 6.07603 41.6975 3.40753 38.4178 3.40753ZM42.3289 40.2368C42.3289 42.396 40.577 44.1479 38.428 44.1479H11.1625C9.01349 44.1479 7.26167 42.396 7.26167 40.2368V15.7721H42.3289L42.3289 40.2368ZM42.3289 13.7351H7.26167V9.35552C7.26167 7.19631 9.01349 5.4445 11.1727 5.4445H38.4178C40.577 5.4445 42.3289 7.19631 42.3289 9.35552L42.3289 13.7351Z" fill="black"/>
<path d="M11.4985 8.86337H11.0927C10.5298 8.86337 10.0742 9.31939 10.0742 9.88186C10.0742 10.4443 10.5298 10.9003 11.0927 10.9003H11.4985C12.0615 10.9003 12.517 10.4443 12.517 9.88186C12.5171 9.31939 12.0616 8.86337 11.4985 8.86337Z" fill="black"/>
<path d="M15.8032 8.86337H15.3974C14.8344 8.86337 14.3789 9.31939 14.3789 9.88186C14.3789 10.4443 14.8344 10.9003 15.3974 10.9003H15.8032C16.3662 10.9003 16.8217 10.4443 16.8217 9.88186C16.8217 9.31939 16.3662 8.86337 15.8032 8.86337Z" fill="black"/>
<path d="M20.1118 8.86337H19.706C19.143 8.86337 18.6875 9.31939 18.6875 9.88186C18.6875 10.4443 19.143 10.9003 19.706 10.9003H20.1118C20.6748 10.9003 21.1303 10.4443 21.1303 9.88186C21.1303 9.31939 20.6748 8.86337 20.1118 8.86337Z" fill="black"/>
<path d="M24.7909 19.8971C19.2502 19.8971 14.7383 24.4091 14.7383 29.96C14.7383 35.5109 19.2502 40.0229 24.7909 40.0229C30.3418 40.0229 34.8538 35.511 34.8538 29.96C34.8538 24.4091 30.3418 19.8971 24.7909 19.8971ZM27.6937 33.4536C27.2965 33.8507 26.6446 33.8507 26.2474 33.4536L21.3076 28.5035C20.9104 28.1064 20.9104 27.4647 21.3076 27.0675C21.7049 26.6703 22.3466 26.6702 22.7437 27.0675L27.6937 32.0072C28.0908 32.4045 28.0908 33.0563 27.6937 33.4536ZM28.2844 29.1147C27.8872 29.5118 27.2455 29.5118 26.8483 29.1147L25.6363 27.9129C25.2391 27.5156 25.2391 26.8638 25.6363 26.4666C26.0335 26.0694 26.6854 26.0694 27.0825 26.4666L28.2844 27.6786C28.6816 28.0758 28.6816 28.7174 28.2844 29.1147Z" fill="black"/>
<path d="M38.7844 9.59999C38.7844 11.1176 37.5419 12.3499 36.0243 12.3499C34.4965 12.3499 33.2539 11.1175 33.2539 9.59999C33.2539 8.07222 34.4965 6.8297 36.0243 6.8297C37.5419 6.8297 38.7844 8.07222 38.7844 9.59999Z" fill="black"/>
<path d="M31.4715 9.59999C31.4715 11.1176 30.2392 12.3499 28.7216 12.3499C27.1938 12.3499 25.9512 11.1175 25.9512 9.59999C25.9512 8.07222 27.1938 6.8297 28.7216 6.8297C30.2392 6.8297 31.4715 8.07222 31.4715 9.59999Z" fill="black"/>
</g>
</svg>
