<svg width="50" height="50" viewBox="0 0 50 50" fill="none" xmlns="http://www.w3.org/2000/svg">
<mask id="mask0_111_302" style="mask-type:luminance" maskUnits="userSpaceOnUse" x="0" y="0" width="50" height="50">
<path fill-rule="evenodd" clip-rule="evenodd" d="M0 0H50V50H0V0Z" fill="white"/>
</mask>
<g mask="url(#mask0_111_302)">
<path d="M45.9307 12.1717H32.2003L33.5054 2.846C33.5054 1.27826 32.3072 0.012207 30.8189 0.012207H18.5081C17.0275 0.012207 15.8216 1.28364 15.8216 2.846L17.1267 12.1717H3.39634C1.51881 12.1717 0 13.2653 0 14.6553L3.01472 47.7342C3.01472 49.081 4.54117 50.1747 6.41869 50.1747H42.9159C44.7935 50.1747 46.3199 49.081 46.3123 47.7827L49.327 14.6068C49.327 13.2599 47.8006 12.1663 45.9307 12.1663V12.1717ZM44.1829 47.6641C44.1829 48.2137 43.5799 48.6554 42.832 48.6554H6.49502C5.74706 48.6554 5.14411 48.2083 5.14411 47.6157L2.14465 14.6822C2.14465 14.1327 2.7476 13.6909 3.49555 13.6909H45.8391C46.587 13.6909 47.19 14.1381 47.19 14.6391L44.1829 47.6641Z" fill="black"/>
<path d="M40.0214 24.983C39.2887 25.1554 38.5637 25.3763 37.8081 25.4356C36.5411 25.5326 35.6329 24.9238 34.6941 24.4389C33.6485 23.9056 32.6487 23.3129 31.5344 22.855C29.6492 22.0846 27.7488 22.2085 25.9629 23.0867C25.5049 23.3129 25.0928 23.5769 24.6654 23.8194C24.5814 23.7816 24.5128 23.7601 24.4593 23.7278C21.6659 21.9769 19.4068 21.896 16.3921 23.4584C15.4686 23.9379 14.5832 24.4551 13.6521 24.9292C12.2173 25.6619 10.7442 25.5972 9.27122 24.9723C9.03462 24.8753 8.79039 24.7945 8.51563 24.6921C8.2943 26.1844 10.7977 28.6681 13.2323 29.4869C16.1326 30.4675 21.5591 30.3651 24.6654 27.5205C28.4968 30.1388 32.7555 30.7853 36.5564 29.3253C38.8079 28.4579 41.151 25.9366 40.7923 24.6921C40.5251 24.7945 40.2885 24.9238 40.0291 24.983H40.0214Z" fill="black"/>
</g>
</svg>
