<svg width="50" height="50" viewBox="0 0 50 50" fill="none" xmlns="http://www.w3.org/2000/svg">
<mask id="mask0_111_205" style="mask-type:luminance" maskUnits="userSpaceOnUse" x="0" y="0" width="50" height="50">
<path fill-rule="evenodd" clip-rule="evenodd" d="M0 0H50V50H0V0Z" fill="white"/>
</mask>
<g mask="url(#mask0_111_205)">
<path d="M21.5752 41.0549C22.7331 41.0549 23.7083 40.2158 23.7083 39.2195V22.2288C23.7083 21.2324 22.7331 20.3934 21.5752 20.3934C20.4173 20.3934 19.4422 21.2324 19.4422 22.2288V39.167C19.3812 40.2158 20.3563 41.0549 21.5752 41.0549Z" fill="black"/>
<path d="M29.928 41.0549C31.0859 41.0549 32.061 40.2158 32.061 39.2195V22.2288C32.061 21.2324 31.0859 20.3934 29.928 20.3934C28.77 20.3934 27.7949 21.2324 27.7949 22.2288V39.167C27.7949 40.2158 28.77 41.0549 29.928 41.0549Z" fill="black"/>
<path d="M38.3381 41.0549C39.4961 41.0549 40.4712 40.2158 40.4712 39.2195V22.2288C40.4712 21.2324 39.4961 20.3934 38.3381 20.3934C37.1802 20.3934 36.2051 21.2324 36.2051 22.2288V39.167C36.2051 40.2158 37.1192 41.0549 38.3381 41.0549Z" fill="black"/>
<path d="M43.579 3.92719C42.2382 1.9869 39.8004 0.780774 37.1798 0.780774C36.2047 0.780774 35.2906 0.938095 34.4374 1.25274C31.6949 -0.372912 27.9163 -0.425352 25.1129 1.14786C21.761 0.151492 18.0434 1.41006 16.276 3.92719C12.8631 4.60892 10.4863 7.1785 10.4863 10.22V21.0228H6.95154C3.11206 21.0228 0.00390625 23.6972 0.00390625 27.001V34.395C0.00390625 37.6988 3.11206 40.3732 6.95154 40.3732H10.4863V44.1489C10.4863 47.2954 13.4726 49.8125 17.0683 49.8125H42.8477C46.5043 49.8125 49.4296 47.2429 49.4296 44.1489V10.22C49.4296 7.23094 46.9919 4.60892 43.579 3.92719ZM10.4863 36.65H6.95154C5.48888 36.65 4.27 35.6012 4.27 34.3426V27.001C4.27 25.7424 5.48888 24.6936 6.95154 24.6936H10.4863V36.65ZM45.1026 44.1489C45.1026 45.2502 44.0665 46.1417 42.7867 46.1417H17.0683C15.7884 46.1417 14.7524 45.2502 14.7524 44.1489V15.3068H45.1026V44.1489ZM45.1026 11.6359H14.7524V10.22C14.7524 8.90904 15.8494 7.75535 17.373 7.49315C18.409 7.33583 19.3842 6.75898 19.8717 5.91994C20.603 4.7138 22.3095 4.13696 23.7721 4.66136C24.9301 5.02844 26.2099 4.92356 27.185 4.29428C28.6477 3.40279 30.6588 3.45523 32.0605 4.34672C33.1575 5.02844 34.5593 5.18576 35.8391 4.7138C37.3017 4.13696 39.191 4.7138 39.9223 5.91994C40.4708 6.75898 41.385 7.33583 42.421 7.49315C43.9447 7.75535 45.0416 8.8566 45.0416 10.22V11.6359H45.1026Z" fill="black"/>
</g>
</svg>
