<svg width="50" height="50" viewBox="0 0 50 50" fill="none" xmlns="http://www.w3.org/2000/svg">
<mask id="mask0_111_625" style="mask-type:luminance" maskUnits="userSpaceOnUse" x="0" y="0" width="50" height="50">
<path fill-rule="evenodd" clip-rule="evenodd" d="M0 0H50V50H0V0Z" fill="white"/>
</mask>
<g mask="url(#mask0_111_625)">
<path d="M8.24826 5.17366C7.72898 5.17366 7.21468 5.22432 6.70537 5.32563C6.19606 5.42694 5.70152 5.57696 5.22176 5.77569C4.74201 5.97441 4.28624 6.21803 3.85447 6.50654C3.42271 6.79505 3.02323 7.1229 2.65605 7.4901C2.28886 7.85731 1.96102 8.2568 1.67253 8.68858C1.38404 9.12036 1.14045 9.57613 0.941738 10.0559C0.74303 10.5357 0.593032 11.0302 0.491743 11.5395C0.390454 12.0488 0.339821 12.5631 0.339844 13.0824C0.339866 13.6017 0.390544 14.116 0.491877 14.6253C0.59321 15.1346 0.743251 15.6291 0.942 16.1089C1.14075 16.5886 1.38439 17.0444 1.67291 17.4762C1.96144 17.9079 2.28931 18.3074 2.65653 18.6745C3.02375 19.0417 3.42325 19.3695 3.85504 19.658C4.28684 19.9465 4.74262 20.1901 5.2224 20.3887C5.70217 20.5874 6.19672 20.7374 6.70604 20.8387C7.21536 20.9399 7.72966 20.9905 8.24895 20.9905C8.76824 20.9905 9.28253 20.9398 9.79184 20.8384C10.3011 20.737 10.7957 20.587 11.2754 20.3882C11.7551 20.1894 12.2109 19.9458 12.6426 19.6572C13.0744 19.3687 13.4738 19.0408 13.841 18.6736C14.2081 18.3063 14.5359 17.9068 14.8244 17.475C15.1128 17.0432 15.3564 16.5874 15.5551 16.1076C15.7537 15.6278 15.9037 15.1333 16.0049 14.624C16.1062 14.1146 16.1568 13.6003 16.1567 13.081C16.1561 12.562 16.1049 12.0479 16.0032 11.5389C15.9015 11.0299 15.7511 10.5357 15.5522 10.0562C15.3533 9.57678 15.1095 9.12131 14.821 8.68981C14.5325 8.25831 14.2047 7.85905 13.8376 7.49203C13.4705 7.12501 13.0712 6.79726 12.6397 6.50878C12.2081 6.22031 11.7526 5.97663 11.2732 5.77776C10.7937 5.57888 10.2995 5.42861 9.79042 5.32696C9.2814 5.2253 8.76734 5.1742 8.24826 5.17366ZM8.24826 19.4432C7.83052 19.4432 7.41678 19.4025 7.00706 19.321C6.59734 19.2395 6.19951 19.1188 5.81356 18.9589C5.42761 18.7991 5.06096 18.6031 4.71362 18.371C4.36627 18.1389 4.04491 17.8752 3.74951 17.5798C3.45412 17.2844 3.19038 16.963 2.95829 16.6157C2.7262 16.2683 2.53023 15.9017 2.37036 15.5158C2.2105 15.1298 2.08982 14.732 2.00832 14.3222C1.92682 13.9125 1.88607 13.4988 1.88607 13.081C1.88607 12.6633 1.92682 12.2496 2.00832 11.8398C2.08982 11.4301 2.2105 11.0323 2.37036 10.6463C2.53023 10.2604 2.7262 9.89375 2.95829 9.5464C3.19038 9.19906 3.45412 8.87769 3.74951 8.5823C4.04491 8.2869 4.36627 8.02316 4.71362 7.79108C5.06096 7.55899 5.42761 7.36301 5.81356 7.20315C6.19951 7.04328 6.59734 6.9226 7.00706 6.8411C7.41678 6.7596 7.83052 6.71885 8.24827 6.71885C8.66601 6.71885 9.07975 6.7596 9.48947 6.8411C9.89919 6.9226 10.297 7.04328 10.683 7.20315C11.0689 7.36301 11.4356 7.55899 11.7829 7.79108C12.1303 8.02316 12.4516 8.2869 12.747 8.5823C13.0424 8.87769 13.3061 9.19906 13.5382 9.5464C13.7703 9.89375 13.9663 10.2604 14.1262 10.6463C14.286 11.0323 14.4067 11.4301 14.4882 11.8398C14.5697 12.2496 14.6105 12.6633 14.6105 13.081C14.61 13.4987 14.5688 13.9122 14.487 14.3218C14.4052 14.7313 14.2843 15.1289 14.1242 15.5146C13.9642 15.9004 13.7681 16.2668 13.536 16.614C13.3039 16.9612 13.0402 17.2824 12.7449 17.5777C12.4496 17.873 12.1284 18.1367 11.7812 18.3688C11.434 18.6009 11.0676 18.797 10.6819 18.957C10.2961 19.1171 9.89849 19.238 9.48897 19.3198C9.07945 19.4016 8.66588 19.4428 8.24826 19.4432Z" fill="white"/>
<path d="M8.88199 12.3079H7.40586C7.21714 12.3079 7.05605 12.2412 6.92261 12.1077C6.78916 11.9743 6.72243 11.8132 6.72243 11.6245C6.72243 11.4357 6.78916 11.2747 6.92261 11.1412C7.05605 11.0078 7.21714 10.941 7.40586 10.941H8.88199C9.04245 10.9413 9.18521 10.9918 9.31026 11.0923C9.43532 11.1928 9.51522 11.3214 9.54996 11.4781C9.59536 11.6867 9.70789 11.8488 9.88753 11.9642C10.0672 12.0797 10.2613 12.1147 10.47 12.0693C10.6786 12.0239 10.8407 11.9113 10.9561 11.7317C11.0715 11.5521 11.1065 11.3579 11.0611 11.1493C10.9487 10.6447 10.6923 10.2288 10.2919 9.90175C9.89154 9.57468 9.43291 9.40639 8.91601 9.39687V8.45265C8.91601 8.23916 8.84053 8.05693 8.68957 7.90597C8.53861 7.75501 8.35639 7.67953 8.1429 7.67953C7.92941 7.67953 7.74718 7.75501 7.59622 7.90597C7.44527 8.05693 7.36979 8.23916 7.36979 8.45265V9.401C7.07439 9.40339 6.79069 9.46221 6.5187 9.57747C6.2467 9.69272 6.00711 9.85563 5.79992 10.0662C5.59274 10.2768 5.43373 10.519 5.32289 10.7928C5.21206 11.0666 5.15784 11.3512 5.16023 11.6466C5.16262 11.942 5.22145 12.2257 5.3367 12.4977C5.45195 12.7697 5.61487 13.0093 5.82543 13.2165C6.036 13.4237 6.2782 13.5827 6.55203 13.6935C6.82585 13.8044 7.11047 13.8586 7.40586 13.8562H8.88199C9.0657 13.8633 9.22127 13.9331 9.34872 14.0656C9.47617 14.1981 9.53989 14.3563 9.53989 14.5401C9.53989 14.724 9.47617 14.8821 9.34872 15.0146C9.22127 15.1471 9.0657 15.2169 8.88199 15.2241H7.40586C7.23928 15.2245 7.0922 15.1712 6.96463 15.064C6.83705 14.9569 6.75907 14.8213 6.73068 14.6571C6.69849 14.4429 6.59458 14.2723 6.41896 14.1454C6.24334 14.0184 6.04875 13.9733 5.8352 14.01C5.62166 14.0467 5.45329 14.1542 5.33011 14.3325C5.20693 14.5107 5.16594 14.7062 5.20713 14.919C5.29764 15.4478 5.54692 15.8865 5.95498 16.2349C6.36304 16.5833 6.83533 16.7607 7.37185 16.7672V17.7135C7.37185 17.927 7.44733 18.1092 7.59829 18.2602C7.74924 18.4111 7.93147 18.4866 8.14496 18.4866C8.35845 18.4866 8.54067 18.4111 8.69163 18.2602C8.84259 18.1092 8.91807 17.927 8.91807 17.7135V16.7662C9.20961 16.7581 9.48881 16.6952 9.75566 16.5775C10.0225 16.4598 10.2572 16.296 10.4598 16.0862C10.6623 15.8763 10.8177 15.636 10.9259 15.3651C11.0341 15.0943 11.087 14.813 11.0848 14.5214C11.0826 14.2298 11.0253 13.9493 10.913 13.6802C10.8007 13.411 10.6417 13.1731 10.4359 12.9664C10.2302 12.7596 9.99304 12.5995 9.72442 12.4858C9.45581 12.3722 9.17569 12.3136 8.88405 12.31L8.88199 12.3079Z" fill="white"/>
<path d="M41.122 28.5289C40.6031 28.5288 40.0892 28.5793 39.5803 28.6805C39.0713 28.7817 38.5771 28.9315 38.0977 29.13C37.6183 29.3286 37.1628 29.5719 36.7314 29.8602C36.2999 30.1484 35.9007 30.476 35.5337 30.8429C35.1668 31.2098 34.8392 31.6089 34.5508 32.0403C34.2625 32.4718 34.0191 32.9272 33.8205 33.4066C33.6219 33.8859 33.4719 34.3801 33.3707 34.889C33.2694 35.3979 33.2188 35.9119 33.2188 36.4308C33.2187 36.9497 33.2693 37.4636 33.3705 37.9725C33.4718 38.4814 33.6216 38.9756 33.8202 39.455C34.0188 39.9344 34.2622 40.3898 34.5505 40.8213C34.8387 41.2527 35.1663 41.6519 35.5333 42.0188C35.9002 42.3857 36.2994 42.7133 36.7308 43.0016C37.1623 43.2899 37.6177 43.5333 38.0971 43.7319C38.5765 43.9304 39.0707 44.0803 39.5796 44.1815C40.0885 44.2827 40.6024 44.3333 41.1213 44.3333C41.6402 44.3333 42.1541 44.2827 42.6631 44.1814C43.172 44.0801 43.6661 43.9302 44.1455 43.7316C44.6249 43.533 45.0803 43.2895 45.5117 43.0012C45.9432 42.7129 46.3423 42.3853 46.7092 42.0183C47.0761 41.6514 47.4036 41.2522 47.6919 40.8207C47.9801 40.3892 48.2235 39.9338 48.422 39.4543C48.6205 38.9749 48.7704 38.4808 48.8716 37.9718C48.9727 37.4629 49.0233 36.949 49.0232 36.4301C49.0227 35.9114 48.9716 35.3978 48.87 34.8892C48.7685 34.3806 48.6183 33.8867 48.4196 33.4077C48.2209 32.9286 47.9774 32.4735 47.6891 32.0423C47.4008 31.6112 47.0733 31.2122 46.7066 30.8455C46.3399 30.4787 45.9409 30.1512 45.5097 29.863C45.0786 29.5747 44.6235 29.3312 44.1444 29.1325C43.6653 28.9338 43.1715 28.7836 42.6629 28.682C42.1543 28.5805 41.6407 28.5294 41.122 28.5289ZM41.122 42.7861C40.7047 42.7861 40.2913 42.7455 39.882 42.6641C39.4726 42.5828 39.0751 42.4623 38.6895 42.3026C38.3039 42.1429 37.9376 41.9472 37.5905 41.7154C37.2435 41.4836 36.9224 41.2201 36.6272 40.925C36.3321 40.63 36.0685 40.3089 35.8366 39.9619C35.6047 39.615 35.4089 39.2487 35.2491 38.8631C35.0893 38.4775 34.9687 38.0801 34.8872 37.6708C34.8058 37.2614 34.765 36.8481 34.765 36.4307C34.7649 36.0134 34.8056 35.6 34.887 35.1907C34.9684 34.7813 35.0889 34.3839 35.2486 33.9983C35.4082 33.6127 35.604 33.2463 35.8358 32.8993C36.0677 32.5523 36.3311 32.2312 36.6262 31.936C36.9213 31.6409 37.2424 31.3774 37.5894 31.1455C37.9364 30.9136 38.3027 30.7178 38.6882 30.558C39.0738 30.3983 39.4713 30.2777 39.8806 30.1963C40.2899 30.1148 40.7033 30.0741 41.1206 30.074C41.538 30.074 41.9513 30.1147 42.3607 30.1961C42.77 30.2775 43.1675 30.3981 43.5531 30.5578C43.9387 30.7175 44.305 30.9133 44.652 31.1451C44.999 31.377 45.3201 31.6405 45.6152 31.9356C45.9104 32.2307 46.1739 32.5517 46.4057 32.8987C46.6376 33.2458 46.8334 33.6121 46.9931 33.9976C47.1529 34.3832 47.2734 34.7807 47.3549 35.19C47.4363 35.5994 47.477 36.0127 47.477 36.4301C47.4766 36.8472 47.4355 37.2604 47.3539 37.6695C47.2722 38.0786 47.1514 38.4758 46.9916 38.8612C46.8318 39.2466 46.636 39.6127 46.4041 39.9595C46.1723 40.3063 45.9089 40.6273 45.6139 40.9223C45.319 41.2173 44.9981 41.4807 44.6513 41.7126C44.3045 41.9445 43.9384 42.1404 43.5531 42.3003C43.1677 42.4602 42.7705 42.581 42.3614 42.6627C41.9523 42.7445 41.5392 42.7856 41.122 42.7861Z" fill="white"/>
<path d="M42.6995 32.8748V32.5944C42.6999 32.4088 42.6409 32.2444 42.5226 32.1014C42.4043 31.9584 42.254 31.8696 42.0716 31.8352C41.8892 31.8007 41.7168 31.8285 41.5545 31.9185C41.3922 32.0085 41.2773 32.14 41.21 32.313C41.1426 32.14 41.0277 32.0085 40.8654 31.9185C40.7031 31.8285 40.5307 31.8007 40.3483 31.8352C40.1659 31.8696 40.0156 31.9584 39.8973 32.1014C39.779 32.2444 39.72 32.4088 39.7204 32.5944V32.7232H39.3669C39.1534 32.7232 38.9712 32.7987 38.8202 32.9497C38.6692 33.1006 38.5938 33.2829 38.5938 33.4964V39.203C38.5937 39.4164 38.6692 39.5987 38.8202 39.7496C38.9711 39.9006 39.1534 39.9761 39.3669 39.9761H39.7204V40.1472C39.72 40.3328 39.779 40.4971 39.8973 40.6402C40.0156 40.7832 40.1659 40.872 40.3483 40.9064C40.5307 40.9409 40.7031 40.9131 40.8654 40.8231C41.0277 40.7331 41.1426 40.6016 41.21 40.4286C41.2773 40.6016 41.3922 40.733 41.5545 40.8231C41.7168 40.9131 41.8892 40.9409 42.0716 40.9064C42.254 40.872 42.4043 40.7832 42.5226 40.6402C42.6409 40.4971 42.6999 40.3328 42.6995 40.1472V39.8245C42.8638 39.762 43.0183 39.6809 43.1631 39.5811C43.3078 39.4814 43.4387 39.366 43.5557 39.2348C43.6727 39.1036 43.7725 38.9604 43.855 38.8052C43.9376 38.65 44.0006 38.4872 44.044 38.3169C44.0874 38.1465 44.11 37.9735 44.1118 37.7977C44.1136 37.6219 44.0945 37.4484 44.0545 37.2773C44.0146 37.1061 43.9549 36.9421 43.8755 36.7852C43.7961 36.6284 43.6993 36.4832 43.585 36.3497C43.6993 36.2161 43.7961 36.0709 43.8755 35.9141C43.9549 35.7573 44.0146 35.5932 44.0545 35.4221C44.0945 35.2509 44.1136 35.0774 44.1118 34.9016C44.11 34.7258 44.0874 34.5528 44.044 34.3824C44.0006 34.2121 43.9376 34.0493 43.855 33.8941C43.7725 33.7389 43.6727 33.5957 43.5557 33.4645C43.4387 33.3333 43.3078 33.2179 43.1631 33.1182C43.0183 33.0185 42.8638 32.9373 42.6995 32.8748ZM40.14 38.4298V37.1228H41.9119C42.0924 37.1228 42.2465 37.1866 42.3741 37.3142C42.5017 37.4418 42.5655 37.5958 42.5655 37.7763C42.5655 37.9568 42.5017 38.1108 42.3741 38.2384C42.2465 38.366 42.0924 38.4298 41.9119 38.4298H40.14ZM40.14 34.2695H41.9119C42.0924 34.2695 42.2465 34.3333 42.3741 34.4609C42.5017 34.5885 42.5655 34.7425 42.5655 34.923C42.5655 35.1035 42.5017 35.2575 42.3741 35.3851C42.2465 35.5127 42.0924 35.5765 41.9119 35.5765H40.14V34.2695Z" fill="white"/>
<path d="M24.6943 47.7649C28.635 47.7645 32.3315 46.8141 35.7838 44.9137C35.9705 44.8105 36.0934 44.6564 36.1525 44.4514C36.2116 44.2464 36.1895 44.0505 36.0863 43.8638C35.9832 43.677 35.8291 43.5541 35.6241 43.4951C35.4191 43.436 35.2232 43.458 35.0365 43.5612C33.3154 44.5164 31.4973 45.2211 29.5821 45.6752C27.6668 46.1292 25.7259 46.3158 23.7592 46.235C21.7925 46.1541 19.8735 45.8087 18.002 45.1989C16.1305 44.5891 14.3764 43.7376 12.7396 42.6443C11.1028 41.551 9.64437 40.2567 8.36431 38.7615C7.08425 37.2662 6.03027 35.6257 5.20237 33.84C4.37446 32.0542 3.8035 30.1898 3.48946 28.2467C3.17543 26.3036 3.13004 24.3542 3.3533 22.3986L3.6945 22.8552C3.82259 23.026 3.99231 23.1265 4.20365 23.1567C4.41499 23.1869 4.60606 23.1379 4.77685 23.0098C4.94764 22.8817 5.04814 22.712 5.07833 22.5007C5.10852 22.2893 5.05957 22.0983 4.93148 21.9275L3.47803 19.9823C3.44641 19.9493 3.41205 19.9194 3.37494 19.8927C3.34365 19.8571 3.30929 19.8248 3.27186 19.7958C3.22404 19.7694 3.17387 19.7488 3.12136 19.7339C3.08516 19.7143 3.04736 19.6985 3.00797 19.6865C3.00179 19.6865 2.9956 19.6865 2.98839 19.6865C2.98117 19.6865 2.97705 19.6865 2.97086 19.6803C2.91175 19.6767 2.853 19.6798 2.7946 19.6896C2.76011 19.6895 2.72575 19.6916 2.69151 19.6958C2.63083 19.7127 2.57311 19.7368 2.51834 19.7679C2.48274 19.7814 2.44838 19.7976 2.41526 19.8164C2.40907 19.8164 2.40082 19.8164 2.39361 19.8257L0.310329 21.3842C0.139452 21.5123 0.0388952 21.682 0.00865941 21.8934C-0.0215764 22.1048 0.027368 22.2959 0.155493 22.4668C0.283617 22.6376 0.45338 22.7381 0.66478 22.7683C0.87618 22.7984 1.06727 22.7494 1.23806 22.6212L1.8246 22.1831C1.73074 22.9862 1.67951 23.792 1.67093 24.6005C1.66235 25.4091 1.69645 26.2158 1.77323 27.0207C1.85002 27.8256 1.96907 28.6242 2.13037 29.4165C2.29167 30.2088 2.49433 30.9904 2.73834 31.7613C2.98236 32.5321 3.26637 33.288 3.59037 34.0288C3.91437 34.7696 4.27656 35.4912 4.67693 36.1937C5.0773 36.8962 5.51362 37.5756 5.98589 38.2319C6.45816 38.8882 6.96374 39.5177 7.50263 40.1205C8.04152 40.7233 8.61072 41.296 9.21021 41.8385C9.80971 42.3811 10.4362 42.8905 11.0896 43.3668C11.743 43.8431 12.4197 44.2835 13.1197 44.6882C13.8197 45.0928 14.5391 45.4594 15.278 45.7879C16.0168 46.1164 16.7709 46.4051 17.5402 46.6538C18.3096 46.9025 19.0899 47.1099 19.8812 47.2761C20.6725 47.4422 21.4704 47.5661 22.2748 47.6478C23.0792 47.7295 23.8857 47.7685 24.6943 47.7649Z" fill="white"/>
<path d="M48.2417 26.361L47.6232 26.8259C47.6851 26.1332 47.7212 25.4364 47.7212 24.7396C47.7213 24.2433 47.7055 23.7475 47.6736 23.2522C47.6417 22.757 47.5938 22.2633 47.53 21.7711C47.4662 21.2789 47.3865 20.7894 47.291 20.3024C47.1955 19.8153 47.0844 19.3319 46.9577 18.8521C46.8309 18.3723 46.6888 17.8971 46.5313 17.4264C46.3738 16.9558 46.2013 16.4907 46.0137 16.0313C45.8261 15.5718 45.6239 15.1189 45.407 14.6725C45.1902 14.2261 44.9591 13.7872 44.7138 13.3557C44.4686 12.9243 44.2096 12.5012 43.937 12.0865C43.6644 11.6718 43.3787 11.2663 43.0798 10.8701C42.781 10.4739 42.4696 10.0878 42.1458 9.71168C41.822 9.3356 41.4864 8.97037 41.1389 8.616C40.7915 8.26163 40.4329 7.91885 40.0633 7.58767C39.6937 7.25648 39.3138 6.93759 38.9235 6.63098C38.5333 6.32437 38.1336 6.03068 37.7243 5.74993C37.3151 5.46917 36.8972 5.20193 36.4707 4.9482C36.0442 4.69447 35.6099 4.45479 35.1679 4.22915C34.7258 4.00351 34.277 3.79239 33.8213 3.59578C33.3656 3.39917 32.9041 3.21749 32.4367 3.05073C31.9692 2.88398 31.4969 2.7325 31.0197 2.59629C30.5425 2.46009 30.0613 2.33944 29.5763 2.23435C29.0913 2.12926 28.6033 2.03996 28.1125 1.96643C27.6217 1.8929 27.1291 1.8353 26.6345 1.79364C26.14 1.75197 25.6446 1.72633 25.1484 1.7167C24.6523 1.70708 24.1563 1.71349 23.6605 1.73595C23.1647 1.7584 22.6702 1.79685 22.1769 1.85129C21.6836 1.90573 21.1926 1.97605 20.7039 2.06225C20.2151 2.14845 19.7297 2.25035 19.2475 2.36794C18.7654 2.48554 18.2875 2.61859 17.814 2.76709C17.3404 2.9156 16.8722 3.07924 16.4092 3.25803C15.9463 3.43682 15.4896 3.63038 15.0391 3.83871C14.5887 4.04704 14.1454 4.2697 13.7094 4.5067C13.5167 4.60633 13.3886 4.75988 13.3251 4.96735C13.2617 5.17482 13.282 5.37375 13.386 5.56415C13.49 5.75454 13.6464 5.87908 13.8553 5.93777C14.0642 5.99645 14.2626 5.97161 14.4506 5.86325C15.2649 5.42104 16.1044 5.03317 16.969 4.69963C17.8336 4.3661 18.716 4.08969 19.6164 3.87041C20.5168 3.65112 21.4275 3.49079 22.3486 3.38941C23.2697 3.28803 24.1936 3.24644 25.1201 3.26466C26.0466 3.28288 26.968 3.36075 27.8845 3.49826C28.8009 3.63577 29.7046 3.83178 30.5957 4.08629C31.4867 4.3408 32.3576 4.65169 33.2084 5.01895C34.0592 5.38621 34.8828 5.80678 35.6792 6.28067C36.4755 6.75455 37.238 7.27779 37.9666 7.85038C38.6952 8.42298 39.3839 9.04015 40.0326 9.7019C40.6813 10.3636 41.2847 11.0645 41.8426 11.8043C42.4006 12.5442 42.9086 13.3169 43.3665 14.1225C43.8245 14.9282 44.2286 15.7599 44.5788 16.6179C44.9291 17.4758 45.2226 18.3528 45.4593 19.2487C45.6961 20.1446 45.8741 21.0521 45.9933 21.9711C46.1126 22.89 46.1721 23.8129 46.1719 24.7396C46.1719 25.3416 46.1451 25.9446 46.0946 26.5435L45.7853 26.1312C45.6573 25.9602 45.4875 25.8595 45.2761 25.8292C45.0646 25.7989 44.8734 25.8478 44.7026 25.976C44.5317 26.1042 44.4312 26.274 44.401 26.4855C44.3709 26.697 44.42 26.8881 44.5483 27.0589L46.0028 29.0051C46.0131 29.0195 46.0306 29.0236 46.042 29.037C46.1 29.1078 46.1687 29.1659 46.2481 29.2112C46.2851 29.229 46.3232 29.2438 46.3626 29.2556C46.4026 29.2755 46.4442 29.2917 46.4873 29.304C46.5313 29.3114 46.5756 29.3152 46.6203 29.3153C46.7067 29.3145 46.7905 29.2994 46.8718 29.27C46.9047 29.256 46.9363 29.2395 46.9666 29.2205C47.0068 29.2039 47.0453 29.1839 47.0821 29.1607L49.1695 27.599C49.3405 27.471 49.4411 27.3013 49.4714 27.0898C49.5017 26.8784 49.4528 26.6872 49.3246 26.5163C49.1964 26.3454 49.0266 26.2449 48.8151 26.2148C48.6037 26.1846 48.4125 26.2327 48.2417 26.361Z" fill="white"/>
<path d="M9.20296 23.9664C9.22255 23.5665 9.25244 23.1665 9.30604 22.7717C9.33334 22.5593 9.28152 22.3684 9.15059 22.1989C9.01965 22.0294 8.84797 21.9311 8.63555 21.9039C8.42312 21.8767 8.23221 21.9286 8.06281 22.0597C7.8934 22.1907 7.79516 22.3624 7.76807 22.5748C7.6761 23.2935 7.62971 24.0151 7.62891 24.7396C7.62842 28.3528 8.67642 31.6308 10.7729 34.5735C10.8109 34.6478 10.86 34.7138 10.9203 34.7715C11.4926 35.5604 12.128 36.2949 12.8265 36.9748C13.5249 37.6547 14.2762 38.2701 15.0803 38.821C15.8844 39.372 16.7295 39.8503 17.6158 40.2562C18.502 40.662 19.4163 40.9893 20.3587 41.2382C21.3012 41.487 22.2579 41.6537 23.2289 41.7383C24.2 41.8229 25.1711 41.8241 26.1424 41.742C27.1136 41.6598 28.0708 41.4955 29.0138 41.249C29.9569 41.0026 30.872 40.6775 31.7593 40.274C31.9587 40.1886 32.0975 40.0448 32.1759 39.8426C32.2543 39.6403 32.2485 39.4405 32.1587 39.2431C32.0689 39.0457 31.922 38.9101 31.7181 38.8363C31.5141 38.7625 31.3145 38.7727 31.1191 38.8669C30.4444 39.1674 29.7517 39.4182 29.041 39.6194C31.5964 36.8362 33.3158 31.645 33.4508 25.5127H40.1852C40.1656 25.9126 40.1357 26.3105 40.0821 26.7033C40.0553 26.915 40.1072 27.1052 40.2378 27.274C40.3683 27.4428 40.5394 27.5408 40.7511 27.5681C40.7853 27.5724 40.8197 27.5744 40.8542 27.5743C41.0486 27.5743 41.2188 27.51 41.3646 27.3814C41.5105 27.2528 41.5956 27.092 41.6201 26.8991C41.7109 26.1821 41.7562 25.4623 41.7561 24.7396C41.7567 21.1198 40.7052 17.837 38.6018 14.8911C38.5647 14.8205 38.5177 14.7573 38.4606 14.7015C37.8877 13.9125 37.2518 13.1782 36.5528 12.4985C35.8538 11.8188 35.102 11.2036 34.2974 10.653C33.4928 10.1025 32.6471 9.62447 31.7604 9.21912C30.8736 8.81376 29.9589 8.48695 29.016 8.2387C28.0732 7.99045 27.116 7.82438 26.1447 7.7405C25.1733 7.65663 24.2019 7.65616 23.2305 7.73911C22.259 7.82207 21.3017 7.98722 20.3587 8.23457C19.4156 8.48193 18.5005 8.80786 17.6134 9.21238C17.4191 9.30105 17.2846 9.44542 17.21 9.64549C17.1353 9.84556 17.1423 10.0427 17.2309 10.237C17.3196 10.4313 17.464 10.5658 17.6641 10.6404C17.8641 10.7151 18.0613 10.7081 18.2556 10.6194C18.9343 10.3157 19.6315 10.0628 20.3471 9.86076C17.7917 12.644 16.0733 17.8341 15.9373 23.9664L9.20296 23.9664ZM18.7329 33.386C20.4555 33.1688 22.1849 33.0472 23.921 33.0211V40.1575C21.7923 39.6462 19.908 37.0578 18.7329 33.386ZM25.4672 33.0211C27.2036 33.0454 28.9334 33.1663 30.6563 33.384C29.4812 37.0568 27.5958 39.6462 25.4672 40.1575V33.0211ZM23.921 31.4749C22.0427 31.504 20.1725 31.6414 18.3102 31.8872C17.8029 29.7938 17.528 27.6704 17.4856 25.5168H23.923L23.921 31.4749ZM16.7619 32.1161C15.0699 32.3951 13.4061 32.7926 11.7707 33.3087C10.2027 30.9448 9.35162 28.3461 9.21739 25.5127H15.9373C15.9766 27.7432 16.2515 29.9443 16.7619 32.1161ZM12.7418 34.623C14.1976 34.1914 15.6751 33.855 17.1743 33.6138C17.7915 35.8522 18.8519 37.8562 20.3554 39.6256C17.3074 38.7352 14.7703 37.0676 12.7438 34.623H12.7418ZM31.0769 31.879C29.2141 31.6353 27.3436 31.5006 25.4651 31.4749V25.5127H31.9046C31.8618 27.6649 31.5866 29.787 31.0789 31.879H31.0769ZM30.6532 16.0931C28.9306 16.3112 27.2013 16.4332 25.4651 16.459V9.32164C27.5958 9.83293 29.4822 12.4213 30.6553 16.0931L30.6532 16.0931ZM23.9189 16.459C22.1824 16.4346 20.4527 16.3137 18.7298 16.0962C19.9049 12.4223 21.7903 9.83293 23.9189 9.32164V16.459ZM25.4651 18.0052C27.3433 17.9761 29.2136 17.8387 31.0758 17.5929C31.5832 19.6859 31.8581 21.8091 31.9005 23.9623H25.4672L25.4651 18.0052ZM40.1707 23.9664H33.4508C33.4121 21.7362 33.1372 19.5354 32.6262 17.3641C34.3181 17.0846 35.9819 16.687 37.6174 16.1714C39.186 18.5347 40.0372 21.1331 40.1707 23.9664ZM36.6453 14.8571C35.1894 15.2881 33.7119 15.6245 32.2128 15.8663C31.5955 13.6274 30.5348 11.6231 29.0307 9.85354C32.0802 10.7434 34.6184 12.4112 36.6453 14.8571ZM18.3092 17.6012C20.172 17.8446 22.0425 17.9793 23.921 18.0052V23.9664H17.4835C17.5263 21.8145 17.8015 19.6928 18.3092 17.6012Z" fill="white"/>
</g>
</svg>
