<svg width="50" height="50" viewBox="0 0 50 50" fill="none" xmlns="http://www.w3.org/2000/svg">
<mask id="mask0_111_380" style="mask-type:luminance" maskUnits="userSpaceOnUse" x="0" y="0" width="50" height="50">
<path fill-rule="evenodd" clip-rule="evenodd" d="M0 0H50V50H0V0Z" fill="white"/>
</mask>
<g mask="url(#mask0_111_380)">
<path d="M49.3818 9.55168C41.4108 8.49085 36.099 9.70583 32.5636 11.7001C32.9567 6.56995 30.389 2.95831 30.2686 2.79252C30.1516 2.63133 29.974 2.52456 29.7767 2.49711C29.5792 2.46975 29.3793 2.52368 29.2227 2.64677C26.5069 4.78181 24.9301 7.48981 24.5219 10.7115C22.2715 9.06049 19.5587 8.0063 16.6191 7.77839C16.2148 7.74674 15.8632 8.0488 15.8319 8.45216C15.8007 8.85563 16.1023 9.208 16.5057 9.23936C19.6201 9.48085 22.4536 10.7465 24.6628 12.7049C24.6676 12.7092 24.6722 12.7136 24.6771 12.7177C25.9314 13.8326 26.9837 15.1711 27.7709 16.6723C27.7775 16.6865 27.7847 16.7002 27.7923 16.714C28.2201 17.5367 28.5683 18.4078 28.827 19.3174C28.8279 19.3205 28.8288 19.3236 28.8296 19.3268C28.9609 19.7896 29.0689 20.2622 29.1523 20.7437H1.6714C2.70243 14.7697 7.48353 10.1261 13.5584 9.31917C13.9595 9.26593 14.2414 8.89754 14.1882 8.49642C14.1349 8.0954 13.7663 7.81336 13.3654 7.8666C9.98961 8.31501 6.81064 9.906 4.41418 12.3467C2.01429 14.7907 0.481617 18.0037 0.0984727 21.3931C0.0982773 21.3951 0.0980819 21.397 0.0978865 21.399C0.0976912 21.4006 0.0975935 21.4022 0.0973981 21.4038C0.0329219 21.9723 0 22.5573 0 23.1429C0 23.7291 0.0329219 24.3141 0.0973981 24.8809C0.0975935 24.8826 0.0976912 24.8843 0.0978866 24.8861C0.0980819 24.8876 0.0981796 24.8892 0.098375 24.8908C0.973102 32.6316 7.47992 38.4799 15.2646 38.5529C15.1077 40.3706 15.5453 42.2402 16.6124 43.8406C16.7535 44.0523 16.986 44.1669 17.2227 44.1669C17.3624 44.1669 17.5035 44.127 17.6285 44.0437C17.9651 43.8192 18.0561 43.3643 17.8317 43.0276C16.0411 40.3422 16.4005 36.7341 18.6863 34.4483L24.6681 28.4664L34.2912 38.0895L28.3093 44.0714C26.0646 46.3159 22.4988 46.7024 19.8301 44.9902C19.4897 44.7717 19.0364 44.8706 18.8179 45.2113C18.5993 45.5519 18.6983 46.005 19.0389 46.2236C20.368 47.0763 21.9285 47.528 23.5077 47.528C23.7857 47.528 24.0647 47.514 24.3426 47.4856C26.2271 47.2939 28.0038 46.4493 29.3455 45.1076L39.0281 35.4249C39.3142 35.1388 39.3142 34.6748 39.0281 34.3888C38.742 34.1026 38.278 34.1026 37.992 34.3888L35.3275 37.0533L25.7044 27.4303L31.6862 21.4485C34.3393 18.7955 38.6562 18.7955 41.3093 21.4485C42.5947 22.7339 43.3024 24.4426 43.3019 26.2602C43.3024 28.0774 42.5947 29.7861 41.3093 31.0715L40.1846 32.1962C39.8984 32.4823 39.8984 32.9463 40.1846 33.2323C40.4707 33.5186 40.9347 33.5185 41.2207 33.2323L42.3454 32.1076C43.9078 30.5453 44.7679 28.4685 44.7673 26.2601C44.7679 24.1011 43.9442 22.0696 42.4482 20.5201C45.135 19.4968 47.2536 17.5555 48.6216 14.8435C49.8 12.507 50.0067 10.4337 50.0149 10.3466C50.0516 9.95475 49.7722 9.60355 49.3818 9.55168ZM17.65 33.4123C16.6041 34.4581 15.8904 35.7319 15.5228 37.088C15.4856 37.0883 15.4493 37.0893 15.4117 37.0893C8.5852 37.0893 2.8182 32.1805 1.67169 25.5414H25.5208L17.65 33.4123ZM26.9863 24.076H1.49721C1.4768 23.7674 1.46537 23.4557 1.46537 23.1429C1.46537 22.8301 1.47689 22.5181 1.49731 22.2088H28.8534L26.9863 24.076ZM28.2932 7.66116C27.9459 9.34711 27.8904 12.1954 27.8981 14.1057C27.3048 13.2875 26.6334 12.5299 25.8946 11.8444C26.0346 8.86198 27.2441 6.33822 29.4961 4.32813C30.2312 5.65253 31.6267 8.80766 30.9598 12.7395C30.3653 13.1812 29.8361 13.6442 29.3649 14.1165C29.3575 12.2651 29.408 9.51279 29.7285 7.95677C29.8102 7.56044 29.5551 7.17299 29.1587 7.09132C28.7625 7.00975 28.3749 7.26482 28.2932 7.66116ZM47.2901 14.2285C45.9413 16.8755 43.8731 18.6187 41.1402 19.4151C39.7812 18.4891 38.178 17.99 36.4976 17.99C34.2887 17.99 32.212 18.8503 30.6499 20.4124L30.5925 20.4698C30.5296 20.1097 30.4546 19.754 30.3672 19.403C34.2261 16.4536 39.4686 14.2889 45.9595 12.9663C46.356 12.8855 46.612 12.4985 46.5312 12.102C46.4504 11.7055 46.0632 11.4495 45.6669 11.5303C39.196 12.8489 33.9033 14.9945 29.9137 17.9131C29.7309 17.4059 29.5225 16.9114 29.2897 16.4309C31.8262 13.0756 37.183 9.59007 48.4411 10.9106C48.2918 11.6551 47.9652 12.904 47.2901 14.2285Z" fill="black"/>
<path d="M22.2991 15.9173C21.8945 15.9173 21.5664 16.2453 21.5664 16.65V16.7298C21.5664 17.1344 21.8945 17.4625 22.2991 17.4625C22.7037 17.4625 23.0318 17.1344 23.0318 16.7298V16.65C23.0318 16.2453 22.7037 15.9173 22.2991 15.9173Z" fill="black"/>
<path d="M17.7073 15.9173C17.3027 15.9173 16.9746 16.2453 16.9746 16.65V16.7298C16.9746 17.1344 17.3027 17.4625 17.7073 17.4625C18.1119 17.4625 18.44 17.1344 18.44 16.7298V16.65C18.44 16.2453 18.1119 15.9173 17.7073 15.9173Z" fill="black"/>
<path d="M13.1174 15.9173C12.7128 15.9173 12.3848 16.2453 12.3848 16.65V16.7298C12.3848 17.1344 12.7128 17.4625 13.1174 17.4625C13.5221 17.4625 13.8501 17.1344 13.8501 16.7298V16.65C13.8501 16.2453 13.5221 15.9173 13.1174 15.9173Z" fill="black"/>
<path d="M8.5237 15.9173C8.11906 15.9173 7.79102 16.2453 7.79102 16.65V16.7298C7.79102 17.1344 8.11906 17.4625 8.5237 17.4625C8.92834 17.4625 9.25638 17.1344 9.25638 16.7298V16.65C9.25638 16.2453 8.92834 15.9173 8.5237 15.9173Z" fill="black"/>
<path d="M20.9513 26.4312H9.87526C9.47063 26.4312 9.14258 26.7592 9.14258 27.1638C9.14258 27.5685 9.47063 27.8965 9.87526 27.8965H20.9513C21.3559 27.8965 21.684 27.5685 21.684 27.1638C21.684 26.7592 21.3559 26.4312 20.9513 26.4312Z" fill="black"/>
<path d="M17.5949 28.3862H13.2288C12.8241 28.3862 12.4961 28.7143 12.4961 29.1189C12.4961 29.5236 12.8241 29.8516 13.2288 29.8516H17.5949C17.9995 29.8516 18.3276 29.5236 18.3276 29.1189C18.3276 28.7143 17.9995 28.3862 17.5949 28.3862Z" fill="black"/>
<path d="M15.9402 31.0489H14.8831C14.4784 31.0489 14.1504 31.377 14.1504 31.7816C14.1504 32.1862 14.4784 32.5143 14.8831 32.5143H15.9402C16.3448 32.5143 16.6729 32.1862 16.6729 31.7816C16.6729 31.377 16.3448 31.0489 15.9402 31.0489Z" fill="black"/>
<path d="M33.5265 22.9791C33.2403 22.693 32.7764 22.693 32.4903 22.9791L28.2146 27.2548C27.9285 27.541 27.9285 28.0049 28.2146 28.291C28.3576 28.434 28.5452 28.5056 28.7327 28.5056C28.9201 28.5056 29.1077 28.4341 29.2507 28.291L33.5265 24.0152C33.8126 23.7292 33.8126 23.2652 33.5265 22.9791Z" fill="black"/>
<path d="M32.6289 26.3552C32.3428 26.069 31.8788 26.069 31.5928 26.3552L29.4548 28.493C29.1687 28.7792 29.1687 29.2431 29.4548 29.5292C29.5979 29.6722 29.7854 29.7438 29.9729 29.7438C30.1604 29.7438 30.3479 29.6723 30.491 29.5292L32.6288 27.3913C32.9151 27.1052 32.9151 26.6413 32.6289 26.3552Z" fill="black"/>
<path d="M32.8751 29.881C32.5889 29.5949 32.125 29.595 31.8389 29.881L31.3396 30.3803C31.0535 30.6664 31.0535 31.1304 31.3396 31.4165C31.4827 31.5594 31.6703 31.631 31.8578 31.631C32.0452 31.631 32.2328 31.5595 32.3758 31.4165L32.8751 30.9172C33.1612 30.6311 33.1612 30.1671 32.8751 29.881Z" fill="black"/>
<path d="M25.4102 31.3254C25.1241 31.0393 24.6601 31.0393 24.3741 31.3254L24.3162 31.3834C24.03 31.6695 24.03 32.1334 24.3162 32.4195C24.4592 32.5625 24.6467 32.6341 24.8342 32.6341C25.0217 32.6341 25.2093 32.5626 25.3523 32.4195L25.4102 32.3616C25.6963 32.0754 25.6963 31.6115 25.4102 31.3254Z" fill="black"/>
<path d="M27.4161 33.3332C27.1299 33.0471 26.666 33.0471 26.38 33.3332L26.322 33.3912C26.0359 33.6773 26.0359 34.1412 26.322 34.4273C26.465 34.5704 26.6526 34.6419 26.8401 34.6419C27.0276 34.6419 27.2151 34.5704 27.3581 34.4273L27.4161 34.3693C27.7022 34.0832 27.7022 33.6193 27.4161 33.3332Z" fill="black"/>
<path d="M29.4239 35.3409C29.1377 35.0548 28.6738 35.0548 28.3878 35.3409L28.3298 35.3989C28.0437 35.685 28.0437 36.1489 28.3298 36.435C28.4729 36.5781 28.6604 36.6496 28.8479 36.6496C29.0354 36.6496 29.2229 36.5781 29.366 36.435L29.4239 36.3771C29.71 36.0909 29.71 35.627 29.4239 35.3409Z" fill="black"/>
<path d="M31.4317 37.3488C31.1456 37.0627 30.6816 37.0627 30.3956 37.3488L30.3376 37.4067C30.0515 37.6929 30.0515 38.1568 30.3376 38.4429C30.4807 38.5859 30.6682 38.6575 30.8557 38.6575C31.0432 38.6575 31.2306 38.5859 31.3738 38.4429L31.4317 38.3849C31.7178 38.0988 31.7178 37.6349 31.4317 37.3488Z" fill="black"/>
<path d="M23.2012 33.5327C22.9151 33.2466 22.4512 33.2466 22.1651 33.5327L22.1072 33.5906C21.821 33.8768 21.821 34.3407 22.1072 34.6267C22.2502 34.7697 22.4378 34.8414 22.6252 34.8414C22.8127 34.8414 23.0003 34.7698 23.1433 34.6267L23.2012 34.5688C23.4874 34.2827 23.4874 33.8187 23.2012 33.5327Z" fill="black"/>
<path d="M25.209 35.5405C24.9229 35.2543 24.459 35.2543 24.1729 35.5405L24.115 35.5984C23.8289 35.8844 23.8289 36.3484 24.115 36.6345C24.258 36.7775 24.4456 36.8491 24.633 36.8491C24.8205 36.8491 25.0081 36.7776 25.1511 36.6345L25.209 36.5766C25.4952 36.2904 25.4952 35.8265 25.209 35.5405Z" fill="black"/>
<path d="M27.2168 37.5482C26.9307 37.2621 26.4668 37.2621 26.1807 37.5482L26.1228 37.6061C25.8367 37.8923 25.8367 38.3562 26.1228 38.6422C26.2658 38.7853 26.4534 38.8569 26.6409 38.8569C26.8283 38.8569 27.0159 38.7853 27.1589 38.6422L27.2168 38.5843C27.503 38.2982 27.503 37.8342 27.2168 37.5482Z" fill="black"/>
<path d="M29.2247 39.5561C28.9386 39.2699 28.4747 39.2699 28.1886 39.5561L28.1307 39.614C27.8445 39.9 27.8445 40.364 28.1307 40.6501C28.2737 40.7931 28.4613 40.8647 28.6487 40.8647C28.8362 40.8647 29.0238 40.7932 29.1668 40.6501L29.2247 40.5922C29.5109 40.306 29.5109 39.8421 29.2247 39.5561Z" fill="black"/>
<path d="M20.9942 35.7399C20.7081 35.4537 20.2441 35.4537 19.9581 35.7399L19.9001 35.7978C19.614 36.0839 19.614 36.5479 19.9001 36.8339C20.0432 36.977 20.2307 37.0485 20.4182 37.0485C20.6057 37.0485 20.7932 36.977 20.9363 36.8339L20.9942 36.776C21.2803 36.4898 21.2803 36.0259 20.9942 35.7399Z" fill="black"/>
<path d="M23.002 37.7477C22.7159 37.4615 22.2519 37.4615 21.9659 37.7477L21.908 37.8056C21.6218 38.0917 21.6218 38.5556 21.908 38.8417C22.051 38.9847 22.2385 39.0563 22.426 39.0563C22.6135 39.0563 22.8011 38.9848 22.9441 38.8417L23.002 38.7838C23.2881 38.4977 23.2881 38.0337 23.002 37.7477Z" fill="black"/>
<path d="M25.0099 39.7554C24.7238 39.4693 24.2598 39.4693 23.9738 39.7554L23.9158 39.8134C23.6296 40.0994 23.6296 40.5633 23.9158 40.8495C24.0589 40.9925 24.2464 41.0641 24.4339 41.0641C24.6214 41.0641 24.8089 40.9926 24.952 40.8495L25.0099 40.7915C25.296 40.5054 25.296 40.0415 25.0099 39.7554Z" fill="black"/>
<path d="M27.0176 41.7632C26.7315 41.4771 26.2676 41.4771 25.9815 41.7632L25.9236 41.8211C25.6375 42.1073 25.6375 42.5712 25.9236 42.8572C26.0666 43.0002 26.2542 43.0719 26.4416 43.0719C26.6291 43.0719 26.8167 43.0003 26.9597 42.8572L27.0176 42.7993C27.3038 42.5132 27.3038 42.0492 27.0176 41.7632Z" fill="black"/>
</g>
</svg>
