<svg width="50" height="50" viewBox="0 0 50 50" fill="none" xmlns="http://www.w3.org/2000/svg">
<mask id="mask0_111_689" style="mask-type:luminance" maskUnits="userSpaceOnUse" x="0" y="0" width="50" height="50">
<path fill-rule="evenodd" clip-rule="evenodd" d="M0 0H50V50H0V0Z" fill="white"/>
</mask>
<g mask="url(#mask0_111_689)">
<path d="M50.1434 21.4943L42.1837 14.5161V5.09546C42.1837 4.81785 42.0757 4.55161 41.8837 4.35531C41.6917 4.15901 41.4313 4.04873 41.1597 4.04873H35.835C35.5634 4.04873 35.303 4.15901 35.1109 4.35531C34.9189 4.55161 34.8111 4.81785 34.8111 5.09546V8.04028L25.9366 0.266545C25.7489 0.0948966 25.5058 0 25.254 0C25.0021 0 24.759 0.0948966 24.5713 0.266545L0.364501 21.4943C0.204248 21.6342 0.090181 21.8215 0.037876 22.0302C-0.0144293 22.239 -0.00242334 22.4591 0.0722546 22.6607C0.146932 22.8622 0.280642 23.0353 0.455126 23.1562C0.629609 23.2772 0.836365 23.3401 1.04715 23.3365H8.32423V42.9313C8.32423 43.2089 8.43208 43.4751 8.62411 43.6714C8.81614 43.8677 9.07657 43.978 9.3482 43.978H12.9116C13.1832 43.978 13.4436 43.8677 13.6357 43.6714C13.8277 43.4751 13.9356 43.2089 13.9356 42.9313C13.9356 42.6536 13.8277 42.3874 13.6357 42.1911C13.4436 41.9948 13.1832 41.8846 12.9116 41.8846H10.3722V22.2898C10.3722 22.0121 10.2642 21.7459 10.0722 21.5496C9.88019 21.3533 9.61976 21.243 9.3482 21.243H3.79823L25.254 2.4577L46.7096 21.243H41.1597C40.8881 21.243 40.6276 21.3533 40.4356 21.5496C40.2436 21.7459 40.1357 22.0121 40.1357 22.2898V41.8846H37.5894C37.3178 41.8846 37.0574 41.9948 36.8654 42.1911C36.6733 42.3874 36.5655 42.6536 36.5655 42.9313C36.5655 43.2089 36.6733 43.4751 36.8654 43.6714C37.0574 43.8677 37.3178 43.978 37.5894 43.978H41.1597C41.4313 43.978 41.6917 43.8677 41.8837 43.6714C42.0757 43.4751 42.1837 43.2089 42.1837 42.9313V23.3365H49.4812C49.6919 23.3401 49.8987 23.2772 50.0732 23.1562C50.2477 23.0353 50.3814 22.8622 50.4561 22.6607C50.5308 22.4591 50.5428 22.239 50.4904 22.0302C50.4381 21.8215 50.3241 21.6342 50.1639 21.4943H50.1434ZM36.859 6.14219H40.1357V12.7227L36.859 9.84764V6.14219ZM36.9204 36.7556L33.2683 33.0222L34.736 31.5219C34.9277 31.3256 35.0354 31.0596 35.0354 30.7822C35.0354 30.5049 34.9277 30.2388 34.736 30.0426L25.9776 21.0965C25.7855 20.9005 25.5253 20.7904 25.254 20.7904C24.9826 20.7904 24.7223 20.9005 24.5303 21.0965L15.7788 30.0426C15.587 30.2388 15.4793 30.5049 15.4793 30.7822C15.4793 31.0596 15.587 31.3256 15.7788 31.5219L17.2465 33.0222L13.5943 36.7556C13.4025 36.9518 13.2948 37.2179 13.2948 37.4953C13.2948 37.7727 13.4025 38.0387 13.5943 38.235L24.5167 49.4001C24.7086 49.5961 24.9689 49.7061 25.2403 49.7061C25.5117 49.7061 25.7719 49.5961 25.9639 49.4001L36.8863 38.235C36.9845 38.1399 37.0634 38.026 37.1183 37.8997C37.1733 37.7734 37.2032 37.6372 37.2063 37.499C37.2095 37.3608 37.1859 37.2234 37.1368 37.0946C37.0878 36.9658 37.0142 36.8482 36.9204 36.7486V36.7556ZM25.254 47.195L15.7583 37.4953L19.4105 33.7619L21.5949 31.5289C21.7758 31.3305 21.8743 31.068 21.8696 30.7968C21.8649 30.5257 21.7574 30.267 21.5698 30.0751C21.3822 29.8834 21.1291 29.7735 20.8638 29.7687C20.5985 29.764 20.3418 29.8646 20.1477 30.0495L18.68 31.5498L17.9496 30.7822L25.254 23.3156L32.5583 30.7822L31.821 31.5359L30.3533 30.0356C30.1592 29.8507 29.9025 29.75 29.6372 29.7548C29.3719 29.7596 29.1188 29.8694 28.9312 30.0612C28.7436 30.2529 28.6361 30.5117 28.6314 30.7829C28.6268 31.054 28.7252 31.3165 28.9061 31.515L31.0906 33.748L34.7428 37.4813L25.254 47.195ZM29.6912 34.39C29.8829 34.5862 29.9906 34.8523 29.9906 35.1297C29.9906 35.407 29.8829 35.6731 29.6912 35.8694L25.9776 39.6655C25.8821 39.7642 25.7684 39.8424 25.6431 39.8958C25.4043 39.994 25.1377 39.994 24.899 39.8958C24.7736 39.8424 24.6599 39.7642 24.5645 39.6655L20.8167 35.8763C20.6358 35.6779 20.5374 35.4154 20.542 35.1442C20.5467 34.8731 20.6542 34.6143 20.8418 34.4226C21.0294 34.2308 21.2825 34.121 21.5478 34.1161C21.8131 34.1114 22.0698 34.212 22.2639 34.397L24.23 36.4067V27.2024C24.23 26.9248 24.3378 26.6585 24.5299 26.4622C24.7219 26.266 24.9823 26.1557 25.254 26.1557C25.5255 26.1557 25.7859 26.266 25.978 26.4622C26.17 26.6585 26.2779 26.9248 26.2779 27.2024V36.3997L28.244 34.39C28.4359 34.194 28.6962 34.0838 28.9676 34.0838C29.2389 34.0838 29.4991 34.194 29.6912 34.39Z" fill="white"/>
</g>
</svg>
