<svg width="50" height="50" viewBox="0 0 50 50" fill="none" xmlns="http://www.w3.org/2000/svg">
<mask id="mask0_111_420" style="mask-type:luminance" maskUnits="userSpaceOnUse" x="0" y="0" width="50" height="50">
<path fill-rule="evenodd" clip-rule="evenodd" d="M0 0H50V50H0V0Z" fill="white"/>
</mask>
<g mask="url(#mask0_111_420)">
<path d="M24.1194 19.3859C24.0515 18.5875 24.4333 17.8305 25.1157 17.4103C25.7982 16.9903 26.646 16.9903 27.3283 17.4103C28.0106 17.8305 28.3924 18.5874 28.3246 19.3858C28.2926 19.7626 27.9613 20.042 27.5845 20.0102C27.2078 19.9782 26.9282 19.6469 26.9602 19.2701C26.984 18.9898 26.8499 18.724 26.6104 18.5766C26.3708 18.4291 26.0732 18.4291 25.8337 18.5766C25.5943 18.7241 25.4602 18.9898 25.4839 19.27C25.516 19.6468 25.2365 19.9782 24.8597 20.0102C24.8399 20.0119 24.8203 20.0127 24.8009 20.0127C24.4489 20.0127 24.1497 19.7431 24.1194 19.3859ZM14.0613 20.0102C14.4381 19.9782 14.7176 19.6469 14.6856 19.2701C14.6619 18.9898 14.7959 18.724 15.0353 18.5766C15.2749 18.4291 15.5725 18.4291 15.8121 18.5766C16.0516 18.724 16.1856 18.9898 16.1618 19.27C16.1297 19.6468 16.4093 19.9782 16.7861 20.0102C16.8058 20.0119 16.8254 20.0128 16.8448 20.0128C17.1968 20.0128 17.496 19.7431 17.5263 19.3859C17.5942 18.5875 17.2124 17.8305 16.5301 17.4103C15.8476 16.9903 14.9998 16.9902 14.3174 17.4103C13.6351 17.8304 13.2534 18.5874 13.3212 19.3857C13.3532 19.7625 13.6844 20.0428 14.0613 20.0101L14.0613 20.0102ZM19.4862 23.1615C19.8984 23.4153 20.3606 23.5423 20.8229 23.5423C21.2851 23.5423 21.7472 23.4153 22.1594 23.1616C22.7567 22.7939 23.18 22.1889 23.3206 21.5014C23.3964 21.1309 23.1576 20.7692 22.7871 20.6934C22.4166 20.6172 22.0549 20.8564 21.9791 21.2269C21.9138 21.5451 21.718 21.8253 21.4415 21.9954C21.0599 22.2304 20.5857 22.2304 20.2041 21.9954C19.9276 21.8252 19.7317 21.5451 19.6666 21.2269C19.5908 20.8564 19.2289 20.6177 18.8585 20.6933C18.4881 20.7691 18.2492 21.1309 18.3249 21.5013C18.4656 22.1887 18.8889 22.7938 19.4862 23.1615ZM18.4385 41.1391C18.4385 39.8244 19.5081 38.7548 20.8229 38.7548C22.1376 38.7548 23.2072 39.8244 23.2072 41.1391C23.2072 42.4539 22.1376 43.5235 20.8229 43.5235C19.5081 43.5235 18.4385 42.4539 18.4385 41.1391ZM19.8079 41.1391C19.8079 41.6987 20.2632 42.1541 20.8229 42.1541C21.3825 42.1541 21.8378 41.6987 21.8378 41.1391C21.8378 40.5795 21.3825 40.1242 20.8229 40.1242C20.2632 40.1242 19.8079 40.5795 19.8079 41.1391ZM44.6107 30.5181V36.8155C44.6107 38.5021 43.7867 40.1992 42.2278 41.7232C40.8563 43.0641 39.0096 44.1699 37.0278 44.837C36.9569 44.8609 36.8831 44.8728 36.8094 44.8728C36.7356 44.8728 36.6618 44.8609 36.5909 44.837C34.6796 44.1936 32.8952 43.1414 31.5403 41.8646C30.0636 46.467 25.7422 49.6909 20.8229 49.6909C14.6176 49.6909 9.56932 44.6425 9.56932 38.4373V27.5782C9.56932 26.8002 10.0333 26.116 10.7531 25.8264C10.1823 24.9763 9.71663 24.05 9.37388 23.0667C7.21731 23.0216 5.47656 21.2546 5.47656 19.0875C5.47656 16.9204 7.21731 15.1532 9.37388 15.1082C10.9624 10.5508 15.1993 7.22398 20.2322 6.9812C20.4699 5.60325 20.8819 4.5436 21.4603 3.82974C21.6854 3.55203 21.9455 3.32774 22.2257 3.1592C22.4105 2.43761 22.7616 1.62768 23.2781 0.733539C23.4672 0.40595 23.8861 0.294048 24.2134 0.48303C24.5409 0.672208 24.653 1.09096 24.4639 1.41835C24.1578 1.94823 23.9385 2.40562 23.7838 2.79855C24.1914 2.84139 24.5887 2.99164 24.9398 3.25506C25.4213 3.6164 25.7312 4.12847 25.8122 4.69678C25.9435 5.61773 25.5028 6.35605 24.6895 6.578C23.8641 6.80327 22.7034 6.39313 22.2681 5.33778C22.2467 5.28574 22.227 5.23282 22.209 5.17883C21.9987 5.57782 21.7827 6.15758 21.6211 6.99353C26.5627 7.31652 30.7052 10.6136 32.2718 15.1081C34.4284 15.1532 36.1691 16.9203 36.1691 19.0874C36.1691 21.2545 34.4284 23.0216 32.2718 23.0667C31.9291 24.05 31.4634 24.9762 30.8926 25.8264C31.6124 26.1161 32.0763 26.8003 32.0763 27.5782V28.7429L36.5378 26.8164C36.7111 26.7416 36.9075 26.7416 37.0807 26.8164L44.1974 29.8895C44.4482 29.9978 44.6106 30.2449 44.6106 30.5181L44.6107 30.5181ZM23.5341 4.81573C23.6853 5.18225 24.0987 5.31987 24.3291 5.25698C24.3896 5.24054 24.5021 5.20983 24.4566 4.89016C24.4395 4.77073 24.3729 4.54174 24.1179 4.35041C23.9217 4.2032 23.687 4.14402 23.4477 4.16485C23.4317 4.49048 23.4856 4.69835 23.534 4.81573H23.5341ZM32.6693 16.5207C32.8485 17.3484 32.9436 18.207 32.9436 19.0874C32.9436 19.9679 32.8484 20.8265 32.6693 21.6541C33.8802 21.4275 34.7998 20.3631 34.7998 19.0874C34.7998 17.8117 33.8802 16.7473 32.6693 16.5207ZM8.97645 21.6542C8.79725 20.8265 8.70208 19.968 8.70208 19.0875C8.70208 18.2071 8.79735 17.3484 8.97645 16.5208C7.76548 16.7474 6.8459 17.8118 6.8459 19.0876C6.8459 20.3634 7.76548 21.4276 8.97645 21.6542ZM10.0715 19.0875C10.0715 25.0158 14.8946 29.8389 20.823 29.8389C26.7513 29.8389 31.5744 25.0159 31.5744 19.0875C31.5744 13.1591 26.7513 8.33606 20.823 8.33606C14.8946 8.33606 10.0715 13.1591 10.0715 19.0875ZM18.9117 48.1355C22.5507 45.8771 24.5966 43.4944 24.6784 41.4099C24.7346 39.9793 23.8619 38.6037 22.0848 37.3214C22.0805 37.3183 22.0763 37.3152 22.072 37.312C18.2644 34.4273 14.8211 31.0325 11.8365 27.2219C11.6869 27.0625 11.4766 27.0141 11.2715 27.0931C11.0632 27.1736 10.9388 27.355 10.9388 27.5783V38.4374C10.9388 43.2339 14.3731 47.2426 18.9117 48.1355ZM30.45 40.6657C29.5038 39.4327 29.008 38.1212 29.008 36.8157V30.5183C29.008 30.2451 29.1705 29.998 29.4213 29.8897L30.707 29.3345V27.5784C30.707 27.3551 30.5826 27.1736 30.3742 27.0932C30.1657 27.0128 29.9518 27.0636 29.8017 27.2291L29.7979 27.2256C27.5788 29.6707 24.377 31.2085 20.8228 31.2085C19.2404 31.2085 17.728 30.9033 16.341 30.3493C18.3697 32.4859 20.5611 34.4489 22.8924 36.2157C25.0605 37.7822 26.1217 39.5478 26.0466 41.4637C25.9405 44.1675 23.5803 46.5509 21.1135 48.3153C25.5841 48.1833 29.4368 45.0257 30.4498 40.6658L30.45 40.6657ZM43.2413 30.9683L36.8094 28.1909L30.3774 30.9683V36.8156C30.3774 39.6952 33.5772 42.3091 36.8094 43.4636C40.0415 42.3091 43.2413 39.6952 43.2413 36.8156V30.9683ZM35.4029 31.1618H38.216C38.5941 31.1618 38.9007 31.4684 38.9007 31.8465V33.7254H40.7796C41.1577 33.7254 41.4643 34.032 41.4643 34.4101V37.2232C41.4643 37.6014 41.1577 37.908 40.7796 37.908H38.9007V39.7868C38.9007 40.165 38.5941 40.4715 38.216 40.4715H35.4029C35.0247 40.4715 34.7181 40.165 34.7181 39.7868V37.908H32.8393C32.4611 37.908 32.1546 37.6014 32.1546 37.2232V34.4101C32.1546 34.032 32.4611 33.7254 32.8393 33.7254H34.7181V31.8465C34.7181 31.4684 35.0247 31.1618 35.4029 31.1618ZM35.4029 35.0948H33.524V36.5385H35.4029C35.781 36.5385 36.0876 36.8451 36.0876 37.2232V39.1021H37.5313V37.2232C37.5313 36.8451 37.8378 36.5385 38.216 36.5385H40.0948V35.0948H38.216C37.8378 35.0948 37.5313 34.7883 37.5313 34.4101V32.5313H36.0876V34.4101C36.0876 34.7883 35.781 35.0948 35.4029 35.0948Z" fill="black"/>
</g>
</svg>
