<svg width="50" height="50" viewBox="0 0 50 50" fill="none" xmlns="http://www.w3.org/2000/svg">
<mask id="mask0_111_532" style="mask-type:luminance" maskUnits="userSpaceOnUse" x="0" y="0" width="50" height="50">
<path fill-rule="evenodd" clip-rule="evenodd" d="M0 0H50V50H0V0Z" fill="white"/>
</mask>
<g mask="url(#mask0_111_532)">
<path d="M2.89262 8.94086H7.10011C8.69514 8.94086 9.99273 7.64327 9.99273 6.04824C9.99273 5.54197 9.85787 5.04145 9.60278 4.60095C9.38439 4.22398 8.90183 4.09536 8.52476 4.31356C8.14769 4.53196 8.01897 5.01461 8.23737 5.39159C8.35515 5.59505 8.41488 5.81589 8.41488 6.04814C8.41488 6.7732 7.82507 7.36301 7.10001 7.36301H2.89262C2.16756 7.36301 1.57776 6.7732 1.57776 6.04814C1.57776 5.32308 2.16756 4.73328 2.89262 4.73328H4.22818C4.5102 4.73328 4.77085 4.5828 4.91166 4.33845C5.05258 4.09409 5.05228 3.79314 4.91088 3.54908C4.7931 3.34561 4.73328 3.12478 4.73328 2.89253C4.73328 2.16747 5.32308 1.57766 6.04814 1.57766H16.5668C17.2918 1.57766 17.8816 2.16747 17.8816 2.89253C17.8816 3.61758 17.2918 4.20739 16.5668 4.20739H12.3593C11.9236 4.20739 11.5704 4.56065 11.5704 4.99627C11.5704 5.43189 11.9237 5.78515 12.3593 5.78515H16.5668C18.1618 5.78515 19.4594 4.48756 19.4594 2.89253C19.4596 1.29759 18.162 0 16.5669 0H6.04824C4.45321 0 3.15562 1.29759 3.15562 2.89262C3.15562 2.98055 3.15971 3.06828 3.16772 3.15562H2.89262C1.29759 3.15562 0 4.45321 0 6.04824C0 7.64327 1.29759 8.94086 2.89262 8.94086Z" fill="white"/>
<path d="M30.5059 16.041C30.5059 16.4767 30.8591 16.8298 31.2947 16.8298C31.7305 16.8298 32.0836 16.4766 32.0836 16.041C32.0836 11.546 35.7406 7.88898 40.2356 7.88898C44.7306 7.88898 48.3876 11.546 48.3876 16.041C48.3876 19.9987 45.5645 23.3738 41.6752 24.0664C41.2462 24.1428 40.9605 24.5525 41.0368 24.9813C41.1048 25.3636 41.4375 25.6321 41.8125 25.6321C41.8584 25.6321 41.9049 25.628 41.9516 25.6197C46.5951 24.793 49.9654 20.7646 49.9654 16.041C49.9654 10.6759 45.6007 6.31123 40.2357 6.31123C34.8707 6.31123 30.5059 10.6759 30.5059 16.041Z" fill="white"/>
<path d="M40.2332 19.9855C39.4487 19.9855 38.6911 19.7559 38.0425 19.3217C37.6805 19.0795 37.1905 19.1766 36.9482 19.5386C36.7059 19.9007 36.8029 20.3907 37.1651 20.6329C38.0744 21.2416 39.1354 21.5632 40.2334 21.5632C43.2784 21.5632 45.7556 19.086 45.7556 16.041C45.7556 12.9959 43.2782 10.5187 40.2332 10.5187C37.1881 10.5187 34.7109 12.9959 34.7109 16.041C34.7109 16.4767 35.0642 16.8299 35.4998 16.8299C35.9355 16.8299 36.2887 16.4766 36.2887 16.041C36.2887 13.8659 38.0581 12.0965 40.2332 12.0965C42.4083 12.0965 44.1777 13.8659 44.1777 16.041C44.1777 18.2161 42.4082 19.9855 40.2332 19.9855Z" fill="white"/>
<path d="M31.2931 9.99274C31.7288 9.99274 32.082 9.63948 32.082 9.20386C32.082 8.76824 31.7287 8.41498 31.2931 8.41498C30.5681 8.41498 29.9783 7.82518 29.9783 7.10012C29.9783 6.37506 30.5681 5.78526 31.2931 5.78526H35.5006C35.732 5.78526 35.9592 5.84595 36.1574 5.96071C36.5345 6.17901 37.0172 6.0501 37.2354 5.67293C37.4536 5.29587 37.3248 4.81321 36.9476 4.59501C36.5094 4.34148 36.009 4.2075 35.5005 4.2075H31.293C29.698 4.2075 28.4004 5.50509 28.4004 7.10012C28.4005 8.69515 29.698 9.99274 31.2931 9.99274Z" fill="white"/>
<path d="M42.8622 30.5041H41.8104C41.3746 30.5041 41.0215 30.8573 41.0215 31.293C41.0215 31.7287 41.3747 32.0818 41.8104 32.0818H42.8622C43.298 32.0818 43.6511 31.7286 43.6511 31.293C43.6511 30.8573 43.298 30.5041 42.8622 30.5041Z" fill="white"/>
<path d="M23.9295 18.9336C23.4938 18.9336 23.1406 19.2869 23.1406 19.7225V33.3967C23.1406 33.8325 23.4939 34.1856 23.9295 34.1856C24.3652 34.1856 24.7184 33.8324 24.7184 33.3967V19.7225C24.7184 19.2869 24.3652 18.9336 23.9295 18.9336Z" fill="white"/>
<path d="M42.8622 33.6597H41.8104C41.3746 33.6597 41.0215 34.013 41.0215 34.4486C41.0215 34.8843 41.3747 35.2375 41.8104 35.2375H42.8622C43.298 35.2375 43.6511 34.8842 43.6511 34.4486C43.6511 34.013 43.298 33.6597 42.8622 33.6597Z" fill="white"/>
<path d="M12.6207 39.708V22.8781C12.6207 22.4424 12.2675 22.0892 11.8318 22.0892C11.3961 22.0892 11.043 22.4425 11.043 22.8781V39.708C11.043 40.1437 11.3962 40.4968 11.8318 40.4968C12.2676 40.4968 12.6207 40.1437 12.6207 39.708Z" fill="white"/>
<path d="M49.1748 48.3859H48.9118V29.1893C48.9118 28.1743 48.0859 27.3486 47.071 27.3486H39.445V23.93C39.445 22.915 38.6192 22.0892 37.6043 22.0892H35.2376V19.7225C35.2376 18.7075 34.4117 17.8817 33.3968 17.8817H28.9264V15.515C28.9264 14.5 28.1006 13.6742 27.0857 13.6742H25.7708V8.15199C25.7708 7.71628 25.4175 7.36311 24.9819 7.36311C24.5462 7.36311 24.193 7.71637 24.193 8.15199V13.6742H20.5115V12.3594C20.5115 11.3444 19.6857 10.5186 18.6708 10.5186H17.6189C16.6039 10.5186 15.7782 11.3445 15.7782 12.3594V18.9335H9.20385C8.18887 18.9335 7.3631 19.7594 7.3631 20.7743V39.7079C7.3631 40.1436 7.71636 40.4967 8.15198 40.4967C8.5877 40.4967 8.94086 40.1435 8.94086 39.7079V20.7744C8.94086 20.6294 9.05884 20.5114 9.20385 20.5114H15.778V48.3858H12.0965V43.9154C12.0965 42.9005 11.2706 42.0747 10.2557 42.0747H2.89262C1.87764 42.0747 1.05187 42.9006 1.05187 43.9154V48.3858H0.788879C0.353161 48.3858 0 48.7391 0 49.1747C0 49.6104 0.353259 49.9637 0.788879 49.9637H33.3967C33.8324 49.9637 34.1856 49.6104 34.1856 49.1748C34.1856 48.7391 33.8323 48.3859 33.3967 48.3859H22.6151V47.5219C22.6151 45.4507 23.7315 43.5183 25.5284 42.479C25.776 42.3358 25.9267 42.0699 25.9223 41.7839L25.9209 41.7367C25.9209 39.8931 27.4208 38.3932 29.2644 38.3932C30.8483 38.3932 32.2262 39.5178 32.5407 41.0671C32.6152 41.4348 32.9386 41.6991 33.3139 41.6991H33.3967C36.6075 41.6991 39.2195 44.3112 39.2195 47.5219V48.3859H36.5523C36.1166 48.3859 35.7634 48.7392 35.7634 49.1748C35.7634 49.6105 36.1167 49.9637 36.5523 49.9637H49.1747C49.6104 49.9637 49.9636 49.6104 49.9636 49.1748C49.9637 48.7391 49.6104 48.3859 49.1748 48.3859ZM10.5186 48.3859H2.62963V43.9155C2.62963 43.7706 2.74761 43.6525 2.89262 43.6525H10.2557C10.4006 43.6525 10.5187 43.7705 10.5187 43.9155L10.5186 48.3859ZM28.9263 19.4596H33.3967C33.5416 19.4596 33.6597 19.5776 33.6597 19.7226V22.0893H28.9263V19.4596ZM17.3558 12.3595C17.3558 12.2146 17.4738 12.0965 17.6188 12.0965H18.6707C18.8156 12.0965 18.9337 12.2145 18.9337 12.3595V13.6743H17.3559V12.3595H17.3558ZM47.334 48.3859H40.7973V47.5219C40.7973 43.6172 37.7574 40.4092 33.9202 40.1396C33.2477 38.1805 31.381 36.8153 29.2644 36.8153C26.6813 36.8153 24.5567 38.8157 24.3584 41.3487C22.2991 42.7128 21.0373 45.0387 21.0373 47.5219V48.3859H17.3558V15.2521H27.0856C27.2305 15.2521 27.3486 15.3701 27.3486 15.5151V34.4486C27.3486 34.8843 27.7018 35.2375 28.1375 35.2375C28.5732 35.2375 28.9263 34.8842 28.9263 34.4486V23.667H37.6042C37.7491 23.667 37.8672 23.785 37.8672 23.93V39.708C37.8672 40.1437 38.2204 40.4968 38.6561 40.4968C39.0918 40.4968 39.4449 40.1436 39.4449 39.708V28.9263H47.0709C47.2159 28.9263 47.3339 29.0443 47.3339 29.1893L47.334 48.3859Z" fill="white"/>
<path d="M42.8622 36.8153H41.8104C41.3746 36.8153 41.0215 37.1686 41.0215 37.6042C41.0215 38.0399 41.3747 38.3931 41.8104 38.3931H42.8622C43.298 38.3931 43.6511 38.0398 43.6511 37.6042C43.6511 37.1686 43.298 36.8153 42.8622 36.8153Z" fill="white"/>
<path d="M34.449 25.2449C34.0133 25.2449 33.6602 25.5981 33.6602 26.0337V33.3968C33.6602 33.8325 34.0134 34.1857 34.449 34.1857C34.8848 34.1857 35.2379 33.8325 35.2379 33.3968V26.0337C35.238 25.598 34.8848 25.2449 34.449 25.2449Z" fill="white"/>
</g>
</svg>
