<svg width="50" height="50" viewBox="0 0 50 50" fill="none" xmlns="http://www.w3.org/2000/svg">
<mask id="mask0_111_782" style="mask-type:luminance" maskUnits="userSpaceOnUse" x="0" y="0" width="50" height="50">
<path fill-rule="evenodd" clip-rule="evenodd" d="M0 0H50V50H0V0Z" fill="white"/>
</mask>
<g mask="url(#mask0_111_782)">
<path d="M46.4646 32.2876H42.5271V18.8686C42.5271 16.6636 41.2119 14.6712 39.1802 13.797L37.0145 12.8678V10.2375H37.802C39.1014 10.2375 40.1646 9.17441 40.1646 7.87503V4.72502C40.1646 3.42564 39.1014 2.36251 37.802 2.36251H12.602C11.3026 2.36251 10.2395 3.42564 10.2395 4.72502V7.87503C10.2395 9.17441 11.3026 10.2375 12.602 10.2375H13.3895V12.8678L11.2238 13.797C9.19208 14.6712 7.87695 16.6636 7.87695 18.8686V44.1001C7.87695 46.2736 9.64096 48.0376 11.8145 48.0376H38.5895C40.7631 48.0376 42.5271 46.2736 42.5271 44.1001V37.0126H46.4646C47.3308 37.0126 48.0396 36.3039 48.0396 35.4376V33.8626C48.0396 32.9964 47.3308 32.2876 46.4646 32.2876ZM35.2663 32.2876C34.9119 31.0512 34.022 30.0117 32.825 29.5077C32.3525 29.2951 31.9194 28.9171 31.5256 28.3895C30.7933 27.3815 29.6041 26.783 28.352 26.783C27.0999 26.783 25.9108 27.3815 25.1784 28.3895C24.7925 28.925 24.3515 29.303 23.8948 29.5077C22.619 30.0511 21.6976 31.1772 21.3826 32.516C21.233 32.6026 21.0991 32.705 20.981 32.8389C20.6817 33.1854 20.5479 33.6421 20.6109 34.091L21.3669 39.383H9.45196V21.2704H40.9521V32.2955H35.2663V32.2876ZM33.5889 32.2876H23.123C23.4065 31.697 23.8947 31.2087 24.5248 30.941C25.2493 30.6181 25.9029 30.0668 26.4541 29.3108C26.8951 28.7123 27.6039 28.3501 28.352 28.3501C29.1001 28.3501 29.8168 28.7123 30.2499 29.3108C30.8011 30.0668 31.4548 30.6181 32.1871 30.9488C32.8093 31.2166 33.2897 31.697 33.581 32.2876L33.5889 32.2876ZM30.7224 8.66253V3.93752H33.8724V8.66253H30.7224ZM25.9974 8.66253V3.93752H29.1474V8.66253H25.9974ZM21.2724 8.66253V3.93752H24.4224V8.66253H21.2724ZM16.5474 8.66253V3.93752H19.6974V8.66253H16.5474ZM38.5974 4.72502V7.87503C38.5974 8.30816 38.243 8.66253 37.8099 8.66253H35.4474V3.93752H37.8099C38.243 3.93752 38.5974 4.29189 38.5974 4.72502ZM11.8145 7.87503V4.72502C11.8145 4.29189 12.1688 3.93752 12.602 3.93752H14.9645V8.66253H12.602C12.1688 8.66253 11.8145 8.30816 11.8145 7.87503ZM35.4395 10.2375V12.6H14.9645V10.2375H35.4395ZM11.8381 15.2461L14.3345 14.175H36.0617L38.558 15.2461C40.007 15.8682 40.9442 17.2936 40.9442 18.8686V19.6876H9.45195V18.8686C9.45195 17.2936 10.3891 15.8682 11.8381 15.2461ZM38.5895 46.4626H11.8145C10.5151 46.4626 9.45196 45.3995 9.45196 44.1001V40.9501H21.5952L21.8709 42.8559C22.0362 44.0135 23.0442 44.8876 24.2098 44.8876H32.5022C33.6677 44.8876 34.6757 44.0135 34.841 42.8559L35.1167 40.9501H40.9599V44.1001C40.9599 45.3995 39.8968 46.4626 38.5974 46.4626H38.5895ZM40.9521 39.3751H35.3372L35.6758 37.0126H40.9521V39.3751ZM46.4646 35.4376H34.9907C34.5969 35.4376 34.2662 35.729 34.211 36.1149L33.2818 42.6354C33.2267 43.0213 32.888 43.3126 32.5021 43.3126H24.2097C23.8239 43.3126 23.4852 43.0213 23.4301 42.6354L22.178 33.8626H46.4724V35.4376H46.4646Z" fill="black"/>
</g>
</svg>
