<svg width="50" height="50" viewBox="0 0 50 50" fill="none" xmlns="http://www.w3.org/2000/svg">
<mask id="mask0_111_333" style="mask-type:luminance" maskUnits="userSpaceOnUse" x="0" y="0" width="50" height="50">
<path fill-rule="evenodd" clip-rule="evenodd" d="M0 0H50V50H0V0Z" fill="white"/>
</mask>
<g mask="url(#mask0_111_333)">
<path d="M21.1321 11.8626H16.8906L23.667 20.5213L21.1321 11.8626Z" fill="black"/>
<path d="M21.9935 7.15678H18.4053L16.6406 10.6861H21.1166L21.9935 7.15678Z" fill="black"/>
<path d="M27.8397 11.8626H22.3574L25.0986 21.2154L27.8397 11.8626Z" fill="black"/>
<path d="M26.9986 7.15678H23.205L22.3281 10.6861H27.8755L26.9986 7.15678Z" fill="black"/>
<path d="M29.0689 11.8626L26.5332 20.515L33.3041 11.8626H29.0689Z" fill="black"/>
<path d="M33.5564 10.6861L31.7917 7.15678H28.209L29.0858 10.6861H33.5564Z" fill="black"/>
<path d="M15.964 17.9328C16.0947 17.9328 16.2123 17.8936 16.3167 17.815L17.9464 16.5915C18.0759 16.4938 18.1521 16.3646 18.1747 16.204C18.1974 16.0433 18.1601 15.8981 18.0627 15.7684C17.9652 15.6387 17.8362 15.5623 17.6756 15.5393C17.515 15.5163 17.3698 15.5534 17.2398 15.6505L15.6102 16.8741C15.384 17.0438 15.3157 17.2628 15.4054 17.531C15.495 17.7992 15.6812 17.9331 15.964 17.9328Z" fill="black"/>
<path d="M19.2327 18.5193L18.1384 20.1662C18.0473 20.3016 18.0177 20.4493 18.0494 20.6093C18.0812 20.7693 18.1651 20.8945 18.301 20.9847C18.4369 21.075 18.5847 21.1037 18.7446 21.0709C18.9044 21.0382 19.029 20.9535 19.1184 20.8171L20.2127 19.1701C20.304 19.0348 20.3337 18.8871 20.302 18.727C20.2702 18.5668 20.1864 18.4416 20.0504 18.3513C19.9144 18.261 19.7665 18.2323 19.6066 18.2651C19.4467 18.298 19.3221 18.3827 19.2327 18.5193Z" fill="black"/>
<path d="M32.0519 15.7677C31.9545 15.8977 31.9172 16.0431 31.9401 16.2038C31.963 16.3646 32.0393 16.4938 32.1691 16.5915L33.7982 17.815C33.9281 17.9121 34.0734 17.9492 34.2339 17.9262C34.3945 17.9031 34.5235 17.8268 34.6209 17.6971C34.7183 17.5673 34.7557 17.4222 34.733 17.2616C34.7103 17.1009 34.6343 16.9718 34.5048 16.8741L32.8757 15.6505C32.7457 15.553 32.6004 15.5157 32.4395 15.5386C32.2787 15.5614 32.1495 15.6378 32.0519 15.7677Z" fill="black"/>
<path d="M30.9963 20.817C31.0856 20.9539 31.2102 21.0389 31.3703 21.0719C31.5303 21.1049 31.6784 21.0762 31.8145 20.9858C31.9506 20.8954 32.0345 20.77 32.0662 20.6097C32.0978 20.4494 32.0679 20.3015 31.9763 20.1662L30.882 18.5193C30.7926 18.3829 30.668 18.2983 30.5082 18.2655C30.3484 18.2328 30.2005 18.2615 30.0646 18.3518C29.9288 18.442 29.8449 18.5671 29.8131 18.7271C29.7813 18.8871 29.811 19.0348 29.902 19.1701L30.9963 20.817Z" fill="black"/>
<path d="M30.1503 33.0134C29.8924 32.9284 29.0686 32.6453 28.8209 32.5663C28.3062 33.0211 27.7277 33.37 27.0853 33.6132C26.443 33.8563 25.7784 33.9779 25.0915 33.9779C24.4047 33.9779 23.7401 33.8563 23.0978 33.6132C22.4554 33.3701 21.8769 33.0211 21.3622 32.5664C20.9691 32.6921 20.1281 32.9922 19.7387 33.1076C18.9617 33.3691 18.3336 33.8324 17.8544 34.4976C17.3752 35.1628 17.1347 35.9054 17.1328 36.7252V38.3898C17.133 38.8072 17.2806 39.1635 17.5757 39.4586C17.8709 39.7538 18.2271 39.9014 18.6445 39.9016H31.5326C31.932 39.9027 32.277 39.7664 32.5678 39.4927C32.8586 39.2189 33.0155 38.8827 33.0385 38.484C33.0434 38.4528 33.0453 38.4214 33.0443 38.3898V36.7252C33.0415 36.2996 32.9703 35.8857 32.8306 35.4837C32.6909 35.0817 32.4902 34.7128 32.2285 34.3772C31.9668 34.0415 31.658 33.7569 31.3022 33.5234C30.9464 33.2899 30.5624 33.1199 30.1503 33.0134Z" fill="black"/>
<path d="M39.386 32.7723L38.4978 32.4781C37.7849 33.1983 36.9307 33.653 35.9352 33.8422C34.9396 34.0314 33.9782 33.9219 33.0508 33.5135C33.8371 34.4397 34.2273 35.5103 34.2214 36.7252V38.3899C34.2223 38.4215 34.2204 38.4528 34.2155 38.484H40.2389C40.6063 38.482 40.9196 38.3508 41.1788 38.0904C41.4381 37.83 41.5679 37.5161 41.5683 37.1487V35.8076C41.5684 35.1198 41.3677 34.4967 40.9662 33.9383C40.5647 33.3799 40.0379 32.9913 39.386 32.7723Z" fill="black"/>
<path d="M15.1687 32.7605C15.6574 32.7602 16.1274 32.6663 16.5787 32.4789C17.0301 32.2915 17.4284 32.0249 17.7737 31.6791C18.1189 31.3332 18.3849 30.9345 18.5716 30.4829C18.7582 30.0312 18.8513 29.561 18.851 29.0724C18.8506 28.5837 18.7567 28.1136 18.5693 27.6623C18.3819 27.211 18.1153 26.8126 17.7695 26.4674C17.4237 26.1221 17.0249 25.8561 16.5733 25.6695C16.1216 25.4828 15.6515 25.3897 15.1628 25.3901C14.6741 25.3905 14.2041 25.4843 13.7527 25.6717C13.3014 25.8591 12.9031 26.1257 12.5578 26.4715C12.2125 26.8174 11.9465 27.2161 11.7599 27.6677C11.5732 28.1194 11.4801 28.5896 11.4805 29.0783C11.4812 29.5668 11.5753 30.0367 11.7628 30.4879C11.9503 30.9391 12.2169 31.3373 12.5627 31.6825C12.9085 32.0277 13.3071 32.2937 13.7586 32.4805C14.21 32.6672 14.6801 32.7606 15.1687 32.7605Z" fill="black"/>
<path d="M25.0934 32.8193C25.6798 32.8186 26.2438 32.7057 26.7853 32.4806C27.3268 32.2555 27.8046 31.9354 28.2188 31.5203C28.633 31.1052 28.9521 30.6266 29.1759 30.0846C29.3998 29.5426 29.5115 28.9784 29.511 28.392C29.5105 27.8056 29.3978 27.2416 29.173 26.7C28.9481 26.1583 28.6283 25.6803 28.2133 25.266C27.7984 24.8516 27.32 24.5323 26.7781 24.3082C26.2362 24.0841 25.672 23.9722 25.0856 23.9724C24.4992 23.9727 23.9351 24.0851 23.3934 24.3097C22.8517 24.5343 22.3735 24.854 21.959 25.2687C21.5444 25.6835 21.2249 26.1618 21.0006 26.7036C20.7762 27.2454 20.6641 27.8095 20.6641 28.3959C20.6649 28.9827 20.7779 29.5471 21.003 30.0891C21.2281 30.631 21.5483 31.1093 21.9635 31.524C22.3788 31.9387 22.8575 32.2582 23.3997 32.4827C23.942 32.7071 24.5065 32.8193 25.0934 32.8193Z" fill="black"/>
<path d="M31.3438 29.0783C31.3441 29.5669 31.438 30.037 31.6254 30.4883C31.8128 30.9397 32.0794 31.338 32.4252 31.6833C32.7711 32.0285 33.1698 32.2945 33.6214 32.4812C34.0731 32.6678 34.5432 32.7609 35.0319 32.7606C35.5206 32.7602 35.9907 32.6663 36.442 32.4789C36.8933 32.2915 37.2917 32.0249 37.6369 31.6791C37.9822 31.3332 38.2482 30.9345 38.4348 30.4829C38.6215 30.0312 38.7146 29.561 38.7142 29.0724C38.7138 28.5837 38.62 28.1136 38.4326 27.6623C38.2452 27.211 37.9786 26.8126 37.6328 26.4674C37.2869 26.1221 36.8882 25.8561 36.4366 25.6695C35.9849 25.4828 35.5147 25.3897 35.026 25.3901C34.5375 25.3908 34.0676 25.4849 33.6164 25.6724C33.1652 25.8599 32.767 26.1265 32.4218 26.4723C32.0766 26.8181 31.8106 27.2167 31.6238 27.6682C31.4371 28.1196 31.3437 28.5897 31.3438 29.0783Z" fill="black"/>
<path d="M11.6975 32.4782L10.8093 32.7723C10.1573 32.9912 9.63058 33.3799 9.22908 33.9383C8.82758 34.4967 8.62687 35.1198 8.62695 35.8075V37.1487C8.62738 37.5161 8.7572 37.83 9.01642 38.0903C9.27564 38.3507 9.58895 38.4819 9.95634 38.484H15.9621C15.9572 38.4528 15.9553 38.4214 15.9563 38.3899C15.9022 36.6901 15.9037 34.8427 17.121 33.5251C16.1955 33.9261 15.2377 34.031 14.2474 33.8398C13.2572 33.6487 12.4072 33.1948 11.6975 32.4782Z" fill="black"/>
<path d="M25.0974 1.5686C23.5525 1.5686 22.0224 1.7193 20.5071 2.02071C18.9919 2.32211 17.5206 2.76842 16.0932 3.35965C14.6659 3.95087 13.3099 4.67564 12.0254 5.53396C10.7408 6.39229 9.5523 7.36767 8.45986 8.4601C7.36742 9.55254 6.39204 10.741 5.53372 12.0256C4.6754 13.3102 3.95062 14.6661 3.3594 16.0935C2.76818 17.5208 2.32187 18.9921 2.02046 20.5074C1.71906 22.0226 1.56836 23.5527 1.56836 25.0977C1.56836 26.6426 1.71906 28.1727 2.02046 29.6879C2.32187 31.2032 2.76818 32.6745 3.3594 34.1018C3.95062 35.5292 4.6754 36.8851 5.53372 38.1697C6.39204 39.4543 7.36742 40.6428 8.45986 41.7352C9.5523 42.8276 10.7408 43.803 12.0254 44.6613C13.3099 45.5197 14.6659 46.2444 16.0932 46.8357C17.5206 47.4269 18.9919 47.8732 20.5071 48.1746C22.0224 48.476 23.5525 48.6267 25.0974 48.6267C26.6424 48.6267 28.1724 48.476 29.6877 48.1746C31.203 47.8732 32.6743 47.4269 34.1016 46.8357C35.5289 46.2444 36.8849 45.5197 38.1694 44.6613C39.454 43.803 40.6425 42.8276 41.735 41.7352C42.8274 40.6428 43.8028 39.4543 44.6611 38.1697C45.5194 36.8851 46.2442 35.5292 46.8354 34.1018C47.4266 32.6745 47.873 31.2032 48.1744 29.6879C48.4758 28.1727 48.6265 26.6426 48.6265 25.0977C48.6247 23.5532 48.4725 22.0237 48.1699 20.5092C47.8673 18.9947 47.4201 17.5242 46.8283 16.0976C46.2364 14.6711 45.5113 13.3159 44.6529 12.0319C43.7945 10.748 42.8192 9.56002 41.7271 8.46793C40.635 7.37584 39.447 6.40059 38.1631 5.54218C36.8792 4.68376 35.524 3.95863 34.0974 3.36679C32.6709 2.77495 31.2004 2.32773 29.6858 2.02513C28.1713 1.72253 26.6419 1.57036 25.0974 1.5686ZM25.0974 47.2873C23.6404 47.2873 22.1974 47.1451 20.7684 46.8609C19.3394 46.5766 17.9519 46.1557 16.6058 45.5982C15.2597 45.0406 13.981 44.3571 12.7695 43.5476C11.5581 42.7382 10.4372 41.8183 9.40699 40.7881C8.37674 39.7578 7.45689 38.637 6.64743 37.4255C5.83797 36.2141 5.15446 34.9353 4.59689 33.5892C4.03933 32.2432 3.61842 30.8556 3.33418 29.4266C3.04993 27.9976 2.90781 26.5546 2.90781 25.0976C2.90781 23.6406 3.04993 22.1976 3.33418 20.7687C3.61842 19.3397 4.03933 17.9521 4.59689 16.606C5.15446 15.2599 5.83797 13.9812 6.64744 12.7697C7.4569 11.5583 8.37675 10.4374 9.407 9.4072C10.4372 8.37695 11.5581 7.45709 12.7695 6.64763C13.981 5.83817 15.2597 5.15466 16.6058 4.59709C17.9519 4.03952 19.3395 3.61862 20.7685 3.33437C22.1975 3.05013 23.6404 2.90801 25.0974 2.90801C26.5544 2.90801 27.9974 3.05013 29.4264 3.33437C30.8554 3.61862 32.243 4.03953 33.589 4.59709C34.9351 5.15466 36.2139 5.83817 37.4253 6.64764C38.6368 7.4571 39.7576 8.37695 40.7879 9.4072C41.8181 10.4375 42.738 11.5583 43.5474 12.7697C44.3569 13.9812 45.0404 15.26 45.598 16.606C46.1555 17.9521 46.5764 19.3397 46.8607 20.7687C47.1449 22.1977 47.2871 23.6407 47.2871 25.0977C47.2854 26.5542 47.1418 27.9966 46.8564 29.4248C46.571 30.8531 46.1492 32.2399 45.5911 33.5853C45.0329 34.9306 44.349 36.2086 43.5395 37.4194C42.7299 38.6303 41.8102 39.7506 40.7803 40.7805C39.7504 41.8104 38.63 42.7302 37.4192 43.5397C36.2084 44.3493 34.9303 45.0331 33.585 45.5913C32.2397 46.1495 30.8529 46.5712 29.4246 46.8566C27.9963 47.142 26.5539 47.2856 25.0974 47.2873Z" fill="black"/>
</g>
</svg>
