<svg width="50" height="50" viewBox="0 0 50 50" fill="none" xmlns="http://www.w3.org/2000/svg">
<mask id="mask0_111_484" style="mask-type:luminance" maskUnits="userSpaceOnUse" x="0" y="0" width="50" height="50">
<path fill-rule="evenodd" clip-rule="evenodd" d="M0 0H50V50H0V0Z" fill="white"/>
</mask>
<g mask="url(#mask0_111_484)">
<path d="M17.901 23.3474C20.9044 23.3474 23.3489 20.9036 23.3489 17.8995C23.3489 14.8953 20.9052 12.4516 17.901 12.4516C14.8969 12.4516 12.4531 14.8953 12.4531 17.8995C12.4531 20.9036 14.8969 23.3474 17.901 23.3474ZM14.7879 19.456H16.3445V20.2351C16.3445 20.6639 16.6932 21.0126 17.1228 21.0126H18.6793C19.1089 21.0126 19.4576 20.6639 19.4576 20.2343V19.456C19.4576 19.0272 19.1089 18.6778 18.6793 18.6778H17.1228C15.8355 18.6778 14.7879 17.6302 14.7879 16.3429V15.5647C14.7879 14.2774 15.8355 13.2298 17.1228 13.2298H18.6793C19.9666 13.2298 21.0141 14.2774 21.0141 15.5647V16.3429H19.4576V15.5647C19.4576 15.1351 19.1089 14.7864 18.6793 14.7864H17.1228C16.6932 14.7864 16.3445 15.1351 16.3445 15.5647V16.3429C16.3445 16.7718 16.6932 17.1212 17.1228 17.1212H18.6793C19.9666 17.1212 21.0141 18.1688 21.0141 19.456V20.2343C21.0141 21.5216 19.9666 22.5691 18.6793 22.5691H17.1228C15.8355 22.5691 14.7879 21.5223 14.7879 20.2351V19.456Z" fill="black"/>
<path d="M23.9074 36.1009C23.7821 35.9125 23.572 35.8004 23.3455 35.8004C23.1183 35.8004 22.9081 35.9133 22.7828 36.1016L20.3025 39.8218C20.2565 39.8903 20.2324 39.9704 20.2324 40.0529C20.2324 40.2825 20.4192 40.4693 20.6488 40.4693H26.0414C26.271 40.4693 26.4578 40.2825 26.4578 40.0529C26.4578 39.9712 26.4337 39.891 26.3878 39.8226L23.9074 36.1009Z" fill="black"/>
<path d="M13.0109 36.1009C12.8856 35.9125 12.6755 35.8004 12.449 35.8004C12.2218 35.8004 12.0116 35.9133 11.8863 36.1016L9.40598 39.8218C9.36006 39.8903 9.33594 39.9704 9.33594 40.0529C9.33594 40.2825 9.52272 40.4693 9.75231 40.4693H15.145C15.3746 40.4693 15.5613 40.2825 15.5613 40.0529C15.5613 39.9712 15.5372 39.891 15.4913 39.8226L13.0109 36.1009Z" fill="black"/>
<path d="M21.673 27.2394C21.4987 27.2394 21.3306 27.3079 21.2053 27.4332C21.0488 27.5897 20.9811 27.8123 21.0247 28.0286L21.894 32.3636C21.9096 32.4422 21.9477 32.513 22.0045 32.5698C22.1625 32.727 22.4201 32.7286 22.5781 32.5698L26.3559 28.7999C26.4321 28.7236 26.4734 28.6232 26.4742 28.5158C26.4742 28.4084 26.4321 28.3072 26.3559 28.231C26.299 28.1741 26.2274 28.136 26.1488 28.1204L21.8037 27.2535C21.7602 27.2433 21.7166 27.2394 21.673 27.2394Z" fill="black"/>
<path d="M18.4607 33.7669C18.2093 33.3894 17.5875 33.3902 17.3361 33.7669L15.332 36.7733L16.2395 38.1353H19.5573L20.4647 36.7733L18.4607 33.7669Z" fill="black"/>
<path d="M32.6872 11.674H31.4162C31.0886 12.3667 30.8286 13.0912 30.6512 13.8368C30.7858 13.9435 30.9508 14.0088 31.1306 14.0088H32.6872C33.9744 14.0088 35.022 15.0564 35.022 16.3437V17.1219C35.022 18.4092 33.9744 19.4567 32.6872 19.4567H31.1306C30.8559 19.4567 30.5967 19.4007 30.3516 19.3128V20.0085C30.8543 20.158 31.3758 20.2342 31.9081 20.2342C34.9115 20.2342 37.356 17.7905 37.356 14.7863C37.356 12.046 35.3201 9.77814 32.6825 9.3999C32.6708 9.54388 32.6202 9.68475 32.5307 9.80538C32.4552 9.90656 32.3883 10.0132 32.3167 10.1167H32.6872C33.9744 10.1167 35.022 11.1642 35.022 12.4515V13.2298H33.4654V12.4515C33.4654 12.0227 33.116 11.674 32.6872 11.674Z" fill="black"/>
<path d="M44.4827 7.00436H32.6864V7.82855C36.1832 8.21691 38.9126 11.1876 38.9126 14.7871C38.9126 18.6489 35.7699 21.7915 31.9081 21.7915C31.3789 21.7915 30.859 21.7262 30.3516 21.611V29.442C30.7648 29.0349 31.3166 28.796 31.9089 28.796C32.6568 28.796 33.3518 29.168 33.7666 29.7899L35.4111 32.2562L35.4991 32.1247C35.9147 31.5021 36.6089 31.13 37.3568 31.13C38.1047 31.13 38.7997 31.5021 39.2153 32.1239L41.6957 35.8448C41.9112 36.1709 42.0264 36.5491 42.0264 36.9398C42.0264 38.0279 41.1415 38.9128 40.0535 38.9128H34.6609C33.5728 38.9128 32.6879 38.0279 32.6879 36.9398C32.6879 36.8161 32.7191 36.6978 32.7416 36.5779H30.3523C30.3523 37.6333 30.5173 38.6832 30.8185 39.691H44.4749C43.3907 37.8068 42.8047 35.644 42.8047 33.4649V13.2305C42.8039 11.0498 43.397 8.88934 44.4827 7.00436ZM41.4653 26.7865L37.6876 30.5565C37.3054 30.9378 36.8034 31.1285 36.3007 31.1285C35.7987 31.1285 35.2967 30.9378 34.9138 30.5565C34.6383 30.2809 34.4523 29.9346 34.3768 29.554L33.5075 25.2198C33.3619 24.4906 33.5892 23.7427 34.1153 23.2173C34.6398 22.6928 35.3901 22.4679 36.1186 22.6118L40.4629 23.4788C40.8435 23.5543 41.1906 23.7396 41.4653 24.0143C41.8365 24.3848 42.0404 24.8766 42.0404 25.4004C42.0404 25.925 41.8365 26.4168 41.4653 26.7865Z" fill="black"/>
<path d="M40.1606 25.0058L35.8155 24.1388C35.7719 24.1302 35.7283 24.1263 35.6847 24.1263C35.5104 24.1263 35.3423 24.1948 35.217 24.3201C35.0605 24.4766 34.9928 24.6992 35.0364 24.9155L35.9057 29.2505C35.9213 29.3291 35.9594 29.3999 36.0163 29.4567C36.1735 29.6139 36.4311 29.6155 36.5898 29.4567L40.3676 25.6868C40.4439 25.6105 40.4851 25.5101 40.4859 25.4027C40.4859 25.2953 40.4439 25.1941 40.3676 25.1179C40.31 25.0603 40.2392 25.0214 40.1606 25.0058Z" fill="black"/>
<path d="M31.1285 6.12342L30.0046 6.87289C29.7431 7.04878 29.4023 7.04723 29.1408 6.87289L27.2379 5.60431L25.335 6.87289C25.0743 7.04801 24.7334 7.04723 24.4711 6.87289L22.5682 5.60431L20.6654 6.87289C20.4039 7.04801 20.063 7.04723 19.8015 6.87289L17.8986 5.60431L15.9957 6.87289C15.735 7.04801 15.3941 7.04723 15.1318 6.87289L13.229 5.60431L11.3261 6.87289C11.0646 7.04801 10.7237 7.04723 10.4622 6.87289L8.55933 5.60431L6.65646 6.87289C6.39496 7.04723 6.05485 7.04723 5.79335 6.87289L4.66797 6.12342V8.56097H31.1292L31.1285 6.12342Z" fill="black"/>
<path d="M31.3462 30.6538L30.3516 32.1457V35.0222H33.5674L34.4749 33.6603L32.4708 30.6538C32.2194 30.2756 31.5976 30.2771 31.3462 30.6538Z" fill="black"/>
<path d="M5.33203 42.8049H30.464C29.3799 40.9207 28.7938 38.7579 28.7938 36.5787V16.3436C28.7938 14.1652 29.3799 12.0016 30.464 10.1174H5.33203C6.41539 12.0009 7.0022 14.1645 7.0022 16.3436V36.5787C7.0022 38.7571 6.41617 40.9207 5.33203 42.8049ZM26.0419 42.0258H20.6492C19.5612 42.0258 18.6763 41.1409 18.6763 40.0529C18.6763 39.9292 18.7074 39.8109 18.73 39.691H17.066C17.0886 39.8109 17.1197 39.9292 17.1197 40.0529C17.1197 41.1409 16.2349 42.0258 15.1468 42.0258H9.75418C8.66615 42.0258 7.78126 41.1409 7.78126 40.0529C7.78126 39.6622 7.89566 39.2832 8.1128 38.9587L10.5932 35.2385C11.0088 34.6159 11.703 34.2439 12.4509 34.2439C13.1988 34.2439 13.8938 34.6159 14.3094 35.2377L14.3974 35.3693L16.0418 32.9029C16.4551 32.2803 17.1493 31.9091 17.898 31.9091C18.6459 31.9091 19.3409 32.2811 19.7558 32.9029L21.4002 35.3693L21.4882 35.2377C21.9038 34.6151 22.598 34.2431 23.3459 34.2431C24.0938 34.2431 24.7888 34.6151 25.2044 35.237L27.6848 38.9579C27.9004 39.284 28.0156 39.6622 28.0156 40.0529C28.0156 41.1409 27.1299 42.0258 26.0419 42.0258ZM27.4544 27.1281C27.8257 27.4986 28.0296 27.9905 28.0296 28.5142C28.0296 29.038 27.8249 29.5299 27.4544 29.8996L23.6767 33.6695C23.2946 34.0509 22.7926 34.2416 22.2898 34.2416C21.7878 34.2416 21.2858 34.0509 20.9029 33.6695C20.6274 33.394 20.4414 33.0477 20.3659 32.6671L19.4966 28.3329C19.3511 27.6037 19.5783 26.8557 20.1044 26.3304C20.6298 25.8059 21.38 25.5809 22.1077 25.7249L26.452 26.5919C26.8326 26.6682 27.1797 26.8534 27.4544 27.1281ZM17.898 10.8957C21.7598 10.8957 24.9025 14.0376 24.9025 17.9002C24.9025 21.7619 21.7606 24.9046 17.898 24.9046C14.0355 24.9046 10.8936 21.7627 10.8936 17.9002C10.8936 14.0376 14.0355 10.8957 17.898 10.8957ZM8.34083 27.1281C8.61634 26.8534 8.96267 26.6682 9.34403 26.5927L13.6883 25.7257C14.4184 25.5825 15.1663 25.8066 15.6916 26.332C16.217 26.8565 16.4442 27.6044 16.2987 28.3337L15.4293 32.6694C15.3538 33.0485 15.1686 33.3956 14.8931 33.6703C14.5102 34.0517 14.0074 34.2431 13.5055 34.2431C13.0035 34.2431 12.5007 34.0524 12.1193 33.6711L8.34161 29.9011C7.97037 29.5314 7.76647 29.0396 7.76647 28.5158C7.76491 27.9905 7.9696 27.4986 8.34083 27.1281Z" fill="black"/>
<path d="M31.1306 17.9002H32.6872C33.1168 17.9002 33.4654 17.5507 33.4654 17.1219V16.3436C33.4654 15.914 33.1168 15.5654 32.6872 15.5654H31.1306C30.8722 15.5654 30.6278 15.5109 30.392 15.4323C30.3663 15.735 30.3516 16.0393 30.3516 16.3436L30.3523 17.1219C30.3523 17.5507 30.701 17.9002 31.1306 17.9002Z" fill="black"/>
<path d="M34.6586 37.3562H40.0512C40.2808 37.3562 40.4676 37.1694 40.4676 36.9398C40.4676 36.8581 40.4435 36.7779 40.3975 36.7095L37.9164 32.9885C37.7919 32.7994 37.5818 32.6873 37.3553 32.6873C37.128 32.6873 36.9179 32.8002 36.7926 32.9885L34.3122 36.7087C34.2663 36.7772 34.2422 36.8573 34.2422 36.9398C34.2422 37.1694 34.429 37.3562 34.6586 37.3562Z" fill="black"/>
<path d="M32.5313 43.1155C32.634 43.2525 32.6807 43.4175 32.6807 43.5832H32.6869V43.6852L33.8123 42.9349C34.0746 42.7622 34.4155 42.7614 34.6762 42.9349L36.5791 44.2035L38.482 42.9349C38.7435 42.7622 39.0843 42.7614 39.3458 42.9349L41.2487 44.2035L43.1516 42.9349C43.4139 42.7622 43.7548 42.7606 44.0155 42.9349L45.1393 43.6844V41.2477H31.416C31.7265 41.9037 32.0947 42.5334 32.5313 43.1155Z" fill="black"/>
<path d="M44.0144 3.75983C43.7529 3.93572 43.412 3.93416 43.1505 3.75983L41.2476 2.49124L39.3448 3.75983C39.0833 3.93416 38.7424 3.93416 38.4809 3.75983L36.578 2.49124L34.6751 3.75983C34.4144 3.93416 34.0735 3.93416 33.8112 3.75983L31.9084 2.49124L30.0055 3.75983C29.744 3.93416 29.4031 3.93416 29.1416 3.75983L27.2387 2.49124L25.3359 3.75983C25.0751 3.93416 24.7343 3.93416 24.472 3.75983L22.5691 2.49124L20.6662 3.75983C20.4047 3.93416 20.0646 3.93416 19.8031 3.75983L18.6777 3.01035V4.25247L20.2343 5.29069L22.1372 4.0221C22.3987 3.84933 22.7395 3.84855 23.001 4.0221L24.9039 5.28991L26.8068 4.02133C27.0683 3.84855 27.4092 3.84777 27.6707 4.02133L29.5736 5.28991L31.4764 4.02133C31.7154 3.86178 32.0228 3.84777 32.2757 3.98241C32.5279 4.11861 32.6859 4.38167 32.6859 4.66963V5.4479H45.1382V3.01035L44.0144 3.75983Z" fill="black"/>
<path d="M4.66797 46.7983L5.79335 46.048C6.05485 45.8737 6.39496 45.8737 6.65646 46.048L8.55933 47.3166L10.4622 46.048C10.7237 45.8745 11.0646 45.8745 11.3261 46.048L13.229 47.3166L15.1318 46.048C15.3933 45.8745 15.7342 45.8745 15.9957 46.048L17.8986 47.3166L19.8015 46.048C20.063 45.8745 20.4039 45.8745 20.6654 46.048L22.5682 47.3166L24.4711 46.048C24.7326 45.8745 25.0735 45.8745 25.335 46.048L27.2379 47.3166L29.1408 46.048C29.4023 45.8745 29.7431 45.8745 30.0046 46.048L31.1285 46.7975V44.3607H4.66797V46.7983Z" fill="black"/>
<path d="M13.2171 32.5683C13.3751 32.7263 13.6335 32.7263 13.7915 32.5683C13.8475 32.5122 13.8857 32.4406 13.9012 32.3636L14.7706 28.0278C14.8141 27.8115 14.7464 27.5897 14.59 27.4332C14.4328 27.276 14.211 27.2099 13.9907 27.2527L9.64641 28.1197C9.56703 28.1352 9.4962 28.1734 9.43861 28.2302C9.36234 28.3065 9.32031 28.4076 9.32031 28.515C9.32031 28.6224 9.36234 28.7228 9.43861 28.7991L13.2171 32.5683Z" fill="black"/>
</g>
</svg>
