<svg width="50" height="50" viewBox="0 0 50 50" fill="none" xmlns="http://www.w3.org/2000/svg">
<mask id="mask0_111_264" style="mask-type:luminance" maskUnits="userSpaceOnUse" x="0" y="0" width="50" height="50">
<path fill-rule="evenodd" clip-rule="evenodd" d="M0 0H50V50H0V0Z" fill="white"/>
</mask>
<g mask="url(#mask0_111_264)">
<path d="M31.9079 22.7842C29.1413 20.7617 24.2863 20.1172 21.6367 22.633C20.3786 23.8332 20.1544 25.3712 20.2534 26.8558C20.3349 28.1137 21.0571 29.2828 21.4299 30.4918C21.5551 30.903 21.7706 31.5541 21.3804 31.9275C20.8241 32.452 19.3913 32.2053 18.6895 32.1053C18.1274 32.0231 17.877 32.6876 18.4507 32.7698C19.767 32.9587 21.9308 33.1677 22.4026 31.872C22.7841 30.8296 22.0473 29.5961 21.657 28.6093C21.1503 27.3203 20.9202 25.9223 21.36 24.5955C21.8317 23.1798 23.2238 22.1041 25.0876 21.764C27.3505 21.3528 29.6598 22.073 31.2849 23.262C31.6984 23.5665 32.3362 23.0842 31.9227 22.7752L31.9079 22.7842Z" fill="black"/>
<path d="M16.8738 23.4686C17.2641 23.7976 17.8931 23.3108 17.5116 22.9819C15.1002 20.9216 11.1571 20.4527 8.13428 22.0218C7.65379 22.2685 8.10804 22.8619 8.58861 22.6152C9.86414 21.9507 11.3873 21.6217 12.9366 21.7862C14.4858 21.9507 15.8517 22.5819 16.8797 23.4686H16.8738Z" fill="black"/>
<path d="M13.9766 36.3015C14.2417 36.3637 14.5154 36.4215 14.7891 36.4726C15.9977 37.7928 17.9373 38.6862 20.0836 38.7418C22.2881 38.8041 24.2335 37.9128 25.3518 36.5171C25.7508 36.4482 26.1556 36.3726 26.5459 36.2837C27.0759 36.1703 26.8867 35.5703 26.3799 35.6191C26.3537 35.6191 26.3304 35.6058 26.2984 35.6058C25.0403 35.5681 23.7298 35.4547 22.6202 34.968C22.2474 34.8035 21.8339 34.5324 21.3767 34.5946C21.1116 34.6257 20.9457 34.7902 20.7127 34.8724C20.4215 34.9791 20.1069 35.0124 19.7924 34.9746C19.3206 34.9168 18.9216 34.6013 18.4411 34.6901C17.9868 34.7791 17.6286 35.0191 17.2413 35.2013C16.6617 35.4725 15.989 35.5236 15.3279 35.548C15.0134 35.5614 14.2854 35.4903 13.9533 35.6547C13.6067 35.7503 13.531 36.2037 13.9795 36.3059L13.9766 36.3015ZM20.072 38.0528C18.5896 38.0084 17.2296 37.4972 16.2103 36.706C18.7935 37.066 21.4465 37.0593 24.0295 36.7126C23.051 37.5794 21.6589 38.0906 20.0688 38.0461L20.072 38.0528ZM18.6246 35.3658C19.1634 35.5814 19.7603 35.7081 20.372 35.6503C20.6633 35.6258 20.934 35.5547 21.1932 35.4547C21.5835 35.2969 21.4991 35.2524 21.898 35.4347C22.5358 35.7258 23.1998 35.9147 23.8783 36.0481C21.5164 36.3637 19.1226 36.3837 16.7637 36.0925H16.7812C17.4772 35.9481 17.981 35.568 18.6276 35.3791L18.6246 35.3658Z" fill="black"/>
<path d="M14.8444 26.5916C15.1764 26.945 15.954 26.605 15.622 26.2449C14.1805 24.7025 10.7003 24.2913 8.96174 25.7649C8.57145 26.0938 9.20925 26.5805 9.59947 26.2516C10.08 25.8471 10.744 25.6248 11.4546 25.5626C11.1808 25.8338 11.0731 26.2005 11.0818 26.5428C11.0993 26.9717 11.2973 27.5029 11.8448 27.7118C12.0021 27.7696 12.1593 27.8074 12.3341 27.8074C12.5234 27.8074 12.6981 27.7629 12.8554 27.694C13.1116 27.5873 13.3271 27.4162 13.4756 27.2273C13.7669 26.8673 13.8659 26.3872 13.7086 25.9827C13.6912 25.9383 13.6678 25.8938 13.6417 25.8493C14.1222 26.0271 14.5357 26.2783 14.8357 26.5961L14.8444 26.5916ZM12.3865 27.1161H12.3952H12.4127H12.3806H12.3865ZM12.8902 26.5227C12.8902 26.5427 12.8815 26.5605 12.8728 26.5805C12.8641 26.6183 12.8466 26.6494 12.832 26.6872C12.832 26.7072 12.8146 26.725 12.8059 26.7449C12.7796 26.7694 12.7651 26.8138 12.7388 26.8472C12.7127 26.8783 12.6893 26.9094 12.6573 26.9428C12.6398 26.9561 12.6311 26.9672 12.6165 26.9739C12.5845 26.9983 12.5408 27.025 12.5088 27.0561C12.4913 27.0628 12.4767 27.0694 12.468 27.0806C12.436 27.0939 12.3923 27.105 12.3602 27.125H12.3195C12.302 27.125 12.2933 27.125 12.2874 27.1184C12.27 27.1117 12.2612 27.105 12.2467 27.0983C12.2205 27.0784 12.1971 27.0605 12.171 27.0406C12.1622 27.0272 12.1447 27.0095 12.1389 26.9961C12.1215 26.9761 12.1127 26.965 12.1069 26.945C12.1069 26.945 12.0981 26.925 12.0894 26.9205V26.9139C12.0807 26.8939 12.0719 26.8761 12.0632 26.8561C12.0457 26.8183 12.0312 26.7738 12.0224 26.7361C12.0224 26.7161 12.0137 26.6983 12.0049 26.685C11.9962 26.5894 11.9875 26.496 12.0049 26.4072V26.3493V26.3294C12.0137 26.2849 12.0312 26.2405 12.0457 26.196C12.0544 26.1715 12.0632 26.1516 12.0719 26.1338C12.0719 26.1338 12.0719 26.1205 12.0807 26.1138C12.0807 26.1004 12.0981 26.0893 12.0981 26.0827C12.1069 26.0627 12.1244 26.0516 12.1302 26.0315C12.1389 26.0182 12.1476 26.0071 12.1622 25.9938C12.1797 25.9804 12.1942 25.9693 12.2117 25.956C12.2438 25.936 12.27 25.9182 12.2933 25.8982H12.3428H12.4244C12.4739 25.9049 12.5146 25.9182 12.5641 25.9226C12.5641 25.9226 12.6049 25.936 12.6224 25.9471C12.6398 25.9538 12.6485 25.9604 12.6632 25.9671C12.6893 25.9871 12.7214 26.0116 12.7446 26.0293C12.7446 26.036 12.7622 26.0493 12.7709 26.0538C12.7971 26.0782 12.8117 26.1116 12.8291 26.136C12.8291 26.1494 12.8466 26.1671 12.8466 26.1804C12.8641 26.2183 12.8728 26.256 12.8786 26.2871V26.3249V26.4449C12.8786 26.4761 12.8786 26.5072 12.8699 26.5338L12.8902 26.5227Z" fill="black"/>
<path d="M31.1254 25.7626C29.378 24.2891 25.9067 24.7003 24.4651 26.2427C24.1244 26.6028 24.9049 26.945 25.2427 26.5894C25.5398 26.2672 25.9621 26.0205 26.4426 25.8382C26.2271 26.2494 26.2678 26.6983 26.5183 27.0962C26.6436 27.3051 26.8416 27.4762 27.0804 27.6073C27.3541 27.7651 27.6687 27.8295 28.0094 27.7651C28.6559 27.6451 28.9297 27.1272 28.9937 26.6783C29.0519 26.2982 28.9529 25.8559 28.6384 25.5537C29.3519 25.6159 30.0217 25.8381 30.5022 26.2426C30.8925 26.5716 31.5302 26.0848 31.14 25.7559L31.1254 25.7626ZM28.0938 26.6472V26.6606C28.0938 26.6739 28.0938 26.6917 28.085 26.705C28.0763 26.7494 28.0589 26.7872 28.0443 26.825C28.0443 26.845 28.0035 26.8939 27.9948 26.9206C28.0268 26.8761 28.0035 26.9005 27.9948 26.9206V26.9339C27.986 26.9473 27.9773 26.9584 27.9686 26.9717C27.9599 26.9917 27.9424 27.0028 27.9278 27.0228L27.8521 27.0806C27.8346 27.0873 27.8201 27.0939 27.8113 27.1006C27.7938 27.1006 27.7851 27.1073 27.7706 27.1139H27.7531H27.721C27.7298 27.1139 27.7298 27.1139 27.721 27.1139H27.7123C27.6861 27.1006 27.6628 27.0939 27.6366 27.0828C27.6191 27.0761 27.6046 27.0628 27.5871 27.0584C27.555 27.0339 27.5114 27.0072 27.4881 26.9828C27.4706 26.9695 27.456 26.9584 27.4473 26.945C27.4211 26.9139 27.389 26.8828 27.3658 26.8495C27.3395 26.8183 27.325 26.7872 27.3075 26.7606C27.2987 26.7406 27.29 26.7228 27.2813 26.7028C27.2638 26.665 27.255 26.6339 27.2405 26.5961C27.2405 26.5761 27.2318 26.565 27.2231 26.545V26.5316C27.2231 26.5005 27.2143 26.4694 27.2143 26.4361V26.3161V26.2716C27.2231 26.2338 27.2318 26.2027 27.2463 26.1649C27.2463 26.1449 27.2638 26.1272 27.2726 26.1138C27.2987 26.0827 27.3133 26.0515 27.3395 26.0183V26.0116C27.3482 25.9982 27.3658 25.9871 27.3716 25.9805C27.389 25.9671 27.4036 25.956 27.4211 25.9426C27.4531 25.9227 27.4968 25.9116 27.5288 25.8916C27.555 25.8916 27.5783 25.8782 27.6045 25.8715C27.622 25.8715 27.6541 25.8715 27.6715 25.8582H27.6977H27.788C27.8142 25.8782 27.8375 25.896 27.8637 25.916C27.8725 25.9293 27.8899 25.936 27.9045 25.9471C27.9133 25.9538 27.9307 25.9671 27.9365 25.9716C27.9628 26.0027 27.986 26.0294 28.0035 26.0605C28.0035 26.0605 28.0035 26.0671 28.0123 26.0805C28.0123 26.0938 28.0297 26.1049 28.0297 26.1116C28.0297 26.1316 28.088 26.2761 28.0967 26.3205V26.3783V26.5117C28.0967 26.5494 28.0967 26.5939 28.088 26.6317L28.0938 26.6472Z" fill="black"/>
<path d="M8.93796 39.4752C9.2525 39.2729 9.60193 39.0951 9.98052 38.9684C10.3271 38.8551 10.959 38.6906 11.2968 38.9106C11.588 39.0995 11.4308 39.4418 11.2968 39.6574C11.1716 39.8529 10.9998 40.0375 10.7988 40.2063C10.1611 40.4841 9.58151 40.8709 9.22619 41.1798C8.903 41.4576 9.31647 41.9443 9.7737 41.7176C10.1873 41.5087 10.8425 41.1353 11.4046 40.6864C11.9346 40.4708 12.4734 40.4086 12.8287 40.7686C13.085 41.0331 12.9685 41.4065 12.7967 41.6799C12.7064 41.8243 12.5812 41.9576 12.4501 42.0777C11.9696 42.1799 11.5211 42.3933 11.1483 42.64C10.8833 42.8178 10.5193 43.0889 10.726 43.3868C10.9008 43.6401 11.2736 43.609 11.5619 43.5134C12.0336 43.3623 12.5462 43.0645 12.9772 42.7044H13.1927C13.615 42.7555 13.8887 43.0089 13.979 43.3244C14.276 44.3868 12.986 45.278 11.8502 45.8225C11.8821 45.5825 11.9666 45.3425 12.1414 45.1202C12.4384 44.7402 11.6609 44.3935 11.3638 44.7735C10.1115 46.3536 12.217 48.1872 10.8425 49.7296C10.5192 50.0964 11.2968 50.4386 11.6201 50.0763C12.3336 49.274 12.3248 48.3695 12.1093 47.4471C12.0424 47.1693 11.9608 46.8848 11.9026 46.6003C13.3267 45.9936 14.8352 45.0068 14.9168 43.6667C14.9429 43.2933 14.8002 42.9399 14.5527 42.6488C17.4679 43.8067 20.7237 43.9956 23.8309 42.9266C25.6685 42.2954 27.276 41.3397 28.6855 40.2262C28.4118 43.2533 28.5108 47.0162 32.5209 48.4562C33.0422 48.6451 33.4994 48.0518 32.9753 47.8628C28.9331 46.4093 29.3466 42.2755 29.6699 39.3904C30.4736 38.6637 31.2017 37.8858 31.8657 37.108C32.1802 36.7345 31.4026 36.3945 31.0881 36.7612C30.4678 37.5013 29.7718 38.2281 29.0175 38.9104C28.936 38.9481 28.869 39.0059 28.8282 39.0815C27.378 40.3594 25.6889 41.4773 23.7085 42.2174C20.4119 43.4376 16.9084 43.0576 13.8914 41.5529C13.8738 41.5462 13.8593 41.5462 13.8419 41.5396C13.9496 41.1928 13.9233 40.8306 13.6845 40.5039C13.3205 39.9971 12.7905 39.8327 12.2197 39.8527C12.5255 39.3726 12.5605 38.8726 11.9809 38.4436C11.4742 38.0702 10.8714 38.0258 10.2569 38.1524C10.6617 37.6969 11.0345 37.2301 11.3752 36.7501C12.0712 35.7522 13.3148 33.803 11.6577 32.963C11.5325 32.9008 11.4101 32.8941 11.3024 32.9252C11.1684 32.8941 11.0111 32.9052 10.8801 33.0007C9.8376 33.7475 8.89107 34.5632 8.00575 35.4099C6.07493 32.0651 4.61004 28.4755 3.95479 24.8222C3.99556 24.7267 3.97226 24.6133 3.90528 24.5244C3.88781 24.4177 3.87325 24.3088 3.85577 24.2021C3.94605 24.1443 4.01304 24.0621 4.01304 23.9488C4.03051 22.1597 4.59257 20.4661 6.53211 19.346C7.94745 18.5237 9.65405 18.0303 10.8889 17.0258C11.5936 16.4501 12.0654 15.7611 12.3712 15.0211C15.4291 16.4368 19.247 16.2612 22.8497 16.179C25.095 16.1279 27.4393 16.1212 29.5682 16.7413C31.6155 17.3348 33.2376 18.5549 34.3151 19.9906C35.5412 21.6219 36.112 23.5177 36.08 25.3957C36.08 25.4779 36.1119 25.5402 36.1614 25.5913C35.9547 26.5136 35.6722 27.4248 35.3257 28.3227C35.1597 28.7472 36.0305 28.9295 36.1965 28.505C36.6362 27.3604 36.9741 26.1847 37.1983 24.989C38.7389 25.2801 39.3185 26.7536 39.0301 27.8782C38.9805 28.0604 39.0971 28.2516 39.3446 28.3027C39.5688 28.3471 39.8513 28.2449 39.9008 28.0626C40.1163 27.2225 39.9911 26.3246 39.4611 25.5646C39.0068 24.9067 38.2351 24.4644 37.3148 24.3133C37.8943 20.4751 37.2478 16.5192 34.921 13.0673C33.6134 11.127 31.7554 9.48238 29.5188 8.27556C32.0378 6.38645 30.4041 3.03496 27.3812 2.01021C26.5017 1.71239 25.5581 1.62349 24.6233 1.76351C23.6448 0.701151 21.6994 0.176625 20.217 1.00566C20.15 1.04344 20.1005 1.08122 20.0423 1.11901C19.7103 0.783411 19.3055 0.498952 18.8163 0.296687C17.3514 -0.310051 15.5866 0.0699916 14.4334 0.927892C14.1275 1.16126 13.8771 1.41462 13.6878 1.69246C10.5397 1.90804 7.71484 4.65725 8.94087 7.03535C9.18839 7.52203 9.60484 7.92656 10.1261 8.25548C7.83129 9.36893 5.99363 10.9558 4.79094 12.8272C2.96789 15.6653 2.4786 18.8701 2.70285 22.0506C2.70285 22.1128 2.71159 22.1772 2.72033 22.2395C2.77857 22.9796 2.86885 23.713 3.00282 24.4464C1.08948 24.8709 -0.069596 26.0955 0.00324244 27.6713C0.0847886 29.3026 1.22055 30.9583 2.83686 32.014C3.69012 32.5696 4.69197 32.963 5.81027 33.0631C6.28205 34.0432 6.79459 35.01 7.35084 35.9657C7.36831 35.9901 7.38287 36.0034 7.40034 36.0234C5.95006 37.4769 4.64247 39.0193 3.29991 40.5306C2.10587 41.8708 2.16418 43.3443 2.24857 44.9045C2.33885 46.5869 2.2078 48.2672 2.3738 49.9496C2.41456 50.3852 3.31734 50.3919 3.27656 49.9496C3.11056 48.3494 3.22705 46.7581 3.16007 45.1579C3.12804 44.4244 3.04358 43.6911 3.1193 42.9576C3.20085 42.1042 3.58234 41.4329 4.19682 40.7328C6.38391 38.2614 8.48654 35.7189 11.3202 33.6408C11.6929 33.932 11.5677 34.4564 11.4541 34.8098C11.2299 35.5055 10.7901 36.1633 10.3271 36.7811C9.84654 37.419 9.30782 38.0391 8.7196 38.628C8.58562 38.7614 8.43711 38.8992 8.29733 39.0392C7.85754 39.3304 7.47605 39.6326 7.21979 39.8682C6.92274 40.1394 7.32754 40.6638 7.76725 40.406C7.79931 40.3861 7.82555 40.3683 7.85754 40.3483C7.86633 40.3416 7.87506 40.3349 7.88378 40.3238C8.28279 40.0705 8.63804 39.7793 8.97002 39.477L8.93796 39.4752ZM7.9769 17.8103C6.3694 18.5371 4.78805 19.2905 3.93471 20.6107C3.78619 20.844 3.66096 21.0907 3.55321 21.3374V21.1107C3.84443 18.0325 6.99839 15.3898 10.7027 14.0363C10.9765 14.2452 11.2648 14.4341 11.556 14.6052C11.0085 16.1098 9.70087 17.0211 7.97682 17.8034L7.9769 17.8103ZM31.5454 16.7613C27.611 14.821 22.6751 15.6745 18.2742 15.5545C15.7813 15.4856 13.4282 15.0166 11.5818 13.7454C12.4089 13.4987 13.2564 13.3097 14.0922 13.2008C15.758 12.9786 17.4558 12.9741 19.1362 13.0053C20.4117 13.0252 21.8445 13.2275 23.0706 12.8786C23.4259 12.7763 23.7492 12.6319 24.0404 12.4607C24.8441 13.1363 26.0789 13.2075 27.2292 13.3897C28.6795 13.6231 30.1619 14.0475 31.4461 14.6232C34.1545 15.8433 35.9775 17.8547 36.4406 20.2306C36.4493 20.2817 36.4726 20.3129 36.4988 20.3506C36.5658 21.1018 36.5745 21.8619 36.5309 22.6132C35.8348 20.2751 34.1865 18.0859 31.5364 16.7722L31.5454 16.7613ZM35.8119 16.9124C35.0081 15.919 33.9306 15.0611 32.6404 14.3766C31.3882 13.712 30.0048 13.2831 28.5487 12.9542C27.879 12.8031 27.2237 12.683 26.5277 12.5875C25.8492 12.4919 25.1531 12.3786 24.7046 11.9741C25.3424 11.3807 25.7152 10.6139 25.7967 9.84265C25.8957 8.86921 25.5229 7.9269 24.7366 7.2313C25.8054 7.45797 26.8568 7.78688 27.876 8.23585C32.058 10.0827 34.644 13.3809 35.8122 16.9034L35.8119 16.9124ZM29.7981 6.44471C29.6583 7.02698 29.2681 7.50041 28.706 7.88713C27.0578 7.1026 25.2172 6.55361 23.2485 6.29359C24.0698 5.76241 24.7658 5.10457 25.0861 4.30888C25.3424 3.68212 25.3104 3.01319 25.0192 2.4064C27.7363 2.1597 30.27 4.41778 29.7894 6.44022L29.7981 6.44471ZM19.8415 2.37312C19.9988 2.82873 19.99 3.39104 19.658 3.80883C19.5998 3.88439 19.4193 4.0733 19.2591 4.02441C19.2416 4.01774 19.2008 3.91106 19.2096 3.94218C19.1921 3.80216 19.2853 3.60658 19.3261 3.46879C19.4338 3.09541 19.5911 2.71094 19.8328 2.36199V2.37533L19.8415 2.37312ZM17.1244 0.666239C18.0534 0.641791 18.8718 1.0574 19.3873 1.62636C18.866 2.17531 18.566 2.85986 18.4029 3.51547C18.3214 3.83107 18.2632 4.13552 18.5282 4.42C18.7524 4.65337 19.1165 4.74893 19.4805 4.69781C20.2755 4.59113 20.657 3.96437 20.788 3.41544C20.922 2.83982 20.7968 2.23974 20.4822 1.70856C20.5405 1.67078 20.59 1.62633 20.6483 1.59521C21.7491 0.944039 23.2256 1.37297 23.9362 2.23973C25.1622 3.73768 23.645 5.30676 22.0054 6.17133C21.9646 6.17133 21.9151 6.16467 21.8715 6.15801C21.822 6.1447 21.7725 6.13355 21.7054 6.13355H20.992C20.9163 6.13355 20.8434 6.12689 20.7677 6.12689C20.1124 6.12689 19.4601 6.15136 18.8136 6.2091C18.0098 6.26025 17.2148 6.33581 16.4285 6.44915C14.4569 5.69795 13.4143 3.68659 14.3899 2.13088C14.8705 1.35966 15.9887 0.701828 17.139 0.670706L17.1244 0.666239ZM13.2803 2.41089C12.759 3.90885 13.5454 5.66688 15.1529 6.64032C13.688 6.91143 12.2523 7.31152 10.9185 7.86711C8.02662 6.32472 10.1817 2.89093 13.2803 2.41089ZM9.26145 9.53598C9.26145 9.53598 9.30223 9.52932 9.32847 9.51595C13.2717 7.73352 17.9513 6.5267 22.4566 6.89783C22.4885 6.91786 22.5322 6.93561 22.5817 6.94898C24.3465 7.35345 25.1329 8.73807 24.8591 10.0582C24.7339 10.6783 24.3873 11.285 23.7903 11.7273C23.0623 12.2763 22.1653 12.3785 21.1809 12.3541C18.0153 12.2785 14.7362 12.1518 11.6955 12.9475C9.10362 13.6232 6.75932 14.9522 5.06733 16.5879C4.54604 17.0991 4.08882 17.6503 3.72478 18.2193C4.23151 14.9011 5.82159 11.6631 9.25802 9.52727L9.26145 9.53598ZM1.81486 30.0117C1.00238 28.9316 0.405361 27.3935 1.22659 26.2178C1.62557 25.6489 2.30411 25.3133 3.0817 25.1244C3.23897 25.9156 3.42826 26.6979 3.64377 27.4624C4.10681 29.1071 4.71256 30.7317 5.43185 32.3186C3.85923 32.0541 2.59823 31.0407 1.82064 30.0117H1.81486Z" fill="black"/>
<path d="M42.2709 27.1783C42.0554 27.0761 41.7817 27.1472 41.6593 27.2983C41.0885 27.994 40.4595 28.8274 39.315 29.0052C38.4792 29.1319 37.5851 29.0296 36.7319 29.0674C35.9689 29.0985 35.1418 29.1874 34.5361 29.5786C33.9391 29.9586 33.7731 30.5342 33.7905 31.0965C33.642 31.1099 33.4993 31.1477 33.3858 31.2366C33.1878 31.3877 33.0887 31.6233 33.0304 31.83C32.9489 32.1278 32.9548 32.4301 32.9809 32.7345C32.6985 32.6012 32.4334 32.7656 32.3752 32.9746C32.3665 32.9946 32.349 33.0123 32.3431 33.0368C32.0519 34.277 31.6559 36.1216 33.0887 37.0706C33.3858 37.2728 33.7352 37.4128 34.108 37.5062C33.5605 39.5487 32.8324 41.6089 32.7422 43.7027C32.6519 45.9163 33.5139 48.0521 34.507 50.1058C34.7051 50.517 35.5758 50.3392 35.3778 49.9236C34.408 47.9256 33.5547 45.8586 33.6479 43.7026C33.7295 41.6668 34.4604 39.6621 34.9817 37.6705C35.7447 37.7593 36.5485 37.746 37.2678 37.746C38.2958 37.746 39.3297 37.746 40.349 37.8149C40.6402 38.4861 41.1207 39.1795 40.8383 39.8685C40.4742 40.7597 39.0239 41.1953 38.1386 41.7332C36.499 42.7311 35.9923 44.1535 36.2166 45.7159C36.2748 46.1515 37.1776 46.1581 37.1193 45.7159C36.9446 44.4446 37.2096 43.2623 38.5027 42.3977C39.3559 41.8221 40.4742 41.4687 41.1936 40.7797C41.5489 40.4441 41.7644 40.0463 41.8051 39.6173C41.8867 38.7572 41.2489 38.006 41.0509 37.1837C40.9606 36.8037 41.0014 36.268 41.4149 35.9947C41.5139 35.9325 41.4062 35.9369 41.5227 35.9947C41.9624 36.2036 42.2361 36.7726 42.4429 37.1126C43.0312 38.0683 43.3778 39.0795 43.9078 40.0463C44.0155 40.2352 44.2631 40.293 44.4698 40.2618C44.6446 40.3129 44.8513 40.2819 44.9504 40.1107C45.6056 38.9595 45.9289 37.6904 45.2649 36.4947C44.9504 35.9324 44.5514 35.5013 44.5368 34.8634C44.5281 34.4522 44.6271 34.03 44.8834 33.6677C45.2824 34.0544 45.6202 34.47 45.9347 34.9078C45.9522 34.9701 45.9929 35.0212 46.0424 35.0523C46.4327 35.5968 46.9452 36.1902 47.152 36.7836C47.6005 38.0793 46.6307 39.4328 46.3075 40.6841V40.6974C45.4804 41.4375 44.6271 42.1643 43.7797 42.8977C43.1507 43.4356 42.3876 43.929 41.8896 44.5468C41.4994 45.0335 41.278 45.578 41.1937 46.147C40.9956 47.5116 41.6421 48.8784 42.4197 50.0853C42.6759 50.4831 43.4564 50.1364 43.1973 49.7385C42.3848 48.4806 41.6654 46.9382 42.2683 45.5402C42.6235 44.7068 43.503 44.1623 44.2485 43.5244C45.1105 42.7843 45.9726 42.0442 46.8171 41.2997C47.6529 40.5529 48.4567 39.7884 49.2605 39.0238C49.8487 38.4683 50.172 37.8237 50.1137 37.1014C50.0554 36.2724 49.6332 35.4456 49.31 34.6544C48.9954 33.8832 48.6546 32.9409 48.0024 32.2964C47.4723 31.7719 46.5695 31.8919 46.057 32.3653C46.0307 32.3897 46.0074 32.4231 45.9812 32.4475C45.99 31.9808 45.9638 31.4919 45.4424 31.2474C45.5822 30.7739 45.5502 30.2672 45.1687 29.8561C44.7464 29.3938 44.0912 29.1227 43.4213 28.9071C43.3893 28.2181 43.0311 27.5469 42.2622 27.1869L42.2709 27.1783ZM44.7318 37.6551C44.7813 38.1663 44.6648 38.673 44.4668 39.1597C43.8028 37.6306 42.4136 34.4747 40.8876 35.4171C40.2411 35.8215 40.0518 36.4972 40.1334 37.1173C38.6102 37.035 37.0697 37.1173 35.5437 37.015C34.3672 36.9395 33.3887 36.6683 33.0916 35.7371C32.8673 35.0481 32.9663 34.2947 33.1178 33.588H33.1353C33.2022 33.6391 33.2925 33.6635 33.3828 33.6702C34.7253 34.0814 36.2251 33.9235 37.6812 33.948C39.7023 33.9858 41.7321 34.0746 43.7619 34.0169C43.5639 34.6303 43.596 35.2882 43.8872 35.8749C44.1842 36.4883 44.6648 36.9617 44.7317 37.6396L44.7318 37.6551ZM44.1027 33.3546C44.1027 33.3546 44.0532 33.3412 44.0212 33.3412C42.0409 33.4034 40.0605 33.3212 38.0831 33.2835C36.7173 33.2523 35.2 33.4412 33.8924 33.0878C33.8429 32.6633 33.7526 32.1322 33.9827 31.7922C35.1505 31.8233 36.3096 31.9122 37.4774 31.9566C38.7442 32.0011 40.011 31.95 41.272 31.9189C41.8778 31.9055 42.4806 31.8877 43.0776 31.8677C43.3747 31.8544 43.6746 31.8433 43.9717 31.8299C44.2046 31.8166 44.6502 31.7277 44.8744 31.7922C45.2151 31.8877 45.1395 32.43 45.1074 32.8167C44.9414 32.7279 44.6677 32.7345 44.5366 32.8545C44.3619 33.0056 44.2221 33.1834 44.0969 33.3612L44.1027 33.3546ZM47.1256 32.61C47.4722 32.6478 47.7372 33.3368 47.8624 33.5591C48.078 33.9458 48.2526 34.3436 48.4187 34.7414C48.7157 35.4681 49.1234 36.2527 49.2137 37.0172C49.3127 37.8574 48.7594 38.3886 48.1129 39.0153C47.9644 39.1597 47.8158 39.2997 47.6644 39.4398C48.0197 38.5041 48.3429 37.5551 48.0109 36.595C47.778 35.9193 47.2072 35.2614 46.7762 34.6414C46.7005 34.2947 46.5607 33.9591 46.5112 33.6102C46.4791 33.3879 46.5694 32.5544 47.1227 32.6123L47.1256 32.61ZM43.5144 29.6697C43.6484 29.7208 43.7795 29.7763 43.9047 29.8407C43.9367 29.8608 43.9717 29.8786 44.0037 29.8919C44.0037 29.8919 44.0357 29.9119 44.0532 29.9164C44.0707 29.9297 44.1114 29.9541 44.1202 29.9541C44.1464 29.9741 44.1697 29.9853 44.1959 30.0052C44.2454 30.0364 44.2862 30.0741 44.3357 30.1119C44.3619 30.1319 44.3765 30.1497 44.4026 30.1697L44.4114 30.183C44.4522 30.2275 44.4871 30.272 44.5192 30.3164C44.5366 30.3364 44.5453 30.3608 44.5599 30.3786C44.5774 30.4231 44.6007 30.4742 44.6182 30.5187C44.6182 30.5431 44.6356 30.5698 44.6356 30.5942V30.6009V30.6208V30.7986V30.8809V30.8942V30.9075C44.6182 30.9653 44.5948 31.0142 44.5774 31.072C44.0386 31.072 43.4504 31.161 42.9786 31.1743C42.0001 31.2054 41.0245 31.2254 40.046 31.2498C38.2491 31.2943 36.4844 31.1876 34.6933 31.1165C34.667 30.6431 34.801 30.1674 35.4301 29.9408C36.0853 29.7074 36.8804 29.7318 37.5764 29.7252C38.4967 29.7252 39.4577 29.7696 40.3022 29.4474C41.1147 29.1385 41.668 28.5561 42.1486 27.9805C42.7281 28.5251 42.6117 29.4985 42.1894 30.0474C41.8981 30.4342 42.6786 30.7742 42.967 30.3942C43.1504 30.1608 43.2814 29.8875 43.3572 29.5985C43.4067 29.6186 43.4562 29.6363 43.5057 29.6563L43.5144 29.6697Z" fill="black"/>
<path d="M14.0586 34.8216C14.3993 34.3349 14.5653 33.7971 14.4226 33.2481C14.3061 32.7992 13.9595 32.3814 13.511 32.0857C12.582 31.4723 11.2075 31.2256 10.0571 31.5857C9.32905 31.8124 8.75536 32.2502 8.4321 32.7992C8.33309 32.9703 8.36507 33.1658 8.58933 33.2659C8.77862 33.3548 9.10188 33.3103 9.20089 33.1459C9.43387 32.7481 9.73096 32.4702 10.2115 32.2791C10.3688 32.2169 10.6017 32.1591 10.8405 32.128H10.858H10.9337C11.0007 32.128 11.0676 32.1213 11.123 32.1213C11.257 32.1213 11.3793 32.1213 11.5132 32.1347C11.5395 32.1347 11.5715 32.1413 11.5948 32.148C11.6617 32.1546 11.72 32.168 11.7841 32.1791C11.9093 32.2036 12.0316 32.2369 12.1569 32.268C12.1569 32.268 12.1831 32.2747 12.1889 32.2813C12.2064 32.288 12.2297 32.2947 12.2471 32.3013C12.2966 32.3213 12.3461 32.3392 12.4044 32.3591C12.5209 32.4036 12.6286 32.4614 12.7364 32.5169C12.7452 32.5236 12.7539 32.5236 12.7626 32.5303C12.78 32.5436 12.7947 32.5547 12.8208 32.5614C12.8703 32.5925 12.9198 32.6236 12.9606 32.6569C13.0014 32.688 13.0422 32.7192 13.0771 32.7525C13.0946 32.7659 13.1091 32.7836 13.1354 32.8036C13.1528 32.817 13.1616 32.8281 13.1761 32.8347C13.3334 32.9925 13.4237 33.1392 13.4819 33.2704C13.6479 33.6682 13.5576 34.0794 13.2664 34.4905C12.9927 34.8817 13.7732 35.2306 14.044 34.8372L14.0586 34.8216ZM13.1907 32.8192C13.1732 32.8059 13.1732 32.7992 13.1907 32.8192Z" fill="black"/>
</g>
</svg>
