<svg width="50" height="50" viewBox="0 0 50 50" fill="none" xmlns="http://www.w3.org/2000/svg">
<mask id="mask0_111_252" style="mask-type:luminance" maskUnits="userSpaceOnUse" x="0" y="0" width="50" height="50">
<path fill-rule="evenodd" clip-rule="evenodd" d="M0 0H50V50H0V0Z" fill="white"/>
</mask>
<g mask="url(#mask0_111_252)">
<path fill-rule="evenodd" clip-rule="evenodd" d="M6.90968 35.4634L4.23338 34.4735C3.09919 34.1056 2.18058 33.543 1.47495 32.7911C0.761624 32.0284 0.276639 31.0817 0.0226172 29.9485C0.00722156 29.8754 0.00208954 29.8024 0.00722189 29.7321C0.0226175 28.4554 0.0303152 27.0382 0.0303152 25.4803C0.0303152 23.9116 0.0226175 22.4889 0.00722189 21.2096C-0.0312682 20.5875 0.0842028 20.006 0.351066 19.4678L0.384426 19.4028C0.392123 19.3866 0.402387 19.3704 0.410085 19.3541C0.666683 18.8835 1.04389 18.4562 1.53916 18.0694L2.79908 17.1011C2.24483 16.6495 1.82399 16.0598 1.56228 15.3972C1.23896 14.5723 1.16455 13.6391 1.39549 12.733C1.62643 11.8243 2.1345 11.0534 2.80676 10.5098C3.47903 9.9662 4.31558 9.64971 5.20594 9.64971C6.0963 9.64971 6.93543 9.9662 7.60514 10.5098C8.12087 10.9264 8.53918 11.4781 8.81113 12.1218C8.9676 12.1083 9.12158 12.111 9.27556 12.1272L10.8742 10.8994C12.2547 9.82828 13.6018 9.16565 14.9746 8.9276C16.3526 8.68955 17.7408 8.88425 19.1932 9.52258L47.5861 19.1594C48.5817 19.5841 49.331 20.2386 49.8289 21.1257C50.3113 21.9804 50.5447 23.0352 50.5319 24.2929C50.5602 25.2125 50.5755 26.0889 50.5755 26.9138C50.5755 27.7414 50.5602 28.6177 50.5319 29.5428V29.5564C50.4857 30.4949 50.3138 31.355 50.0136 32.1367C49.7108 32.9264 49.2797 33.6324 48.7203 34.2572L39.6492 43.7805L39.5902 43.8345C38.32 44.9272 37.1346 45.4195 35.9054 45.5142C34.702 45.6061 33.4908 45.3032 32.1283 44.8002L27.9431 43.2504C27.7225 43.5425 27.471 43.8075 27.199 44.0401C26.5755 44.5729 25.8288 44.9435 25.0205 45.1058C24.7973 45.5628 24.497 45.9659 24.1377 46.2986C23.6836 46.7205 23.1345 47.0289 22.5314 47.1912C21.931 47.3508 21.3074 47.3535 20.7199 47.2101C20.4171 47.1343 20.1194 47.0235 19.8397 46.8747C19.5421 47.5266 19.1212 48.1026 18.6132 48.5705C17.8921 49.2359 16.9941 49.6876 16.0087 49.839L15.9856 49.8418C15.0105 49.9878 14.0354 49.8255 13.1707 49.409C12.4984 49.0844 11.8954 48.6057 11.4078 47.9971C11.0178 48.2324 10.5995 48.3974 10.1659 48.4948C9.51158 48.6381 8.82644 48.6192 8.16698 48.4244C7.50496 48.2297 6.90962 47.87 6.42472 47.3912C6.03469 47.0072 5.71653 46.5473 5.48556 46.0308C4.71318 45.8929 3.9973 45.5575 3.38658 45.0706C2.67326 44.4999 2.10873 43.7183 1.78796 42.7987C1.46465 41.8791 1.41076 40.9 1.60064 39.9804C1.79053 39.0608 2.22418 38.1926 2.88106 37.4948C3.53539 36.797 4.35395 36.3318 5.22638 36.1235C5.75754 35.9965 6.3092 35.9667 6.85838 36.037C6.85582 35.8396 6.87375 35.65 6.90968 35.4634ZM4.11278 17.8016L2.31656 19.1837C2.22675 19.254 2.14208 19.3243 2.06509 19.3974L33.5678 31.1357L33.6165 31.1573C34.607 31.5467 35.4435 31.7956 36.2005 31.8632C36.2955 31.8064 36.4084 31.7739 36.5264 31.7766C36.647 31.7766 36.7599 31.8145 36.8574 31.874C36.9395 31.8686 37.0191 31.8605 37.0986 31.8524C38.0635 31.7252 38.9693 31.1951 40.0213 30.1322L48.5222 21.5394C48.1809 21.0688 47.7087 20.701 47.1083 20.4441L18.7771 10.8287L18.7232 10.8071C17.4915 10.2607 16.3317 10.0903 15.1898 10.2878C14.03 10.4879 12.8702 11.0667 11.6539 12.008L10.6943 12.7436C10.974 12.987 11.21 13.2953 11.3794 13.6578C11.6719 14.2826 11.7207 14.9723 11.5616 15.5998C11.4025 16.2273 11.0304 16.8007 10.4839 17.1848C9.93475 17.5716 9.29323 17.7149 8.67995 17.6283C8.27195 17.5716 7.87933 17.4174 7.53295 17.1685C6.99409 17.5824 6.3706 17.8366 5.72651 17.9259C5.19021 18.0043 4.64138 17.9612 4.11278 17.8016ZM9.52446 13.5985C9.24738 13.4768 8.92918 13.4552 8.62635 13.5552L8.55455 13.5796C8.20554 13.6769 7.84635 13.4579 7.75136 13.09C7.59739 12.4841 7.25869 11.9675 6.8122 11.6078C6.36569 11.2454 5.80634 11.0344 5.20843 11.0344C4.61055 11.0344 4.05118 11.2454 3.60469 11.6078C3.1582 11.9703 2.8195 12.4841 2.66552 13.09C2.51156 13.6985 2.56031 14.3233 2.77586 14.8724C2.99141 15.4214 3.3763 15.8975 3.89206 16.2139C4.40783 16.5276 4.99288 16.6385 5.55223 16.5628C6.10905 16.4844 6.64535 16.2166 7.06872 15.773L7.09953 15.7433C7.37155 15.4918 7.78723 15.5188 8.02588 15.8055C8.24397 16.0679 8.53911 16.2248 8.84444 16.268C9.15239 16.3113 9.47565 16.2383 9.75023 16.0463C10.0248 15.8515 10.2095 15.5648 10.2891 15.2484C10.3686 14.9319 10.3456 14.5857 10.1993 14.2748C10.0582 13.9556 9.81185 13.7229 9.52446 13.5985ZM36.8677 0.00176239C37.5169 0.00176239 38.1045 0.280344 38.5331 0.73204C38.9616 1.18102 39.2259 1.80042 39.2259 2.48742C39.2259 3.17171 38.9616 3.79108 38.5331 4.2428C38.1071 4.69448 37.5195 4.97308 36.8677 4.97308C36.2211 4.97308 35.6309 4.6945 35.205 4.2455L35.2024 4.24279C34.7765 3.79111 34.5122 3.17171 34.5122 2.49018C34.5122 1.80319 34.7765 1.18383 35.2024 0.734803L35.2435 0.694235C35.6669 0.26419 36.2416 0.00176239 36.8677 0.00176239ZM37.6067 1.7057C37.4194 1.50825 37.1602 1.38654 36.8703 1.38654C36.5932 1.38654 36.3443 1.49744 36.1595 1.67865L36.1339 1.7084C35.944 1.90855 35.8285 2.18172 35.8285 2.48736C35.8285 2.79299 35.944 3.06616 36.1313 3.26361L36.1339 3.26632C36.3212 3.46376 36.5804 3.58547 36.8703 3.58547C37.1577 3.58547 37.4194 3.46105 37.6068 3.26361H37.6094C37.7966 3.06616 37.9121 2.793 37.9121 2.48736C37.9121 2.18444 37.7941 1.90856 37.6068 1.70841L37.6067 1.7057ZM42.7926 7.16107C42.4898 7.06372 42.1716 7.08532 41.8945 7.20435C41.6071 7.32877 41.3633 7.56135 41.2171 7.87508C41.0709 8.18617 41.0477 8.53238 41.1273 8.8488C41.2068 9.16516 41.3942 9.45189 41.6687 9.64389C41.9433 9.83866 42.2666 9.90901 42.5745 9.86574C42.8799 9.82246 43.175 9.66556 43.3931 9.40321C43.6317 9.11649 44.0474 9.08948 44.3194 9.34096L44.3502 9.37074C44.7736 9.81429 45.3099 10.0847 45.8667 10.1605C46.4261 10.2389 47.0112 10.1253 47.5269 9.81159L47.5577 9.80079C48.0581 9.48706 48.4301 9.01913 48.6405 8.48093C48.8561 7.93185 48.9048 7.3071 48.7509 6.69853C48.5969 6.09268 48.2582 5.57878 47.8117 5.21637C47.3652 4.85394 46.8059 4.64298 46.208 4.64298V4.64027C45.6126 4.64027 45.0533 4.85124 44.6042 5.21637C44.1577 5.57881 43.8191 6.09268 43.6651 6.69853C43.5726 7.06635 43.2108 7.28543 42.8619 7.18808L42.7926 7.16107ZM41.3916 5.93046C40.8219 6.1793 40.3318 6.64177 40.0418 7.26659C39.7493 7.89135 39.7006 8.58105 39.8597 9.20858C40.0188 9.8388 40.3908 10.4095 40.9399 10.7963C41.489 11.183 42.1306 11.3264 42.7438 11.2398C43.1518 11.183 43.5445 11.0288 43.8908 10.7801C44.4297 11.1938 45.0532 11.4481 45.6973 11.5374C46.5364 11.6537 47.4114 11.486 48.1838 11.0153L48.2223 10.991C48.9767 10.5204 49.5386 9.8145 49.8568 9.00577C50.1802 8.18084 50.2546 7.24769 50.0236 6.34161C49.7927 5.43283 49.2846 4.66197 48.6123 4.11837C47.9401 3.57472 47.1035 3.25827 46.2132 3.25827V3.26097C45.3202 3.26097 44.4837 3.57742 43.814 4.11838C43.2982 4.5349 42.88 5.08663 42.608 5.72766C42.1846 5.6925 41.7688 5.76548 41.3916 5.93046ZM27.1297 42.0787C27.14 42.0625 27.1477 42.0463 27.158 42.0301C27.3094 41.7758 27.4351 41.4973 27.5275 41.2024C27.7481 40.4992 27.7635 39.7555 27.5968 39.0603C27.43 38.3679 27.0758 37.7242 26.5627 37.2184C26.0443 36.7099 25.4131 36.3826 24.746 36.2555C24.0942 36.1311 23.4065 36.1933 22.765 36.4611C22.6932 36.4989 22.6111 36.5233 22.5264 36.5287C22.1646 36.5584 21.849 36.2744 21.8207 35.8931C21.7258 34.6219 21.2152 33.4697 20.4274 32.5988C19.6397 31.7252 18.5748 31.1274 17.3765 30.9651C16.1756 30.8001 15.0003 31.0895 14.0278 31.7225C13.063 32.3499 12.2932 33.3156 11.8903 34.5056C11.8621 34.6029 11.8133 34.6949 11.7466 34.7733C11.5003 35.0546 11.0871 35.0709 10.8202 34.8139C10.5483 34.5489 10.207 34.4001 9.85803 34.3758C9.50908 34.3514 9.14983 34.446 8.84444 34.6705C8.53905 34.8951 8.32871 35.2142 8.2286 35.5658C8.12855 35.9202 8.14136 36.3096 8.27997 36.6693C8.33896 36.8208 8.34664 36.9966 8.29021 37.1643C8.16705 37.5214 7.79242 37.708 7.45372 37.5808C6.81732 37.3401 6.14249 37.305 5.50615 37.4564C4.87236 37.6079 4.2796 37.946 3.8023 38.4544C3.32759 38.9602 3.01199 39.5877 2.87595 40.2585C2.73738 40.9293 2.77844 41.6379 3.01194 42.3086C3.24801 42.9794 3.65344 43.5474 4.1692 43.9585C4.68495 44.3696 5.31364 44.632 5.99103 44.6915C6.23993 44.7131 6.4683 44.8862 6.55555 45.1513C6.71465 45.6219 6.97636 46.0357 7.30993 46.3657C7.64606 46.6957 8.05662 46.9445 8.51336 47.0797C8.9701 47.2149 9.44228 47.2284 9.89133 47.1284C10.3429 47.031 10.7714 46.8173 11.1384 46.5036L11.2 46.4576C11.5053 46.2521 11.9082 46.3467 12.1032 46.6686C12.5009 47.3258 13.0629 47.8289 13.707 48.14C14.3433 48.4483 15.0669 48.5673 15.7931 48.4591L15.8111 48.4564C16.545 48.3428 17.2095 48.0101 17.7433 47.5179C18.2744 47.0256 18.6773 46.3738 18.8775 45.6245C18.9031 45.5326 18.9468 45.446 19.0083 45.3676C19.2418 45.0755 19.655 45.0403 19.932 45.2864C20.2451 45.5651 20.6146 45.7571 21.0021 45.8517C21.3921 45.9464 21.8027 45.9437 22.2029 45.8382C22.6007 45.7328 22.9624 45.5272 23.2601 45.2486C23.5603 44.97 23.799 44.6157 23.9478 44.2154C24.0351 43.9828 24.2352 43.8097 24.4867 43.7799C25.1898 43.6988 25.8364 43.404 26.3599 42.9577C26.6653 42.717 26.9219 42.4168 27.1297 42.0787ZM28.6282 42.0409L32.5593 43.496C33.75 43.9369 34.7917 44.2046 35.7745 44.1398L35.8592 33.2185C35.0406 33.1157 34.1605 32.8452 33.1572 32.4503L1.34903 20.5929C1.31567 20.7606 1.3054 20.9364 1.31567 21.1203V21.1555C1.33363 22.7432 1.3439 24.1821 1.3439 25.4776C1.3439 26.7461 1.33363 28.1553 1.31823 29.7051C1.51838 30.5544 1.88275 31.2576 2.40881 31.8202C2.95793 32.4071 3.69691 32.8534 4.62583 33.1536L7.44847 34.1976C7.62806 33.9488 7.84615 33.727 8.10024 33.5404C8.65703 33.1319 9.31142 32.9561 9.95032 33.0021C10.3018 33.0292 10.6508 33.1211 10.9742 33.2807C11.5181 32.1367 12.3496 31.2008 13.3452 30.5544C14.5666 29.7592 16.0395 29.3968 17.5457 29.6023C19.0545 29.8079 20.3939 30.5571 21.3818 31.6525C22.1927 32.5532 22.7726 33.6864 23.0215 34.9468C23.6732 34.7926 24.343 34.7791 24.987 34.9035C25.8954 35.0793 26.7576 35.5229 27.4607 36.2126C28.1663 36.905 28.6462 37.7813 28.8745 38.7252C29.1028 39.6665 29.0771 40.6753 28.7744 41.6409C28.7282 41.7761 28.6796 41.9083 28.6282 42.0409ZM37.0857 43.8314C37.6246 43.6123 38.1711 43.2688 38.7485 42.7766L47.7703 33.3017C48.2168 32.8041 48.5606 32.2415 48.8018 31.6086C49.0481 30.9675 49.1893 30.2589 49.2278 29.4773C49.2534 28.6686 49.2663 27.8112 49.2663 26.9079C49.2663 25.9991 49.2534 25.1363 49.2278 24.3221V24.2924C49.2329 23.7677 49.1893 23.2916 49.0944 22.867L40.9265 31.1246C39.6564 32.4093 38.5144 33.0558 37.2546 33.2234L37.1673 33.2343L37.0857 43.8314Z" fill="black"/>
</g>
</svg>
