<svg width="50" height="50" viewBox="0 0 50 50" fill="none" xmlns="http://www.w3.org/2000/svg">
<mask id="mask0_111_197" style="mask-type:luminance" maskUnits="userSpaceOnUse" x="0" y="0" width="50" height="50">
<path fill-rule="evenodd" clip-rule="evenodd" d="M0 0H50V50H0V0Z" fill="white"/>
</mask>
<g mask="url(#mask0_111_197)">
<path d="M49.2409 3.05284C49.3686 2.86064 49.3896 2.64098 49.2995 2.43819C49.2094 2.2354 49.015 2.06454 48.7555 1.9601L44.1601 0.106637C44.0196 0.05062 43.8646 0.0157703 43.7045 0.00424123C43.5445 -0.00728782 43.3828 0.00474875 43.2294 0.0396073C43.0761 0.0744658 42.9344 0.131406 42.8132 0.20691C42.6919 0.282415 42.5936 0.374879 42.5243 0.478591L37.1228 8.59327C33.5811 6.9769 29.3084 6.38851 25.1791 6.94851C21.05 7.50851 17.3765 9.17456 14.9107 11.6057C13.4691 11.1458 11.9019 10.9219 10.3236 10.9504C8.74524 10.9788 7.19582 11.2591 5.78866 11.7704C4.38148 12.2817 3.15217 13.0113 2.19066 13.9058C1.22915 14.8003 0.55976 15.837 0.231481 16.9401C-0.0967993 18.0431 -0.0756682 19.1847 0.293327 20.2812C0.662322 21.3777 1.36984 22.4014 2.36414 23.2773C3.35842 24.1533 4.6143 24.8595 6.03991 25.3441C7.46551 25.8287 9.02476 26.0795 10.6036 26.0782C11.1712 26.0777 11.7378 26.045 12.2982 25.9805L12.7733 29.7116V29.7179L15.3108 49.6899C15.3373 49.8994 15.4729 50.0943 15.6907 50.236C15.9086 50.3776 16.1929 50.4557 16.4876 50.4548H40.0236C40.3183 50.4557 40.6026 50.3776 40.8205 50.236C41.0383 50.0943 41.1739 49.8994 41.2004 49.6899L43.7247 29.8545L44.6293 22.716H45.9076C46.2198 22.716 46.5191 22.6274 46.7398 22.4698C46.9604 22.3121 47.0844 22.0983 47.0844 21.8754V18.5131C47.0844 18.2901 46.9604 18.0763 46.7398 17.9187C46.5191 17.7611 46.2198 17.6725 45.9076 17.6725H44.6882C44.5216 15.9887 43.8482 14.3506 42.7141 12.8697L49.2409 3.05284ZM44.1027 2.01684L46.6431 3.03919L36.9139 17.6725H33.6983L38.6497 10.225V10.2198L44.1027 2.01684ZM28.2556 8.42621C31.0508 8.41985 33.7845 9.01241 36.1034 10.1273L31.0858 17.6725H21.1271C20.9663 16.6469 20.5133 15.6557 19.7959 14.7599C19.0783 13.8642 18.1117 13.0829 16.9554 12.4641C18.2665 11.2074 19.9715 10.1874 21.9338 9.48623C23.8963 8.78501 26.0613 8.42197 28.2556 8.42621ZM11.7804 24.3362V20.542L15.5344 23.2234C14.4339 23.8138 13.1428 24.1965 11.7804 24.3362ZM2.45128 19.3537H7.35266L3.58983 21.5938C2.99836 20.911 2.61073 20.1484 2.45128 19.3537ZM17.1981 22.0351L13.4441 19.3537H18.7559C18.5604 20.3267 18.0246 21.249 17.1981 22.0351ZM13.8545 17.6725L17.6173 15.4324C18.2088 16.1151 18.5964 16.8778 18.7559 17.6725H13.8545ZM16.1095 14.1411L12.3688 16.3728L12.3438 16.3875L11.7804 16.7185V12.69C13.3931 12.856 14.9001 13.3612 16.1095 14.1411ZM9.42677 16.4842L5.67277 13.8027C6.77329 13.2123 8.0644 12.8297 9.42677 12.69V16.4842ZM9.42677 20.3077V24.3362C7.81408 24.1701 6.30705 23.665 5.09761 22.8851L9.42677 20.3077ZM4.00907 14.9911L7.76307 17.6725H2.45128C2.64677 16.6993 3.18254 15.7771 4.00907 14.9911ZM19.4046 22.716H27.7319L24.0221 28.2953C22.8829 27.9058 21.6465 27.6825 20.3851 27.6384C19.1238 27.5944 17.8627 27.7306 16.6759 28.0389L14.9798 28.4791L14.6032 25.5161C16.5573 24.9437 18.2287 23.9689 19.4046 22.716ZM28.844 29.8093C27.8603 29.7366 26.9086 29.5187 26.0491 29.1694L30.3385 22.716H33.56L28.844 29.8093ZM30.6092 48.7737V45.4114H35.3164V48.7737H30.6092ZM37.67 48.7737V44.5708C37.67 44.3479 37.546 44.1341 37.3254 43.9764C37.1047 43.8188 36.8054 43.7303 36.4932 43.7303H29.4324C29.1203 43.7303 28.8209 43.8188 28.6003 43.9764C28.3796 44.1341 28.2556 44.3479 28.2556 44.5708V48.7737H17.5629L16.9745 44.202L20.0709 46.4138C20.1802 46.492 20.31 46.554 20.453 46.5962C20.5958 46.6385 20.7489 46.6603 20.9035 46.6603C21.0581 46.6603 21.2113 46.6385 21.3542 46.5962C21.4971 46.554 21.6268 46.492 21.7361 46.4138L26.7287 42.8477C26.8381 42.7696 26.9249 42.6769 26.9842 42.5748C27.0433 42.4728 27.0738 42.3634 27.0738 42.253C27.0738 42.1425 27.0433 42.0332 26.9842 41.931C26.9249 41.829 26.8381 41.7363 26.7287 41.6583L21.7361 38.0921C21.6268 38.014 21.4971 37.952 21.3542 37.9096C21.2113 37.8674 21.0581 37.8456 20.9035 37.8456C20.7489 37.8456 20.5958 37.8674 20.453 37.9096C20.31 37.952 20.1802 38.014 20.0709 38.0921L16.5199 40.6296L15.196 30.2107L17.4761 29.6181C18.5658 29.3348 19.7358 29.2455 20.8848 29.3577C22.0338 29.47 23.1272 29.7803 24.0706 30.2622C25.6285 31.0534 27.4845 31.4903 29.3956 31.5157C29.4501 31.522 29.5052 31.5252 29.5604 31.5252C29.617 31.5249 29.6735 31.5222 29.7295 31.5167C31.5574 31.5007 33.3401 31.1081 34.8633 30.3862L38.6879 28.5621C38.9595 28.4327 39.2766 28.3608 39.6031 28.3547C39.9293 28.3486 40.2513 28.4086 40.532 28.5277C40.8125 28.6468 41.0402 28.8202 41.1888 29.0278C41.3372 29.2355 41.4005 29.4689 41.3711 29.7011L38.9483 48.7737H37.67ZM17.5805 42.253L20.9094 39.8752L24.2383 42.253L20.9094 44.6307L17.5805 42.253ZM41.705 27.0722C41.0441 26.798 40.289 26.6612 39.5251 26.6774C38.7611 26.6935 38.0186 26.862 37.3817 27.1636L33.5571 28.9877C32.9429 29.2794 32.2691 29.5009 31.5595 29.6444L36.1666 22.716H42.2654L41.705 27.0722ZM44.7308 21.0348H20.5873C20.8576 20.4912 21.0387 19.927 21.1271 19.3537H44.7308V21.0348ZM42.3287 17.6725H39.5205L41.4064 14.8356C41.905 15.7442 42.2157 16.6999 42.3287 17.6725Z" fill="black"/>
<path d="M33.2454 32.8029H26.1846C25.8725 32.8029 25.5731 32.8914 25.3525 33.049C25.1318 33.2066 25.0078 33.4205 25.0078 33.6434V38.6869C25.0078 38.9098 25.1318 39.1236 25.3525 39.2813C25.5731 39.4389 25.8725 39.5274 26.1846 39.5274H33.2454C33.5576 39.5274 33.8569 39.4389 34.0776 39.2813C34.2982 39.1236 34.4222 38.9098 34.4222 38.6869V33.6434C34.4222 33.4205 34.2982 33.2066 34.0776 33.049C33.8569 32.8914 33.5576 32.8029 33.2454 32.8029ZM32.0686 37.8463H27.3614V34.484H32.0686V37.8463Z" fill="black"/>
</g>
</svg>
