<svg width="50" height="50" viewBox="0 0 50 50" fill="none" xmlns="http://www.w3.org/2000/svg">
<mask id="mask0_111_231" style="mask-type:luminance" maskUnits="userSpaceOnUse" x="0" y="0" width="50" height="50">
<path fill-rule="evenodd" clip-rule="evenodd" d="M0 0H50V50H0V0Z" fill="white"/>
</mask>
<g mask="url(#mask0_111_231)">
<path d="M30.4026 50.5395H0.00390625V20.4437C0.00390625 18.9163 0.864813 17.4994 2.30765 16.6517L9.4074 12.4813V7.87897H10.9679V13.2177L3.17291 17.796C2.16489 18.3874 1.56444 19.3781 1.56444 20.4447V49.1667H28.8421V20.5177C28.8421 19.4127 28.2068 18.4037 27.1443 17.8181L18.812 13.2301V7.87897H20.3725V12.4688L27.9714 16.6526C29.4938 17.4907 30.4026 18.9355 30.4026 20.5177V50.5395Z" fill="black"/>
<path d="M8.30469 8.85629H21.47V10.2157H8.30469V8.85629Z" fill="black"/>
<path d="M22.266 6.9208H8.14062V0H22.266V6.9208ZM9.7284 5.52301H20.6794V1.39875H9.7284L9.7284 5.52301Z" fill="black"/>
<path d="M30.3932 43.3528H6.28125V22.1113H30.3932V43.3528ZM7.82434 41.9934H28.8501V23.4707H7.82434V41.9934Z" fill="black"/>
<path d="M12.6934 25.4243H29.6205V26.7837H12.6934L12.6934 25.4243Z" fill="black"/>
<path d="M12.6934 28.7383H29.6205V30.0977H12.6934L12.6934 28.7383Z" fill="black"/>
<path d="M12.6934 32.0523H29.6205V33.4117H12.6934L12.6934 32.0523Z" fill="black"/>
<path d="M20.8438 35.3653H29.6206V36.7247H20.8438V35.3653Z" fill="black"/>
<path d="M42.4748 50.5318C40.4936 50.5318 38.8818 49.1119 38.8818 47.3666L38.884 47.3214L39.8234 34.9026L40.6603 18.7521C37.9741 17.8891 35.1211 15.1962 35.1211 12.5734C35.1211 8.26677 38.6835 1.12421 42.4748 1.12421C46.2671 1.12421 49.8295 8.26677 49.8295 12.5734C49.8295 15.1962 46.9765 17.8891 44.2903 18.7521L45.1272 34.9026L46.0688 47.3445V47.3675C46.0677 49.1119 44.4559 50.5318 42.4748 50.5318ZM40.4249 47.3877C40.438 48.3736 41.3523 49.1724 42.4748 49.1724C43.5972 49.1724 44.5115 48.3736 44.5246 47.3877L43.5852 34.9717L42.6916 17.7307L43.3073 17.5972C45.5479 17.1134 48.2853 14.6999 48.2853 12.5734C48.2853 10.6899 47.4855 8.08821 46.2464 5.94352C45.0139 3.80939 43.5678 2.4836 42.4737 2.4836C41.3796 2.4836 39.9345 3.80939 38.7009 5.94352C37.4619 8.08725 36.662 10.6899 36.662 12.5734C36.662 14.6999 39.3995 17.1134 41.64 17.5972L42.2557 17.7307L41.3621 34.9861L40.4249 47.3877Z" fill="black"/>
</g>
</svg>
