<svg width="50" height="50" viewBox="0 0 50 50" fill="none" xmlns="http://www.w3.org/2000/svg">
<mask id="mask0_111_415" style="mask-type:luminance" maskUnits="userSpaceOnUse" x="0" y="0" width="50" height="50">
<path fill-rule="evenodd" clip-rule="evenodd" d="M0 0H50V50H0V0Z" fill="white"/>
</mask>
<g mask="url(#mask0_111_415)">
<path d="M40.2234 39.3842C34.676 39.3842 30.168 34.8761 30.168 29.3288C30.168 23.7816 34.6761 19.2734 40.2234 19.2734C45.7707 19.2734 50.2788 23.7816 50.2788 29.3288C50.2788 31.2561 49.7258 33.1332 48.6867 34.7502C48.4353 35.1356 47.9158 35.2529 47.5303 35.0015C47.1449 34.7502 47.0276 34.2306 47.2789 33.8452C48.1421 32.4961 48.603 30.9375 48.603 29.3286C48.603 24.7115 44.8406 20.9491 40.2234 20.9491C35.6063 20.9491 31.8439 24.7115 31.8439 29.3286C31.8439 33.9457 35.6063 37.7081 40.2234 37.7081C42.0334 37.7081 43.7512 37.1467 45.2008 36.0741C45.5779 35.7976 46.0974 35.8814 46.374 36.2501C46.6505 36.6188 46.5667 37.1467 46.198 37.4232C44.455 38.7053 42.3936 39.3756 40.2318 39.3756L40.2234 39.3842Z" fill="black"/>
<path d="M20.9502 18.4354C15.8638 18.4354 11.7324 14.3043 11.7324 9.21762C11.7324 4.13097 15.8635 -0.00012207 20.9502 -0.00012207C23.2127 -0.00012207 25.3829 0.829464 27.0757 2.32941C27.4192 2.63945 27.4527 3.16736 27.1427 3.51091C26.8327 3.85446 26.3047 3.88798 25.9612 3.57794C24.587 2.34614 22.8021 1.66742 20.9586 1.66742C16.8024 1.66742 13.4173 5.05274 13.4173 9.20871C13.4173 13.3647 16.8027 16.75 20.9586 16.75C25.1146 16.75 28.4999 13.3647 28.4999 9.20871C28.4999 8.11098 28.2569 7.00489 27.7877 6.01613C27.5949 5.59713 27.7709 5.09436 28.1899 4.90167C28.6089 4.70898 29.1117 4.88491 29.3044 5.30388C29.8742 6.51053 30.1758 7.85962 30.1758 9.20035C30.1758 14.2867 26.0447 18.4181 20.9581 18.4181L20.9502 18.4354Z" fill="black"/>
<path d="M20.9502 18.4354C15.8638 18.4354 11.7324 14.3043 11.7324 9.21762C11.7324 4.13097 15.8635 -0.00012207 20.9502 -0.00012207C23.2127 -0.00012207 25.3829 0.829464 27.0757 2.32941C27.4192 2.63945 27.4527 3.16736 27.1427 3.51091C26.8327 3.85446 26.3047 3.88798 25.9612 3.57794C24.587 2.34614 22.8021 1.66742 20.9586 1.66742C16.8024 1.66742 13.4173 5.05274 13.4173 9.20871C13.4173 13.3647 16.8027 16.75 20.9586 16.75C25.1146 16.75 28.4999 13.3647 28.4999 9.20871C28.4999 8.11098 28.2569 7.00489 27.7877 6.01613C27.5949 5.59713 27.7709 5.09436 28.1899 4.90167C28.6089 4.70898 29.1117 4.88491 29.3044 5.30388C29.8742 6.51053 30.1758 7.85962 30.1758 9.20035C30.1758 14.2867 26.0447 18.4181 20.9581 18.4181L20.9502 18.4354Z" fill="black"/>
<path d="M38.688 33.2416C38.5036 33.2416 38.3193 33.183 38.1768 33.0657L34.7245 30.3759C34.3558 30.0909 34.2971 29.5631 34.582 29.2027C34.8669 28.8424 35.3948 28.767 35.7551 29.0602L38.5455 31.2305L43.0285 25.3732C43.3051 25.0045 43.833 24.9375 44.2017 25.214C44.5704 25.4989 44.6375 26.0184 44.3609 26.3871L39.3667 32.9149C39.2326 33.0908 39.0315 33.2081 38.8053 33.2333H38.6963L38.688 33.2416Z" fill="black"/>
<path d="M0.837952 31.0052C0.377076 31.0052 0 30.6282 0 30.1673V14.2459C0 11.0115 2.63114 8.38 5.86593 8.38H9.21774C9.67862 8.38 10.0557 8.75707 10.0557 9.21796C10.0557 9.67884 9.67862 10.0559 9.21774 10.0559H5.86593C3.55318 10.0559 1.67617 11.9329 1.67617 14.2457V30.167C1.67617 30.6279 1.29883 31.0052 0.837952 31.0052Z" fill="black"/>
<path d="M41.0612 17.631C40.6003 17.631 40.2233 17.2539 40.2233 16.793V14.2457C40.2233 11.9329 38.3463 10.0559 36.0335 10.0559H32.6817C32.2208 10.0559 31.8438 9.67884 31.8438 9.21796C31.8438 8.75707 32.2208 8.38 32.6817 8.38H36.0335C39.268 8.38 41.8994 11.0111 41.8994 14.2459V16.7933C41.8994 17.2542 41.5221 17.631 41.0612 17.631Z" fill="black"/>
<path d="M21.7874 6.85491V4.19019C21.7874 3.72931 21.4103 3.35223 20.9494 3.35223C20.4885 3.35223 20.1115 3.72931 20.1115 4.19019V6.85491C19.1394 7.19846 18.4355 8.12023 18.4355 9.21791C18.4355 10.6005 19.5668 11.7318 20.9494 11.7318C22.332 11.7318 23.4633 10.6005 23.4633 9.21791C23.4633 8.1286 22.7594 7.20682 21.7874 6.85491ZM20.9494 10.0559C20.4885 10.0559 20.1115 9.67885 20.1115 9.21796C20.1115 8.75707 20.4885 8.38001 20.9494 8.38001C21.4103 8.38001 21.7874 8.75707 21.7874 9.21796C21.7874 9.67885 21.4103 10.0559 20.9494 10.0559Z" fill="black"/>
<path d="M41.0599 41.0264C40.599 41.0264 40.2219 41.4035 40.2219 41.8644V44.4118C40.2219 46.7245 38.3449 48.6015 36.0321 48.6015H21.7872V22.5915C27.4515 22.2312 32.3537 18.3095 33.8704 12.7956C33.9961 12.3515 33.7279 11.8906 33.2838 11.7649C32.8396 11.6392 32.3788 11.899 32.2531 12.3515C30.8537 17.4128 26.2032 20.9574 20.9406 20.9574C15.678 20.9574 11.0278 17.4212 9.62811 12.3515C9.5024 11.9074 9.04151 11.6477 8.59741 11.7649C8.15331 11.8906 7.88517 12.3515 8.01082 12.7956C9.53592 18.3178 14.4377 22.2392 20.0939 22.5915V48.6015H5.86566C3.55292 48.6015 1.6759 46.7245 1.6759 44.4118V33.5187C1.6759 33.0578 1.29883 32.6807 0.837952 32.6807C0.377076 32.6807 0 33.0578 0 33.5187V44.4118C0 47.6462 2.63114 50.2777 5.86593 50.2777H36.0322C39.2667 50.2777 41.8981 47.6465 41.8981 44.4118V41.8644C41.8981 41.4035 41.5207 41.0264 41.0599 41.0264Z" fill="black"/>
<path d="M12.719 46.0876C10.8755 46.0876 9.2666 44.9563 8.80572 43.3391L5.19411 29.9823C4.80027 28.5243 5.11032 26.9741 6.05723 25.7423C7.15496 24.3094 8.95652 23.4547 10.8922 23.4547C14.1267 23.4547 16.7581 25.8177 16.7581 28.7254V42.4174C16.7581 44.4369 14.9482 46.0793 12.7192 46.0793L12.719 46.0876ZM10.8923 25.1391C9.47613 25.1391 8.16892 25.7508 7.38964 26.7647C6.7528 27.5943 6.55169 28.5831 6.81147 29.5467L10.4231 42.8869C10.6744 43.7751 11.6213 44.4036 12.719 44.4036C14.0179 44.4036 15.082 43.5153 15.082 42.4176V28.7257C15.082 26.7397 13.205 25.1309 10.8923 25.1309V25.1391Z" fill="black"/>
<path d="M29.1756 46.0874C26.9467 46.0874 25.1367 44.445 25.1367 42.4256V28.7336C25.1367 26.865 26.2596 25.122 28.0612 24.1751C28.4717 23.9656 28.9745 24.1165 29.1924 24.5271C29.4103 24.9376 29.2511 25.4404 28.8404 25.6583C27.5751 26.3203 26.821 27.4683 26.821 28.7252V42.4172C26.821 43.515 27.8852 44.4032 29.184 44.4032C30.2817 44.4032 31.2286 43.7747 31.4799 42.8781L32.3933 39.5179C32.5106 39.0738 32.9799 38.8057 33.424 38.9313C33.8681 39.0486 34.1363 39.5095 34.0106 39.962L33.0973 43.3305C32.6448 44.9561 31.0358 46.0874 29.1924 46.0874L29.1756 46.0874Z" fill="black"/>
</g>
</svg>
