<svg width="45" height="42" viewBox="0 0 45 42" fill="none" xmlns="http://www.w3.org/2000/svg">
<path d="M16.3786 16.5982V2.86673H2.9077V16.4489H8.90583C10.2032 16.4489 11.3276 17.4223 11.4363 18.7376C11.4365 18.7398 11.4366 18.742 11.4368 18.7436C11.4667 19.0874 11.4803 19.4285 11.4803 19.7684C11.4803 23.4105 10.7225 26.6954 9.16378 29.5825L9.12681 29.6506C7.69699 32.272 5.61953 34.0353 2.9077 34.7978V39.0572C7.42123 38.1364 10.6497 35.7779 12.7245 31.956C15.1503 27.4853 16.3786 22.3773 16.3786 16.5982ZM37.1416 18.853C37.1808 19.1203 37.1939 19.4077 37.1939 19.6926C37.1939 21.9655 36.8104 24.2526 36.0505 26.5509C34.6723 30.7698 32.2727 33.6654 28.6982 34.7689V39.0385C32.3787 38.2165 35.4229 36.2116 37.8622 32.9501C40.6167 29.2672 42.0923 23.8794 42.0923 16.5982V2.86671H28.6982V16.4489H34.3552C35.7673 16.4489 36.9519 17.4799 37.1411 18.8499C37.1412 18.8504 37.1413 18.851 37.1414 18.8515C37.1414 18.8518 37.1415 18.8521 37.1415 18.8523C37.1416 18.853 37.1417 18.8536 37.1417 18.8541C37.1418 18.8543 37.1418 18.8546 37.1418 18.8547C37.1419 18.8549 37.1419 18.8551 37.1419 18.8552C37.1419 18.8553 37.1419 18.8554 37.1419 18.8555C37.1419 18.8555 37.1419 18.8556 37.1419 18.8556C37.1419 18.8556 37.1419 18.8554 37.1419 18.8552C37.1419 18.855 37.1418 18.8546 37.1417 18.8541C37.1417 18.8538 37.1416 18.8534 37.1416 18.853ZM2.64633 34.8677L2.64629 34.8677C2.64657 34.8677 2.64685 34.8676 2.64713 34.8675C2.64686 34.8676 2.64659 34.8676 2.64633 34.8677ZM45 16.5982C45 24.2067 43.4664 30.2873 40.2025 34.6514L40.2025 34.6514C37.2677 38.5754 33.466 41.0338 28.8327 41.9408C27.2489 42.2509 25.7905 41.0483 25.7905 39.4738L25.7905 34.5061C25.7905 33.3638 26.5674 32.3904 27.6509 32.0857L27.68 32.0775C30.1457 31.3731 32.0661 29.3999 33.2843 25.6676C33.2848 25.6659 33.2854 25.6641 33.286 25.6624C33.9579 23.6301 34.2862 21.6425 34.2862 19.6926C34.2862 19.5221 34.2793 19.3991 34.2704 19.3156H28.6082C27.052 19.3156 25.7905 18.0718 25.7905 16.5376V2.778C25.7905 1.24375 27.052 0 28.6082 0H42.1823C43.7385 0 45 1.24375 45 2.778V16.5982ZM19.2864 16.5982C19.2864 22.7899 17.9666 28.3725 15.2882 33.3085L14.0063 32.6324L15.2881 33.3088C12.7097 38.0586 8.56956 40.951 3.0116 41.9579C1.44542 42.2416 0 41.0563 0 39.485V34.5278C0 33.3663 0.803717 32.3752 1.92145 32.0915C3.88275 31.5937 5.42705 30.3808 6.56592 28.2929L6.59685 28.2359C7.90091 25.8207 8.57256 23.0105 8.57256 19.7684C8.57256 19.6158 8.56902 19.4651 8.56176 19.3156H2.55003C1.14166 19.3156 0 18.19 0 16.8015V2.5141C1.65746e-06 1.12558 1.14171 1.77553e-05 2.55003 1.61216e-05H16.7363C18.1447 1.61216e-05 19.2864 1.12563 19.2864 2.5141V16.5982ZM37.1415 18.8523C37.1415 18.8521 37.1414 18.8519 37.1414 18.8516C37.1414 18.8521 37.1415 18.8525 37.1416 18.853C37.1415 18.8528 37.1415 18.8525 37.1415 18.8523ZM37.1412 18.8507C37.1413 18.851 37.1413 18.8512 37.1414 18.8515C37.1413 18.8512 37.1413 18.851 37.1412 18.8507Z" fill="#7BBD93"/>
</svg>
