<svg width="45" height="42" viewBox="0 0 45 42" fill="none" xmlns="http://www.w3.org/2000/svg">
<path d="M28.6214 25.4018V39.1333H42.0923V25.5511H36.0942C34.7968 25.5511 33.6724 24.5777 33.5637 23.2624C33.5635 23.2602 33.5634 23.258 33.5632 23.2564C33.5333 22.9126 33.5197 22.5715 33.5197 22.2316C33.5197 18.5895 34.2775 15.3046 35.8362 12.4175L35.8732 12.3494C37.303 9.72805 39.3805 7.96472 42.0923 7.20219V2.9428C37.5788 3.86356 34.3503 6.22206 32.2755 10.044C29.8497 14.5147 28.6214 19.6227 28.6214 25.4018ZM7.85843 23.147C7.81923 22.8797 7.8061 22.5923 7.8061 22.3074C7.8061 20.0345 8.18965 17.7474 8.9495 15.4491C10.3277 11.2302 12.7273 8.33462 16.3018 7.23113V2.96148C12.6213 3.78348 9.57714 5.78836 7.13779 9.04994C4.38332 12.7328 2.9077 18.1206 2.9077 25.4018V39.1333H16.3018V25.5511H10.6448C9.2327 25.5511 8.04806 24.5201 7.85887 23.1501C7.85879 23.1496 7.85872 23.149 7.85864 23.1485C7.8586 23.1482 7.85855 23.1479 7.85851 23.1477C7.85841 23.147 7.85833 23.1464 7.85826 23.1459C7.85823 23.1457 7.85819 23.1454 7.85817 23.1453C7.85814 23.1451 7.85814 23.1449 7.85812 23.1448C7.8581 23.1447 7.85808 23.1446 7.85807 23.1445C7.85806 23.1445 7.85806 23.1444 7.85805 23.1444C7.85805 23.1444 7.85807 23.1446 7.8581 23.1448C7.85814 23.145 7.8582 23.1454 7.85826 23.1459C7.85831 23.1462 7.85837 23.1466 7.85843 23.147ZM42.3537 7.13229L42.3537 7.13227C42.3534 7.13234 42.3532 7.13243 42.3529 7.1325C42.3531 7.13243 42.3534 7.13236 42.3537 7.13229ZM3.8147e-06 25.4018C3.8147e-06 17.7933 1.53359 11.7127 4.79751 7.34861L4.79753 7.34863C7.73233 3.42459 11.534 0.966232 16.1673 0.0591888C17.7511 -0.250877 19.2095 0.951733 19.2095 2.52618L19.2095 7.49387C19.2095 8.63623 18.4326 9.6096 17.3491 9.91425L17.32 9.92249C14.8543 10.6269 12.9339 12.6001 11.7157 16.3324C11.7152 16.3341 11.7146 16.3359 11.714 16.3376C11.0421 18.3699 10.7138 20.3575 10.7138 22.3074C10.7138 22.4779 10.7207 22.6009 10.7296 22.6844H16.3918C17.948 22.6844 19.2095 23.9282 19.2095 25.4624V39.222C19.2095 40.7563 17.948 42 16.3918 42H2.81771C1.26154 42 3.8147e-06 40.7562 3.8147e-06 39.222V25.4018ZM25.7136 25.4018C25.7136 19.2101 27.0334 13.6275 29.7118 8.69149L30.9937 9.36761L29.7119 8.69125C32.2903 3.94141 36.4304 1.04899 41.9884 0.0421333C43.5546 -0.2416 45 0.943657 45 2.51501V7.4722C45 8.63375 44.1963 9.62484 43.0785 9.9085C41.1172 10.4063 39.5729 11.6192 38.4341 13.7071L38.4032 13.7641C37.0991 16.1793 36.4274 18.9895 36.4274 22.2316C36.4274 22.3842 36.431 22.5349 36.4382 22.6844H42.45C43.8583 22.6844 45 23.81 45 25.1985V39.4859C45 40.8744 43.8583 42 42.45 42H28.2637C26.8553 42 25.7136 40.8744 25.7136 39.4859V25.4018ZM7.85851 23.1477C7.85854 23.1479 7.85859 23.1481 7.85862 23.1484C7.85856 23.1479 7.8585 23.1475 7.85843 23.147C7.85846 23.1472 7.85848 23.1475 7.85851 23.1477ZM7.85876 23.1493C7.85872 23.149 7.85868 23.1488 7.85864 23.1485C7.85868 23.1488 7.85872 23.149 7.85876 23.1493Z" fill="#7BBD93"/>
</svg>
