<svg width="74" height="74" viewBox="0 0 74 74" fill="none" xmlns="http://www.w3.org/2000/svg">
<path d="M62.1026 40.7405C61.4392 40.0439 60.812 39.3834 60.2165 38.7359V35.8973C61.4869 33.7857 62.1995 31.4371 62.3859 28.7257C62.4076 28.4135 62.2587 28.1143 61.9971 27.9409C59.1036 26.0359 55.7505 25.2121 52.0346 25.4939C51.7975 25.5113 51.5793 25.6255 51.429 25.809C51.2787 25.9926 51.2107 26.2296 51.2396 26.4652C51.2931 26.9031 51.3596 27.3367 51.4377 27.766C50.0097 27.5564 48.5629 28.0045 47.0555 29.1217C46.7332 29.3602 46.6161 29.7909 46.7751 30.1594C47.7348 32.3996 49.0861 34.3711 50.7945 36.0259V38.733C50.199 39.3805 49.5718 40.041 48.9084 40.7377C47.7637 41.9402 46.5814 43.1831 45.4555 44.4752C45.2488 44.3842 45.045 44.3032 44.8427 44.2295L34.4625 40.463V36.4104C36.087 34.8567 37.2273 32.8014 37.6349 30.4962H38.9314C41.8682 30.4962 44.2573 28.1071 44.2573 25.1702C44.2573 23.5269 43.5087 22.0541 42.3351 21.0771V14.6064C42.3351 12.8229 41.6399 11.1868 40.3767 9.99875C39.3375 9.02172 37.9934 8.41468 36.5293 8.25281C36.3356 6.94769 35.6823 5.72929 34.6431 4.75515C33.192 3.39656 30.2768 1.85152 24.6257 2.22007C20.5672 2.48312 17.2141 3.96457 14.9247 6.50109C12.8001 8.85695 11.6771 11.9875 11.6771 15.5545V21.0771C10.5035 22.0541 9.75484 23.5269 9.75484 25.1702C9.75484 28.1071 12.1439 30.4962 15.0808 30.4962H16.3787C16.7863 32.8014 17.9266 34.8552 19.5512 36.4104V40.2954L9.14926 44.2281C6.57516 45.1849 2.48926 48.0784 2.48926 51.7755V63.205C2.48926 63.6834 2.87805 64.0722 3.35645 64.0722H41.4679C44.1923 68.6929 49.4619 71.8321 55.5048 71.8321C64.3313 71.8321 71.5116 65.136 71.5116 56.9049C71.5116 50.6236 66.5137 45.3728 62.1026 40.7405ZM60.6139 29.1188C60.4058 31.242 59.8277 33.1064 58.8579 34.7902H55.9788C54.5003 32.4401 53.5507 29.9383 53.0954 27.1792C55.869 27.1228 58.3911 27.7732 60.6139 29.1188ZM58.4821 36.5246V38.3486H52.5274V36.5246H58.4821ZM48.6612 30.1262C49.8175 29.4122 50.8162 29.2691 51.8626 29.6579C52.3468 31.4544 53.0506 33.17 53.9626 34.7902H52.0114C50.6326 33.4547 49.5053 31.8909 48.6612 30.1262ZM20.2637 41.8838L25.4654 45.9755L19.4919 49.4471L17.123 43.0704L20.2637 41.8838ZM27.0046 47.0869L29.1206 48.3169L30.5428 62.3393H23.4636L24.854 48.3371L27.0046 47.0869ZM28.5641 45.987L33.7427 42.0514L36.8458 43.1773L34.5188 49.4471L28.5641 45.987ZM38.9299 28.7661H37.7968C37.7968 28.717 37.8011 28.6679 37.8011 28.6173V21.5829H38.9299C40.91 21.5829 42.5215 23.1945 42.5215 25.1745C42.5215 27.1546 40.91 28.7661 38.9299 28.7661ZM13.41 15.5589C13.41 10.3052 16.3859 4.49644 24.7355 3.95445C29.7695 3.62781 32.254 4.89968 33.4551 6.02414C34.357 6.86965 34.8527 7.95363 34.8527 9.07953C34.8527 9.55793 35.2415 9.94672 35.7199 9.94672C38.5007 9.94672 40.5978 11.9528 40.5978 14.6107V20.1188C40.0732 19.9454 39.5124 19.85 38.9299 19.85H37.1623L29.4183 15.4548C29.1119 15.2799 28.7289 15.3103 28.4514 15.53C25.2645 18.0549 21.4243 19.5075 17.0349 19.85H15.0779C14.4955 19.85 13.9347 19.9454 13.41 20.1188V15.5589ZM15.0779 28.7661C13.0979 28.7661 11.4863 27.1546 11.4863 25.1745C11.4863 23.1945 13.0979 21.5829 15.0779 21.5829H16.2067V28.6173C16.2067 28.6664 16.2096 28.7155 16.2111 28.7661H15.0779ZM17.9425 28.6173V21.5078C22.1542 21.0568 25.8889 19.626 29.0642 17.247L36.0668 21.2216V28.6173C36.0668 33.6137 32.0011 37.6794 27.0046 37.6794C22.0082 37.6794 17.9425 33.6152 17.9425 28.6173ZM27.0046 39.4137C29.1047 39.4137 31.066 38.8082 32.7266 37.7661V40.6437L27.0133 44.9869L21.2827 40.4775V37.7661C22.9419 38.8082 24.9032 39.4137 27.0046 39.4137ZM4.22363 51.7755C4.22363 49.1378 7.52328 46.6822 9.75773 45.8526L15.5014 43.6832L18.2244 51.0167C18.314 51.2566 18.5033 51.4445 18.7447 51.5312C18.8401 51.5659 18.9384 51.5818 19.0381 51.5818C19.1898 51.5818 19.3402 51.5428 19.4731 51.4648L23.0055 49.4124L21.722 62.3393H4.22363V51.7755ZM32.2858 62.3379L30.972 49.3922L34.5362 51.4633C34.6706 51.5414 34.8209 51.5804 34.9712 51.5804C35.0695 51.5804 35.1692 51.563 35.2646 51.5298C35.506 51.4431 35.6953 51.2552 35.7849 51.0153L38.4747 43.7685L44.2487 45.8642C44.2588 45.8685 44.2689 45.8729 44.279 45.8757C41.5994 49.1942 39.4979 52.832 39.4979 56.9049C39.4979 58.8214 39.8882 60.6541 40.5964 62.3393H32.2858V62.3379ZM55.5048 70.0977C47.635 70.0977 41.2323 64.1792 41.2323 56.9049C41.2323 51.3173 45.9773 46.3339 50.1629 41.9373C50.7743 41.2955 51.3538 40.6856 51.9117 40.0829H59.1007C59.6586 40.6856 60.2382 41.2955 60.8481 41.9373C65.0337 46.3339 69.7787 51.3173 69.7787 56.9049C69.7772 64.1792 63.3745 70.0977 55.5048 70.0977ZM59.5545 57.272C59.5545 59.0281 58.1945 60.5023 56.372 60.8882V62.8986C56.372 63.377 55.9832 63.7658 55.5048 63.7658C55.0264 63.7658 54.6376 63.377 54.6376 62.8986V60.9186C53.2024 60.6685 51.9955 59.7479 51.5114 58.4673C51.3423 58.0193 51.5677 57.5192 52.0158 57.3486C52.4638 57.1795 52.9639 57.405 53.1345 57.853C53.4466 58.6783 54.389 59.2536 55.4238 59.2536C56.7232 59.2536 57.8202 58.3459 57.8202 57.2706C57.8202 57.0278 57.7768 56.2198 57.2232 55.9987L55.2041 55.1937L53.5594 54.63C52.2817 54.1921 51.4564 52.9592 51.4564 51.4908C51.4564 49.7347 52.8165 48.2605 54.639 47.8746V45.8642C54.639 45.3858 55.0278 44.997 55.5062 44.997C55.9846 44.997 56.3734 45.3858 56.3734 45.8642V47.8443C57.8086 48.0943 59.014 49.015 59.4996 50.2941C59.6687 50.7421 59.4432 51.2422 58.9966 51.4127C58.5486 51.5833 58.0485 51.3564 57.878 50.9098C57.5658 50.0845 56.6234 49.5093 55.5886 49.5093C54.2893 49.5093 53.1923 50.4169 53.1923 51.4908C53.1923 52.0602 53.4365 52.754 54.123 52.9896L55.788 53.5605C55.8011 53.5648 55.8141 53.5706 55.8285 53.5749L57.8679 54.3872C58.9229 54.8121 59.5545 55.8889 59.5545 57.272Z" fill="black"/>
</svg>
