<svg width="74" height="75" viewBox="0 0 74 75" fill="none" xmlns="http://www.w3.org/2000/svg">
<path d="M21.6797 44.0707C21.6797 44.5833 21.2883 44.9933 20.8125 44.9933C20.3307 44.9933 19.9453 44.5769 19.9453 44.0707V21.4715H1.73438V67.0159H4.73942C5.22119 67.0159 5.60661 67.4323 5.60661 67.9385C5.60661 68.4511 5.21517 68.8612 4.73942 68.8612H0.867188C0.385417 68.8612 0 68.4447 0 67.9385V20.9781C0 20.6065 0.144531 20.2669 0.373372 20.017C0.602214 19.7735 0.921387 19.6197 1.27669 19.6197H19.9453V1.62109C19.9453 1.17898 20.1139 0.768898 20.391 0.480561V0.474154C20.668 0.179409 21.0474 0 21.4689 0H52.3926C52.8141 0 53.1935 0.179409 53.4705 0.474154L53.5368 0.551043C53.7716 0.83938 53.9222 1.21101 53.9222 1.62109V19.6197H72.7233C73.0726 19.6197 73.3918 19.7735 73.6206 20.017L73.6266 20.0234C73.8555 20.2669 74 20.6065 74 20.9781V67.9385C74 68.4511 73.6086 68.8612 73.1328 68.8612H67.6286C67.1468 68.8612 66.7614 68.4447 66.7614 67.9385C66.7614 67.4259 67.1528 67.0159 67.6286 67.0159H72.2656V21.4715H53.9162V43.8015C53.9162 44.3141 53.5247 44.7242 53.049 44.7242C52.5672 44.7242 52.1818 44.3077 52.1818 43.8015V1.84535H21.6797V44.0707ZM58.505 43.9169H68.0802C68.1585 43.9169 68.2248 43.9681 68.2248 44.0258V47.0373C68.2248 47.1014 68.1585 47.1527 68.0802 47.1527H58.505C58.4268 47.1527 58.3605 47.1014 58.3605 47.0373V44.0258C58.3605 43.9681 58.4268 43.9169 58.505 43.9169ZM5.84749 43.9169H15.4227C15.501 43.9169 15.5672 43.9681 15.5672 44.0258V47.0373C15.5672 47.1014 15.501 47.1527 15.4227 47.1527H5.84749C5.76921 47.1527 5.70296 47.1014 5.70296 47.0373V44.0258C5.70296 43.9681 5.76921 43.9169 5.84749 43.9169ZM25.57 5.42714H48.2975C48.6769 5.42714 48.9901 5.76033 48.9901 6.164V14.0516C48.9901 14.4553 48.6769 14.7885 48.2975 14.7885H25.57C25.1906 14.7885 24.8774 14.4553 24.8774 14.0516V6.164C24.8714 5.76033 25.1846 5.42714 25.57 5.42714ZM58.6556 67.2914C58.0233 65.9394 57.2223 64.7925 56.2829 63.716C58.0413 64.44 59.842 65.1577 61.1729 66.0483C63.5938 67.663 63.7744 69.6173 63.9731 72.4238H51.971C51.971 72.4045 51.971 72.3789 51.971 72.3597L51.7482 70.3542L52.6094 71.1487L56.8249 67.2465L58.6556 67.2914ZM15.7057 64.1261L17.2293 68.8932L17.9941 66.0611L17.6208 65.6254C17.4521 65.3627 17.416 65.1321 17.5063 64.9334C17.7111 64.5041 18.1327 64.5874 18.5241 64.5874C18.9336 64.5874 19.4455 64.5041 19.5719 65.0552C19.6141 65.241 19.5599 65.4332 19.4395 65.6318L19.0661 66.0675L19.8309 68.8997L21.21 64.1325C21.4087 64.3247 21.6917 64.4849 22.0169 64.6259C21.9025 64.8822 21.8001 65.1449 21.7098 65.4268C21.4749 66.1508 21.3244 66.9518 21.2581 67.8424H21.2642C21.2642 67.8616 21.2642 67.8873 21.2581 67.9065L20.9269 72.4302H9.90039C9.23796 72.3789 8.90072 72.0137 8.84652 71.3858L9.07536 68.8868C9.1416 67.9962 9.37647 67.2978 9.75586 66.7596C10.0088 66.4071 10.3219 66.1444 10.6652 65.9394C11.7612 65.2666 14.7121 65.0808 15.7057 64.1261ZM14.959 57.3662C14.8084 57.379 14.7 57.4174 14.6157 57.4687C14.5675 57.5007 14.5374 57.5456 14.5133 57.5969C14.4893 57.6545 14.4772 57.7314 14.4772 57.8147C14.4832 58.0774 14.6157 58.4298 14.8747 58.8335L14.8807 58.8399L15.7298 60.2816C16.0671 60.8583 16.4284 61.4413 16.862 61.8706C17.2775 62.2743 17.7894 62.5498 18.4578 62.5562C19.1865 62.5562 19.7165 62.2743 20.1501 61.845C20.6017 61.3965 20.9631 60.7686 21.3184 60.147L22.2759 58.4683C22.4686 58.0005 22.5288 57.7186 22.4686 57.584C22.4325 57.5007 22.2699 57.4815 22.0109 57.5007C21.8423 57.5392 21.6737 57.5071 21.487 57.4046L21.9627 55.8797C20.2103 55.854 19.0059 55.5336 17.5907 54.5661C17.127 54.2522 16.9824 53.8869 16.5187 53.919C16.1634 53.9894 15.8683 54.1624 15.6335 54.4316C15.4046 54.6879 15.236 55.0403 15.1276 55.4952L15.4106 57.3277C15.2601 57.4239 15.1095 57.4303 14.959 57.3662ZM22.5529 56.9113C22.7577 56.9753 22.9082 57.1035 23.0046 57.2957C23.1491 57.6097 23.0949 58.071 22.8239 58.7246C22.8179 58.7374 22.8118 58.7502 22.8058 58.763L21.8363 60.461C21.4629 61.121 21.0775 61.7809 20.5656 62.2935C20.0296 62.8254 19.3732 63.1778 18.4699 63.1778C17.6268 63.1778 16.9945 62.8318 16.4766 62.3256C15.9767 61.8386 15.5973 61.2171 15.242 60.6084L14.3929 59.1667C14.0737 58.6605 13.9111 58.1992 13.8991 57.8211C13.8931 57.6353 13.9232 57.4687 13.9894 57.3213C14.0557 57.1676 14.1641 57.033 14.3026 56.9369C14.3688 56.8856 14.4471 56.8472 14.5374 56.8151C14.4832 56.0462 14.4652 55.0915 14.5013 54.2842C14.5194 54.0856 14.5555 53.8933 14.6037 53.6947C14.8205 52.8681 15.3685 52.2018 16.043 51.7468C16.2839 51.5866 16.5428 51.4521 16.8198 51.3432C18.4578 50.7152 20.6258 51.0548 21.7881 52.394C22.2638 52.9386 22.5589 53.6627 22.6191 54.6174L22.5529 56.9113ZM31.1224 50.5294C30.9297 50.555 30.7852 50.6063 30.6768 50.6768C30.6045 50.728 30.5563 50.7921 30.5262 50.8626C30.4901 50.9523 30.472 51.0612 30.472 51.183C30.484 51.5738 30.6828 52.0992 31.0622 52.7015L31.0682 52.7144L32.3389 54.8673C32.8447 55.7259 33.3747 56.5973 34.0311 57.238C34.6574 57.8467 35.4102 58.2568 36.4098 58.2568C37.4938 58.2568 38.2887 57.8339 38.9271 57.1932C39.6016 56.5204 40.1436 55.5913 40.6675 54.6622L42.0947 52.1633C42.3838 51.4649 42.4681 51.042 42.3778 50.8498C42.3175 50.7216 42.0706 50.6896 41.6491 50.7344C41.619 50.7344 41.5828 50.7344 41.5527 50.7344C41.3781 50.7344 41.1914 50.6896 40.9806 50.5871L41.625 48.306C39.0054 48.274 37.2168 47.787 35.097 46.3453C34.3984 45.8712 34.1937 45.3329 33.4951 45.3842C32.9712 45.4931 32.5256 45.743 32.1763 46.1467C31.839 46.5311 31.5861 47.0565 31.4175 47.7357L31.8691 50.4974C31.6102 50.6255 31.3573 50.6383 31.1224 50.5294ZM32.3027 60.6084L34.5791 67.7271L35.7233 63.5046L35.1632 62.851C34.9103 62.4601 34.8561 62.1141 34.9946 61.8194C35.2957 61.1786 35.9281 61.3004 36.5122 61.3004C37.1265 61.3004 37.8853 61.1786 38.078 61.9924C38.1442 62.2679 38.0599 62.5498 37.8792 62.851L37.3192 63.5046L38.4634 67.7271L40.523 60.6084C42.0104 62.0308 45.8345 62.3192 47.4725 63.2867C47.9181 63.5494 48.3216 63.8762 48.6649 64.2927C48.6709 64.2478 48.6829 64.1966 48.707 64.1581C48.8877 63.7801 49.2611 63.8506 49.6104 63.8506C49.9777 63.8506 50.4294 63.7801 50.5438 64.267C50.5799 64.4272 50.5317 64.6002 50.4294 64.7796L50.0981 65.1705L50.7786 67.6822L49.9054 68.4191L50.1945 72.4494C50.1102 73.3913 49.6104 73.9295 48.6227 74.0128H24.209C23.2214 73.9295 22.7215 73.3913 22.6372 72.4494L22.9805 67.7015C23.0768 66.3751 23.4261 65.3243 23.9982 64.5233C24.3716 63.9979 24.8413 63.6071 25.3592 63.2995C26.9912 62.3192 30.8153 62.0308 32.3027 60.6084ZM42.5163 49.8438C42.8234 49.9399 43.0522 50.1257 43.1908 50.4205C43.4076 50.8882 43.3232 51.5738 42.9198 52.5542C42.9137 52.5734 42.9017 52.5926 42.8957 52.6118L41.4443 55.1492C40.8843 56.1359 40.3122 57.1163 39.5474 57.8788C38.7464 58.6733 37.7648 59.2051 36.4219 59.1987C35.1632 59.1987 34.2178 58.6861 33.4409 57.93C32.6942 57.206 32.1341 56.2769 31.5921 55.3671L30.3215 53.2141C29.8457 52.4645 29.6048 51.7725 29.5868 51.2022C29.5807 50.9267 29.6229 50.6768 29.7192 50.4589C29.8216 50.2283 29.9782 50.0296 30.189 49.8822C30.2913 49.8054 30.4118 49.7477 30.5382 49.6964C30.46 48.5431 30.4359 47.1206 30.484 45.9224C30.5142 45.6277 30.5623 45.3393 30.6406 45.0446C30.9658 43.808 31.7788 42.8148 32.7905 42.1356C33.1458 41.8921 33.5373 41.6935 33.9468 41.5397C36.3857 40.5978 39.6257 41.1104 41.36 43.1095C42.0646 43.9233 42.5103 44.9997 42.6066 46.4222L42.5163 49.8438ZM46.9305 61.5951L48.0506 61.5631L48.984 61.5375C47.9001 57.9813 48.2614 54.7135 50.875 51.9326C51.3206 53.4576 52.3143 54.7199 54.0065 55.649C54.8135 56.2897 55.5964 57.0586 56.3551 57.9493C56.4876 57.3598 55.9757 56.6485 55.3555 55.9117C55.9276 56.2128 56.4575 56.6357 56.8309 57.4495C57.2645 58.3914 57.2585 59.1859 57.1139 60.2111C57.0477 60.6853 56.9393 61.1338 56.7827 61.5375H58.3304C59.9624 57.8211 58.9266 52.3043 55.5903 49.9655C54.5666 49.2479 53.8319 49.2735 52.6274 49.2735C51.2544 49.2735 50.5498 49.3184 49.3695 50.1514C47.6351 51.3752 46.5632 53.4897 46.1175 56.4243C46.0272 57.8916 45.967 60.4226 46.9305 61.5951ZM58.505 37.3364H68.0802C68.1585 37.3364 68.2248 37.3877 68.2248 37.4517V40.4632C68.2248 40.5273 68.1585 40.5786 68.0802 40.5786H58.505C58.4268 40.5786 58.3605 40.5273 58.3605 40.4632V37.4517C58.3605 37.3877 58.4268 37.3364 58.505 37.3364ZM58.505 30.7495H68.0802C68.1585 30.7495 68.2248 30.8008 68.2248 30.8648V33.8764C68.2248 33.9404 68.1585 33.9917 68.0802 33.9917H58.505C58.4268 33.9917 58.3605 33.9404 58.3605 33.8764V30.8648C58.3605 30.8008 58.4268 30.7495 58.505 30.7495ZM5.84749 37.3364H15.4227C15.501 37.3364 15.5672 37.3877 15.5672 37.4517V40.4632C15.5672 40.5273 15.501 40.5786 15.4227 40.5786H5.84749C5.76921 40.5786 5.70296 40.5273 5.70296 40.4632V37.4517C5.70296 37.3877 5.76921 37.3364 5.84749 37.3364ZM5.84749 30.7495H15.4227C15.501 30.7495 15.5672 30.8008 15.5672 30.8648V33.8764C15.5672 33.9404 15.501 33.9917 15.4227 33.9917H5.84749C5.76921 33.9917 5.70296 33.9404 5.70296 33.8764V30.8648C5.70296 30.8008 5.76921 30.7495 5.84749 30.7495ZM43.1606 31.4479H48.2734C48.3517 31.4479 48.418 31.5184 48.418 31.6017V37.0417C48.418 37.125 48.3517 37.1954 48.2734 37.1954H43.1606C43.0824 37.1954 43.0161 37.125 43.0161 37.0417V31.6017C43.0161 31.5184 43.0824 31.4479 43.1606 31.4479ZM34.3744 31.4479H39.4871C39.5654 31.4479 39.6317 31.5184 39.6317 31.6017V37.0417C39.6317 37.125 39.5654 37.1954 39.4871 37.1954H34.3744C34.2961 37.1954 34.2298 37.125 34.2298 37.0417V31.6017C34.2298 31.5184 34.2961 31.4479 34.3744 31.4479ZM25.5881 31.4479H30.7008C30.7791 31.4479 30.8454 31.5184 30.8454 31.6017V37.0417C30.8454 37.125 30.7791 37.1954 30.7008 37.1954H25.5881C25.5098 37.1954 25.4435 37.125 25.4435 37.0417V31.6017C25.4435 31.5184 25.5098 31.4479 25.5881 31.4479ZM43.1606 20.8948H48.2734C48.3517 20.8948 48.418 20.9653 48.418 21.0486V26.4885C48.418 26.5718 48.3517 26.6423 48.2734 26.6423H43.1606C43.0824 26.6423 43.0161 26.5718 43.0161 26.4885V21.0486C43.0161 20.9589 43.0824 20.8948 43.1606 20.8948ZM34.3744 20.8948H39.4871C39.5654 20.8948 39.6317 20.9653 39.6317 21.0486V26.4885C39.6317 26.5718 39.5654 26.6423 39.4871 26.6423H34.3744C34.2961 26.6423 34.2298 26.5718 34.2298 26.4885V21.0486C34.2298 20.9589 34.2961 20.8948 34.3744 20.8948ZM25.5881 20.8948H30.7008C30.7791 20.8948 30.8454 20.9653 30.8454 21.0486V26.4885C30.8454 26.5718 30.7791 26.6423 30.7008 26.6423H25.5881C25.5098 26.6423 25.4435 26.5718 25.4435 26.4885V21.0486C25.4435 20.9589 25.5098 20.8948 25.5881 20.8948Z" fill="#1B3F2E"/>
</svg>
