<svg width="74" height="74" viewBox="0 0 74 74" fill="none" xmlns="http://www.w3.org/2000/svg">
<path d="M12.7188 38.1562V49.7188H15.0312V39.3125H26.5938V47.4062H28.9062V26.5938H45.0938V47.4062H47.4062V39.3125H58.9688V49.7188H61.2812V38.1562C61.2812 37.8496 61.1594 37.5555 60.9426 37.3387C60.7258 37.1218 60.4317 37 60.125 37H47.4062V25.4375C47.4062 25.1308 47.2844 24.8367 47.0676 24.6199C46.8508 24.4031 46.5567 24.2812 46.25 24.2812H27.75C27.4433 24.2812 27.1492 24.4031 26.9324 24.6199C26.7156 24.8367 26.5938 25.1308 26.5938 25.4375V37H13.875C13.5683 37 13.2742 37.1218 13.0574 37.3387C12.8406 37.5555 12.7188 37.8496 12.7188 38.1562Z" fill="#147E5D"/>
<path d="M63.825 59.2C64.4759 58.674 64.9477 57.9591 65.1754 57.1539C65.4031 56.3486 65.3756 55.4925 65.0967 54.7035C64.8177 53.9145 64.301 53.2314 63.6177 52.7483C62.9344 52.2651 62.1181 52.0057 61.2812 52.0057C60.4444 52.0057 59.6281 52.2651 58.9448 52.7483C58.2615 53.2314 57.7448 53.9145 57.4658 54.7035C57.1869 55.4925 57.1594 56.3486 57.3871 57.1539C57.6148 57.9591 58.0866 58.674 58.7375 59.2C58.0126 59.4223 57.3535 59.8194 56.8181 60.3563C56.0523 59.2311 54.914 58.4122 53.6038 58.0438C54.3915 57.4682 54.977 56.6582 55.2766 55.7297C55.5761 54.8012 55.5744 53.8018 55.2717 52.8743C54.9689 51.9469 54.3806 51.1389 53.5909 50.566C52.8013 49.9931 51.8506 49.6845 50.875 49.6845C49.8994 49.6845 48.9487 49.9931 48.1591 50.566C47.3694 51.1389 46.7811 51.9469 46.4783 52.8743C46.1756 53.8018 46.1739 54.8012 46.4734 55.7297C46.773 56.6582 47.3585 57.4682 48.1462 58.0438C47.3401 58.2686 46.5911 58.6628 45.9494 59.2C45.5637 57.9477 44.8312 56.8302 43.8367 55.9769C42.8422 55.1236 41.6264 54.5694 40.33 54.3785C41.3339 53.6711 42.0864 52.6625 42.4786 51.4987C42.8707 50.335 42.8821 49.0766 42.5111 47.906C42.1401 46.7353 41.4059 45.7132 40.4151 44.9878C39.4242 44.2624 38.228 43.8713 37 43.8713C35.772 43.8713 34.5758 44.2624 33.5849 44.9878C32.5941 45.7132 31.8599 46.7353 31.4889 47.906C31.1179 49.0766 31.1293 50.335 31.5214 51.4987C31.9136 52.6625 32.6661 53.6711 33.67 54.3785C32.3736 54.5694 31.1578 55.1236 30.1633 55.9769C29.1688 56.8302 28.4363 57.9477 28.0506 59.2C27.4089 58.6628 26.6599 58.2686 25.8538 58.0438C26.6415 57.4682 27.227 56.6582 27.5266 55.7297C27.8261 54.8012 27.8244 53.8018 27.5217 52.8743C27.2189 51.9469 26.6306 51.1389 25.8409 50.566C25.0513 49.9931 24.1006 49.6845 23.125 49.6845C22.1494 49.6845 21.1987 49.9931 20.4091 50.566C19.6194 51.1389 19.0311 51.9469 18.7283 52.8743C18.4256 53.8018 18.4239 54.8012 18.7234 55.7297C19.023 56.6582 19.6085 57.4682 20.3962 58.0438C19.086 58.4122 17.9477 59.2311 17.1819 60.3563C16.6465 59.8194 15.9874 59.4223 15.2625 59.2C15.9134 58.674 16.3852 57.9591 16.6129 57.1539C16.8406 56.3486 16.8131 55.4925 16.5342 54.7035C16.2552 53.9145 15.7385 53.2314 15.0552 52.7483C14.3719 52.2651 13.5556 52.0057 12.7188 52.0057C11.8819 52.0057 11.0656 52.2651 10.3823 52.7483C9.69902 53.2314 9.18232 53.9145 8.90335 54.7035C8.62438 55.4925 8.59687 56.3486 8.82461 57.1539C9.05235 57.9591 9.52413 58.674 10.175 59.2C9.23911 59.4943 8.42105 60.0786 7.83908 60.8685C7.25711 61.6583 6.94137 62.6127 6.9375 63.5938V69.375C6.9375 69.6817 7.05932 69.9758 7.27616 70.1926C7.493 70.4095 7.78709 70.5313 8.09375 70.5313H16.1875C16.1875 70.8379 16.3093 71.132 16.5262 71.3489C16.743 71.5657 17.0371 71.6875 17.3438 71.6875H27.75C27.75 71.9942 27.8718 72.2883 28.0887 72.5051C28.3055 72.722 28.5996 72.8438 28.9062 72.8438H45.0938C45.4004 72.8438 45.6945 72.722 45.9113 72.5051C46.1282 72.2883 46.25 71.9942 46.25 71.6875H56.6562C56.9629 71.6875 57.257 71.5657 57.4738 71.3489C57.6907 71.132 57.8125 70.8379 57.8125 70.5313H65.9062C66.2129 70.5313 66.507 70.4095 66.7238 70.1926C66.9407 69.9758 67.0625 69.6817 67.0625 69.375V63.5938C67.0586 62.6127 66.7429 61.6583 66.1609 60.8685C65.5789 60.0786 64.7609 59.4943 63.825 59.2ZM12.7188 54.3438C13.0618 54.3438 13.3971 54.4455 13.6823 54.6361C13.9675 54.8267 14.1898 55.0975 14.3211 55.4144C14.4524 55.7314 14.4867 56.0801 14.4198 56.4165C14.3529 56.753 14.1877 57.062 13.9451 57.3045C13.7026 57.5471 13.3935 57.7123 13.0571 57.7792C12.7207 57.8461 12.3719 57.8118 12.055 57.6805C11.7381 57.5492 11.4672 57.3269 11.2767 57.0417C11.0861 56.7565 10.9844 56.4212 10.9844 56.0782C10.9844 55.6182 11.1671 55.177 11.4924 54.8518C11.8176 54.5265 12.2588 54.3438 12.7188 54.3438ZM16.1875 68.2188H9.25V63.5938C9.25 62.9805 9.49364 62.3923 9.92732 61.9586C10.361 61.5249 10.9492 61.2813 11.5625 61.2813H13.875C14.4883 61.2813 15.0765 61.5249 15.5102 61.9586C15.9439 62.3923 16.1875 62.9805 16.1875 63.5938V68.2188ZM23.125 52.0313C23.5824 52.0313 24.0295 52.1669 24.4098 52.421C24.79 52.6751 25.0864 53.0363 25.2615 53.4588C25.4365 53.8814 25.4823 54.3463 25.3931 54.7949C25.3038 55.2435 25.0836 55.6556 24.7602 55.979C24.4368 56.3024 24.0247 56.5226 23.5761 56.6118C23.1276 56.7011 22.6626 56.6553 22.24 56.4803C21.8175 56.3052 21.4563 56.0088 21.2022 55.6285C20.9481 55.2482 20.8125 54.8011 20.8125 54.3438C20.8125 53.7305 21.0561 53.1423 21.4898 52.7086C21.9235 52.2749 22.5117 52.0313 23.125 52.0313ZM27.75 69.375H18.5V63.5938C18.5 62.6738 18.8655 61.7915 19.516 61.141C20.1665 60.4905 21.0488 60.125 21.9688 60.125H24.2812C25.2012 60.125 26.0835 60.4905 26.734 61.141C27.3845 61.7915 27.75 62.6738 27.75 63.5938V69.375ZM33.5312 49.7188C33.5312 49.0327 33.7347 48.3621 34.1158 47.7916C34.497 47.2212 35.0387 46.7766 35.6726 46.5141C36.3064 46.2515 37.0038 46.1828 37.6767 46.3167C38.3496 46.4505 38.9677 46.7809 39.4528 47.266C39.9379 47.7511 40.2683 48.3692 40.4021 49.0421C40.5359 49.7149 40.4672 50.4124 40.2047 51.0462C39.9422 51.68 39.4976 52.2218 38.9271 52.6029C38.3567 52.9841 37.6861 53.1875 37 53.1875C36.08 53.1875 35.1977 52.8221 34.5472 52.1716C33.8967 51.521 33.5312 50.6387 33.5312 49.7188ZM43.9375 70.5313H30.0625V61.2813C30.0625 60.0547 30.5498 58.8783 31.4171 58.0109C32.2845 57.1436 33.4609 56.6563 34.6875 56.6563H39.3125C40.5391 56.6563 41.7155 57.1436 42.5829 58.0109C43.4502 58.8783 43.9375 60.0547 43.9375 61.2813V70.5313ZM50.875 52.0313C51.3324 52.0313 51.7795 52.1669 52.1598 52.421C52.54 52.6751 52.8364 53.0363 53.0115 53.4588C53.1865 53.8814 53.2323 54.3463 53.1431 54.7949C53.0538 55.2435 52.8336 55.6556 52.5102 55.979C52.1868 56.3024 51.7747 56.5226 51.3261 56.6118C50.8776 56.7011 50.4126 56.6553 49.99 56.4803C49.5675 56.3052 49.2063 56.0088 48.9522 55.6285C48.6981 55.2482 48.5625 54.8011 48.5625 54.3438C48.5625 53.7305 48.8061 53.1423 49.2398 52.7086C49.6735 52.2749 50.2617 52.0313 50.875 52.0313ZM55.5 69.375H46.25V63.5938C46.25 62.6738 46.6155 61.7915 47.266 61.141C47.9165 60.4905 48.7988 60.125 49.7188 60.125H52.0312C52.9512 60.125 53.8335 60.4905 54.484 61.141C55.1345 61.7915 55.5 62.6738 55.5 63.5938V69.375ZM61.2812 54.3438C61.6243 54.3438 61.9596 54.4455 62.2448 54.6361C62.53 54.8267 62.7523 55.0975 62.8836 55.4144C63.0149 55.7314 63.0492 56.0801 62.9823 56.4165C62.9154 56.753 62.7502 57.062 62.5076 57.3045C62.2651 57.5471 61.956 57.7123 61.6196 57.7792C61.2832 57.8461 60.9344 57.8118 60.6175 57.6805C60.3006 57.5492 60.0297 57.3269 59.8392 57.0417C59.6486 56.7565 59.5469 56.4212 59.5469 56.0782C59.5469 55.6182 59.7296 55.177 60.0549 54.8518C60.3801 54.5265 60.8213 54.3438 61.2812 54.3438ZM64.75 68.2188H57.8125V63.5938C57.8125 62.9805 58.0561 62.3923 58.4898 61.9586C58.9235 61.5249 59.5117 61.2813 60.125 61.2813H62.4375C63.0508 61.2813 63.639 61.5249 64.0727 61.9586C64.5064 62.3923 64.75 62.9805 64.75 63.5938V68.2188Z" fill="#147E5D"/>
<path d="M31.7969 30.0625H35.2656V33.5312H31.7969V30.0625Z" fill="#147E5D"/>
<path d="M38.7344 30.0625H42.2031V33.5312H38.7344V30.0625Z" fill="#147E5D"/>
<path d="M31.7969 37H35.2656V40.4688H31.7969V37Z" fill="#147E5D"/>
<path d="M38.7344 37H42.2031V40.4688H38.7344V37Z" fill="#147E5D"/>
<path d="M49.7188 42.7812H52.0312V45.0938H49.7188V42.7812Z" fill="#147E5D"/>
<path d="M54.3438 42.7812H56.6562V45.0938H54.3438V42.7812Z" fill="#147E5D"/>
<path d="M17.3438 42.7812H19.6562V45.0938H17.3438V42.7812Z" fill="#147E5D"/>
<path d="M21.9688 42.7812H24.2812V45.0938H21.9688V42.7812Z" fill="#147E5D"/>
<path d="M37 13.875C42.5198 13.875 47.8136 16.0677 51.7167 19.9708C55.6198 23.8739 57.8125 29.1677 57.8125 34.6875H60.125C60.125 28.5544 57.6886 22.6724 53.3518 18.3357C49.0151 13.9989 43.1331 11.5625 37 11.5625C30.8669 11.5625 24.9849 13.9989 20.6482 18.3357C16.3114 22.6724 13.875 28.5544 13.875 34.6875H16.1875C16.1875 29.1677 18.3802 23.8739 22.2833 19.9708C26.1864 16.0677 31.4802 13.875 37 13.875Z" fill="#147E5D"/>
<path d="M69.8834 27.4031L67.8947 21.2634C67.8082 20.9849 67.6677 20.7262 67.4812 20.502C67.2947 20.2778 67.0659 20.0926 66.8078 19.9569C66.2698 19.6866 65.6476 19.6368 65.0734 19.8181L62.6222 20.6622C61.4572 18.4927 59.9851 16.5027 58.2516 14.7537L59.8241 12.58C60.1529 12.0937 60.2845 11.5006 60.1922 10.9208C60.0999 10.3411 59.7905 9.81819 59.3269 9.45813L54.0891 5.65406C53.6084 5.30804 53.0105 5.16613 52.4256 5.25927C51.8408 5.35241 51.3165 5.67305 50.9672 6.15125L49.4872 8.27875C47.2631 7.21402 44.9006 6.46673 42.4687 6.05875V3.38781C42.4657 2.7969 42.2296 2.23106 41.8118 1.81322C41.3939 1.39537 40.8281 1.15929 40.2372 1.15625H33.7622C33.1713 1.15929 32.6054 1.39537 32.1876 1.81322C31.7697 2.23106 31.5337 2.7969 31.5306 3.38781V5.97781C29.1218 6.42232 26.7868 7.20065 24.5931 8.29031L23.0322 6.16281C22.861 5.92388 22.6444 5.72111 22.3946 5.56615C22.1449 5.41118 21.867 5.30707 21.5769 5.2598C21.2869 5.21253 20.9903 5.22302 20.7043 5.29068C20.4183 5.35834 20.1485 5.48183 19.9103 5.65406L14.6725 9.46969C14.2088 9.82975 13.8995 10.3527 13.8072 10.9324C13.7148 11.5121 13.8464 12.1053 14.1753 12.5916L15.7362 14.6497C14.0372 16.4337 12.6006 18.4503 11.4697 20.6391L8.92593 19.8181C8.35179 19.6368 7.72957 19.6866 7.19156 19.9569C6.93675 20.0896 6.71062 20.2713 6.52611 20.4915C6.34159 20.7118 6.20231 20.9662 6.11624 21.2403L4.11593 27.4031C4.02373 27.6817 3.98738 27.9758 4.00898 28.2685C4.03058 28.5612 4.1097 28.8467 4.2418 29.1088C4.3739 29.3708 4.5564 29.6043 4.77884 29.7957C5.00128 29.9871 5.2593 30.1328 5.53812 30.2244L8.02406 30.9759C7.86352 32.2066 7.78242 33.4464 7.78124 34.6875C7.77405 35.9085 7.87855 37.1277 8.09343 38.3297L5.54968 39.1506C5.26982 39.241 5.01059 39.3858 4.7869 39.5768C4.5632 39.7677 4.37945 40.001 4.24621 40.2631C4.11297 40.5253 4.03287 40.8113 4.01051 41.1045C3.98815 41.3978 4.02398 41.6925 4.11593 41.9719L6.11624 48.1347L8.31312 47.4062L6.25499 41.3475L8.79874 40.5266C9.2849 40.3653 9.70078 40.0417 9.97658 39.6101C10.2524 39.1785 10.3713 38.6652 10.3134 38.1562C10.0206 35.8917 10.0206 33.5989 10.3134 31.3344C10.3856 30.8163 10.2734 30.2893 9.99656 29.8455C9.71971 29.4017 9.29576 29.0693 8.79874 28.9062L6.31281 28.1778L8.28999 22.0959L10.7528 22.8937C11.2506 23.0543 11.7888 23.0358 12.2744 22.8416C12.76 22.6474 13.1624 22.2895 13.4122 21.83C14.4956 19.7809 15.8446 17.8837 17.4244 16.1875C17.7818 15.8097 17.9968 15.3194 18.0327 14.8006C18.0686 14.2817 17.923 13.7665 17.6209 13.3431L16.0369 11.3313L21.1591 7.51562L22.7316 9.67781C23.0412 10.0982 23.4885 10.3967 23.9955 10.5213C24.5026 10.646 25.0373 10.5889 25.5066 10.36C27.5764 9.38787 29.7593 8.6771 32.0047 8.24406C32.5192 8.15429 32.9857 7.88595 33.3219 7.48625C33.6582 7.08655 33.8427 6.58108 33.8431 6.05875L33.7622 3.46875L40.1562 3.38781V6.05875C40.1561 6.57941 40.3391 7.08355 40.673 7.48301C41.007 7.88248 41.4707 8.15186 41.9831 8.24406C44.2315 8.68845 46.4148 9.41492 48.4812 10.4062C48.9523 10.6359 49.4888 10.6935 49.9978 10.5689C50.5068 10.4443 50.9562 10.1454 51.2678 9.72406L52.7247 7.52719L57.9509 11.2272L56.3784 13.3894C56.0858 13.8183 55.946 14.3333 55.9817 14.8514C56.0173 15.3695 56.2263 15.8605 56.575 16.2453C58.1498 17.903 59.4988 19.7614 60.5872 21.7722C60.8369 22.2317 61.2394 22.5895 61.725 22.7838C62.2106 22.978 62.7488 22.9965 63.2466 22.8359L65.7094 22.0381L67.7444 28.0275L65.2006 28.8484C64.7036 29.0115 64.2796 29.3439 64.0028 29.7877C63.7259 30.2315 63.6138 30.7585 63.6859 31.2766C63.9788 33.5411 63.9788 35.8339 63.6859 38.0984C63.6138 38.6165 63.7259 39.1435 64.0028 39.5873C64.2796 40.0311 64.7036 40.3635 65.2006 40.5266L67.6866 41.255L65.6862 47.4062L67.8831 48.1231L69.8834 41.9603C69.9756 41.6817 70.012 41.3876 69.9904 41.095C69.9688 40.8023 69.8897 40.5167 69.7576 40.2547C69.6255 39.9926 69.443 39.7592 69.2205 39.5678C68.9981 39.3763 68.7401 39.2306 68.4612 39.1391L65.9753 38.3875C66.1353 37.1606 66.2164 35.9248 66.2181 34.6875C66.2253 33.4665 66.1208 32.2473 65.9059 31.0453L68.4497 30.2244C68.7295 30.134 68.9888 29.9892 69.2125 29.7982C69.4362 29.6073 69.6199 29.374 69.7532 29.1119C69.8864 28.8497 69.9665 28.5637 69.9888 28.2705C70.0112 27.9772 69.9754 27.6825 69.8834 27.4031Z" fill="#147E5D"/>
</svg>
