<svg width="74" height="74" viewBox="0 0 74 74" fill="none" xmlns="http://www.w3.org/2000/svg">
<path d="M38.1563 48.8218V46.113C37.6626 46.0502 37.1779 45.9935 36.7234 45.9405C36.4325 45.9066 36.1393 45.8721 35.8438 45.8369V48.462C36.4807 48.5726 37.1054 48.6656 37.6289 48.743C37.7985 48.7681 37.9758 48.7946 38.1563 48.8218Z" fill="black"/>
<path d="M38.1563 57.4343V55.8436C37.6499 55.7603 37.13 55.6824 36.6133 55.606C36.3589 55.5684 36.1024 55.53 35.8438 55.491V56.8761C36.4674 57.0426 37.0958 57.1883 37.6075 57.3065C37.7829 57.347 37.9675 57.3899 38.1563 57.4343Z" fill="black"/>
<path d="M35.8438 64.0193V65.1975C36.4231 65.3361 37.1414 65.4564 37.6549 65.5421C37.8101 65.5681 37.9785 65.5963 38.1563 65.6273V64.5981C37.5999 64.4403 36.9104 64.2659 36.0464 64.0663C35.9794 64.0508 35.9111 64.0349 35.8438 64.0193Z" fill="black"/>
<path d="M35.8438 72.271V72.8437C35.8438 73.1504 35.9656 73.4445 36.1824 73.6613C36.3992 73.8782 36.6933 74 37 74C37.3067 74 37.6008 73.8782 37.8176 73.6613C38.0344 73.4445 38.1563 73.1504 38.1563 72.8437V72.6915C37.6157 72.5695 36.9766 72.4624 36.5111 72.3847C36.2933 72.3483 36.0696 72.3104 35.8438 72.271Z" fill="black"/>
<path d="M29.1699 43.5134C28.8717 43.4418 28.5574 43.4916 28.296 43.6516C28.0345 43.8117 27.8472 44.069 27.7754 44.367C27.2294 46.6377 27.4253 48.4252 28.3749 49.831C30.0393 52.2959 33.5532 52.8153 36.9508 53.3184C42.2934 54.1088 44.5912 54.8026 44.1802 58.1268C44.1428 58.4312 44.2277 58.738 44.4164 58.9798C44.605 59.2216 44.8819 59.3786 45.1863 59.4163C45.2339 59.422 45.2818 59.4248 45.3297 59.4248C45.6115 59.4242 45.8834 59.3208 46.0944 59.134C46.3054 58.9473 46.441 58.6899 46.4758 58.4103C47.2064 52.4986 41.708 51.6845 37.2896 51.0307C34.3871 50.6011 31.3859 50.1573 30.2917 48.537C29.7254 47.6991 29.6379 46.5118 30.0235 44.9079C30.0591 44.7603 30.0652 44.6071 30.0415 44.4571C30.0178 44.3071 29.9649 44.1633 29.8856 44.0338C29.8063 43.9043 29.7023 43.7917 29.5795 43.7024C29.4567 43.6131 29.3175 43.5489 29.1699 43.5134Z" fill="black"/>
<path d="M43.6406 67.7844C43.6882 67.79 43.7361 67.7928 43.784 67.7928C44.0658 67.7923 44.3378 67.689 44.5488 67.5022C44.7598 67.3154 44.8954 67.058 44.9301 66.7783C45.5793 61.521 40.8708 60.4336 37.0876 59.5596C34.6413 58.9945 32.1114 58.4102 31.1877 56.9163C30.7 56.1281 30.6288 55.0566 30.9693 53.6395C31.0048 53.4919 31.0109 53.3387 30.9872 53.1887C30.9635 53.0387 30.9105 52.8949 30.8313 52.7654C30.752 52.6359 30.648 52.5233 30.5252 52.434C30.4024 52.3447 30.2632 52.2805 30.1156 52.245C29.968 52.2095 29.8148 52.2034 29.6649 52.227C29.5149 52.2507 29.3711 52.3037 29.2416 52.383C29.1121 52.4622 28.9995 52.5662 28.9102 52.689C28.8209 52.8118 28.7566 52.951 28.7211 53.0986C28.2288 55.1463 28.392 56.7932 29.2208 58.1329C30.652 60.4466 33.6589 61.141 36.567 61.8128C41.0599 62.8505 42.9919 63.607 42.6345 66.4948C42.5971 66.7992 42.682 67.106 42.8707 67.3478C43.0593 67.5896 43.3363 67.7467 43.6406 67.7844Z" fill="black"/>
<path d="M36.8926 70.1038C40.2699 70.6678 41.2212 71.0777 41.0202 72.7019C40.9828 73.0063 41.0677 73.3131 41.2564 73.5549C41.445 73.7967 41.7219 73.9537 42.0263 73.9914C42.0739 73.997 42.1218 73.9999 42.1697 73.9999C42.4515 73.9993 42.7234 73.8959 42.9344 73.7091C43.1454 73.5223 43.281 73.265 43.3158 72.9854C43.8188 68.9165 40.0361 68.2841 37.2742 67.8229C35.5613 67.5366 33.7902 67.2402 33.2127 66.368C33.0671 66.0704 32.9826 65.7467 32.9642 65.4159C32.9458 65.0852 32.9938 64.7541 33.1054 64.4422C33.1409 64.2946 33.147 64.1414 33.1233 63.9915C33.0997 63.8415 33.0467 63.6976 32.9674 63.5682C32.8881 63.4387 32.7841 63.3261 32.6613 63.2368C32.5386 63.1475 32.3994 63.0832 32.2518 63.0477C32.1042 63.0122 31.951 63.0061 31.801 63.0298C31.6511 63.0535 31.5072 63.1064 31.3777 63.1857C31.2482 63.265 31.1356 63.369 31.0463 63.4918C30.957 63.6145 30.8928 63.7537 30.8573 63.9013C30.6618 64.5203 30.5988 65.1734 30.6724 65.8183C30.7459 66.4632 30.9543 67.0854 31.2841 67.6445C32.4167 69.3557 34.6925 69.7356 36.8926 70.1038Z" fill="black"/>
<path d="M29.4844 7.51563C29.4844 9.00208 29.9252 10.4551 30.751 11.6911C31.5768 12.927 32.7506 13.8903 34.1239 14.4592C35.4972 15.028 37.0083 15.1768 38.4662 14.8868C39.9241 14.5969 41.2633 13.8811 42.3144 12.83C43.3654 11.7789 44.0812 10.4397 44.3712 8.98186C44.6612 7.52397 44.5124 6.01282 43.9435 4.63952C43.3747 3.26622 42.4114 2.09244 41.1755 1.26661C39.9395 0.440784 38.4865 0 37 0C35.0074 0.00230278 33.0972 0.794865 31.6882 2.20382C30.2792 3.61278 29.4867 5.52307 29.4844 7.51563ZM42.2031 7.51563C42.2031 8.54471 41.898 9.55068 41.3262 10.4063C40.7545 11.262 39.9419 11.9289 38.9912 12.3227C38.0404 12.7165 36.9942 12.8195 35.9849 12.6188C34.9756 12.418 34.0485 11.9225 33.3208 11.1948C32.5932 10.4671 32.0976 9.54002 31.8969 8.53071C31.6961 7.5214 31.7991 6.47523 32.1929 5.52448C32.5868 4.57373 33.2537 3.76111 34.1093 3.18939C34.965 2.61766 35.9709 2.3125 37 2.3125C38.3795 2.31401 39.7021 2.86268 40.6775 3.83812C41.653 4.81357 42.2016 6.13614 42.2031 7.51563Z" fill="black"/>
<path d="M72.8438 6.35938H47.9844C47.6777 6.35939 47.3837 6.48121 47.1668 6.69805C46.95 6.91489 46.8282 7.20897 46.8281 7.51563C46.8281 10.1222 45.7927 12.622 43.9496 14.4652C42.1064 16.3083 39.6066 17.3438 37 17.3438C34.3934 17.3438 31.8936 16.3083 30.0505 14.4652C28.2073 12.622 27.1719 10.1222 27.1719 7.51563C27.1719 7.20897 27.0501 6.91489 26.8332 6.69805C26.6164 6.48121 26.3223 6.35939 26.0156 6.35938H1.15625C0.849599 6.35939 0.555511 6.48121 0.338675 6.69805C0.121839 6.91489 1.53315e-05 7.20897 0 7.51563C0.00277961 9.15829 0.504946 10.7613 1.43988 12.1119C2.3748 13.4626 3.6983 14.4971 5.23478 15.0781C5.37141 16.8207 6.06775 18.4725 7.21993 19.7869C8.37211 21.1014 9.91838 22.0082 11.6281 22.3719C11.8478 24.1472 12.6489 25.7999 13.9065 27.072C15.1641 28.3441 16.8075 29.1642 18.5801 29.4043C18.8166 31.1474 19.6143 32.7661 20.8524 34.0157C22.0905 35.2652 23.7017 36.0777 25.4426 36.3303C25.6263 42.3169 31.8943 43.0499 36.991 43.6439C40.4846 44.051 44.0973 44.4716 45.5262 46.2912C46.1495 47.0845 46.3669 48.1594 46.1919 49.5765C46.1732 49.7272 46.1843 49.88 46.2247 50.0264C46.2651 50.1727 46.3339 50.3097 46.4272 50.4294C46.5206 50.5491 46.6366 50.6493 46.7686 50.7242C46.9007 50.7992 47.0462 50.8473 47.1968 50.866C47.2446 50.8721 47.2926 50.8751 47.3408 50.875C47.6225 50.8746 47.8943 50.7714 48.1053 50.5847C48.3162 50.3979 48.4517 50.1406 48.4863 49.861C48.7381 47.8291 48.3542 46.1478 47.3447 44.8629C45.3213 42.2861 41.2225 41.8085 37.2586 41.3467C31.6235 40.6899 28.0171 40.0616 27.7735 36.4219H35.8438V38.8453C36.4236 38.9212 36.9947 38.988 37.5268 39.05C37.7363 39.0744 37.9461 39.099 38.1563 39.1239V36.4219H47.4063C49.3647 36.4186 51.2556 35.7059 52.7289 34.4157C54.2023 33.1255 55.1583 31.3451 55.4199 29.4043C57.1926 29.1642 58.8359 28.3441 60.0935 27.072C61.3511 25.7999 62.1523 24.1472 62.372 22.3719C64.0817 22.0082 65.6279 21.1014 66.7801 19.7869C67.9323 18.4725 68.6286 16.8207 68.7653 15.0781C70.3017 14.4971 71.6252 13.4626 72.5602 12.112C73.4951 10.7613 73.9973 9.15829 74 7.51563C74 7.20897 73.8782 6.91489 73.6614 6.69805C73.4445 6.48121 73.1504 6.35939 72.8438 6.35938ZM20.9288 29.4844H24.2813C24.5879 29.4844 24.882 29.3626 25.0989 29.1457C25.3157 28.9289 25.4375 28.6348 25.4375 28.3281C25.4375 28.0215 25.3157 27.7274 25.0989 27.5105C24.882 27.2937 24.5879 27.1719 24.2813 27.1719H19.6563C18.3241 27.1701 17.0333 26.7092 16.0014 25.8667C14.9695 25.0242 14.2596 23.8517 13.9913 22.5469H17.9219C18.2285 22.5469 18.5226 22.4251 18.7395 22.2082C18.9563 21.9914 19.0781 21.6973 19.0781 21.3906C19.0781 21.084 18.9563 20.7899 18.7395 20.573C18.5226 20.3562 18.2285 20.2344 17.9219 20.2344H13.2969C11.9647 20.2326 10.6739 19.7717 9.642 18.9292C8.61009 18.0867 7.90018 16.9142 7.63193 15.6094H12.7188C13.0254 15.6094 13.3195 15.4876 13.5363 15.2707C13.7532 15.0539 13.875 14.7598 13.875 14.4531C13.875 14.1465 13.7532 13.8524 13.5363 13.6355C13.3195 13.4187 13.0254 13.2969 12.7188 13.2969H8.09375C6.76161 13.2951 5.47079 12.8342 4.43888 11.9917C3.40696 11.1492 2.69705 9.97674 2.4288 8.67188H24.918C25.1902 11.4772 26.4288 14.1008 28.4218 16.0938C30.4148 18.0868 33.0384 19.3254 35.8438 19.5977V34.1094H26.5938C25.2616 34.1076 23.9708 33.6467 22.9389 32.8042C21.907 31.9617 21.1971 30.7892 20.9288 29.4844ZM65.9063 13.2969H61.2813C60.9746 13.2969 60.6805 13.4187 60.4637 13.6355C60.2468 13.8524 60.125 14.1465 60.125 14.4531C60.125 14.7598 60.2468 15.0539 60.4637 15.2707C60.6805 15.4876 60.9746 15.6094 61.2813 15.6094H66.3681C66.0999 16.9142 65.39 18.0867 64.358 18.9292C63.3261 19.7717 62.0353 20.2326 60.7032 20.2344H56.0782C55.7715 20.2344 55.4774 20.3562 55.2606 20.573C55.0437 20.7899 54.9219 21.084 54.9219 21.3906C54.9219 21.6973 55.0437 21.9914 55.2606 22.2082C55.4774 22.4251 55.7715 22.5469 56.0782 22.5469H60.0087C59.7405 23.8517 59.0306 25.0242 57.9987 25.8667C56.9667 26.7092 55.6759 27.1701 54.3438 27.1719H49.7188C49.4121 27.1719 49.118 27.2937 48.9012 27.5105C48.6843 27.7274 48.5625 28.0215 48.5625 28.3281C48.5625 28.6348 48.6843 28.9289 48.9012 29.1457C49.118 29.3626 49.4121 29.4844 49.7188 29.4844H53.0712C52.803 30.7892 52.0931 31.9617 51.0612 32.8042C50.0292 33.6467 48.7384 34.1076 47.4063 34.1094H38.1563V19.5977C40.9616 19.3254 43.5852 18.0868 45.5782 16.0938C47.5712 14.1008 48.8098 11.4772 49.0821 8.67188H71.5712C71.303 9.97674 70.5931 11.1492 69.5612 11.9917C68.5293 12.8342 67.2384 13.2951 65.9063 13.2969Z" fill="black"/>
</svg>
