<svg width="74" height="74" viewBox="0 0 74 74" fill="none" xmlns="http://www.w3.org/2000/svg">
<g clip-path="url(#clip0_30_303)">
<path d="M47.2068 19.2316C49.1991 19.2316 50.8201 17.6107 50.8201 15.6183C50.8201 13.6259 49.1991 12.0049 47.2068 12.0049C45.2144 12.0049 43.5935 13.6259 43.5935 15.6183C43.5935 16.432 43.8641 17.1836 44.3198 17.7883L38.383 26.0845C38.0288 25.9682 37.6508 25.9043 37.258 25.9043C36.3085 25.9043 35.444 26.273 34.7985 26.874L30.8414 24.6285C30.8941 24.3834 30.9224 24.1293 30.9224 23.8687C30.9224 21.8764 29.3015 20.2554 27.3092 20.2554C25.3168 20.2554 23.6959 21.8764 23.6959 23.8687C23.6959 24.1293 23.7242 24.3834 23.777 24.6285L19.8198 26.874C19.1744 26.273 18.3098 25.9045 17.3604 25.9045C15.368 25.9045 13.7471 27.5255 13.7471 29.5179C13.7471 31.5102 15.368 33.1313 17.3604 33.1313C19.3527 33.1313 20.9736 31.5102 20.9736 29.5179C20.9736 29.2573 20.9453 29.0032 20.8926 28.7581L24.8497 26.5126C25.4951 27.1136 26.3597 27.4823 27.3092 27.4823C28.2586 27.4823 29.123 27.1136 29.7687 26.5128L33.7258 28.7582C33.673 29.0033 33.6447 29.2574 33.6447 29.518C33.6447 31.5104 35.2656 33.1315 37.258 33.1315C39.2505 33.1315 40.8714 31.5104 40.8714 29.518C40.8714 28.7042 40.6007 27.9525 40.145 27.3477L46.0817 19.0515C46.4358 19.1677 46.8139 19.2316 47.2068 19.2316ZM47.2068 14.1729C48.0037 14.1729 48.6521 14.8212 48.6521 15.6183C48.6521 16.4153 48.0037 17.0636 47.2068 17.0636C46.4098 17.0636 45.7615 16.4153 45.7615 15.6183C45.7613 14.8212 46.4097 14.1729 47.2068 14.1729ZM17.3599 30.963C16.563 30.963 15.9146 30.3147 15.9146 29.5176C15.9146 28.7205 16.563 28.0721 17.3599 28.0721C18.1569 28.0721 18.8052 28.7205 18.8052 29.5176C18.8052 30.3147 18.1569 30.963 17.3599 30.963ZM27.3089 25.314C26.5119 25.314 25.8636 24.6657 25.8636 23.8686C25.8636 23.0716 26.5119 22.4233 27.3089 22.4233C28.1058 22.4233 28.7542 23.0716 28.7542 23.8686C28.7543 24.6657 28.1058 25.314 27.3089 25.314ZM37.2578 30.963C36.4609 30.963 35.8125 30.3147 35.8125 29.5176C35.8125 28.7205 36.4609 28.0721 37.2578 28.0721C38.0549 28.0721 38.7033 28.7205 38.7033 29.5176C38.7033 30.3147 38.0548 30.963 37.2578 30.963Z" fill="#1B3F2E"/>
<path d="M60.5291 54.4831H52.9432H11.6244H3.06623C2.57092 54.4831 2.16797 54.0801 2.16797 53.5848V8.86408C2.16797 8.36877 2.57092 7.96582 3.06623 7.96582H8.17628C8.77493 7.96582 9.26026 7.48063 9.26026 6.88184C9.26026 6.28304 8.77493 5.79785 8.17628 5.79785H3.06623C1.3755 5.79785 0 7.17336 0 8.86408V53.5848C0 55.2755 1.3755 56.651 3.06623 56.651H10.5404V59.0367C10.5404 60.3957 11.646 61.5014 13.0051 61.5014H23.8556L18.7479 71.4737C18.475 72.0066 18.6856 72.6597 19.2185 72.9328C19.3766 73.0138 19.5454 73.0521 19.7118 73.0521C20.1056 73.0521 20.4856 72.8368 20.6774 72.462L26.2914 61.5014H38.2762L43.8902 72.462C44.0822 72.8368 44.462 73.0521 44.8559 73.0521C45.0222 73.0521 45.191 73.0136 45.3491 72.9328C45.882 72.6597 46.0928 72.0066 45.8197 71.4737L40.712 61.5014H51.5625C52.9216 61.5014 54.0272 60.3958 54.0272 59.0367V56.651H60.5291C61.1278 56.651 61.6131 56.1658 61.6131 55.567C61.6131 54.9683 61.1278 54.4831 60.5291 54.4831ZM51.8593 59.0367C51.8593 59.2003 51.7261 59.3334 51.5625 59.3334H13.0051C12.8415 59.3334 12.7083 59.2003 12.7083 59.0367V56.651H51.8593V59.0367Z" fill="#1B3F2E"/>
<path d="M12.5127 7.9659H27.352H37.2164H61.5017C61.997 7.9659 62.4 8.36886 62.4 8.86416V19.1708C62.4 19.7696 62.8853 20.2548 63.484 20.2548C64.0826 20.2548 64.5679 19.7696 64.5679 19.1708V8.86416C64.5679 7.17344 63.1924 5.79793 61.5017 5.79793H38.3005V3.66725C38.3005 2.16774 37.0805 0.947754 35.5809 0.947754H28.9877C27.4882 0.947754 26.268 2.16774 26.268 3.66725V5.79793H12.5127C11.914 5.79793 11.4287 6.28313 11.4287 6.88192C11.4287 7.48071 11.914 7.9659 12.5127 7.9659ZM28.436 3.66725C28.436 3.36316 28.6834 3.11572 28.9877 3.11572H35.5809C35.885 3.11572 36.1326 3.36316 36.1326 3.66725V5.79793H28.4361V3.66725H28.436Z" fill="#1B3F2E"/>
<path d="M15.1611 38.6731C14.5625 38.6731 14.0771 39.1583 14.0771 39.7571V49.3355C14.0771 49.9342 14.5625 50.4194 15.1611 50.4194H19.5588C20.1574 50.4194 20.6428 49.9342 20.6428 49.3355V39.7571C20.6428 39.1583 20.1574 38.6731 19.5588 38.6731H15.1611ZM18.4748 48.2516H16.2451V40.8412H18.4748V48.2516Z" fill="#1B3F2E"/>
<path d="M25.1104 33.1333C24.5117 33.1333 24.0264 33.6185 24.0264 34.2173V49.3354C24.0264 49.9342 24.5117 50.4194 25.1104 50.4194H29.508C30.1067 50.4194 30.592 49.9342 30.592 49.3354V34.2173C30.592 33.6185 30.1067 33.1333 29.508 33.1333H25.1104ZM28.4242 48.2514H26.1945V35.3013H28.4242V48.2514Z" fill="#1B3F2E"/>
<path d="M35.0596 38.6731C34.4609 38.6731 33.9756 39.1583 33.9756 39.7571V49.3355C33.9756 49.9342 34.4609 50.4194 35.0596 50.4194H39.4572C40.0559 50.4194 40.5412 49.9342 40.5412 49.3355V39.7571C40.5412 39.1583 40.0559 38.6731 39.4572 38.6731H35.0596ZM38.3732 48.2516H36.1436V40.8412H38.3732V48.2516Z" fill="#1B3F2E"/>
<path d="M45.0088 45.0693C44.4101 45.0693 43.9248 45.5545 43.9248 46.1533V49.3355C43.9248 49.9343 44.4101 50.4194 45.0088 50.4194H49.4064C50.0051 50.4194 50.4904 49.9343 50.4904 49.3355C50.4904 48.7367 50.0051 48.2515 49.4064 48.2515H46.0928V46.1533C46.0928 45.5545 45.6074 45.0693 45.0088 45.0693Z" fill="#1B3F2E"/>
<path d="M73.4473 55.5026L67.2285 44.7312C68.8041 43.0519 69.9514 41 70.5642 38.7129C71.5437 35.0576 71.041 31.2395 69.1488 27.9621C65.2427 21.1962 56.5605 18.8703 49.795 22.7762C43.0294 26.6822 40.7032 35.3643 44.6093 42.13C46.5015 45.4073 49.5567 47.7516 53.212 48.7313C54.4328 49.0584 55.6712 49.2201 56.9019 49.2201C57.9775 49.2201 59.0469 49.0964 60.0927 48.8515L66.3102 59.6231C67.0723 60.9437 68.4601 61.6827 69.8855 61.6826C70.584 61.6826 71.2916 61.5049 71.939 61.1315C73.2103 60.3977 74.0001 59.0294 74.0001 57.5607C74.0001 56.8411 73.809 56.1295 73.4473 55.5026ZM53.7731 46.6372C50.6771 45.8076 48.0893 43.8218 46.4866 41.046C43.1782 35.3156 45.1486 27.9621 50.8789 24.6537C52.764 23.5654 54.824 23.0485 56.8587 23.0485C61.0089 23.0485 65.0512 25.201 67.2712 29.0461C68.8737 31.822 69.2995 35.0557 68.4699 38.1519C67.6403 41.248 65.6546 43.8356 62.8787 45.4383C60.103 47.041 56.8693 47.4665 53.7731 46.6372ZM70.8554 59.2537C69.9227 59.7923 68.726 59.4717 68.1879 58.5395L62.2061 48.176C62.8056 47.9313 63.3927 47.6451 63.963 47.3159C64.5338 46.9864 65.0743 46.6195 65.5861 46.2224L71.5697 56.5863C71.7414 56.8841 71.8321 57.2212 71.8321 57.5608C71.8321 58.2572 71.4578 58.906 70.8554 59.2537Z" fill="#1B3F2E"/>
<path d="M66.7068 38.1C67.4721 35.6349 67.2899 32.9958 66.1936 30.6688C65.9384 30.1271 65.2926 29.895 64.7511 30.1501C64.2093 30.4053 63.9772 31.0511 64.2325 31.5926C65.0972 33.4282 65.2407 35.5107 64.6364 37.457C64.0288 39.414 62.7162 41.0563 60.9403 42.0816C59.0611 43.1667 56.8716 43.4546 54.7758 42.8931C52.6798 42.3315 50.9278 40.9872 49.8429 39.108C47.6031 35.2286 48.9372 30.2504 52.8165 28.0106C55.653 26.3732 59.173 26.592 61.7848 28.568C62.2624 28.9294 62.9421 28.8353 63.3033 28.3577C63.6645 27.8804 63.5704 27.2005 63.0928 26.8393C59.7844 24.3359 55.325 24.0588 51.7324 26.133C49.3517 27.5075 47.6487 29.7269 46.9371 32.3822C46.2256 35.0375 46.5908 37.8111 47.9653 40.1918C49.3398 42.5727 51.5593 44.2756 54.2146 44.9872C55.1013 45.2248 56.0011 45.3423 56.8951 45.3423C58.6783 45.3423 60.4385 44.8746 62.0242 43.959C64.2741 42.6603 65.9371 40.5796 66.7068 38.1Z" fill="#1B3F2E"/>
</g>
<defs>
<clipPath id="clip0_30_303">
<rect width="74" height="74" fill="white"/>
</clipPath>
</defs>
</svg>
