<svg width="750" height="500" viewBox="0 0 750 500" fill="none" xmlns="http://www.w3.org/2000/svg">
<path d="M101.498 195.077C120.418 184.458 141.027 176.053 159.628 166.265C191.553 149.466 223.017 131.665 253.353 112.131C293.931 86.0017 334.738 65.6247 382.773 57.3877C436.233 48.2208 492.331 52.5567 543.446 70.8867C543.913 71.0527 544.379 71.2207 544.844 71.3917C585.387 86.1647 622.613 111.221 648.84 145.779C679.351 185.98 693.3 235.227 691.539 285.356C691.089 298.161 689.97 310.938 688.503 323.664C673.052 457.584 498.783 470.461 426.671 466.169C354.561 461.877 210.213 416.731 171.708 421.529C130.003 426.725 84.0299 412.008 56.5149 379.416C23.664 340.504 27.044 280.802 52.4299 238.897C64.2909 219.317 81.9969 206.022 101.498 195.077Z" fill="#DAEBE3"/>
<path d="M639.548 71.1528H530.801V203.772H639.548V71.1528Z" stroke="#1B3F2E" stroke-miterlimit="10" stroke-linecap="round" stroke-linejoin="round"/>
<path d="M632.444 79.8169H537.905V195.109H632.444V79.8169Z" stroke="#1B3F2E" stroke-miterlimit="10" stroke-linecap="round" stroke-linejoin="round"/>
<path d="M601.936 117.024H568.416V157.902H601.936V117.024Z" stroke="#1B3F2E" stroke-miterlimit="10" stroke-linecap="round" stroke-linejoin="round"/>
<path d="M274.228 224.644V55.4131" stroke="#1B3F2E" stroke-miterlimit="10" stroke-linecap="round" stroke-linejoin="round"/>
<path d="M52.0605 318.034H274.227V232.224" stroke="#1B3F2E" stroke-miterlimit="10" stroke-linecap="round" stroke-linejoin="round"/>
<path d="M505.796 179.609V56.2192" stroke="#1B3F2E" stroke-miterlimit="10" stroke-linecap="round" stroke-linejoin="round"/>
<path d="M283.628 62.7861V318.034H505.796V185.406" stroke="#1B3F2E" stroke-miterlimit="10" stroke-linecap="round" stroke-linejoin="round"/>
<path d="M283.628 55.4131V58.3271" stroke="#1B3F2E" stroke-miterlimit="10" stroke-linecap="round" stroke-linejoin="round"/>
<path d="M146.55 425.416H130.35V443.706H146.55V425.416Z" fill="white" stroke="#1B3F2E" stroke-miterlimit="10" stroke-linecap="round" stroke-linejoin="round"/>
<path d="M198.225 346.655H78.6758V427.281H198.225V346.655Z" fill="white" stroke="#1B3F2E" stroke-miterlimit="10" stroke-linecap="round" stroke-linejoin="round"/>
<path d="M194.602 350.134H82.2988V423.8H194.602V350.134Z" fill="#147E5D" stroke="#1B3F2E" stroke-miterlimit="10" stroke-linecap="round" stroke-linejoin="round"/>
<path d="M362.178 340.039H292.901C286.378 340.039 280.748 344.612 279.411 350.996L260.022 443.565H357.464L375.67 356.647C377.463 348.084 370.927 340.039 362.178 340.039Z" fill="#1B3F2E" stroke="#1B3F2E" stroke-miterlimit="10" stroke-linecap="round" stroke-linejoin="round"/>
<path d="M573.514 244.988C573.514 244.988 569.053 257.256 559.574 258.928C550.095 260.601 533.366 242.2 543.961 232.72C554.555 223.241 569.053 238.296 573.514 244.988Z" fill="#147E5D" stroke="#1B3F2E" stroke-miterlimit="10" stroke-linecap="round" stroke-linejoin="round"/>
<path d="M588.012 184.765C588.012 184.765 574.071 218.78 579.648 235.508C585.224 252.236 619.797 264.504 629.834 242.757C639.871 221.01 617.566 190.341 609.202 183.649C600.837 176.958 590.8 179.189 588.012 184.765Z" fill="#147E5D" stroke="#1B3F2E" stroke-miterlimit="10" stroke-linecap="round" stroke-linejoin="round"/>
<path d="M669.424 199.263C669.424 199.263 645.446 221.01 642.658 242.757C639.87 264.504 656.041 272.311 672.769 269.523C689.498 266.735 697.862 224.356 692.843 204.839C687.826 185.323 669.424 199.263 669.424 199.263Z" fill="#147E5D" stroke="#1B3F2E" stroke-miterlimit="10" stroke-linecap="round" stroke-linejoin="round"/>
<path d="M673.885 319.709C673.885 319.709 647.119 320.825 646.004 333.65C644.889 346.475 657.714 349.263 670.539 338.111C683.365 326.958 685.037 320.266 673.885 319.709Z" fill="#147E5D" stroke="#1B3F2E" stroke-miterlimit="10" stroke-linecap="round" stroke-linejoin="round"/>
<path d="M646.447 336.706C646.447 336.706 667.541 327.055 677.041 325.379" stroke="#1B3F2E" stroke-miterlimit="10" stroke-linecap="round" stroke-linejoin="round"/>
<path d="M679.852 403.63C679.852 403.63 660.191 385.434 650.309 393.684C640.427 401.935 647.491 412.996 664.442 414.23C681.393 415.463 687.319 411.932 679.852 403.63Z" fill="#147E5D" stroke="#1B3F2E" stroke-miterlimit="10" stroke-linecap="round" stroke-linejoin="round"/>
<path d="M648.454 396.152C648.454 396.152 670.17 404.309 678.055 409.864" stroke="#1B3F2E" stroke-miterlimit="10" stroke-linecap="round" stroke-linejoin="round"/>
<path d="M576.144 398.27C576.144 398.27 603.246 373.187 616.868 384.56C630.491 395.934 620.752 411.181 597.386 412.882C574.019 414.582 565.851 409.715 576.144 398.27Z" fill="#147E5D" stroke="#1B3F2E" stroke-miterlimit="10" stroke-linecap="round" stroke-linejoin="round"/>
<path d="M619.426 387.963C619.426 387.963 589.491 399.207 578.621 406.865" stroke="#1B3F2E" stroke-miterlimit="10" stroke-linecap="round" stroke-linejoin="round"/>
<path d="M607.528 346.474C607.528 346.474 604.74 359.857 594.703 364.875C584.666 369.894 566.822 359.299 576.301 343.128C585.781 326.958 602.51 339.783 607.528 346.474Z" fill="#147E5D" stroke="#1B3F2E" stroke-miterlimit="10" stroke-linecap="round" stroke-linejoin="round"/>
<path d="M584.109 304.653C584.109 304.653 579.09 293.501 559.574 300.75C540.057 307.999 532.251 319.151 544.518 323.055C556.785 326.958 584.109 304.653 584.109 304.653Z" fill="#147E5D" stroke="#1B3F2E" stroke-miterlimit="10" stroke-linecap="round" stroke-linejoin="round"/>
<path d="M580.373 304.145C580.373 304.145 559.697 306.38 548.522 315.879" stroke="#1B3F2E" stroke-miterlimit="10" stroke-linecap="round" stroke-linejoin="round"/>
<path d="M639.87 170.825C639.87 170.825 643.216 178.632 649.907 176.959C656.598 175.286 658.271 165.249 668.866 168.037C679.461 170.825 688.382 183.092 688.382 177.516C688.382 171.94 674.999 157.442 659.944 157.442C644.889 157.442 640.428 163.576 639.87 170.825Z" fill="#147E5D" stroke="#1B3F2E" stroke-miterlimit="10" stroke-linecap="round" stroke-linejoin="round"/>
<path d="M584.109 304.653C584.109 304.653 608.12 300.044 618.118 326.707C619.099 329.323 619.928 332.059 620.624 334.867" stroke="#1B3F2E" stroke-miterlimit="10" stroke-linecap="round" stroke-linejoin="round"/>
<path d="M684.315 278.823C684.315 278.823 689.334 267.671 708.851 274.92C728.368 282.169 736.174 293.322 723.906 297.225C711.639 301.128 684.315 278.823 684.315 278.823Z" fill="#147E5D" stroke="#1B3F2E" stroke-miterlimit="10" stroke-linecap="round" stroke-linejoin="round"/>
<path d="M688.775 279.559C688.775 279.559 708.891 278.441 718.39 290.176" stroke="#1B3F2E" stroke-miterlimit="10" stroke-linecap="round" stroke-linejoin="round"/>
<path d="M684.315 278.823C684.315 278.823 676.356 277.295 667.694 281.087" stroke="#1B3F2E" stroke-miterlimit="10" stroke-linecap="round" stroke-linejoin="round"/>
<path d="M596.908 258.819C585.139 246.802 573.514 244.987 573.514 244.987C573.514 244.987 556.344 240.443 549.639 246.59" stroke="#1B3F2E" stroke-miterlimit="10" stroke-linecap="round" stroke-linejoin="round"/>
<path d="M599.297 197.049L598.253 192.389" stroke="#1B3F2E" stroke-miterlimit="10" stroke-linecap="round" stroke-linejoin="round"/>
<path d="M626.449 443.566C626.449 443.566 628.949 347.537 626.449 318.374C623.949 289.211 612.284 255.049 612.284 255.049L600.401 201.986" stroke="#1B3F2E" stroke-miterlimit="10" stroke-linecap="round" stroke-linejoin="round"/>
<path d="M676.01 217.667L678.158 213.063" stroke="#1B3F2E" stroke-miterlimit="10" stroke-linecap="round" stroke-linejoin="round"/>
<path d="M632.282 443.46C632.282 443.46 633.115 355.869 636.448 330.873C639.781 305.876 653.112 266.715 653.112 266.715L673.571 222.888" stroke="#1B3F2E" stroke-miterlimit="10" stroke-linecap="round" stroke-linejoin="round"/>
<path d="M646.446 336.706C646.446 336.706 640.613 386.923 637.281 443.582" stroke="#1B3F2E" stroke-miterlimit="10" stroke-linecap="round" stroke-linejoin="round"/>
<path d="M618.118 443.46C618.118 443.46 619.785 363.368 616.452 352.537C613.119 341.705 607.529 346.475 607.529 346.475C607.529 346.475 592.107 348.289 586.519 357.23" stroke="#1B3F2E" stroke-miterlimit="10" stroke-linecap="round" stroke-linejoin="round"/>
<path d="M621.945 341.106C626.304 365.532 622.283 443.545 622.283 443.545" stroke="#1B3F2E" stroke-miterlimit="10" stroke-linecap="round" stroke-linejoin="round"/>
<path d="M662.97 283.708C658.145 287.011 653.508 292.342 650.306 300.878C640.308 327.541 641.448 443.582 641.448 443.582" stroke="#1B3F2E" stroke-miterlimit="10" stroke-linecap="round" stroke-linejoin="round"/>
<path d="M599.81 261.998C605.019 268.114 610.069 276.384 613.952 287.545C627.283 325.873 632.283 425.129 629.783 443.46" stroke="#1B3F2E" stroke-miterlimit="10" stroke-linecap="round" stroke-linejoin="round"/>
<path d="M633.668 297.868C632.857 346.241 632.282 443.461 632.282 443.461" stroke="#1B3F2E" stroke-miterlimit="10" stroke-linecap="round" stroke-linejoin="round"/>
<path d="M633.771 291.849C634.321 259.863 634.969 228.559 635.617 211.723C637.283 168.396 639.871 170.825 639.871 170.825C639.871 170.825 642.957 161.097 660.279 162.215" stroke="#1B3F2E" stroke-miterlimit="10" stroke-linecap="round" stroke-linejoin="round"/>
<path d="M612.432 328.376C612.432 328.376 598.491 315.945 604.068 309.831C609.644 303.717 644.217 299.234 654.254 307.182C664.291 315.13 641.986 326.339 633.622 328.784C625.258 331.23 615.221 330.414 612.432 328.376Z" fill="#147E5D" stroke="#1B3F2E" stroke-miterlimit="10" stroke-linecap="round" stroke-linejoin="round"/>
<path d="M625.294 318.197C625.107 319.456 624.996 320.707 624.996 321.909" stroke="#1B3F2E" stroke-miterlimit="10" stroke-linecap="round" stroke-linejoin="round"/>
<path d="M630.099 303.685C630.099 303.685 628.025 307.834 626.521 312.919" stroke="#1B3F2E" stroke-miterlimit="10" stroke-linecap="round" stroke-linejoin="round"/>
<path d="M612.432 409.657C612.432 409.657 598.491 397.225 604.068 391.112C609.644 384.998 644.217 380.515 654.254 388.463C664.291 396.411 641.986 407.62 633.622 410.065C625.258 412.511 615.221 411.695 612.432 409.657Z" fill="#147E5D" stroke="#1B3F2E" stroke-miterlimit="10" stroke-linecap="round" stroke-linejoin="round"/>
<path d="M630.1 384.966C630.1 384.966 624.997 395.172 624.997 403.19" stroke="#1B3F2E" stroke-miterlimit="10" stroke-linecap="round" stroke-linejoin="round"/>
<path d="M622.81 375.282C622.81 375.282 613.345 366.842 617.131 362.691C620.917 358.54 644.39 355.496 651.205 360.892C658.02 366.288 642.876 373.899 637.197 375.559C631.518 377.219 624.703 376.665 622.81 375.282Z" fill="#147E5D" stroke="#1B3F2E" stroke-miterlimit="10" stroke-linecap="round" stroke-linejoin="round"/>
<path d="M634.807 358.517C634.807 358.517 631.342 365.446 631.342 370.891" stroke="#1B3F2E" stroke-miterlimit="10" stroke-linecap="round" stroke-linejoin="round"/>
<path d="M228.689 374.69C228.689 374.69 217.028 392.933 217.425 393.726C217.822 394.519 225.357 403.442 225.951 403.839C226.546 404.236 230.115 404.037 230.115 404.037L236.064 399.08C236.064 399.08 236.064 397.89 235.469 396.899C234.874 395.907 233.09 395.709 233.09 395.709C233.09 395.709 236.263 387.976 236.064 385.993C235.866 384.01 235.489 378.043 235.489 378.043L228.689 374.69Z" fill="white" stroke="#1B3F2E" stroke-miterlimit="10" stroke-linecap="round" stroke-linejoin="round"/>
<path d="M233.09 395.709L229.124 399.873" stroke="#1B3F2E" stroke-miterlimit="10" stroke-linecap="round" stroke-linejoin="round"/>
<path d="M230.828 270.511C230.828 270.511 269.205 336.271 269.205 337.166C269.205 338.061 235.488 378.042 235.488 378.042L228.688 374.689L243.544 334.48L224.15 321.053L230.828 270.511Z" fill="white" stroke="#1B3F2E" stroke-miterlimit="10" stroke-linecap="round" stroke-linejoin="round"/>
<path d="M229.101 301.75L238.058 330.581L227.422 323.583L229.101 301.75Z" fill="#1B3F2E" stroke="#1B3F2E" stroke-miterlimit="10" stroke-linecap="round" stroke-linejoin="round"/>
<path d="M260.161 331.312L243.545 334.481L252.506 328.547" stroke="#1B3F2E" stroke-miterlimit="10" stroke-linecap="round" stroke-linejoin="round"/>
<path d="M230.391 370.012L239.322 373.202" stroke="#1B3F2E" stroke-miterlimit="10" stroke-linecap="round" stroke-linejoin="round"/>
<path d="M229.889 295.159L225.194 337.881L226.133 389.054H144.991L143.583 365.58C143.583 365.58 117.292 284.596 117.527 281.779C117.762 278.962 161.346 257.601 161.346 257.601L198.2 256.427L230.829 270.511L231.064 282.013" fill="white"/>
<path d="M229.889 295.159L225.194 337.881L226.133 389.054H144.991L143.583 365.58C143.583 365.58 117.292 284.596 117.527 281.779C117.762 278.962 161.346 257.601 161.346 257.601L198.2 256.427L230.829 270.511L231.064 282.013" stroke="#1B3F2E" stroke-miterlimit="10" stroke-linecap="round" stroke-linejoin="round"/>
<path d="M180.232 270.822L187.811 279.995L182.625 380.508L192.198 391.676L204.164 379.312L192.597 280.394L195.389 266.833L191.001 255.665L171.457 257.26L180.232 270.822Z" fill="#147E5D" stroke="#1B3F2E" stroke-miterlimit="10" stroke-linecap="round" stroke-linejoin="round"/>
<path d="M159.468 223.798L164.397 247.977L183.176 263.939L195.617 253.61L195.148 241.404H189.749L166.275 229.667L159.468 223.798Z" fill="white" stroke="#1B3F2E" stroke-miterlimit="10" stroke-linecap="round" stroke-linejoin="round"/>
<path d="M187.402 259.948L191.392 277.788L202.425 260.183L195.383 248.681L195.617 253.61L187.402 259.948Z" fill="white" stroke="#1B3F2E" stroke-miterlimit="10" stroke-linecap="round" stroke-linejoin="round"/>
<path d="M164.397 247.977L158.294 258.774L181.768 278.962L183.88 261.826L164.397 247.977Z" fill="white" stroke="#1B3F2E" stroke-miterlimit="10" stroke-linecap="round" stroke-linejoin="round"/>
<path d="M157.027 217.089C157.027 217.089 154.495 211.441 151.964 214.168C149.432 216.895 152.353 224.295 155.664 226.242C158.975 228.189 161.117 227.216 161.117 227.216C161.117 227.216 166.765 236.564 167.933 237.343C169.101 238.122 186.629 246.107 188.966 246.886C191.303 247.665 199.093 244.939 200.651 242.796C202.209 240.654 201.04 219.426 200.651 213.194C200.262 206.962 195.977 182.424 195.198 181.061C194.419 179.698 195.977 165.286 192.277 165.286C188.577 165.286 185.071 167.233 185.071 167.233C185.071 167.233 187.408 162.949 184.681 164.312C181.954 165.675 177.67 168.791 162.09 174.634C146.51 180.476 151.574 190.019 151.963 190.993C152.353 191.967 157.027 217.089 157.027 217.089Z" fill="white" stroke="#1B3F2E" stroke-miterlimit="10" stroke-linecap="round" stroke-linejoin="round"/>
<path d="M157.013 217.089C157.013 217.089 156.879 216.784 156.651 216.357L157.013 217.089Z" stroke="#1B3F2E" stroke-miterlimit="10" stroke-linecap="round" stroke-linejoin="round"/>
<path d="M195.07 180.607C194.607 177.803 195.726 165.286 192.277 165.286C188.577 165.286 185.071 167.233 185.071 167.233C185.071 167.233 187.408 162.949 184.681 164.312C181.954 165.675 177.67 168.791 162.09 174.634C146.51 180.476 151.574 190.019 151.963 190.993C152.352 191.967 157.027 217.089 157.027 217.089L160.532 215.92C160.532 215.92 157.806 207.741 159.169 206.377C160.532 205.014 163.064 203.456 163.064 202.677C163.064 201.898 159.753 194.498 161.701 192.355C163.384 190.505 188.324 182.695 195.07 180.607Z" fill="#1B3F2E" stroke="#1B3F2E" stroke-miterlimit="10" stroke-linecap="round" stroke-linejoin="round"/>
<path d="M190.134 202.094L193.445 224.295L188.188 222.932" stroke="#1B3F2E" stroke-miterlimit="10" stroke-linecap="round" stroke-linejoin="round"/>
<path d="M182.734 203.651C182.734 203.651 175.723 202.677 171.828 205.014" stroke="#1B3F2E" stroke-width="2" stroke-miterlimit="10" stroke-linecap="round" stroke-linejoin="round"/>
<path d="M191.498 197.225C191.498 197.225 192.277 190.798 197.146 192.94" stroke="#1B3F2E" stroke-width="2" stroke-miterlimit="10" stroke-linecap="round" stroke-linejoin="round"/>
<path d="M177.671 227.801C177.671 227.801 182.929 229.943 186.824 230.138" stroke="#1B3F2E" stroke-miterlimit="10" stroke-linecap="round" stroke-linejoin="round"/>
<path d="M181.176 209.884C181.176 211.175 180.566 212.221 179.813 212.221C179.06 212.221 178.45 211.175 178.45 209.884C178.45 208.593 179.06 207.547 179.813 207.547C180.566 207.547 181.176 208.593 181.176 209.884Z" fill="#1B3F2E" stroke="#1B3F2E" stroke-miterlimit="10" stroke-linecap="round" stroke-linejoin="round"/>
<path d="M197.924 205.015C197.924 206.306 197.314 207.352 196.561 207.352C195.808 207.352 195.198 206.306 195.198 205.015C195.198 203.724 195.808 202.678 196.561 202.678C197.314 202.678 197.924 203.724 197.924 205.015Z" fill="#1B3F2E" stroke="#1B3F2E" stroke-miterlimit="10" stroke-linecap="round" stroke-linejoin="round"/>
<path d="M182.404 249.223C182.404 249.223 179.677 244.549 180.457 244.354C181.236 244.159 190.973 241.238 190.779 239.68C190.584 238.122 187.663 236.759 185.326 237.343C182.989 237.927 171.109 240.264 171.499 242.017C171.889 243.77 175.589 254.286 176.952 256.818C178.315 259.35 179.873 280.772 179.873 280.772H189.805L190.194 274.54C190.194 274.54 195.258 273.566 195.842 272.203C196.426 270.84 196.037 266.75 196.037 266.75C196.037 266.75 200.516 265.971 200.516 264.997C200.516 264.023 201.879 255.26 200.516 254.091C199.153 252.922 189.61 246.885 187.857 246.885C186.105 246.886 182.404 249.223 182.404 249.223Z" fill="white" stroke="#1B3F2E" stroke-miterlimit="10" stroke-linecap="round" stroke-linejoin="round"/>
<path d="M196.037 266.75L196.232 262.855L197.984 261.882" stroke="#1B3F2E" stroke-miterlimit="10" stroke-linecap="round" stroke-linejoin="round"/>
<path d="M182.403 249.223L178.314 251.949" stroke="#1B3F2E" stroke-miterlimit="10" stroke-linecap="round" stroke-linejoin="round"/>
<path d="M156.631 283.422L177.992 319.572L179.873 280.773H189.805C189.805 280.773 196.067 320.746 197.475 330.605C198.884 340.464 198.649 350.558 197.24 352.67C195.832 354.783 189.573 361.772 187.226 361.772C184.879 361.772 177.757 357.835 176.583 355.957C175.981 354.993 161.356 346.907 148.888 334.006C137.066 321.773 124.854 304.041 124.854 304.041" fill="white"/>
<path d="M156.631 283.422L177.992 319.572L179.873 280.773H189.805C189.805 280.773 196.067 320.746 197.475 330.605C198.884 340.464 198.649 350.558 197.24 352.67C195.832 354.783 189.573 361.772 187.226 361.772C184.879 361.772 177.757 357.835 176.583 355.957C175.981 354.993 161.356 346.907 148.888 334.006C137.066 321.773 124.854 304.041 124.854 304.041" stroke="#1B3F2E" stroke-miterlimit="10" stroke-linecap="round" stroke-linejoin="round"/>
<path d="M177.991 319.571L175.409 342.576" stroke="#1B3F2E" stroke-miterlimit="10" stroke-linecap="round" stroke-linejoin="round"/>
<path d="M179.4 286.474H189.963" stroke="#1B3F2E" stroke-miterlimit="10" stroke-linecap="round" stroke-linejoin="round"/>
<path d="M144.991 389.054V443.566H227.604L226.133 389.054H144.991Z" fill="#1B3F2E" stroke="#1B3F2E" stroke-miterlimit="10" stroke-linecap="round" stroke-linejoin="round"/>
<path d="M387.49 184.761C387.49 184.761 375.278 188.049 371.99 196.034C368.702 204.019 371.051 205.663 371.755 205.428C372.459 205.193 374.104 202.14 374.104 202.14C374.104 202.14 371.521 209.421 374.809 212.474C378.097 215.527 383.499 219.754 383.499 219.754C383.499 219.754 382.794 229.148 379.976 235.02C377.158 240.891 373.165 247.467 375.279 250.051C377.393 252.634 379.976 248.877 379.976 248.877C379.976 248.877 382.325 254.748 390.544 256.862C398.764 258.976 415.894 261.929 422.94 260.99C429.986 260.051 434.697 255.923 434.697 255.923C434.697 255.923 432.583 259.916 436.341 257.567C440.099 255.218 442.447 252.165 446.205 243.711C449.963 235.256 452.311 221.87 450.432 211.536C448.553 201.202 439.394 192.513 433.288 187.581C427.182 182.649 414.735 177.952 403.461 179.126C392.187 180.299 387.49 184.761 387.49 184.761Z" fill="#1B3F2E" stroke="#1B3F2E" stroke-miterlimit="10" stroke-linecap="round" stroke-linejoin="round"/>
<path d="M446.547 277.424L449.63 316.163L433.342 346.304L426.538 332.449L446.547 277.424Z" fill="#147E5D" stroke="#1B3F2E" stroke-miterlimit="10" stroke-linecap="round" stroke-linejoin="round"/>
<path d="M435.171 309.909L430.454 340.162L426.388 333.493L435.171 309.909Z" fill="#1B3F2E" stroke="#1B3F2E" stroke-miterlimit="10" stroke-linecap="round" stroke-linejoin="round"/>
<path d="M341.477 443.566L344.813 406.203L442.892 410.206L444.56 442.899L341.477 443.566Z" fill="#1B3F2E" stroke="#1B3F2E" stroke-miterlimit="10" stroke-linecap="round" stroke-linejoin="round"/>
<path d="M393.09 198.108C393.09 198.108 391.569 208.104 393.307 209.842C395.045 211.58 403.738 215.709 403.738 215.709C403.738 215.709 402.652 204.626 402.652 203.974C402.652 203.322 408.737 218.968 411.779 220.924C414.821 222.88 420.471 227.661 420.471 227.661C420.471 227.661 421.34 230.269 422.209 230.051C423.078 229.833 425.034 227.878 425.034 227.878C425.034 227.878 431.336 226.14 430.684 231.138C430.032 236.136 425.686 242.872 423.078 243.307C420.47 243.742 418.515 243.524 418.515 243.524C418.515 243.524 415.038 253.955 414.603 257.431C414.168 260.908 413.951 261.56 414.386 262.864C414.821 264.168 424.817 268.949 426.99 269.601C429.163 270.253 446.547 277.424 446.547 277.424L425.903 335.227L447.199 411.501C447.199 411.501 415.255 418.889 384.832 416.064C354.409 413.239 341.806 406.72 341.806 406.72L367.665 333.488L358.321 270.687L392.655 264.385L393.307 256.562C393.307 256.562 384.832 254.172 382.007 248.087C379.077 241.777 381.79 230.702 382.007 227.443C382.224 224.183 382.442 219.62 382.007 215.926C381.572 212.232 383.311 200.715 393.09 198.108Z" fill="#147E5D" stroke="#1B3F2E" stroke-miterlimit="10" stroke-linecap="round" stroke-linejoin="round"/>
<path d="M377.769 325.108C377.769 325.108 401.326 339.242 402.268 339.556" stroke="#1B3F2E" stroke-miterlimit="10" stroke-linecap="round" stroke-linejoin="round"/>
<path d="M387.191 334.217L403.837 345.524" stroke="#1B3F2E" stroke-miterlimit="10" stroke-linecap="round" stroke-linejoin="round"/>
<path d="M423.082 267.961C419.408 266.25 414.682 263.752 414.386 262.865C413.952 261.561 414.169 260.909 414.603 257.432C415.038 253.955 418.515 243.525 418.515 243.525C418.515 243.525 420.471 243.742 423.078 243.308C425.686 242.873 430.032 236.137 430.684 231.139C431.336 226.141 425.034 227.879 425.034 227.879C425.034 227.879 423.078 229.835 422.209 230.052C421.34 230.269 420.471 227.662 420.471 227.662C420.471 227.662 414.821 222.881 411.779 220.925C408.737 218.969 402.652 203.323 402.652 203.975C402.652 204.627 403.738 215.709 403.738 215.709C403.738 215.709 395.046 211.58 393.307 209.842C391.569 208.104 393.09 198.108 393.09 198.108C383.311 200.716 381.573 212.233 382.007 215.927C382.441 219.621 382.224 224.185 382.007 227.444C381.79 230.703 379.077 241.778 382.007 248.088C384.832 254.173 393.307 256.563 393.307 256.563L392.655 264.386L383.055 266.148L378.583 291.801L414.066 294.316L423.082 267.961Z" fill="white" stroke="#1B3F2E" stroke-miterlimit="10" stroke-linecap="round" stroke-linejoin="round"/>
<path d="M392.645 264.386L392.363 271.13" stroke="#1B3F2E" stroke-miterlimit="10" stroke-linecap="round" stroke-linejoin="round"/>
<path d="M414.545 249.718C414.545 249.718 409.749 254.274 402.075 254.994" stroke="#1B3F2E" stroke-miterlimit="10" stroke-linecap="round" stroke-linejoin="round"/>
<path d="M391.134 240.265C391.134 240.265 397.87 242.873 403.303 237.223" stroke="#1B3F2E" stroke-miterlimit="10" stroke-linecap="round" stroke-linejoin="round"/>
<path d="M393.746 217.249C393.746 217.249 394.01 218.04 393.746 220.939C393.482 223.839 388.265 231.503 389.846 232.294C391.428 233.085 392.796 232.75 395.959 233.013" stroke="#1B3F2E" stroke-miterlimit="10" stroke-linecap="round" stroke-linejoin="round"/>
<path d="M390.074 221.516C390.074 222.878 389.391 223.982 388.547 223.982C387.703 223.982 387.02 222.878 387.02 221.516C387.02 220.154 387.703 219.05 388.547 219.05C389.391 219.05 390.074 220.154 390.074 221.516Z" fill="#1B3F2E"/>
<path d="M404.634 223.042C404.634 224.404 403.95 225.508 403.107 225.508C402.264 225.508 401.58 224.404 401.58 223.042C401.58 221.68 402.264 220.576 403.107 220.576C403.951 220.576 404.634 221.68 404.634 223.042Z" fill="#1B3F2E"/>
<path d="M385.846 215.997C385.846 215.997 389.369 213.414 392.187 214.823" stroke="#1B3F2E" stroke-miterlimit="10" stroke-linecap="round" stroke-linejoin="round"/>
<path d="M401.346 215.527C401.346 215.527 406.513 214.822 408.392 219.05" stroke="#1B3F2E" stroke-miterlimit="10" stroke-linecap="round" stroke-linejoin="round"/>
<path d="M358.321 270.688L354.276 298.786L341.946 324.427L317.396 287.61C317.396 287.61 316.558 281.743 315.161 279.508C313.764 277.273 309.014 276.155 306.221 274.2C303.427 272.244 301.471 266.098 299.236 268.333C297.001 270.568 298.398 274.48 299.236 275.597C300.074 276.715 306.5 282.023 306.5 282.023L290.854 287.052C290.854 287.052 278.561 281.185 277.443 283.42C276.326 285.655 286.384 296.272 290.295 297.39C294.206 298.507 309.852 295.993 309.852 295.993C309.852 295.993 327.454 339.019 331.365 343.769C335.276 348.519 340.306 354.386 341.424 354.106C342.542 353.827 366.73 328.346 366.73 328.346L358.321 270.688Z" fill="white" stroke="#1B3F2E" stroke-miterlimit="10" stroke-linecap="round" stroke-linejoin="round"/>
<path d="M311.804 291.368C311.804 291.368 307.672 288.451 306.213 288.451C304.755 288.451 290.17 290.882 290.17 290.882C290.17 290.882 282.635 286.75 281.176 287.479" stroke="#1B3F2E" stroke-miterlimit="10" stroke-linecap="round" stroke-linejoin="round"/>
<path d="M353.355 342.509C360.077 335.692 366.73 328.344 366.73 328.344L358.321 270.687L354.276 298.785L341.946 324.426L353.355 342.509Z" fill="#147E5D" stroke="#1B3F2E" stroke-miterlimit="10" stroke-linecap="round" stroke-linejoin="round"/>
<path d="M451.572 305.467C451.572 305.467 452.301 293.07 454.975 291.125C457.649 289.18 466.4 286.507 467.372 284.805C468.344 283.104 469.803 283.833 469.56 286.02C469.317 288.208 466.643 291.368 465.914 291.611C465.185 291.854 461.538 294.042 461.538 294.042C461.538 294.042 464.455 296.473 465.184 296.716C465.913 296.959 475.393 298.904 475.393 298.904C475.393 298.904 484.873 291.125 484.873 293.07C484.873 295.015 478.553 306.925 477.824 308.384C477.095 309.842 471.747 310.329 469.559 310.572C467.371 310.815 456.919 311.787 456.919 311.787C456.919 311.787 454.245 339.255 454.002 345.575C453.759 351.895 449.627 357.729 447.439 359.187C445.251 360.645 433.098 350.193 433.341 346.304C433.584 342.415 448.654 311.544 448.654 311.544L451.572 305.467Z" fill="white" stroke="#1B3F2E" stroke-miterlimit="10" stroke-linecap="round" stroke-linejoin="round"/>
<path d="M454.627 307.554C454.627 307.554 456.92 302.793 460.323 303.523C463.726 304.252 473.936 305.468 473.936 305.468C473.936 305.468 478.554 299.391 480.499 299.148" stroke="#1B3F2E" stroke-miterlimit="10" stroke-linecap="round" stroke-linejoin="round"/>
<path d="M599.367 340.039H530.089C523.566 340.039 517.936 344.612 516.599 350.996L497.21 443.565H594.652L612.858 356.647C614.651 348.084 608.116 340.039 599.367 340.039Z" fill="#1B3F2E" stroke="#1B3F2E" stroke-miterlimit="10" stroke-linecap="round" stroke-linejoin="round"/>
<path d="M516.666 336.521L472.315 357.529L459.583 414.4C459.583 414.4 454.066 414.612 453.853 416.098C453.641 417.584 454.065 420.554 454.065 420.554C454.065 420.554 450.245 420.766 449.821 424.161C449.397 427.556 449.821 431.164 450.458 432.861C451.095 434.559 457.461 442.41 459.371 442.622C461.281 442.834 463.615 443.259 464.252 443.471C464.889 443.683 573.113 443.471 573.113 443.471C573.113 443.471 577.357 443.047 578.418 442.198C579.479 441.349 579.691 439.439 579.691 439.439C579.691 439.439 582.662 437.105 582.874 435.619C583.086 434.134 581.813 425.009 581.813 423.099C581.813 421.189 589.452 365.804 589.877 361.984C590.302 358.164 589.028 356.679 587.967 355.618C586.906 354.557 575.235 347.766 570.142 345.644C565.049 343.522 547.567 335.776 547.567 335.776L516.666 336.521Z" fill="white" stroke="#1B3F2E" stroke-miterlimit="10" stroke-linecap="round" stroke-linejoin="round"/>
<path d="M521.335 374.388C522.427 373.842 546.29 345.845 553.067 337.879C549.881 336.474 546.579 335.546 546.579 335.546L516.666 336.191L507.897 340.706C510.176 347.941 516.99 366.498 518.364 369.931C520.062 374.175 520.062 375.024 521.335 374.388Z" fill="#147E5D" stroke="#1B3F2E" stroke-miterlimit="10" stroke-linecap="round" stroke-linejoin="round"/>
<path d="M511.978 273.373C511.978 273.373 503.813 283.102 503.813 286.75C503.813 290.398 505.376 294.394 503.639 296.479C501.902 298.564 492.173 303.081 494.084 305.513C495.995 307.945 498.949 309.856 498.949 309.856L498.601 315.415C498.601 315.415 502.076 328.966 503.987 329.661C505.898 330.356 511.979 330.182 511.979 330.182C511.979 330.182 519.623 360.585 521.534 360.932C523.445 361.28 546.58 335.545 546.58 335.545L545.683 325.317C545.683 325.317 554.717 310.55 557.149 303.774C559.581 296.999 554.717 282.926 547.768 276.498C540.819 270.07 526.747 269.028 521.535 269.549C516.322 270.072 511.978 273.373 511.978 273.373Z" fill="white" stroke="#1B3F2E" stroke-miterlimit="10" stroke-linecap="round" stroke-linejoin="round"/>
<path d="M506.978 288.165C506.978 288.165 511.458 286.75 514.585 289.53" stroke="#1B3F2E" stroke-width="2" stroke-miterlimit="10" stroke-linecap="round" stroke-linejoin="round"/>
<path d="M511.919 296.51C511.5 297.786 510.644 298.652 510.005 298.442C509.367 298.233 509.189 297.028 509.607 295.752C510.026 294.476 510.882 293.611 511.521 293.82C512.16 294.029 512.337 295.234 511.919 296.51Z" fill="#1B3F2E" stroke="#1B3F2E" stroke-miterlimit="10" stroke-linecap="round" stroke-linejoin="round"/>
<path d="M513.195 265.207C513.195 265.207 497.212 267.987 501.034 271.114C504.856 274.241 525.878 279.801 530.395 281.364C534.912 282.928 522.751 285.707 524.488 287.097C526.225 288.487 529.7 295.089 529.7 295.089C529.7 295.089 529.005 303.775 526.747 308.466C524.488 313.157 513.891 319.411 513.891 319.411C513.891 319.411 508.332 311.941 505.378 311.941C502.425 311.941 498.255 312.636 498.603 315.416C498.951 318.196 500.167 325.666 500.34 326.361C500.514 327.056 498.255 334.005 500.688 335.569C503.12 337.133 515.629 332.094 521.188 329.662C526.747 327.23 529.353 326.014 529.701 322.539C530.049 319.064 535.434 303.429 535.434 303.429C535.434 303.429 539.082 300.997 542.383 301.518C545.684 302.039 545.684 309.336 542.73 311.942C539.777 314.548 535.955 317.154 535.955 317.154L545.684 325.319C545.684 325.319 567.053 303.776 567.4 295.437C567.748 287.098 557.15 272.331 552.633 267.64C548.115 262.949 522.055 261.733 513.195 265.207Z" fill="#1B3F2E" stroke="#1B3F2E" stroke-miterlimit="10" stroke-linecap="round" stroke-linejoin="round"/>
<path d="M498.787 317.613C498.787 317.613 504.318 315.511 505.892 315.805C508.81 316.351 511.651 319.453 510.63 321.836C509.725 323.949 508.213 326.064 506.263 327.039C504.313 328.014 503.5 328.502 503.175 327.527C502.85 326.552 501.985 325.588 501.009 325.426C500.034 325.263 500.338 326.361 500.338 326.361C500.338 326.361 499.437 318.913 498.787 317.613Z" fill="white" stroke="#1B3F2E" stroke-miterlimit="10" stroke-linecap="round" stroke-linejoin="round"/>
<path d="M500.723 319.969C500.723 319.969 503.738 320.113 507.328 318.102" stroke="#1B3F2E" stroke-miterlimit="10" stroke-linecap="round" stroke-linejoin="round"/>
<path d="M457.037 420.86C457.037 420.86 465.737 422.133 469.345 430.197" stroke="#1B3F2E" stroke-miterlimit="10" stroke-linecap="round" stroke-linejoin="round"/>
<path d="M462.554 416.616C462.554 416.616 469.769 418.526 472.103 421.497" stroke="#1B3F2E" stroke-miterlimit="10" stroke-linecap="round" stroke-linejoin="round"/>
<path d="M558.093 381.217L551.893 417.889C551.893 417.889 542.132 419.587 542.132 422.558C542.132 425.529 547.437 433.168 547.437 433.168" stroke="#1B3F2E" stroke-miterlimit="10" stroke-linecap="round" stroke-linejoin="round"/>
<path d="M559.093 374.6L558.72 376.927" stroke="#1B3F2E" stroke-miterlimit="10" stroke-linecap="round" stroke-linejoin="round"/>
<path d="M569.995 413.54C571.057 413.572 572.105 413.671 573.113 413.857" stroke="#1B3F2E" stroke-miterlimit="10" stroke-linecap="round" stroke-linejoin="round"/>
<path d="M554.439 416.404C554.439 416.404 560.495 414.103 566.933 413.618" stroke="#1B3F2E" stroke-miterlimit="10" stroke-linecap="round" stroke-linejoin="round"/>
<path d="M570.566 419.163C570.566 419.163 577.569 422.134 580.327 431.683" stroke="#1B3F2E" stroke-miterlimit="10" stroke-linecap="round" stroke-linejoin="round"/>
<path d="M573.113 443.142C573.113 443.142 573.75 438.473 568.02 431.046C562.291 423.619 556.773 422.982 555.288 423.619C553.802 424.256 513.484 438.898 513.484 438.898C513.484 438.898 488.656 424.68 486.534 425.741C484.412 426.802 471.043 443.354 471.043 443.354L573.113 443.142Z" fill="white" stroke="#1B3F2E" stroke-miterlimit="10" stroke-linecap="round" stroke-linejoin="round"/>
<path d="M476.771 443.354L490.14 429.349" stroke="#1B3F2E" stroke-miterlimit="10" stroke-linecap="round" stroke-linejoin="round"/>
<path d="M483.987 442.717L496.082 431.895" stroke="#1B3F2E" stroke-miterlimit="10" stroke-linecap="round" stroke-linejoin="round"/>
<path d="M493.324 443.565L501.6 435.501" stroke="#1B3F2E" stroke-miterlimit="10" stroke-linecap="round" stroke-linejoin="round"/>
<path d="M502.661 442.929L506.056 440.17" stroke="#1B3F2E" stroke-miterlimit="10" stroke-linecap="round" stroke-linejoin="round"/>
<path d="M481.167 373.67L481.839 368.87" stroke="#1B3F2E" stroke-miterlimit="10" stroke-linecap="round" stroke-linejoin="round"/>
<path d="M471.042 443.354L480.266 379.875" stroke="#1B3F2E" stroke-miterlimit="10" stroke-linecap="round" stroke-linejoin="round"/>
<path d="M466.586 443.354C466.586 443.354 465.313 430.834 459.371 428.075C453.429 425.316 446.639 428.499 444.092 429.136C441.545 429.773 418.627 443.566 418.627 443.566L466.586 443.354Z" fill="white" stroke="#1B3F2E" stroke-miterlimit="10" stroke-linecap="round" stroke-linejoin="round"/>
<path d="M438.575 435.715C438.575 435.715 432.421 431.047 429.662 428.712C426.903 426.378 425.206 426.166 419.688 426.802C414.171 427.439 410.139 443.354 410.139 443.354H430.723L438.575 435.715Z" fill="white" stroke="#1B3F2E" stroke-miterlimit="10" stroke-linecap="round" stroke-linejoin="round"/>
<path d="M435.604 433.38C435.604 433.38 427.965 441.868 428.813 442.505C429.662 443.142 433.694 442.929 433.694 442.929C433.694 442.929 440.697 437.624 440.909 436.139C441.122 434.654 435.604 433.38 435.604 433.38Z" fill="white" stroke="#1B3F2E" stroke-miterlimit="10" stroke-linecap="round" stroke-linejoin="round"/>
<path d="M426.267 428.5L418.628 443.566L414.384 442.717C414.384 442.717 419.053 428.287 419.689 426.802C420.326 425.316 423.721 424.892 426.692 426.802" fill="white"/>
<path d="M426.267 428.5L418.628 443.566L414.384 442.717C414.384 442.717 419.053 428.287 419.689 426.802C420.326 425.316 423.721 424.892 426.692 426.802" stroke="#1B3F2E" stroke-miterlimit="10" stroke-linecap="round" stroke-linejoin="round"/>
<path d="M419.689 426.802C419.689 426.802 413.39 426.096 412.447 427.563C411.504 429.03 410.14 443.354 410.14 443.354L414.384 442.717L419.689 426.802Z" fill="white" stroke="#1B3F2E" stroke-miterlimit="10" stroke-linecap="round" stroke-linejoin="round"/>
<path d="M411.714 428.296C411.714 428.296 406.687 429.972 406.477 431.333C406.267 432.695 406.582 443.063 406.582 443.063L410.14 443.353L411.714 428.296Z" fill="white" stroke="#1B3F2E" stroke-miterlimit="10" stroke-linecap="round" stroke-linejoin="round"/>
<path d="M406.372 432.799C406.372 432.799 401.449 436.465 401.135 437.303C400.821 438.141 398.202 441.074 399.25 441.283C400.297 441.492 403.963 438.665 403.963 438.665L406.162 437.722L406.372 432.799Z" fill="white" stroke="#1B3F2E" stroke-miterlimit="10" stroke-linecap="round" stroke-linejoin="round"/>
<path d="M689.758 443.566H33.5635" stroke="#1B3F2E" stroke-miterlimit="10" stroke-linecap="round" stroke-linejoin="round"/>
<path d="M473.958 441.481H402.368V443.566H473.958V441.481Z" fill="#DAEBE3" stroke="#1B3F2E" stroke-miterlimit="10" stroke-linecap="round" stroke-linejoin="round"/>
<path d="M389.902 385.637H304.304L317.937 443.567H403.536L389.902 385.637Z" fill="#DAEBE3" stroke="#1B3F2E" stroke-miterlimit="10" stroke-linecap="round" stroke-linejoin="round"/>
<path d="M354.833 415.693C354.833 418.678 352.413 421.098 349.428 421.098C346.443 421.098 344.023 418.678 344.023 415.693C344.023 412.708 346.443 410.288 349.428 410.288C352.413 410.288 354.833 412.708 354.833 415.693Z" fill="#147E5D" stroke="#1B3F2E" stroke-miterlimit="10" stroke-linecap="round" stroke-linejoin="round"/>
<path d="M106.451 414.249C106.451 414.249 101.384 410.794 97.4693 413.558C93.5533 416.322 93.0933 430.141 97.4693 434.978C99.9843 437.758 106.682 435.439 106.682 435.439L107.143 428.76C107.143 428.76 102.922 432.986 100.694 428.53C99.3123 425.766 100.003 419.317 102.537 418.166C105.071 417.014 107.374 419.548 107.374 419.548L106.451 414.249Z" fill="#147E5D" stroke="#1B3F2E" stroke-miterlimit="10" stroke-linecap="round" stroke-linejoin="round"/>
<path d="M109.264 401.806C109.264 401.806 117.649 398.259 117.649 391.487C117.649 384.715 113.457 384.715 112.812 379.878" stroke="#1B3F2E" stroke-miterlimit="10" stroke-linecap="round" stroke-linejoin="round"/>
<path d="M119.26 379.555C119.26 379.555 118.615 383.425 122.807 386.65C126.999 389.875 125.064 395.035 123.129 397.614" stroke="#1B3F2E" stroke-miterlimit="10" stroke-linecap="round" stroke-linejoin="round"/>
<path d="M120.551 376.008C120.551 376.008 121.518 373.751 123.776 372.783" stroke="#1B3F2E" stroke-miterlimit="10" stroke-linecap="round" stroke-linejoin="round"/>
<path d="M136.374 404.815H105.172V443.566H136.374V404.815Z" fill="#147E5D" stroke="#1B3F2E" stroke-miterlimit="10" stroke-linecap="round" stroke-linejoin="round"/>
<path d="M147.045 112.906H145.579V103.43H125.48V112.906H124.014C109.294 112.906 97.3613 124.839 97.3613 139.559V142.214H173.698V139.559C173.699 124.839 161.765 112.906 147.045 112.906Z" fill="#147E5D" stroke="#147E5D" stroke-miterlimit="10" stroke-linecap="round" stroke-linejoin="round"/>
<path d="M135.53 104.727V49.0498" stroke="#147E5D" stroke-miterlimit="10" stroke-linecap="round" stroke-linejoin="round"/>
<path d="M453.44 112.906H451.974V103.43H431.875V112.906H430.409C415.689 112.906 403.756 124.839 403.756 139.559V142.214H480.092V139.559C480.092 124.839 468.159 112.906 453.44 112.906Z" fill="#1B3F2E" stroke="#1B3F2E" stroke-miterlimit="10" stroke-linecap="round" stroke-linejoin="round"/>
<path d="M441.924 104.727V49.0498" stroke="#1B3F2E" stroke-miterlimit="10" stroke-linecap="round" stroke-linejoin="round"/>
<path d="M355.611 149.832H306.788C300.672 149.832 295.715 154.79 295.715 160.906V181.498C295.715 187.614 300.673 192.571 306.788 192.571H345.202L353.964 203.395V192.571H355.612C361.728 192.571 366.685 187.613 366.685 181.498V160.906C366.684 154.79 361.726 149.832 355.611 149.832Z" fill="white" stroke="#1B3F2E" stroke-miterlimit="10" stroke-linecap="round" stroke-linejoin="round"/>
<path d="M320.071 170.922C320.071 172.586 318.722 173.935 317.058 173.935C315.394 173.935 314.045 172.586 314.045 170.922C314.045 169.258 315.394 167.909 317.058 167.909C318.722 167.909 320.071 169.258 320.071 170.922Z" fill="#147E5D" stroke="#1B3F2E" stroke-miterlimit="10" stroke-linecap="round" stroke-linejoin="round"/>
<path d="M331.199 173.935C332.863 173.935 334.212 172.586 334.212 170.922C334.212 169.258 332.863 167.909 331.199 167.909C329.535 167.909 328.186 169.258 328.186 170.922C328.186 172.586 329.535 173.935 331.199 173.935Z" fill="#147E5D" stroke="#1B3F2E" stroke-miterlimit="10" stroke-linecap="round" stroke-linejoin="round"/>
<path d="M345.34 173.935C347.004 173.935 348.353 172.586 348.353 170.922C348.353 169.258 347.004 167.909 345.34 167.909C343.676 167.909 342.327 169.258 342.327 170.922C342.327 172.586 343.676 173.935 345.34 173.935Z" fill="#147E5D" stroke="#1B3F2E" stroke-miterlimit="10" stroke-linecap="round" stroke-linejoin="round"/>
</svg>
